<?xml version="1.0" encoding="utf-8"?>
<!-- Generator: Adobe Illustrator 21.1.0, SVG Export Plug-In . SVG Version: 6.00 Build 0)  -->
<svg version="1.1" id="Calque_1" xmlns="http://www.w3.org/2000/svg" xmlns:xlink="http://www.w3.org/1999/xlink" x="0px" y="0px"
	 viewBox="0 0 132.2 127.1" style="enable-background:new 0 0 132.2 127.1;" xml:space="preserve">
<style type="text/css">
	.st0{fill:#FFF80D;}
	.st1{fill:#FFD00B;}
	.st2{fill:#FFAF10;}
	.st3{fill:#FF860D;}
	.st4{fill:#FFF9DE;}
	.st5{fill:#FFF3C2;}
	.st6{fill:#33363A;}
	.st7{fill:#A7BBC1;}
	.st8{fill:#FFFFFF;}
	.st9{fill:#D8E5EA;}
</style>
<g id="Layer_1">
	<g>
		<g>
			<polygon class="st0" points="124.8,37.1 128.3,21.5 108.8,30.6 116.6,40.7 89.9,52.5 74.1,40.1 81.5,27.6 66.1,1.5 50.8,27.6 
				58.1,40.1 42.4,52.5 15.7,40.7 23.4,30.6 3.9,21.5 7.5,37.1 7.4,37.1 10.9,52.5 19.1,94.9 113.2,94.9 121.3,52.6 			"/>
		</g>
		<g>
			<polygon class="st1" points="126.5,29.5 112.9,35.9 116.6,40.7 116.6,47.9 89.9,59.6 74.1,47.2 74.1,40.1 79.4,31.1 66.1,8.6 
				52.9,31.1 58.1,40.1 58.1,47.2 42.4,59.6 15.7,47.9 15.7,40.7 19.4,35.9 5.7,29.5 7.5,37.1 7.4,37.1 10.9,52.5 19.1,94.9 
				113.2,94.9 121.3,52.6 124.8,37.1 124.8,37.1 			"/>
		</g>
		<g>
			<circle class="st2" cx="66.1" cy="71.1" r="15.7"/>
		</g>
		<g>
			<path class="st3" d="M81.9,71.1c0,6.7-7,12.1-15.7,12.1s-15.7-5.4-15.7-12.1S57.5,59,66.2,59C74.8,59,81.9,64.4,81.9,71.1z"/>
		</g>
		<g>
			<path class="st4" d="M50.4,71.1c0,8.7,7,15.7,15.7,15.7s15.7-7,15.7-15.7H50.4z"/>
		</g>
		<g>
			<path class="st5" d="M66.1,83.1c8.7,0,15.7-5.4,15.7-12.1H50.4C50.4,77.7,57.4,83.1,66.1,83.1z"/>
		</g>
		<path class="st6" d="M129.3,20.3c-0.4-0.4-1.1-0.4-1.6-0.2l-19.5,9.1c-0.4,0.2-0.7,0.6-0.8,1c-0.1,0.4,0,0.9,0.3,1.3l6.6,8.6
			L90.1,50.7l-14-11l6.7-11.4c0.3-0.5,0.3-1.1,0-1.5L67.4,0.7C67.1,0.2,66.6,0,66.1,0s-1,0.3-1.3,0.7L49.5,26.8
			c-0.3,0.5-0.3,1.1,0,1.5l6.7,11.4l-14,11L18,40.1l6.6-8.6c0.3-0.4,0.4-0.8,0.3-1.3s-0.4-0.8-0.8-1L4.6,20.1C4,19.9,3.4,20,3,20.3
			c-0.4,0.4-0.6,0.9-0.5,1.5L6,37.2c0,0.1,0,0.1,0,0.2l3.5,15.4l8.1,42.4c0.1,0.7,0.8,1.2,1.5,1.2h94.1c0.7,0,1.3-0.5,1.5-1.2
			l8.1-42.3l3.5-15.5c0-0.1,0-0.1,0-0.2l3.5-15.4C129.9,21.3,129.7,20.7,129.3,20.3z M80.3,72.6c-0.8,7.1-6.8,12.7-14.2,12.7
			c-7.3,0-13.4-5.6-14.2-12.7H80.3z M52,69.6c0.8-7.1,6.8-12.7,14.2-12.7c7.3,0,13.4,5.6,14.2,12.7H52z M123.3,36.8
			c0,0.1,0,0.1,0,0.2l-3.5,15.3l-7.9,41.1H67.6v-5.2C76.4,87.4,83.3,80,83.3,71c0-9.5-7.7-17.2-17.2-17.2S48.9,61.5,48.9,71
			c0,9,6.9,16.4,15.7,17.2v5.2H20.3l-7.9-41.2L9,37c0-0.1,0-0.1,0-0.2L6.1,24.2l15,7l-6.6,8.6c-0.3,0.4-0.4,0.8-0.3,1.3
			c0.1,0.4,0.4,0.8,0.9,1l26.7,11.7c0.5,0.2,1.1,0.1,1.5-0.2l15.8-12.4c0.6-0.5,0.7-1.3,0.4-1.9l-6.9-11.8L66.2,4.4l13.6,23.1
			l-6.9,11.8c-0.4,0.6-0.2,1.5,0.4,1.9l15.8,12.4c0.4,0.3,1,0.4,1.5,0.2l26.7-11.7c0.4-0.2,0.7-0.6,0.9-1c0.1-0.4,0-0.9-0.3-1.3
			l-6.6-8.6l15-7L123.3,36.8z"/>
		<g>
			<g>
				<g>
					<path class="st6" d="M46.2,88.3h-2.4c-0.8,0-1.5-0.7-1.5-1.5s0.7-1.5,1.5-1.5h2.4c0.8,0,1.5,0.7,1.5,1.5S47,88.3,46.2,88.3z"/>
				</g>
				<g>
					<path class="st6" d="M38.9,88.3h-2.4c-0.8,0-1.5-0.7-1.5-1.5s0.7-1.5,1.5-1.5h2.4c0.8,0,1.5,0.7,1.5,1.5S39.7,88.3,38.9,88.3z"
						/>
				</g>
				<g>
					<path class="st6" d="M31.6,88.3H18.2c-0.8,0-1.5-0.7-1.5-1.5s0.7-1.5,1.5-1.5h13.5c0.8,0,1.5,0.7,1.5,1.5S32.5,88.3,31.6,88.3z
						"/>
				</g>
				<g>
					<path class="st6" d="M50.6,88.3c-0.4,0-0.8-0.2-1.1-0.4c-0.3-0.3-0.4-0.7-0.4-1.1s0.2-0.8,0.4-1.1c0.6-0.6,1.6-0.6,2.1,0
						c0.3,0.3,0.4,0.7,0.4,1.1s-0.2,0.8-0.4,1.1C51.4,88.2,51,88.3,50.6,88.3z"/>
				</g>
			</g>
			<g>
				<g>
					<path class="st6" d="M88.4,88.3H86c-0.8,0-1.5-0.7-1.5-1.5s0.7-1.5,1.5-1.5h2.4c0.8,0,1.5,0.7,1.5,1.5S89.2,88.3,88.4,88.3z"/>
				</g>
				<g>
					<path class="st6" d="M95.7,88.3h-2.4c-0.8,0-1.5-0.7-1.5-1.5s0.7-1.5,1.5-1.5h2.4c0.8,0,1.5,0.7,1.5,1.5S96.5,88.3,95.7,88.3z"
						/>
				</g>
				<g>
					<path class="st6" d="M114.1,88.3h-13.5c-0.8,0-1.5-0.7-1.5-1.5s0.7-1.5,1.5-1.5h13.5c0.8,0,1.5,0.7,1.5,1.5
						S114.9,88.3,114.1,88.3z"/>
				</g>
				<g>
					<path class="st6" d="M81.7,88.3c-0.4,0-0.8-0.2-1.1-0.4c-0.3-0.3-0.4-0.7-0.4-1.1s0.2-0.8,0.4-1.1c0.6-0.6,1.6-0.6,2.1,0
						c0.3,0.3,0.4,0.7,0.4,1.1s-0.2,0.8-0.4,1.1C82.4,88.2,82,88.3,81.7,88.3z"/>
				</g>
			</g>
		</g>
		<g>
			<g>
				<circle class="st7" cx="66.1" cy="72.9" r="5.2"/>
			</g>
			<g>
				<circle class="st8" cx="66.1" cy="71.1" r="5.2"/>
			</g>
			<g>
				<path class="st9" d="M62.4,74.8c-2-2-2-5.3,0-7.4c2-2,5.3-2,7.4,0"/>
			</g>
			<g>
				<path class="st6" d="M66.1,77.8c-1.8,0-3.5-0.7-4.7-2c-1.3-1.3-2-2.9-2-4.7s0.7-3.5,2-4.7c2.6-2.6,6.9-2.6,9.5,0l0,0
					c1.3,1.3,2,2.9,2,4.7c0,1.8-0.7,3.5-2,4.7C69.6,77.1,67.9,77.8,66.1,77.8z M66.1,67.4c-0.9,0-1.9,0.4-2.6,1.1
					c-0.7,0.7-1.1,1.6-1.1,2.6s0.4,1.9,1.1,2.6c1.4,1.4,3.8,1.4,5.2,0c0.7-0.7,1.1-1.6,1.1-2.6s-0.4-1.9-1.1-2.6l0,0
					C68,67.8,67.1,67.4,66.1,67.4z"/>
			</g>
		</g>
	</g>
</g>
<g id="label">
	<g>
		<g>
			<path class="st6" d="M0.3,108.1l6,9.2c0.5,0.8,1.5,1.3,2.3,0.8s0.8-1.5,0.2-2.4l-6-9.2c-0.5-0.8-1.6-1.1-2.2-0.7l0,0
				C-0.1,106.3-0.2,107.3,0.3,108.1z"/>
			<path class="st6" d="M15,105.8L15,105.8c-0.7-0.4-1.7-0.1-2.2,0.7l-6,9.2c-0.6,0.9-0.5,1.9,0.2,2.4c0.8,0.5,1.7,0.1,2.3-0.8
				l6-9.2C15.8,107.3,15.6,106.3,15,105.8z"/>
			<path class="st6" d="M6.4,116.4v8.9c0,1,0.6,1.9,1.5,1.9s1.5-0.8,1.5-1.9v-8.9c0-1-0.7-1.8-1.5-1.8l0,0
				C7.1,114.6,6.4,115.4,6.4,116.4z"/>
		</g>
		<path class="st6" d="M34.7,105.6H22.1c-0.8,0-1.5,0.7-1.5,1.5v18.5c0,0.8,0.7,1.5,1.5,1.5s11.9,0,12.7,0s1.5-0.7,1.5-1.5v-18.5
			C36.2,106.2,35.5,105.6,34.7,105.6z M23.6,124v-15.4h9.7v15.5L23.6,124L23.6,124z"/>
		<path class="st6" d="M101.8,105.6H89.2c-0.8,0-1.5,0.7-1.5,1.5v18.5c0,0.8,0.7,1.5,1.5,1.5s11.9,0,12.7,0s1.5-0.7,1.5-1.5v-18.5
			C103.3,106.2,102.6,105.6,101.8,105.6z M90.7,124v-15.4h9.7v15.5L90.7,124L90.7,124z"/>
		<path class="st6" d="M42.8,127.1h12.7c0.8,0,1.5-0.7,1.5-1.5v-18.5c0-0.8-0.7-1.5-1.5-1.5s-1.5,0.7-1.5,1.5V124h-9.7v-17.1
			c0-0.8-0.7-1.5-1.5-1.5s-1.5,0.7-1.5,1.5v18.6C41.3,126.4,41.9,127.1,42.8,127.1z"/>
		<g>
			<path class="st6" d="M68.5,127.1h12.7c0.8,0,1.5-0.7,1.5-1.5v-18.5c0-0.8-0.7-1.5-1.5-1.5s-1.5,0.7-1.5,1.5v17H70V107
				c0-0.8-0.7-1.5-1.5-1.5S67,106.2,67,107v18.6C67,126.5,67.6,127.1,68.5,127.1z"/>
			<path class="st6" d="M76.4,125.3v-17.8c0-1-0.6-1.9-1.5-1.9s-1.5,0.8-1.5,1.9v17.8c0,1,0.7,1.8,1.5,1.8l0,0
				C75.7,127.1,76.4,126.3,76.4,125.3z"/>
		</g>
		<path class="st6" d="M122.6,105.4h-12.7c-0.8,0-1.5,0.7-1.5,1.5v18.4c0,0.8,0.7,1.5,1.5,1.5s1.5-0.7,1.5-1.5v-16.8h9.7v17.1
			c0,0.8,0.7,1.5,1.5,1.5s1.5-0.7,1.5-1.5v-18.7C124.1,105.9,123.5,105.4,122.6,105.4z"/>
		<g>
			<path class="st6" d="M132.2,118.7v-11.4c0-1-0.6-1.9-1.5-1.9s-1.5,0.8-1.5,1.9v11.4c0,1,0.7,1.8,1.5,1.8l0,0
				C131.5,120.5,132.2,119.7,132.2,118.7z"/>
			<path class="st6" d="M132.2,125.2v-0.3c0-1-0.6-1.9-1.5-1.9s-1.5,0.8-1.5,1.9v0.3c0,1,0.7,1.8,1.5,1.8l0,0
				C131.5,127,132.2,126.2,132.2,125.2z"/>
		</g>
	</g>
</g>
</svg>
