<?xml version="1.0" encoding="utf-8"?>
<!-- Generator: Adobe Illustrator 21.1.0, SVG Export Plug-In . SVG Version: 6.00 Build 0)  -->
<svg version="1.1" xmlns="http://www.w3.org/2000/svg" xmlns:xlink="http://www.w3.org/1999/xlink" x="0px" y="0px"
	 viewBox="0 0 132.2 144.3" style="enable-background:new 0 0 132.2 144.3;" xml:space="preserve">
<style type="text/css">
	.st0{fill:#FFF80D;}
	.st1{fill:#FFD00B;}
	.st2{fill:#FFAF10;}
	.st3{fill:#FF860D;}
	.st4{fill:#FFF9DE;}
	.st5{fill:#FFF3C2;}
	.st6{fill:#33363A;}
	.st7{fill:#A7BBC1;}
	.st8{fill:#FFFFFF;}
	.st9{fill:#D8E5EA;}
</style>
<g id="Layer_1">
	<g>
		<g>
			<polygon class="st0" points="124.8,52.6 128.3,37 108.8,46.1 116.6,56.2 89.9,68 74.1,55.6 81.5,43.1 66.1,17 50.8,43.1 
				58.1,55.6 42.4,68 15.7,56.2 23.4,46.1 3.9,37 7.5,52.6 7.4,52.6 10.9,68 19.1,110.4 113.2,110.4 121.3,68.1 124.8,52.6 			"/>
		</g>
		<g>
			<polygon class="st1" points="126.5,45 112.9,51.4 116.6,56.2 116.6,63.4 89.9,75.1 74.1,62.7 74.1,55.6 79.4,46.6 66.1,24.1 
				52.9,46.6 58.1,55.6 58.1,62.7 42.4,75.1 15.7,63.4 15.7,56.2 19.4,51.4 5.7,45 7.5,52.6 7.4,52.6 10.9,68 19.1,110.4 
				113.2,110.4 121.3,68.1 124.8,52.6 124.8,52.6 			"/>
		</g>
		<g>
			<circle class="st2" cx="66.1" cy="86.6" r="15.7"/>
		</g>
		<g>
			<path class="st3" d="M81.9,86.6c0,6.7-7,12.1-15.7,12.1c-8.7,0-15.7-5.4-15.7-12.1c0-6.7,7-12.1,15.7-12.1
				C74.8,74.5,81.9,79.9,81.9,86.6z"/>
		</g>
		<g>
			<path class="st4" d="M50.4,86.6c0,8.7,7,15.7,15.7,15.7c8.7,0,15.7-7,15.7-15.7H50.4z"/>
		</g>
		<g>
			<path class="st5" d="M66.1,98.6c8.7,0,15.7-5.4,15.7-12.1H50.4C50.4,93.2,57.4,98.6,66.1,98.6z"/>
		</g>
		<path class="st6" d="M129.3,35.8c-0.4-0.4-1.1-0.4-1.6-0.2l-19.5,9.1c-0.4,0.2-0.7,0.6-0.8,1c-0.1,0.4,0,0.9,0.3,1.3l6.6,8.6
			L90.1,66.2l-14-11l6.7-11.4c0.3-0.5,0.3-1.1,0-1.5L67.4,16.2c-0.3-0.5-0.8-0.7-1.3-0.7s-1,0.3-1.3,0.7L49.5,42.3
			c-0.3,0.5-0.3,1.1,0,1.5l6.7,11.4l-14,11L18,55.6l6.6-8.6c0.3-0.4,0.4-0.8,0.3-1.3s-0.4-0.8-0.8-1L4.6,35.6
			C4,35.4,3.4,35.5,3,35.8c-0.4,0.4-0.6,0.9-0.5,1.5l3.5,15.4c0,0.1,0,0.1,0,0.2l3.5,15.4l8.1,42.4c0.1,0.7,0.8,1.2,1.5,1.2h94.1
			c0.7,0,1.3-0.5,1.5-1.2l8.1-42.3l3.5-15.5c0-0.1,0-0.1,0-0.2l3.5-15.4C129.9,36.8,129.7,36.2,129.3,35.8z M80.3,88.1
			c-0.8,7.1-6.8,12.7-14.2,12.7c-7.3,0-13.4-5.6-14.2-12.7H80.3z M52,85.1c0.8-7.1,6.8-12.7,14.2-12.7c7.3,0,13.4,5.6,14.2,12.7H52z
			 M123.3,52.3c0,0.1,0,0.1,0,0.2l-3.5,15.3l-7.9,41.1H67.6v-5.2c8.8-0.8,15.7-8.2,15.7-17.2c0-9.5-7.7-17.2-17.2-17.2
			c-9.5,0-17.2,7.7-17.2,17.2c0,9,6.9,16.4,15.7,17.2v5.2H20.3l-7.9-41.2L9,52.5c0-0.1,0-0.1,0-0.2L6.1,39.7l15,7l-6.6,8.6
			c-0.3,0.4-0.4,0.8-0.3,1.3c0.1,0.4,0.4,0.8,0.9,1l26.7,11.7c0.5,0.2,1.1,0.1,1.5-0.2l15.8-12.4c0.6-0.5,0.7-1.3,0.4-1.9l-6.9-11.8
			l13.6-23.1l13.6,23.1l-6.9,11.8c-0.4,0.6-0.2,1.5,0.4,1.9l15.8,12.4c0.4,0.3,1,0.4,1.5,0.2l26.7-11.7c0.4-0.2,0.7-0.6,0.9-1
			c0.1-0.4,0-0.9-0.3-1.3l-6.6-8.6l15-7L123.3,52.3z"/>
		<g>
			<g>
				<g>
					<path class="st6" d="M46.2,103.8h-2.4c-0.8,0-1.5-0.7-1.5-1.5s0.7-1.5,1.5-1.5h2.4c0.8,0,1.5,0.7,1.5,1.5S47,103.8,46.2,103.8z
						"/>
				</g>
				<g>
					<path class="st6" d="M38.9,103.8h-2.4c-0.8,0-1.5-0.7-1.5-1.5s0.7-1.5,1.5-1.5h2.4c0.8,0,1.5,0.7,1.5,1.5
						S39.7,103.8,38.9,103.8z"/>
				</g>
				<g>
					<path class="st6" d="M31.6,103.8H18.2c-0.8,0-1.5-0.7-1.5-1.5s0.7-1.5,1.5-1.5h13.5c0.8,0,1.5,0.7,1.5,1.5
						S32.5,103.8,31.6,103.8z"/>
				</g>
				<g>
					<path class="st6" d="M50.6,103.8c-0.4,0-0.8-0.2-1.1-0.4c-0.3-0.3-0.4-0.7-0.4-1.1c0-0.4,0.2-0.8,0.4-1.1
						c0.6-0.6,1.6-0.6,2.1,0c0.3,0.3,0.4,0.7,0.4,1.1s-0.2,0.8-0.4,1.1C51.4,103.7,51,103.8,50.6,103.8z"/>
				</g>
			</g>
			<g>
				<g>
					<path class="st6" d="M88.4,103.8h-2.4c-0.8,0-1.5-0.7-1.5-1.5s0.7-1.5,1.5-1.5h2.4c0.8,0,1.5,0.7,1.5,1.5
						S89.2,103.8,88.4,103.8z"/>
				</g>
				<g>
					<path class="st6" d="M95.7,103.8h-2.4c-0.8,0-1.5-0.7-1.5-1.5s0.7-1.5,1.5-1.5h2.4c0.8,0,1.5,0.7,1.5,1.5
						S96.5,103.8,95.7,103.8z"/>
				</g>
				<g>
					<path class="st6" d="M114.1,103.8h-13.5c-0.8,0-1.5-0.7-1.5-1.5s0.7-1.5,1.5-1.5h13.5c0.8,0,1.5,0.7,1.5,1.5
						S114.9,103.8,114.1,103.8z"/>
				</g>
				<g>
					<path class="st6" d="M81.7,103.8c-0.4,0-0.8-0.2-1.1-0.4c-0.3-0.3-0.4-0.7-0.4-1.1c0-0.4,0.2-0.8,0.4-1.1
						c0.6-0.6,1.6-0.6,2.1,0c0.3,0.3,0.4,0.7,0.4,1.1s-0.2,0.8-0.4,1.1C82.4,103.7,82,103.8,81.7,103.8z"/>
				</g>
			</g>
		</g>
		<g>
			<g>
				<circle class="st7" cx="66.1" cy="88.4" r="5.2"/>
			</g>
			<g>
				<circle class="st8" cx="66.1" cy="86.6" r="5.2"/>
			</g>
			<g>
				<path class="st9" d="M62.4,90.3c-2-2-2-5.3,0-7.4c2-2,5.3-2,7.4,0"/>
			</g>
			<g>
				<path class="st6" d="M66.1,93.3c-1.8,0-3.5-0.7-4.7-2c-1.3-1.3-2-2.9-2-4.7s0.7-3.5,2-4.7c2.6-2.6,6.9-2.6,9.5,0l0,0
					c1.3,1.3,2,2.9,2,4.7c0,1.8-0.7,3.5-2,4.7C69.6,92.6,67.9,93.3,66.1,93.3z M66.1,82.9c-0.9,0-1.9,0.4-2.6,1.1
					c-0.7,0.7-1.1,1.6-1.1,2.6s0.4,1.9,1.1,2.6c1.4,1.4,3.8,1.4,5.2,0c0.7-0.7,1.1-1.6,1.1-2.6s-0.4-1.9-1.1-2.6c0,0,0,0,0,0
					C68,83.3,67.1,82.9,66.1,82.9z"/>
			</g>
		</g>
	</g>
</g>
<g id="label">
	<g>
		<g>
			<path class="st6" d="M0.3,121.6l6,9.2c0.5,0.8,1.5,1.3,2.3,0.8c0.8-0.5,0.8-1.5,0.2-2.4l-6-9.2c-0.5-0.8-1.6-1.1-2.2-0.7l0,0
				C-0.1,119.8-0.2,120.8,0.3,121.6z"/>
			<path class="st6" d="M15,119.3L15,119.3c-0.7-0.4-1.7-0.1-2.2,0.7l-6,9.2c-0.6,0.9-0.5,1.9,0.2,2.4c0.8,0.5,1.7,0.1,2.3-0.8
				l6-9.2C15.8,120.8,15.6,119.8,15,119.3z"/>
			<path class="st6" d="M6.4,129.9v8.9c0,1,0.6,1.9,1.5,1.9s1.5-0.8,1.5-1.9v-8.9c0-1-0.7-1.8-1.5-1.8l0,0
				C7.1,128.1,6.4,128.9,6.4,129.9z"/>
		</g>
		<path class="st6" d="M34.7,119.1H22.1c-0.8,0-1.5,0.7-1.5,1.5v18.5c0,0.8,0.7,1.5,1.5,1.5s11.9,0,12.7,0s1.5-0.7,1.5-1.5v-18.5
			C36.2,119.7,35.5,119.1,34.7,119.1z M23.6,137.5v-15.4h9.7v15.5L23.6,137.5L23.6,137.5z"/>
		<path class="st6" d="M101.8,119.1H89.2c-0.8,0-1.5,0.7-1.5,1.5v18.5c0,0.8,0.7,1.5,1.5,1.5c0.8,0,11.9,0,12.7,0s1.5-0.7,1.5-1.5
			v-18.5C103.3,119.7,102.6,119.1,101.8,119.1z M90.7,137.5v-15.4h9.7v15.5L90.7,137.5L90.7,137.5z"/>
		<path class="st6" d="M42.8,140.6h12.7c0.8,0,1.5-0.7,1.5-1.5v-18.5c0-0.8-0.7-1.5-1.5-1.5s-1.5,0.7-1.5,1.5v16.9h-9.7v-17.1
			c0-0.8-0.7-1.5-1.5-1.5s-1.5,0.7-1.5,1.5V139C41.3,139.9,41.9,140.6,42.8,140.6z"/>
		<g>
			<path class="st6" d="M68.5,140.6h12.7c0.8,0,1.5-0.7,1.5-1.5v-18.5c0-0.8-0.7-1.5-1.5-1.5s-1.5,0.7-1.5,1.5v17H70v-17.1
				c0-0.8-0.7-1.5-1.5-1.5s-1.5,0.7-1.5,1.5v18.6C67,140,67.6,140.6,68.5,140.6z"/>
			<path class="st6" d="M76.4,138.8V121c0-1-0.6-1.9-1.5-1.9s-1.5,0.8-1.5,1.9v17.8c0,1,0.7,1.8,1.5,1.8l0,0
				C75.7,140.6,76.4,139.8,76.4,138.8z"/>
		</g>
		<path class="st6" d="M122.6,118.9h-12.7c-0.8,0-1.5,0.7-1.5,1.5v18.4c0,0.8,0.7,1.5,1.5,1.5c0.8,0,1.5-0.7,1.5-1.5V122h9.7v17.1
			c0,0.8,0.7,1.5,1.5,1.5c0.8,0,1.5-0.7,1.5-1.5v-18.7C124.1,119.4,123.5,118.9,122.6,118.9z"/>
		<g>
			<path class="st6" d="M132.2,132.2v-11.4c0-1-0.6-1.9-1.5-1.9c-0.9,0-1.5,0.8-1.5,1.9v11.4c0,1,0.7,1.8,1.5,1.8l0,0
				C131.5,134,132.2,133.2,132.2,132.2z"/>
			<path class="st6" d="M132.2,138.7v-0.3c0-1-0.6-1.9-1.5-1.9c-0.9,0-1.5,0.8-1.5,1.9v0.3c0,1,0.7,1.8,1.5,1.8l0,0
				C131.5,140.5,132.2,139.7,132.2,138.7z"/>
		</g>
	</g>
</g>
</svg>
