<?xml version="1.0" encoding="utf-8"?>
<!-- Generator: Adobe Illustrator 21.1.0, SVG Export Plug-In . SVG Version: 6.00 Build 0)  -->
<svg version="1.1" id="Layer_1" xmlns="http://www.w3.org/2000/svg" xmlns:xlink="http://www.w3.org/1999/xlink" x="0px" y="0px"
	 viewBox="0 0 254.5 127" style="enable-background:new 0 0 254.5 127;" xml:space="preserve">
<style type="text/css">
	.st0{fill:#FFD00B;}
	.st1{fill:#FFBE08;}
	.st2{fill:#33363A;}
	.st3{fill:#E04038;}
	.st4{fill:#FF6155;}
</style>
<g>
	<g>
		<circle class="st0" cx="63.5" cy="63.5" r="62"/>
	</g>
	<g>
		<path class="st1" d="M63.5,1.5v124c34.2,0,62-27.7,62-62S97.7,1.5,63.5,1.5z"/>
	</g>
	<g>
		<path class="st2" d="M63.5,127C28.5,127,0,98.5,0,63.5S28.5,0,63.5,0S127,28.5,127,63.5S98.5,127,63.5,127z M63.5,3
			C30.1,3,3,30.1,3,63.5C3,96.8,30.1,124,63.5,124S124,96.8,124,63.5C124,30.1,96.8,3,63.5,3z"/>
	</g>
	<g>
		<circle class="st0" cx="63.5" cy="63.5" r="48"/>
	</g>
	<g>
		<path class="st1" d="M29.6,29.6l67.8,67.9c18.7-18.7,18.7-49.1,0-67.9S48.3,10.8,29.6,29.6z"/>
	</g>
	<g>
		<g>
			<g>
				<path class="st2" d="M63.5,11.8c-0.8,0-1.5-0.7-1.5-1.5V6.8c0-0.8,0.7-1.5,1.5-1.5c0.8,0,1.5,0.6,1.5,1.5v3.5
					C65,11.1,64.3,11.8,63.5,11.8z"/>
			</g>
			<g>
				<path class="st2" d="M63.5,121.7c-0.8,0-1.5-0.7-1.5-1.5v-3.5c0-0.8,0.7-1.5,1.5-1.5c0.8,0,1.5,0.7,1.5,1.5v3.5
					C65,121,64.3,121.7,63.5,121.7z"/>
			</g>
		</g>
		<g>
			<g>
				<path class="st2" d="M101.1,27.4c-0.4,0-0.8-0.1-1.1-0.4c-0.6-0.6-0.6-1.5,0-2.1l2.5-2.5c0.6-0.6,1.5-0.6,2.1,0s0.6,1.5,0,2.1
					l-2.5,2.5C101.9,27.2,101.5,27.4,101.1,27.4z"/>
			</g>
			<g>
				<path class="st2" d="M23.4,105.1c-0.4,0-0.8-0.1-1.1-0.4c-0.6-0.6-0.6-1.5,0-2.1l2.5-2.5c0.6-0.6,1.5-0.6,2.1,0s0.6,1.5,0,2.1
					l-2.5,2.5C24.1,104.9,23.8,105.1,23.4,105.1z"/>
			</g>
		</g>
		<g>
			<g>
				<path class="st2" d="M120.2,65h-3.5c-0.8,0-1.5-0.7-1.5-1.5s0.7-1.5,1.5-1.5h3.5c0.8,0,1.5,0.7,1.5,1.5
					C121.7,64.3,121,65,120.2,65z"/>
			</g>
			<g>
				<path class="st2" d="M10.3,65H6.8c-0.8,0-1.5-0.7-1.5-1.5S5.9,62,6.8,62h3.5c0.8,0,1.5,0.7,1.5,1.5C11.8,64.3,11.1,65,10.3,65z"
					/>
			</g>
		</g>
		<g>
			<g>
				<path class="st2" d="M103.6,105.1c-0.4,0-0.8-0.1-1.1-0.4l-2.5-2.5c-0.6-0.6-0.6-1.5,0-2.1s1.5-0.6,2.1,0l2.5,2.5
					c0.6,0.6,0.6,1.5,0,2.1C104.3,104.9,104,105.1,103.6,105.1z"/>
			</g>
			<g>
				<path class="st2" d="M25.9,27.4c-0.4,0-0.8-0.1-1.1-0.4l-2.5-2.5c-0.6-0.6-0.6-1.5,0-2.1s1.5-0.6,2.1,0l2.5,2.5
					c0.6,0.6,0.6,1.5,0,2.1C26.6,27.2,26.2,27.4,25.9,27.4z"/>
			</g>
		</g>
	</g>
	<g>
		<g>
			<g>
				<path class="st2" d="M36.9,18.9c-0.5,0-1-0.3-1.3-0.8L33.8,15c-0.4-0.7-0.2-1.6,0.5-2s1.6-0.2,2,0.5l1.8,3.1
					c0.4,0.7,0.2,1.6-0.5,2C37.4,18.8,37.1,18.9,36.9,18.9z"/>
			</g>
			<g>
				<path class="st2" d="M91.8,114.1c-0.5,0-1-0.3-1.3-0.8l-1.8-3.1c-0.4-0.7-0.2-1.6,0.6-2c0.7-0.4,1.6-0.2,2,0.6l1.8,3.1
					c0.4,0.7,0.2,1.6-0.6,2C92.3,114,92.1,114.1,91.8,114.1z"/>
			</g>
		</g>
		<g>
			<g>
				<path class="st2" d="M77.2,13.6c-0.1,0-0.3,0-0.4-0.1c-0.8-0.2-1.3-1-1.1-1.8l0.9-3.4c0.2-0.8,1-1.3,1.8-1.1
					c0.8,0.2,1.3,1,1.1,1.8l-0.9,3.4C78.5,13.2,77.9,13.6,77.2,13.6z"/>
			</g>
			<g>
				<path class="st2" d="M48.8,119.8c-0.1,0-0.3,0-0.4-0.1c-0.8-0.2-1.3-1-1.1-1.8l0.9-3.4c0.2-0.8,1-1.3,1.8-1.1
					c0.8,0.2,1.3,1,1.1,1.8l-0.9,3.4C50.1,119.3,49.5,119.8,48.8,119.8z"/>
			</g>
		</g>
		<g>
			<g>
				<path class="st2" d="M109.5,38.4c-0.5,0-1-0.3-1.3-0.8c-0.4-0.7-0.2-1.6,0.5-2l3.1-1.8c0.7-0.4,1.6-0.2,2,0.5s0.2,1.6-0.5,2
					l-3.1,1.8C110.1,38.3,109.8,38.4,109.5,38.4z"/>
			</g>
			<g>
				<path class="st2" d="M14.4,93.3c-0.5,0-1-0.3-1.3-0.8c-0.4-0.7-0.2-1.6,0.5-2l3.1-1.8c0.7-0.4,1.6-0.2,2,0.5s0.2,1.6-0.5,2
					L15.1,93C14.9,93.3,14.6,93.3,14.4,93.3z"/>
			</g>
		</g>
		<g>
			<g>
				<path class="st2" d="M118.3,79.7c-0.1,0-0.3,0-0.4-0.1l-3.4-0.9c-0.8-0.2-1.3-1-1.1-1.8c0.2-0.8,1-1.3,1.8-1.1l3.4,0.9
					c0.8,0.2,1.3,1,1.1,1.8C119.5,79.2,118.9,79.7,118.3,79.7z"/>
			</g>
			<g>
				<path class="st2" d="M12.1,51.2c-0.1,0-0.3,0-0.4-0.1l-3.4-0.9c-0.8-0.2-1.3-1-1.1-1.8c0.2-0.8,1-1.3,1.8-1.1l3.4,0.9
					c0.8,0.2,1.3,1,1.1,1.8C13.4,50.8,12.8,51.2,12.1,51.2z"/>
			</g>
		</g>
	</g>
	<g>
		<g>
			<g>
				<path class="st2" d="M17.4,38.4c-0.3,0-0.5-0.1-0.7-0.2l-3.1-1.8c-0.7-0.4-1-1.3-0.5-2c0.4-0.7,1.3-1,2-0.5l3.1,1.8
					c0.7,0.4,1,1.3,0.5,2C18.4,38.1,17.9,38.4,17.4,38.4z"/>
			</g>
			<g>
				<path class="st2" d="M112.6,93.3c-0.3,0-0.5-0.1-0.7-0.2l-3-1.8c-0.7-0.4-1-1.3-0.5-2c0.4-0.7,1.3-1,2-0.5l3,1.8
					c0.7,0.4,1,1.3,0.5,2C113.6,93.1,113.1,93.3,112.6,93.3z"/>
			</g>
		</g>
		<g>
			<g>
				<path class="st2" d="M49.7,13.6c-0.7,0-1.3-0.4-1.4-1.1l-0.9-3.4c-0.2-0.8,0.3-1.6,1.1-1.8c0.7-0.3,1.5,0.2,1.7,1l0.9,3.4
					c0.2,0.8-0.3,1.6-1.1,1.8C50,13.6,49.8,13.6,49.7,13.6z"/>
			</g>
			<g>
				<path class="st2" d="M78.2,119.8c-0.7,0-1.3-0.4-1.4-1.1l-0.9-3.4c-0.2-0.8,0.3-1.6,1.1-1.8c0.8-0.2,1.6,0.3,1.8,1.1l0.9,3.4
					c0.2,0.8-0.3,1.6-1.1,1.8C78.4,119.7,78.3,119.8,78.2,119.8z"/>
			</g>
		</g>
		<g>
			<g>
				<path class="st2" d="M90.1,18.9c-0.3,0-0.5-0.1-0.7-0.2c-0.7-0.4-1-1.3-0.5-2l1.8-3.1c0.4-0.7,1.3-1,2-0.5c0.7,0.4,1,1.3,0.5,2
					l-1.8,3.1C91.1,18.6,90.6,18.9,90.1,18.9z"/>
			</g>
			<g>
				<path class="st2" d="M35.1,114.1c-0.3,0-0.5-0.1-0.7-0.2c-0.7-0.4-1-1.3-0.5-2l1.8-3c0.4-0.7,1.3-1,2-0.5c0.7,0.4,1,1.3,0.5,2
					l-1.8,3C36.1,113.8,35.6,114.1,35.1,114.1z"/>
			</g>
		</g>
		<g>
			<g>
				<path class="st2" d="M114.9,51.2c-0.7,0-1.3-0.4-1.4-1.1c-0.2-0.8,0.3-1.6,1.1-1.8l3.4-0.9c0.8-0.2,1.6,0.3,1.8,1.1
					c0.2,0.8-0.3,1.6-1.1,1.8l-3.4,0.9C115.1,51.2,115,51.2,114.9,51.2z"/>
			</g>
			<g>
				<path class="st2" d="M8.7,79.7c-0.7,0-1.3-0.4-1.4-1.1c-0.2-0.8,0.3-1.6,1.1-1.8l3.4-0.9c0.8-0.2,1.6,0.3,1.8,1.1
					c0.2,0.8-0.3,1.6-1.1,1.8l-3.4,0.9C8.9,79.6,8.8,79.7,8.7,79.7z"/>
			</g>
		</g>
	</g>
	<g>
		<path class="st2" d="M83.6,72.4c-0.8,0-1.5-0.7-1.5-1.5c0-0.2-0.2-0.5-0.5-0.5s-0.5,0.2-0.5,0.5c0,0.8-0.7,1.5-1.5,1.5
			s-1.5-0.7-1.5-1.5c0-1.9,1.5-3.5,3.5-3.5s3.5,1.5,3.5,3.5C85.1,71.7,84.4,72.4,83.6,72.4z"/>
	</g>
	<g>
		<circle class="st3" cx="79.4" cy="81.7" r="5.2"/>
	</g>
	<g>
		<path class="st4" d="M79.4,76.5c2.9,0,5.2,2.3,5.2,5.2c0,2.9-2.3,5.2-5.2,5.2"/>
	</g>
	<g>
		<path class="st2" d="M79.4,88.4c-3.7,0-6.7-3-6.7-6.7s3-6.7,6.7-6.7s6.7,3,6.7,6.7S83.1,88.4,79.4,88.4z M79.4,78
			c-2.1,0-3.7,1.7-3.7,3.7c0,2.1,1.7,3.7,3.7,3.7s3.7-1.7,3.7-3.7C83.1,79.6,81.4,78,79.4,78z"/>
	</g>
	<path class="st2" d="M98.5,28.5c-19.3-19.3-50.7-19.3-70,0C10.2,46.8,9.3,75.9,25.6,95.3c0,0.1,0.1,0.1,0.2,0.2c0.9,1,1.8,2,2.8,3
		c9.6,9.6,22.3,14.5,35,14.5s25.3-4.8,35-14.5C117.8,79.2,117.8,47.8,98.5,28.5z M85.9,104.2c-17.7,9.7-40.4,7.1-55.3-7.8
		c-0.7-0.7-1.3-1.3-1.9-2c5.1-6.6,8.9-12.5,12.3-17.8c4-6.3,7.2-11.2,11.2-15.1c0.4-0.3,0.5-0.8,0.4-1.3s-0.4-0.9-0.8-1.1
		c-2.5-1.2-4.8-2.7-6.8-4.5l0,0c-0.5-0.4-0.9-0.8-1.4-1.2c-0.1-0.1-0.1-0.1-0.2-0.2c-0.5-0.5-1-1.1-1.5-1.6
		c-0.1-0.2-0.3-0.3-0.4-0.5c-0.3-0.4-0.7-0.8-1-1.3c-0.1-0.2-0.3-0.3-0.4-0.5c-0.3-0.4-0.6-0.9-0.9-1.4c-0.1-0.2-0.2-0.3-0.3-0.5
		c-0.9-1.4-1.6-3-2.3-4.5l4.4-4.4c3.8,1.5,7.3,3.8,10.2,6.7c2.8,2.8,5,6.2,6.6,9.9c0.2,0.4,0.5,0.7,0.8,0.8c0.4,0.1,0.8,0.1,1.2,0
		c2.7-1.3,5.5-1.5,8.1-1.5c7.2,0,19.9,5.7,25.1,16.5c4.7,9.6,2.2,21.1-7.1,33C86,104,86,104.1,85.9,104.2z M47.4,60
		c0.4,0.3,0.9,0.5,1.3,0.8c-0.3,0.3-0.6,0.6-0.8,1C47.7,61.2,47.5,60.6,47.4,60z M45.1,63.3c-4.8-0.9-9.2-3.2-12.6-6.6
		c-1.9-1.9-3.5-4.2-4.7-6.7l4-4c1.6,0.8,3.1,1.7,4.4,2.8c0.1,0.2,0.2,0.3,0.3,0.5c0.2,0.3,0.4,0.6,0.6,0.9c0.1,0.2,0.3,0.4,0.4,0.6
		c0.3,0.5,0.6,0.9,1,1.4c0.1,0.1,0.2,0.2,0.3,0.3c0.3,0.4,0.6,0.7,0.9,1.1c0.1,0.1,0.2,0.3,0.4,0.4c0.4,0.4,0.8,0.9,1.2,1.3l0,0l0,0
		l0,0l0,0c0.4,0.4,0.7,0.7,1.1,1c0.1,0.1,0.2,0.2,0.4,0.3C43.9,58.7,44.7,61,45.1,63.3z M96.3,96.3c-1.2,1.2-2.4,2.3-3.6,3.3
		c6.8-11.3,6.6-20.4,4.5-26.8c1.4-1.2,1.8-3.3,0.8-5c-0.9-1.5-2.6-2.1-4.2-1.7C87.5,57,76.2,51.4,68.1,51.4c-2.6,0-5.3,0.2-8,1.1
		c-1.6-3.6-3.9-6.8-6.6-9.5c-3.4-3.4-7.6-6.1-12.1-7.7c0,0,0,0-0.1,0s-0.2-0.1-0.3-0.1c-0.4-0.2-0.9-0.3-1.4-0.4
		c-0.1,0-0.3-0.1-0.4-0.1c-0.6-0.2-1.2-0.3-1.8-0.5c-0.1,0-0.2,0-0.3-0.1c-0.5-0.1-1-0.2-1.5-0.3c-0.2,0-0.3-0.1-0.5-0.1
		c-0.6-0.1-1.2-0.2-1.8-0.2c-0.4,0-0.9,0.1-1.2,0.4c-0.3,0.3-0.5,0.8-0.4,1.2l0,0l0,0l0,0c0.1,0.7,0.2,1.4,0.3,2.1
		c0,0.2,0.1,0.4,0.1,0.7c0.1,0.5,0.2,0.9,0.3,1.4c0.1,0.2,0.1,0.5,0.2,0.7c0.1,0.5,0.2,0.9,0.4,1.4c0.1,0.2,0.1,0.4,0.2,0.6
		c0.1,0.3,0.2,0.7,0.3,1c0,0,0,0.1,0.1,0.1c0.1,0.2,0.1,0.3,0.2,0.5c-0.6-0.3-1.1-0.5-1.7-0.8l0,0H32c-0.6-0.2-1.2-0.5-1.8-0.7l0,0
		c-0.6-0.2-1.2-0.4-1.8-0.5c-0.1,0-0.1,0-0.2,0c-0.6-0.2-1.2-0.3-1.8-0.4c-0.1,0-0.2,0-0.3-0.1c-0.6-0.1-1.2-0.2-1.8-0.3
		c-0.4,0-0.9,0.1-1.2,0.4c-0.3,0.3-0.5,0.8-0.4,1.2l0,0l0,0l0,0c0.1,0.7,0.2,1.4,0.3,2.1c0.1,0.3,0.1,0.7,0.2,1s0.2,0.7,0.2,1
		c0.1,0.4,0.3,0.9,0.4,1.3c0.1,0.2,0.1,0.5,0.2,0.7c0.2,0.5,0.3,0.9,0.5,1.4c0,0.1,0.1,0.2,0.1,0.3v0.1c1.3,3.1,3.3,6,5.7,8.4
		c3.8,3.8,8.7,6.4,14,7.4c-1.9,2.7-3.8,5.6-5.8,8.8c-3.2,5-6.9,10.7-11.7,17c-14.2-18.2-12.9-44.6,3.8-61.4
		c9.1-9.1,21-13.6,32.9-13.6s23.8,4.5,32.9,13.6C114.5,48.7,114.5,78.2,96.3,96.3z"/>
	<g>
		<path class="st2" d="M44.9,90.2c-0.5,0-1.1-0.3-1.3-0.8c-0.1-0.2-2.9-5.6-8.2-4.1c-0.8,0.2-1.6-0.2-1.9-1c-0.2-0.8,0.2-1.6,1-1.9
			c6.2-1.8,10.4,2.9,11.7,5.6c0.4,0.7,0.1,1.6-0.7,2C45.4,90.2,45.2,90.2,44.9,90.2z"/>
	</g>
	<g>
		<path class="st2" d="M41,95.9c-0.5,0-1.1-0.3-1.3-0.8c-0.1-0.2-2.9-5.6-8.2-4.1c-0.8,0.2-1.6-0.2-1.9-1c-0.2-0.8,0.2-1.6,1-1.9
			c6.2-1.8,10.4,2.9,11.7,5.6c0.4,0.7,0.1,1.6-0.7,2C41.4,95.9,41.2,95.9,41,95.9z"/>
	</g>
	<g>
		<g>
			<g>
				<path class="st2" d="M82.7,39c-0.2,0-0.3,0-0.5-0.1c-0.8-0.3-1.2-1.1-0.9-1.9l0.2-0.7c0.3-0.8,1.1-1.2,1.9-0.9s1.2,1.1,0.9,1.9
					L84.1,38C83.9,38.6,83.3,39,82.7,39z"/>
			</g>
			<g>
				<path class="st2" d="M79,49.7c-0.2,0-0.3,0-0.5-0.1c-0.8-0.3-1.2-1.1-0.9-1.9l1.4-4.2c0.3-0.8,1.1-1.2,1.9-0.9s1.2,1.1,0.9,1.9
					l-1.4,4.2C80.2,49.3,79.6,49.7,79,49.7z"/>
			</g>
		</g>
		<g>
			<g>
				<g>
					<path class="st2" d="M61.7,36.1c-0.6,0-1.1-0.3-1.3-0.8L60,34.6c-0.4-0.7-0.1-1.6,0.7-2c0.7-0.4,1.6-0.1,2,0.7L63,34
						c0.4,0.7,0.1,1.6-0.7,2C62.2,36.1,62,36.1,61.7,36.1z"/>
				</g>
				<g>
					<path class="st2" d="M66.7,46.3c-0.6,0-1.1-0.3-1.3-0.8l-1.9-4c-0.4-0.7-0.1-1.6,0.7-2c0.7-0.4,1.6-0.1,2,0.7l1.9,4
						c0.4,0.7,0.1,1.6-0.7,2C67.1,46.2,66.9,46.3,66.7,46.3z"/>
				</g>
			</g>
			<g>
				<g>
					<path class="st2" d="M101,49.5c-0.6,0-1.1-0.3-1.3-0.8c-0.4-0.7-0.1-1.6,0.7-2l0.7-0.3c0.7-0.4,1.6-0.1,2,0.7
						c0.4,0.7,0.1,1.6-0.7,2l-0.7,0.3C101.4,49.5,101.2,49.5,101,49.5z"/>
				</g>
				<g>
					<path class="st2" d="M90.9,54.5c-0.6,0-1.1-0.3-1.3-0.8c-0.4-0.7-0.1-1.6,0.7-2l4-1.9c0.7-0.4,1.6-0.1,2,0.7
						c0.4,0.7,0.1,1.6-0.7,2l-4,1.9C91.3,54.5,91.1,54.5,90.9,54.5z"/>
				</g>
			</g>
		</g>
	</g>
</g>
<g>
	<g>
		<circle class="st0" cx="191" cy="63.5" r="62"/>
	</g>
	<g>
		<path class="st1" d="M191,1.5v124c34.2,0,62-27.7,62-62S225.2,1.5,191,1.5z"/>
	</g>
	<g>
		<path class="st2" d="M191,127c-35,0-63.5-28.5-63.5-63.5S156,0,191,0s63.5,28.5,63.5,63.5S226,127,191,127z M191,3
			c-33.4,0-60.5,27.1-60.5,60.5c0,33.3,27.1,60.5,60.5,60.5s60.5-27.2,60.5-60.5C251.5,30.1,224.3,3,191,3z"/>
	</g>
	<g>
		<circle class="st0" cx="191" cy="63.5" r="48"/>
	</g>
	<g>
		<path class="st1" d="M157.1,29.6l67.8,67.9c18.7-18.7,18.7-49.1,0-67.9S175.8,10.8,157.1,29.6z"/>
	</g>
	<g>
		<g>
			<g>
				<path class="st2" d="M191,11.8c-0.8,0-1.5-0.7-1.5-1.5V6.8c0-0.8,0.7-1.5,1.5-1.5s1.5,0.6,1.5,1.5v3.5
					C192.5,11.1,191.8,11.8,191,11.8z"/>
			</g>
			<g>
				<path class="st2" d="M191,121.7c-0.8,0-1.5-0.7-1.5-1.5v-3.5c0-0.8,0.7-1.5,1.5-1.5s1.5,0.7,1.5,1.5v3.5
					C192.5,121,191.8,121.7,191,121.7z"/>
			</g>
		</g>
		<g>
			<g>
				<path class="st2" d="M228.6,27.4c-0.4,0-0.8-0.1-1.1-0.4c-0.6-0.6-0.6-1.5,0-2.1l2.5-2.5c0.6-0.6,1.5-0.6,2.1,0
					c0.6,0.6,0.6,1.5,0,2.1l-2.5,2.5C229.4,27.2,229,27.4,228.6,27.4z"/>
			</g>
			<g>
				<path class="st2" d="M150.9,105.1c-0.4,0-0.8-0.1-1.1-0.4c-0.6-0.6-0.6-1.5,0-2.1l2.5-2.5c0.6-0.6,1.5-0.6,2.1,0
					c0.6,0.6,0.6,1.5,0,2.1l-2.5,2.5C151.6,104.9,151.3,105.1,150.9,105.1z"/>
			</g>
		</g>
		<g>
			<g>
				<path class="st2" d="M247.7,65h-3.5c-0.8,0-1.5-0.7-1.5-1.5s0.7-1.5,1.5-1.5h3.5c0.8,0,1.5,0.7,1.5,1.5
					C249.2,64.3,248.5,65,247.7,65z"/>
			</g>
			<g>
				<path class="st2" d="M137.8,65h-3.5c-0.8,0-1.5-0.7-1.5-1.5s0.6-1.5,1.5-1.5h3.5c0.8,0,1.5,0.7,1.5,1.5
					C139.3,64.3,138.6,65,137.8,65z"/>
			</g>
		</g>
		<g>
			<g>
				<path class="st2" d="M231.1,105.1c-0.4,0-0.8-0.1-1.1-0.4l-2.5-2.5c-0.6-0.6-0.6-1.5,0-2.1s1.5-0.6,2.1,0l2.5,2.5
					c0.6,0.6,0.6,1.5,0,2.1C231.8,104.9,231.5,105.1,231.1,105.1z"/>
			</g>
			<g>
				<path class="st2" d="M153.4,27.4c-0.4,0-0.8-0.1-1.1-0.4l-2.5-2.5c-0.6-0.6-0.6-1.5,0-2.1c0.6-0.6,1.5-0.6,2.1,0l2.5,2.5
					c0.6,0.6,0.6,1.5,0,2.1C154.1,27.2,153.7,27.4,153.4,27.4z"/>
			</g>
		</g>
	</g>
	<g>
		<g>
			<g>
				<path class="st2" d="M164.4,18.9c-0.5,0-1-0.3-1.3-0.8l-1.8-3.1c-0.4-0.7-0.2-1.6,0.5-2s1.6-0.2,2,0.5l1.8,3.1
					c0.4,0.7,0.2,1.6-0.5,2C164.9,18.8,164.6,18.9,164.4,18.9z"/>
			</g>
			<g>
				<path class="st2" d="M219.3,114.1c-0.5,0-1-0.3-1.3-0.8l-1.8-3.1c-0.4-0.7-0.2-1.6,0.6-2c0.7-0.4,1.6-0.2,2,0.6l1.8,3.1
					c0.4,0.7,0.2,1.6-0.6,2C219.8,114,219.6,114.1,219.3,114.1z"/>
			</g>
		</g>
		<g>
			<g>
				<path class="st2" d="M204.7,13.6c-0.1,0-0.3,0-0.4-0.1c-0.8-0.2-1.3-1-1.1-1.8l0.9-3.4c0.2-0.8,1-1.3,1.8-1.1
					c0.8,0.2,1.3,1,1.1,1.8l-0.9,3.4C206,13.2,205.4,13.6,204.7,13.6z"/>
			</g>
			<g>
				<path class="st2" d="M176.3,119.8c-0.1,0-0.3,0-0.4-0.1c-0.8-0.2-1.3-1-1.1-1.8l0.9-3.4c0.2-0.8,1-1.3,1.8-1.1
					c0.8,0.2,1.3,1,1.1,1.8l-0.9,3.4C177.6,119.3,177,119.8,176.3,119.8z"/>
			</g>
		</g>
		<g>
			<g>
				<path class="st2" d="M237,38.4c-0.5,0-1-0.3-1.3-0.8c-0.4-0.7-0.2-1.6,0.5-2l3.1-1.8c0.7-0.4,1.6-0.2,2,0.5
					c0.4,0.7,0.2,1.6-0.5,2l-3.1,1.8C237.6,38.3,237.3,38.4,237,38.4z"/>
			</g>
			<g>
				<path class="st2" d="M141.9,93.3c-0.5,0-1-0.3-1.3-0.8c-0.4-0.7-0.2-1.6,0.5-2l3.1-1.8c0.7-0.4,1.6-0.2,2,0.5
					c0.4,0.7,0.2,1.6-0.5,2l-3.1,1.8C142.4,93.3,142.1,93.3,141.9,93.3z"/>
			</g>
		</g>
		<g>
			<g>
				<path class="st2" d="M245.8,79.7c-0.1,0-0.3,0-0.4-0.1l-3.4-0.9c-0.8-0.2-1.3-1-1.1-1.8c0.2-0.8,1-1.3,1.8-1.1l3.4,0.9
					c0.8,0.2,1.3,1,1.1,1.8C247,79.2,246.4,79.7,245.8,79.7z"/>
			</g>
			<g>
				<path class="st2" d="M139.6,51.2c-0.1,0-0.3,0-0.4-0.1l-3.4-0.9c-0.8-0.2-1.3-1-1.1-1.8s1-1.3,1.8-1.1l3.4,0.9
					c0.8,0.2,1.3,1,1.1,1.8C140.9,50.8,140.3,51.2,139.6,51.2z"/>
			</g>
		</g>
	</g>
	<g>
		<g>
			<g>
				<path class="st2" d="M144.9,38.4c-0.3,0-0.5-0.1-0.7-0.2l-3.1-1.8c-0.7-0.4-1-1.3-0.5-2c0.4-0.7,1.3-1,2-0.5l3.1,1.8
					c0.7,0.4,1,1.3,0.5,2C145.9,38.1,145.4,38.4,144.9,38.4z"/>
			</g>
			<g>
				<path class="st2" d="M240.1,93.3c-0.3,0-0.5-0.1-0.7-0.2l-3-1.8c-0.7-0.4-1-1.3-0.5-2c0.4-0.7,1.3-1,2-0.5l3,1.8
					c0.7,0.4,1,1.3,0.5,2C241.1,93.1,240.6,93.3,240.1,93.3z"/>
			</g>
		</g>
		<g>
			<g>
				<path class="st2" d="M177.2,13.6c-0.7,0-1.3-0.4-1.4-1.1l-0.9-3.4c-0.2-0.8,0.3-1.6,1.1-1.8c0.7-0.3,1.5,0.2,1.7,1l0.9,3.4
					c0.2,0.8-0.3,1.6-1.1,1.8C177.5,13.6,177.3,13.6,177.2,13.6z"/>
			</g>
			<g>
				<path class="st2" d="M205.7,119.8c-0.7,0-1.3-0.4-1.4-1.1l-0.9-3.4c-0.2-0.8,0.3-1.6,1.1-1.8c0.8-0.2,1.6,0.3,1.8,1.1l0.9,3.4
					c0.2,0.8-0.3,1.6-1.1,1.8C205.9,119.7,205.8,119.8,205.7,119.8z"/>
			</g>
		</g>
		<g>
			<g>
				<path class="st2" d="M217.6,18.9c-0.3,0-0.5-0.1-0.7-0.2c-0.7-0.4-1-1.3-0.5-2l1.8-3.1c0.4-0.7,1.3-1,2-0.5c0.7,0.4,1,1.3,0.5,2
					l-1.8,3.1C218.6,18.6,218.1,18.9,217.6,18.9z"/>
			</g>
			<g>
				<path class="st2" d="M162.6,114.1c-0.3,0-0.5-0.1-0.7-0.2c-0.7-0.4-1-1.3-0.5-2l1.8-3c0.4-0.7,1.3-1,2-0.5c0.7,0.4,1,1.3,0.5,2
					l-1.8,3C163.6,113.8,163.1,114.1,162.6,114.1z"/>
			</g>
		</g>
		<g>
			<g>
				<path class="st2" d="M242.4,51.2c-0.7,0-1.3-0.4-1.4-1.1c-0.2-0.8,0.3-1.6,1.1-1.8l3.4-0.9c0.8-0.2,1.6,0.3,1.8,1.1
					s-0.3,1.6-1.1,1.8l-3.4,0.9C242.6,51.2,242.5,51.2,242.4,51.2z"/>
			</g>
			<g>
				<path class="st2" d="M136.2,79.7c-0.7,0-1.3-0.4-1.4-1.1c-0.2-0.8,0.3-1.6,1.1-1.8l3.4-0.9c0.8-0.2,1.6,0.3,1.8,1.1
					c0.2,0.8-0.3,1.6-1.1,1.8l-3.4,0.9C136.4,79.6,136.3,79.7,136.2,79.7z"/>
			</g>
		</g>
	</g>
	<g>
		<path class="st2" d="M211.1,72.4c-0.8,0-1.5-0.7-1.5-1.5c0-0.2-0.2-0.5-0.5-0.5c-0.3,0-0.5,0.2-0.5,0.5c0,0.8-0.7,1.5-1.5,1.5
			c-0.8,0-1.5-0.7-1.5-1.5c0-1.9,1.5-3.5,3.5-3.5s3.5,1.5,3.5,3.5C212.6,71.7,211.9,72.4,211.1,72.4z"/>
	</g>
	<g>
		<circle class="st3" cx="206.9" cy="81.7" r="5.2"/>
	</g>
	<g>
		<path class="st4" d="M206.9,76.5c2.9,0,5.2,2.3,5.2,5.2c0,2.9-2.3,5.2-5.2,5.2"/>
	</g>
	<g>
		<path class="st2" d="M206.9,88.4c-3.7,0-6.7-3-6.7-6.7s3-6.7,6.7-6.7c3.7,0,6.7,3,6.7,6.7S210.6,88.4,206.9,88.4z M206.9,78
			c-2.1,0-3.7,1.7-3.7,3.7c0,2.1,1.7,3.7,3.7,3.7s3.7-1.7,3.7-3.7C210.6,79.6,208.9,78,206.9,78z"/>
	</g>
	<path class="st2" d="M226,28.5c-19.3-19.3-50.7-19.3-70,0c-18.3,18.3-19.2,47.4-2.9,66.8c0,0.1,0.1,0.1,0.2,0.2c0.9,1,1.8,2,2.8,3
		c9.6,9.6,22.3,14.5,35,14.5c12.7,0,25.3-4.8,35-14.5C245.3,79.2,245.3,47.8,226,28.5z M213.4,104.2c-17.7,9.7-40.4,7.1-55.3-7.8
		c-0.7-0.7-1.3-1.3-1.9-2c5.1-6.6,8.9-12.5,12.3-17.8c4-6.3,7.2-11.2,11.2-15.1c0.4-0.3,0.5-0.8,0.4-1.3s-0.4-0.9-0.8-1.1
		c-2.5-1.2-4.8-2.7-6.8-4.5l0,0c-0.5-0.4-0.9-0.8-1.4-1.2c-0.1-0.1-0.1-0.1-0.2-0.2c-0.5-0.5-1-1.1-1.5-1.6
		c-0.1-0.2-0.3-0.3-0.4-0.5c-0.3-0.4-0.7-0.8-1-1.3c-0.1-0.2-0.3-0.3-0.4-0.5c-0.3-0.4-0.6-0.9-0.9-1.4c-0.1-0.2-0.2-0.3-0.3-0.5
		c-0.9-1.4-1.6-3-2.3-4.5l4.4-4.4c3.8,1.5,7.3,3.8,10.2,6.7c2.8,2.8,5,6.2,6.6,9.9c0.2,0.4,0.5,0.7,0.8,0.8c0.4,0.1,0.8,0.1,1.2,0
		c2.7-1.3,5.5-1.5,8.1-1.5c7.2,0,19.9,5.7,25.1,16.5c4.7,9.6,2.2,21.1-7.1,33C213.5,104,213.5,104.1,213.4,104.2z M174.9,60
		c0.4,0.3,0.9,0.5,1.3,0.8c-0.3,0.3-0.6,0.6-0.8,1C175.2,61.2,175,60.6,174.9,60z M172.6,63.3c-4.8-0.9-9.2-3.2-12.6-6.6
		c-1.9-1.9-3.5-4.2-4.7-6.7l4-4c1.6,0.8,3.1,1.7,4.4,2.8c0.1,0.2,0.2,0.3,0.3,0.5c0.2,0.3,0.4,0.6,0.6,0.9c0.1,0.2,0.3,0.4,0.4,0.6
		c0.3,0.5,0.6,0.9,1,1.4c0.1,0.1,0.2,0.2,0.3,0.3c0.3,0.4,0.6,0.7,0.9,1.1c0.1,0.1,0.2,0.3,0.4,0.4c0.4,0.4,0.8,0.9,1.2,1.3l0,0l0,0
		l0,0l0,0c0.4,0.4,0.7,0.7,1.1,1c0.1,0.1,0.2,0.2,0.4,0.3C171.4,58.7,172.2,61,172.6,63.3z M223.8,96.3c-1.2,1.2-2.4,2.3-3.6,3.3
		c6.8-11.3,6.6-20.4,4.5-26.8c1.4-1.2,1.8-3.3,0.8-5c-0.9-1.5-2.6-2.1-4.2-1.7c-6.3-9.1-17.6-14.7-25.7-14.7c-2.6,0-5.3,0.2-8,1.1
		c-1.6-3.6-3.9-6.8-6.6-9.5c-3.4-3.4-7.6-6.1-12.1-7.7c0,0,0,0-0.1,0s-0.2-0.1-0.3-0.1c-0.4-0.2-0.9-0.3-1.4-0.4
		c-0.1,0-0.3-0.1-0.4-0.1c-0.6-0.2-1.2-0.3-1.8-0.5c-0.1,0-0.2,0-0.3-0.1c-0.5-0.1-1-0.2-1.5-0.3c-0.2,0-0.3-0.1-0.5-0.1
		c-0.6-0.1-1.2-0.2-1.8-0.2c-0.4,0-0.9,0.1-1.2,0.4c-0.3,0.3-0.5,0.8-0.4,1.2l0,0l0,0l0,0c0.1,0.7,0.2,1.4,0.3,2.1
		c0,0.2,0.1,0.4,0.1,0.7c0.1,0.5,0.2,0.9,0.3,1.4c0.1,0.2,0.1,0.5,0.2,0.7c0.1,0.5,0.2,0.9,0.4,1.4c0.1,0.2,0.1,0.4,0.2,0.6
		c0.1,0.3,0.2,0.7,0.3,1c0,0,0,0.1,0.1,0.1c0.1,0.2,0.1,0.3,0.2,0.5c-0.6-0.3-1.1-0.5-1.7-0.8l0,0h-0.1c-0.6-0.2-1.2-0.5-1.8-0.7
		l0,0c-0.6-0.2-1.2-0.4-1.8-0.5c-0.1,0-0.1,0-0.2,0c-0.6-0.2-1.2-0.3-1.8-0.4c-0.1,0-0.2,0-0.3-0.1c-0.6-0.1-1.2-0.2-1.8-0.3
		c-0.4,0-0.9,0.1-1.2,0.4c-0.3,0.3-0.5,0.8-0.4,1.2l0,0l0,0l0,0c0.1,0.7,0.2,1.4,0.3,2.1c0.1,0.3,0.1,0.7,0.2,1
		c0.1,0.3,0.2,0.7,0.2,1c0.1,0.4,0.3,0.9,0.4,1.3c0.1,0.2,0.1,0.5,0.2,0.7c0.2,0.5,0.3,0.9,0.5,1.4c0,0.1,0.1,0.2,0.1,0.3v0.1
		c1.3,3.1,3.3,6,5.7,8.4c3.8,3.8,8.7,6.4,14,7.4c-1.9,2.7-3.8,5.6-5.8,8.8c-3.2,5-6.9,10.7-11.7,17c-14.2-18.2-12.9-44.6,3.8-61.4
		c9.1-9.1,21-13.6,32.9-13.6c11.9,0,23.8,4.5,32.9,13.6C242,48.7,242,78.2,223.8,96.3z"/>
	<g>
		<path class="st2" d="M172.4,90.2c-0.5,0-1.1-0.3-1.3-0.8c-0.1-0.2-2.9-5.6-8.2-4.1c-0.8,0.2-1.6-0.2-1.9-1c-0.2-0.8,0.2-1.6,1-1.9
			c6.2-1.8,10.4,2.9,11.7,5.6c0.4,0.7,0.1,1.6-0.7,2C172.9,90.2,172.7,90.2,172.4,90.2z"/>
	</g>
	<g>
		<path class="st2" d="M168.5,95.9c-0.5,0-1.1-0.3-1.3-0.8c-0.1-0.2-2.9-5.6-8.2-4.1c-0.8,0.2-1.6-0.2-1.9-1c-0.2-0.8,0.2-1.6,1-1.9
			c6.2-1.8,10.4,2.9,11.7,5.6c0.4,0.7,0.1,1.6-0.7,2C168.9,95.9,168.7,95.9,168.5,95.9z"/>
	</g>
	<g>
		<g>
			<g>
				<path class="st2" d="M210.2,39c-0.2,0-0.3,0-0.5-0.1c-0.8-0.3-1.2-1.1-0.9-1.9l0.2-0.7c0.3-0.8,1.1-1.2,1.9-0.9s1.2,1.1,0.9,1.9
					l-0.2,0.7C211.4,38.6,210.8,39,210.2,39z"/>
			</g>
			<g>
				<path class="st2" d="M206.5,49.7c-0.2,0-0.3,0-0.5-0.1c-0.8-0.3-1.2-1.1-0.9-1.9l1.4-4.2c0.3-0.8,1.1-1.2,1.9-0.9
					c0.8,0.3,1.2,1.1,0.9,1.9l-1.4,4.2C207.7,49.3,207.1,49.7,206.5,49.7z"/>
			</g>
		</g>
		<g>
			<g>
				<g>
					<path class="st2" d="M189.2,36.1c-0.6,0-1.1-0.3-1.3-0.8l-0.4-0.7c-0.4-0.7-0.1-1.6,0.7-2c0.7-0.4,1.6-0.1,2,0.7l0.3,0.7
						c0.4,0.7,0.1,1.6-0.7,2C189.7,36.1,189.5,36.1,189.2,36.1z"/>
				</g>
				<g>
					<path class="st2" d="M194.2,46.3c-0.6,0-1.1-0.3-1.3-0.8l-1.9-4c-0.4-0.7-0.1-1.6,0.7-2c0.7-0.4,1.6-0.1,2,0.7l1.9,4
						c0.4,0.7,0.1,1.6-0.7,2C194.6,46.2,194.4,46.3,194.2,46.3z"/>
				</g>
			</g>
			<g>
				<g>
					<path class="st2" d="M228.5,49.5c-0.6,0-1.1-0.3-1.3-0.8c-0.4-0.7-0.1-1.6,0.7-2l0.7-0.3c0.7-0.4,1.6-0.1,2,0.7
						c0.4,0.7,0.1,1.6-0.7,2l-0.7,0.3C228.9,49.5,228.7,49.5,228.5,49.5z"/>
				</g>
				<g>
					<path class="st2" d="M218.4,54.5c-0.6,0-1.1-0.3-1.3-0.8c-0.4-0.7-0.1-1.6,0.7-2l4-1.9c0.7-0.4,1.6-0.1,2,0.7
						c0.4,0.7,0.1,1.6-0.7,2l-4,1.9C218.8,54.5,218.6,54.5,218.4,54.5z"/>
				</g>
			</g>
		</g>
	</g>
</g>
</svg>
