<?xml version="1.0" encoding="utf-8"?>
<!-- Generator: Adobe Illustrator 21.1.0, SVG Export Plug-In . SVG Version: 6.00 Build 0)  -->
<svg version="1.1" id="Layer_1" xmlns="http://www.w3.org/2000/svg" xmlns:xlink="http://www.w3.org/1999/xlink" x="0px" y="0px"
	 viewBox="0 0 218 127.4" style="enable-background:new 0 0 218 127.4;" xml:space="preserve">
<style type="text/css">
	.st0{fill:#FFBE08;}
	.st1{fill:#FFD00B;}
	.st2{fill:#33363A;}
	.st3{fill:#FFFFFF;}
	.st4{fill:#FF900B;}
	.st5{fill:#DFE7E8;}
	.st6{fill:#FF630D;}
	.st7{fill:#E04038;}
	.st8{fill:#FF6155;}
	.st9{fill:#E8E8ED;}
	.st10{fill:#FFF1D9;}
</style>
<g>
	<g>
		<g>
			<g>
				<g>
					<path class="st0" d="M47.5,50.2c0,1.3-1,2.3-2.3,2.3H3.8c-1.2,0-2.3-1-2.3-2.3v-5.7c0-1.3,1-2.3,2.3-2.3h41.5
						c1.3,0,2.3,1,2.3,2.3L47.5,50.2L47.5,50.2z"/>
				</g>
				<g>
					<path class="st1" d="M3.8,42.2c-1.2,0-2.2,0.9-2.2,2.1c0.1,1.2,1.1,2.1,2.2,2.1h41.5c1.2,0,2.2-0.9,2.2-2.1
						c-0.1-1.2-1.1-2.1-2.2-2.1H3.8z"/>
				</g>
				<g>
					<path class="st2" d="M45.3,53.9H3.8c-2.1,0-3.8-1.7-3.8-3.8v-5.7c0-2.1,1.7-3.8,3.8-3.8h41.5c2.1,0,3.8,1.7,3.8,3.8v5.7
						C49,52.2,47.3,53.9,45.3,53.9z M3.8,43.7c-0.4,0-0.8,0.3-0.8,0.8v5.7c0,0.4,0.3,0.8,0.8,0.8h41.5c0.4,0,0.8-0.3,0.8-0.8v-5.7
						c0-0.4-0.3-0.8-0.8-0.8H3.8z"/>
				</g>
			</g>
			<g>
				<g>
					<path class="st2" d="M8.1,50c-0.8,0-1.5-0.7-1.5-1.5v-2.3c0-0.8,0.7-1.5,1.5-1.5s1.5,0.7,1.5,1.5v2.3C9.6,49.3,8.9,50,8.1,50z"
						/>
				</g>
				<g>
					<path class="st2" d="M13.6,50c-0.8,0-1.5-0.7-1.5-1.5v-2.3c0-0.8,0.7-1.5,1.5-1.5s1.5,0.7,1.5,1.5v2.3
						C15.1,49.3,14.4,50,13.6,50z"/>
				</g>
				<g>
					<path class="st2" d="M19.1,50c-0.8,0-1.5-0.7-1.5-1.5v-2.3c0-0.8,0.7-1.5,1.5-1.5s1.5,0.7,1.5,1.5v2.3C20.6,49.3,20,50,19.1,50
						z"/>
				</g>
				<g>
					<path class="st2" d="M24.7,50c-0.8,0-1.5-0.7-1.5-1.5v-2.3c0-0.8,0.7-1.5,1.5-1.5s1.5,0.7,1.5,1.5v2.3
						C26.2,49.3,25.5,50,24.7,50z"/>
				</g>
				<g>
					<path class="st2" d="M30.2,50c-0.8,0-1.5-0.7-1.5-1.5v-2.3c0-0.8,0.7-1.5,1.5-1.5s1.5,0.7,1.5,1.5v2.3C31.7,49.3,31,50,30.2,50
						z"/>
				</g>
				<g>
					<path class="st2" d="M35.7,50c-0.8,0-1.5-0.7-1.5-1.5v-2.3c0-0.8,0.7-1.5,1.5-1.5s1.5,0.7,1.5,1.5v2.3
						C37.2,49.3,36.6,50,35.7,50z"/>
				</g>
				<g>
					<path class="st2" d="M41.3,50c-0.8,0-1.5-0.7-1.5-1.5v-2.3c0-0.8,0.7-1.5,1.5-1.5s1.5,0.7,1.5,1.5v2.3
						C42.8,49.3,42.1,50,41.3,50z"/>
				</g>
			</g>
		</g>
		<g>
			<g>
				<g>
					<path class="st0" d="M47.5,60.3c0,1.3-1,2.3-2.3,2.3H3.8c-1.2,0-2.3-1-2.3-2.3v-5.7c0-1.3,1-2.3,2.3-2.3h41.5
						c1.3,0,2.3,1,2.3,2.3L47.5,60.3L47.5,60.3z"/>
				</g>
				<g>
					<path class="st1" d="M3.8,52.4c-1.2,0-2.2,0.9-2.2,2.1c0.1,1.2,1.1,2.1,2.2,2.1h41.5c1.2,0,2.2-0.9,2.2-2.1
						c-0.1-1.2-1.1-2.1-2.2-2.1H3.8z"/>
				</g>
				<g>
					<path class="st2" d="M45.3,64.1H3.8c-2.1,0-3.8-1.7-3.8-3.8v-5.7c0-2.1,1.7-3.8,3.8-3.8h41.5c2.1,0,3.8,1.7,3.8,3.8v5.7
						C49,62.4,47.3,64.1,45.3,64.1z M3.8,53.9c-0.4,0-0.8,0.3-0.8,0.8v5.7c0,0.4,0.3,0.8,0.8,0.8h41.5c0.4,0,0.8-0.3,0.8-0.8v-5.7
						c0-0.4-0.3-0.8-0.8-0.8H3.8z"/>
				</g>
			</g>
			<g>
				<g>
					<path class="st2" d="M8.1,60.1c-0.8,0-1.5-0.7-1.5-1.5v-2.3c0-0.8,0.7-1.5,1.5-1.5s1.5,0.7,1.5,1.5v2.3
						C9.6,59.5,8.9,60.1,8.1,60.1z"/>
				</g>
				<g>
					<path class="st2" d="M13.6,60.1c-0.8,0-1.5-0.7-1.5-1.5v-2.3c0-0.8,0.7-1.5,1.5-1.5s1.5,0.7,1.5,1.5v2.3
						C15.1,59.5,14.4,60.1,13.6,60.1z"/>
				</g>
				<g>
					<path class="st2" d="M19.1,60.1c-0.8,0-1.5-0.7-1.5-1.5v-2.3c0-0.8,0.7-1.5,1.5-1.5s1.5,0.7,1.5,1.5v2.3
						C20.6,59.5,20,60.1,19.1,60.1z"/>
				</g>
				<g>
					<path class="st2" d="M24.7,60.1c-0.8,0-1.5-0.7-1.5-1.5v-2.3c0-0.8,0.7-1.5,1.5-1.5s1.5,0.7,1.5,1.5v2.3
						C26.2,59.5,25.5,60.1,24.7,60.1z"/>
				</g>
				<g>
					<path class="st2" d="M30.2,60.1c-0.8,0-1.5-0.7-1.5-1.5v-2.3c0-0.8,0.7-1.5,1.5-1.5s1.5,0.7,1.5,1.5v2.3
						C31.7,59.5,31,60.1,30.2,60.1z"/>
				</g>
				<g>
					<path class="st2" d="M35.7,60.1c-0.8,0-1.5-0.7-1.5-1.5v-2.3c0-0.8,0.7-1.5,1.5-1.5s1.5,0.7,1.5,1.5v2.3
						C37.2,59.5,36.6,60.1,35.7,60.1z"/>
				</g>
				<g>
					<path class="st2" d="M41.3,60.1c-0.8,0-1.5-0.7-1.5-1.5v-2.3c0-0.8,0.7-1.5,1.5-1.5s1.5,0.7,1.5,1.5v2.3
						C42.8,59.5,42.1,60.1,41.3,60.1z"/>
				</g>
			</g>
		</g>
		<g>
			<g>
				<g>
					<path class="st0" d="M47.5,70.5c0,1.3-1,2.3-2.3,2.3H3.8c-1.2,0-2.3-1-2.3-2.3v-5.7c0-1.3,1-2.3,2.3-2.3h41.5
						c1.3,0,2.3,1,2.3,2.3L47.5,70.5L47.5,70.5z"/>
				</g>
				<g>
					<path class="st1" d="M3.8,62.6c-1.2,0-2.2,0.9-2.2,2.1c0.1,1.2,1.1,2.1,2.2,2.1h41.5c1.2,0,2.2-0.9,2.2-2.1
						c-0.1-1.2-1.1-2.1-2.2-2.1C45.3,62.6,3.8,62.6,3.8,62.6z"/>
				</g>
				<g>
					<path class="st2" d="M45.3,74.3H3.8c-2.1,0-3.8-1.7-3.8-3.8v-5.7c0-2.1,1.7-3.8,3.8-3.8h41.5c2.1,0,3.8,1.7,3.8,3.8v5.7
						C49,72.6,47.3,74.3,45.3,74.3z M3.8,64.1c-0.4,0-0.8,0.3-0.8,0.8v5.7c0,0.4,0.3,0.8,0.8,0.8h41.5c0.4,0,0.8-0.3,0.8-0.8v-5.7
						c0-0.4-0.3-0.8-0.8-0.8H3.8z"/>
				</g>
			</g>
			<g>
				<g>
					<path class="st2" d="M8.1,70.3c-0.8,0-1.5-0.7-1.5-1.5v-2.3c0-0.8,0.7-1.5,1.5-1.5s1.5,0.7,1.5,1.5v2.3
						C9.6,69.7,8.9,70.3,8.1,70.3z"/>
				</g>
				<g>
					<path class="st2" d="M13.6,70.3c-0.8,0-1.5-0.7-1.5-1.5v-2.3c0-0.8,0.7-1.5,1.5-1.5s1.5,0.7,1.5,1.5v2.3
						C15.1,69.7,14.4,70.3,13.6,70.3z"/>
				</g>
				<g>
					<path class="st2" d="M19.1,70.3c-0.8,0-1.5-0.7-1.5-1.5v-2.3c0-0.8,0.7-1.5,1.5-1.5s1.5,0.7,1.5,1.5v2.3
						C20.6,69.7,20,70.3,19.1,70.3z"/>
				</g>
				<g>
					<path class="st2" d="M24.7,70.3c-0.8,0-1.5-0.7-1.5-1.5v-2.3c0-0.8,0.7-1.5,1.5-1.5s1.5,0.7,1.5,1.5v2.3
						C26.2,69.7,25.5,70.3,24.7,70.3z"/>
				</g>
				<g>
					<path class="st2" d="M30.2,70.3c-0.8,0-1.5-0.7-1.5-1.5v-2.3c0-0.8,0.7-1.5,1.5-1.5s1.5,0.7,1.5,1.5v2.3
						C31.7,69.7,31,70.3,30.2,70.3z"/>
				</g>
				<g>
					<path class="st2" d="M35.7,70.3c-0.8,0-1.5-0.7-1.5-1.5v-2.3c0-0.8,0.7-1.5,1.5-1.5s1.5,0.7,1.5,1.5v2.3
						C37.2,69.7,36.6,70.3,35.7,70.3z"/>
				</g>
				<g>
					<path class="st2" d="M41.3,70.3c-0.8,0-1.5-0.7-1.5-1.5v-2.3c0-0.8,0.7-1.5,1.5-1.5s1.5,0.7,1.5,1.5v2.3
						C42.8,69.7,42.1,70.3,41.3,70.3z"/>
				</g>
			</g>
		</g>
		<g>
			<g>
				<g>
					<path class="st0" d="M47.5,80.7c0,1.3-1,2.3-2.3,2.3H3.8c-1.2,0-2.3-1-2.3-2.3v-5.7c0-1.3,1-2.3,2.3-2.3h41.5
						c1.3,0,2.3,1,2.3,2.3L47.5,80.7L47.5,80.7z"/>
				</g>
				<g>
					<path class="st1" d="M3.8,72.8c-1.2,0-2.2,0.9-2.2,2.1C1.6,76.1,2.6,77,3.8,77h41.5c1.2,0,2.2-0.9,2.2-2.1
						c-0.1-1.2-1.1-2.1-2.2-2.1H3.8z"/>
				</g>
				<g>
					<path class="st2" d="M45.3,84.5H3.8c-2.1,0-3.8-1.7-3.8-3.8v-5.7c0-2.1,1.7-3.8,3.8-3.8h41.5c2.1,0,3.8,1.7,3.8,3.8v5.7
						C49,82.8,47.3,84.5,45.3,84.5z M3.8,74.3c-0.4,0-0.8,0.3-0.8,0.8v5.7c0,0.4,0.3,0.8,0.8,0.8h41.5c0.4,0,0.8-0.3,0.8-0.8v-5.7
						c0-0.4-0.3-0.8-0.8-0.8L3.8,74.3L3.8,74.3z"/>
				</g>
			</g>
			<g>
				<g>
					<path class="st2" d="M8.1,80.5c-0.8,0-1.5-0.7-1.5-1.5v-2.3c0-0.8,0.7-1.5,1.5-1.5s1.5,0.7,1.5,1.5V79
						C9.6,79.9,8.9,80.5,8.1,80.5z"/>
				</g>
				<g>
					<path class="st2" d="M13.6,80.5c-0.8,0-1.5-0.7-1.5-1.5v-2.3c0-0.8,0.7-1.5,1.5-1.5s1.5,0.7,1.5,1.5V79
						C15.1,79.9,14.4,80.5,13.6,80.5z"/>
				</g>
				<g>
					<path class="st2" d="M19.1,80.5c-0.8,0-1.5-0.7-1.5-1.5v-2.3c0-0.8,0.7-1.5,1.5-1.5s1.5,0.7,1.5,1.5V79
						C20.6,79.9,20,80.5,19.1,80.5z"/>
				</g>
				<g>
					<path class="st2" d="M24.7,80.5c-0.8,0-1.5-0.7-1.5-1.5v-2.3c0-0.8,0.7-1.5,1.5-1.5s1.5,0.7,1.5,1.5V79
						C26.2,79.9,25.5,80.5,24.7,80.5z"/>
				</g>
				<g>
					<path class="st2" d="M30.2,80.5c-0.8,0-1.5-0.7-1.5-1.5v-2.3c0-0.8,0.7-1.5,1.5-1.5s1.5,0.7,1.5,1.5V79
						C31.7,79.9,31,80.5,30.2,80.5z"/>
				</g>
				<g>
					<path class="st2" d="M35.7,80.5c-0.8,0-1.5-0.7-1.5-1.5v-2.3c0-0.8,0.7-1.5,1.5-1.5s1.5,0.7,1.5,1.5V79
						C37.2,79.9,36.6,80.5,35.7,80.5z"/>
				</g>
				<g>
					<path class="st2" d="M41.3,80.5c-0.8,0-1.5-0.7-1.5-1.5v-2.3c0-0.8,0.7-1.5,1.5-1.5s1.5,0.7,1.5,1.5V79
						C42.8,79.9,42.1,80.5,41.3,80.5z"/>
				</g>
			</g>
		</g>
		<g>
			<g>
				<g>
					<path class="st0" d="M47.5,90.9c0,1.3-1,2.3-2.3,2.3H3.8c-1.2,0-2.3-1-2.3-2.3v-5.7c0-1.3,1-2.3,2.3-2.3h41.5
						c1.3,0,2.3,1,2.3,2.3L47.5,90.9L47.5,90.9z"/>
				</g>
				<g>
					<path class="st1" d="M3.8,83c-1.2,0-2.2,0.9-2.2,2.1c0.1,1.2,1.1,2.1,2.2,2.1h41.5c1.2,0,2.2-0.9,2.2-2.1
						c-0.1-1.2-1.1-2.1-2.2-2.1H3.8z"/>
				</g>
				<g>
					<path class="st2" d="M45.3,94.7H3.8C1.7,94.7,0,93,0,90.9v-5.7c0-2.1,1.7-3.8,3.8-3.8h41.5c2.1,0,3.8,1.7,3.8,3.8v5.7
						C49,93,47.3,94.7,45.3,94.7z M3.8,84.5c-0.4,0-0.8,0.3-0.8,0.8v5.7c0,0.4,0.3,0.8,0.8,0.8h41.5c0.4,0,0.8-0.3,0.8-0.8v-5.7
						c0-0.4-0.3-0.8-0.8-0.8H3.8z"/>
				</g>
			</g>
			<g>
				<g>
					<path class="st2" d="M8.1,90.7c-0.8,0-1.5-0.7-1.5-1.5v-2.3c0-0.8,0.7-1.5,1.5-1.5s1.5,0.7,1.5,1.5v2.3
						C9.6,90,8.9,90.7,8.1,90.7z"/>
				</g>
				<g>
					<path class="st2" d="M13.6,90.7c-0.8,0-1.5-0.7-1.5-1.5v-2.3c0-0.8,0.7-1.5,1.5-1.5s1.5,0.7,1.5,1.5v2.3
						C15.1,90,14.4,90.7,13.6,90.7z"/>
				</g>
				<g>
					<path class="st2" d="M19.1,90.7c-0.8,0-1.5-0.7-1.5-1.5v-2.3c0-0.8,0.7-1.5,1.5-1.5s1.5,0.7,1.5,1.5v2.3
						C20.6,90,20,90.7,19.1,90.7z"/>
				</g>
				<g>
					<path class="st2" d="M24.7,90.7c-0.8,0-1.5-0.7-1.5-1.5v-2.3c0-0.8,0.7-1.5,1.5-1.5s1.5,0.7,1.5,1.5v2.3
						C26.2,90,25.5,90.7,24.7,90.7z"/>
				</g>
				<g>
					<path class="st2" d="M30.2,90.7c-0.8,0-1.5-0.7-1.5-1.5v-2.3c0-0.8,0.7-1.5,1.5-1.5s1.5,0.7,1.5,1.5v2.3
						C31.7,90,31,90.7,30.2,90.7z"/>
				</g>
				<g>
					<path class="st2" d="M35.7,90.7c-0.8,0-1.5-0.7-1.5-1.5v-2.3c0-0.8,0.7-1.5,1.5-1.5s1.5,0.7,1.5,1.5v2.3
						C37.2,90,36.6,90.7,35.7,90.7z"/>
				</g>
				<g>
					<path class="st2" d="M41.3,90.7c-0.8,0-1.5-0.7-1.5-1.5v-2.3c0-0.8,0.7-1.5,1.5-1.5s1.5,0.7,1.5,1.5v2.3
						C42.8,90,42.1,90.7,41.3,90.7z"/>
				</g>
			</g>
		</g>
		<g>
			<g>
				<g>
					<path class="st0" d="M47.5,101.1c0,1.3-1,2.3-2.3,2.3H3.8c-1.2,0-2.3-1-2.3-2.3v-5.7c0-1.3,1-2.3,2.3-2.3h41.5
						c1.3,0,2.3,1,2.3,2.3L47.5,101.1L47.5,101.1z"/>
				</g>
				<g>
					<path class="st1" d="M3.8,93.2c-1.2,0-2.2,0.9-2.2,2.1c0.1,1.2,1.1,2.1,2.2,2.1h41.5c1.2,0,2.2-0.9,2.2-2.1
						c-0.1-1.2-1.1-2.1-2.2-2.1H3.8z"/>
				</g>
				<g>
					<path class="st2" d="M45.3,104.9H3.8c-2.1,0-3.8-1.7-3.8-3.8v-5.7c0-2.1,1.7-3.8,3.8-3.8h41.5c2.1,0,3.8,1.7,3.8,3.8v5.7
						C49,103.2,47.3,104.9,45.3,104.9z M3.8,94.7C3.3,94.7,3,95,3,95.4v5.7c0,0.4,0.3,0.8,0.8,0.8h41.5c0.4,0,0.8-0.3,0.8-0.8v-5.7
						c0-0.4-0.3-0.8-0.8-0.8L3.8,94.7L3.8,94.7z"/>
				</g>
			</g>
			<g>
				<g>
					<path class="st2" d="M8.1,100.9c-0.8,0-1.5-0.7-1.5-1.5v-2.3c0-0.8,0.7-1.5,1.5-1.5s1.5,0.7,1.5,1.5v2.3
						C9.6,100.2,8.9,100.9,8.1,100.9z"/>
				</g>
				<g>
					<path class="st2" d="M13.6,100.9c-0.8,0-1.5-0.7-1.5-1.5v-2.3c0-0.8,0.7-1.5,1.5-1.5s1.5,0.7,1.5,1.5v2.3
						C15.1,100.2,14.4,100.9,13.6,100.9z"/>
				</g>
				<g>
					<path class="st2" d="M19.1,100.9c-0.8,0-1.5-0.7-1.5-1.5v-2.3c0-0.8,0.7-1.5,1.5-1.5s1.5,0.7,1.5,1.5v2.3
						C20.6,100.2,20,100.9,19.1,100.9z"/>
				</g>
				<g>
					<path class="st2" d="M24.7,100.9c-0.8,0-1.5-0.7-1.5-1.5v-2.3c0-0.8,0.7-1.5,1.5-1.5s1.5,0.7,1.5,1.5v2.3
						C26.2,100.2,25.5,100.9,24.7,100.9z"/>
				</g>
				<g>
					<path class="st2" d="M30.2,100.9c-0.8,0-1.5-0.7-1.5-1.5v-2.3c0-0.8,0.7-1.5,1.5-1.5s1.5,0.7,1.5,1.5v2.3
						C31.7,100.2,31,100.9,30.2,100.9z"/>
				</g>
				<g>
					<path class="st2" d="M35.7,100.9c-0.8,0-1.5-0.7-1.5-1.5v-2.3c0-0.8,0.7-1.5,1.5-1.5s1.5,0.7,1.5,1.5v2.3
						C37.2,100.2,36.6,100.9,35.7,100.9z"/>
				</g>
				<g>
					<path class="st2" d="M41.3,100.9c-0.8,0-1.5-0.7-1.5-1.5v-2.3c0-0.8,0.7-1.5,1.5-1.5s1.5,0.7,1.5,1.5v2.3
						C42.8,100.2,42.1,100.9,41.3,100.9z"/>
				</g>
			</g>
		</g>
		<g>
			<g>
				<g>
					<path class="st0" d="M47.5,111.3c0,1.3-1,2.3-2.3,2.3H3.8c-1.2,0-2.3-1-2.3-2.3v-5.7c0-1.2,1-2.3,2.3-2.3h41.5
						c1.3,0,2.3,1,2.3,2.3L47.5,111.3L47.5,111.3z"/>
				</g>
				<g>
					<path class="st1" d="M3.8,103.4c-1.2,0-2.2,0.9-2.2,2.1c0.1,1.2,1.1,2.1,2.2,2.1h41.5c1.2,0,2.2-0.9,2.2-2.1
						c-0.1-1.2-1.1-2.1-2.2-2.1H3.8z"/>
				</g>
				<g>
					<path class="st2" d="M45.3,115.1H3.8c-2.1,0-3.8-1.7-3.8-3.8v-5.7c0-2.1,1.7-3.8,3.8-3.8h41.5c2.1,0,3.8,1.7,3.8,3.8v5.7
						C49,113.4,47.3,115.1,45.3,115.1z M3.8,104.9c-0.4,0-0.8,0.3-0.8,0.8v5.7c0,0.4,0.3,0.8,0.8,0.8h41.5c0.4,0,0.8-0.3,0.8-0.8
						v-5.7c0-0.4-0.3-0.8-0.8-0.8H3.8z"/>
				</g>
			</g>
			<g>
				<g>
					<path class="st2" d="M8.1,111.1c-0.8,0-1.5-0.7-1.5-1.5v-2.3c0-0.8,0.7-1.5,1.5-1.5s1.5,0.7,1.5,1.5v2.3
						C9.6,110.4,8.9,111.1,8.1,111.1z"/>
				</g>
				<g>
					<path class="st2" d="M13.6,111.1c-0.8,0-1.5-0.7-1.5-1.5v-2.3c0-0.8,0.7-1.5,1.5-1.5s1.5,0.7,1.5,1.5v2.3
						C15.1,110.4,14.4,111.1,13.6,111.1z"/>
				</g>
				<g>
					<path class="st2" d="M19.1,111.1c-0.8,0-1.5-0.7-1.5-1.5v-2.3c0-0.8,0.7-1.5,1.5-1.5s1.5,0.7,1.5,1.5v2.3
						C20.6,110.4,20,111.1,19.1,111.1z"/>
				</g>
				<g>
					<path class="st2" d="M24.7,111.1c-0.8,0-1.5-0.7-1.5-1.5v-2.3c0-0.8,0.7-1.5,1.5-1.5s1.5,0.7,1.5,1.5v2.3
						C26.2,110.4,25.5,111.1,24.7,111.1z"/>
				</g>
				<g>
					<path class="st2" d="M30.2,111.1c-0.8,0-1.5-0.7-1.5-1.5v-2.3c0-0.8,0.7-1.5,1.5-1.5s1.5,0.7,1.5,1.5v2.3
						C31.7,110.4,31,111.1,30.2,111.1z"/>
				</g>
				<g>
					<path class="st2" d="M35.7,111.1c-0.8,0-1.5-0.7-1.5-1.5v-2.3c0-0.8,0.7-1.5,1.5-1.5s1.5,0.7,1.5,1.5v2.3
						C37.2,110.4,36.6,111.1,35.7,111.1z"/>
				</g>
				<g>
					<path class="st2" d="M41.3,111.1c-0.8,0-1.5-0.7-1.5-1.5v-2.3c0-0.8,0.7-1.5,1.5-1.5s1.5,0.7,1.5,1.5v2.3
						C42.8,110.4,42.1,111.1,41.3,111.1z"/>
				</g>
			</g>
		</g>
		<g>
			<g>
				<g>
					<path class="st0" d="M47.5,121.5c0,1.3-1,2.3-2.3,2.3H3.8c-1.2,0-2.3-1-2.3-2.3v-5.7c0-1.3,1-2.3,2.3-2.3h41.5
						c1.3,0,2.3,1,2.3,2.3L47.5,121.5L47.5,121.5z"/>
				</g>
				<g>
					<path class="st1" d="M3.8,113.6c-1.2,0-2.2,0.9-2.2,2.1c0.1,1.2,1.1,2.1,2.2,2.1h41.5c1.2,0,2.2-0.9,2.2-2.1
						c-0.1-1.2-1.1-2.1-2.2-2.1H3.8z"/>
				</g>
				<g>
					<path class="st2" d="M45.3,125.2H3.8c-2.1,0-3.8-1.7-3.8-3.8v-5.7c0-2.1,1.7-3.8,3.8-3.8h41.5c2.1,0,3.8,1.7,3.8,3.8v5.7
						C49,123.6,47.3,125.2,45.3,125.2z M3.8,115.1c-0.4,0-0.8,0.3-0.8,0.8v5.7c0,0.4,0.3,0.8,0.8,0.8h41.5c0.4,0,0.8-0.3,0.8-0.8
						v-5.7c0-0.4-0.3-0.8-0.8-0.8H3.8z"/>
				</g>
			</g>
			<g>
				<g>
					<path class="st2" d="M8.1,121.3c-0.8,0-1.5-0.7-1.5-1.5v-2.3c0-0.8,0.7-1.5,1.5-1.5s1.5,0.7,1.5,1.5v2.3
						C9.6,120.6,8.9,121.3,8.1,121.3z"/>
				</g>
				<g>
					<path class="st2" d="M13.6,121.3c-0.8,0-1.5-0.7-1.5-1.5v-2.3c0-0.8,0.7-1.5,1.5-1.5s1.5,0.7,1.5,1.5v2.3
						C15.1,120.6,14.4,121.3,13.6,121.3z"/>
				</g>
				<g>
					<path class="st2" d="M19.1,121.3c-0.8,0-1.5-0.7-1.5-1.5v-2.3c0-0.8,0.7-1.5,1.5-1.5s1.5,0.7,1.5,1.5v2.3
						C20.6,120.6,20,121.3,19.1,121.3z"/>
				</g>
				<g>
					<path class="st2" d="M24.7,121.3c-0.8,0-1.5-0.7-1.5-1.5v-2.3c0-0.8,0.7-1.5,1.5-1.5s1.5,0.7,1.5,1.5v2.3
						C26.2,120.6,25.5,121.3,24.7,121.3z"/>
				</g>
				<g>
					<path class="st2" d="M30.2,121.3c-0.8,0-1.5-0.7-1.5-1.5v-2.3c0-0.8,0.7-1.5,1.5-1.5s1.5,0.7,1.5,1.5v2.3
						C31.7,120.6,31,121.3,30.2,121.3z"/>
				</g>
				<g>
					<path class="st2" d="M35.7,121.3c-0.8,0-1.5-0.7-1.5-1.5v-2.3c0-0.8,0.7-1.5,1.5-1.5s1.5,0.7,1.5,1.5v2.3
						C37.2,120.6,36.6,121.3,35.7,121.3z"/>
				</g>
				<g>
					<path class="st2" d="M41.3,121.3c-0.8,0-1.5-0.7-1.5-1.5v-2.3c0-0.8,0.7-1.5,1.5-1.5s1.5,0.7,1.5,1.5v2.3
						C42.8,120.6,42.1,121.3,41.3,121.3z"/>
				</g>
			</g>
		</g>
	</g>
	<g>
		<g>
			<g>
				<g>
					<path class="st0" d="M98.2,20.2c0,1.3-1,2.3-2.3,2.3H54.4c-1.2,0-2.3-1-2.3-2.3v-5.7c0-1.3,1-2.3,2.3-2.3H96
						c1.3,0,2.3,1,2.3,2.3V20.2z"/>
				</g>
				<g>
					<path class="st1" d="M54.4,12.3c-1.2,0-2.2,0.9-2.2,2.1c0.1,1.2,1.1,2.1,2.2,2.1H96c1.2,0,2.2-0.9,2.2-2.1
						c-0.1-1.2-1.1-2.1-2.2-2.1H54.4z"/>
				</g>
				<g>
					<path class="st2" d="M96,24H54.4c-2.1,0-3.8-1.7-3.8-3.8v-5.7c0-2.1,1.7-3.8,3.8-3.8H96c2.1,0,3.8,1.7,3.8,3.8v5.7
						C99.7,22.3,98,24,96,24z M54.4,13.8c-0.4,0-0.8,0.3-0.8,0.8v5.7c0,0.4,0.3,0.8,0.8,0.8H96c0.4,0,0.8-0.3,0.8-0.8v-5.7
						c0-0.4-0.3-0.8-0.8-0.8C96,13.8,54.4,13.8,54.4,13.8z"/>
				</g>
			</g>
			<g>
				<g>
					<path class="st2" d="M58.8,20c-0.8,0-1.5-0.7-1.5-1.5v-2.3c0-0.8,0.7-1.5,1.5-1.5s1.5,0.7,1.5,1.5v2.3
						C60.3,19.3,59.6,20,58.8,20z"/>
				</g>
				<g>
					<path class="st2" d="M64.3,20c-0.8,0-1.5-0.7-1.5-1.5v-2.3c0-0.8,0.7-1.5,1.5-1.5c0.8,0,1.5,0.7,1.5,1.5v2.3
						C65.8,19.3,65.1,20,64.3,20z"/>
				</g>
				<g>
					<path class="st2" d="M69.8,20c-0.8,0-1.5-0.7-1.5-1.5v-2.3c0-0.8,0.7-1.5,1.5-1.5s1.5,0.7,1.5,1.5v2.3
						C71.3,19.3,70.7,20,69.8,20z"/>
				</g>
				<g>
					<path class="st2" d="M75.4,20c-0.8,0-1.5-0.7-1.5-1.5v-2.3c0-0.8,0.7-1.5,1.5-1.5s1.5,0.7,1.5,1.5v2.3
						C76.9,19.3,76.2,20,75.4,20z"/>
				</g>
				<g>
					<path class="st2" d="M80.9,20c-0.8,0-1.5-0.7-1.5-1.5v-2.3c0-0.8,0.7-1.5,1.5-1.5s1.5,0.7,1.5,1.5v2.3
						C82.4,19.3,81.7,20,80.9,20z"/>
				</g>
				<g>
					<path class="st2" d="M86.4,20c-0.8,0-1.5-0.7-1.5-1.5v-2.3c0-0.8,0.7-1.5,1.5-1.5s1.5,0.7,1.5,1.5v2.3
						C87.9,19.3,87.2,20,86.4,20z"/>
				</g>
				<g>
					<path class="st2" d="M91.9,20c-0.8,0-1.5-0.7-1.5-1.5v-2.3c0-0.8,0.7-1.5,1.5-1.5s1.5,0.7,1.5,1.5v2.3
						C93.4,19.3,92.8,20,91.9,20z"/>
				</g>
			</g>
		</g>
		<g>
			<g>
				<g>
					<path class="st0" d="M98.2,30.4c0,1.3-1,2.3-2.3,2.3H54.4c-1.2,0-2.3-1-2.3-2.3v-5.7c0-1.3,1-2.3,2.3-2.3H96
						c1.3,0,2.3,1,2.3,2.3V30.4z"/>
				</g>
				<g>
					<path class="st1" d="M54.4,22.5c-1.2,0-2.2,0.9-2.2,2.1c0.1,1.2,1.1,2.1,2.2,2.1H96c1.2,0,2.2-0.9,2.2-2.1
						c-0.1-1.2-1.1-2.1-2.2-2.1H54.4z"/>
				</g>
				<g>
					<path class="st2" d="M96,34.2H54.4c-2.1,0-3.8-1.7-3.8-3.8v-5.7c0-2.1,1.7-3.8,3.8-3.8H96c2.1,0,3.8,1.7,3.8,3.8v5.7
						C99.7,32.5,98,34.2,96,34.2z M54.4,24c-0.4,0-0.8,0.3-0.8,0.8v5.7c0,0.4,0.3,0.8,0.8,0.8H96c0.4,0,0.8-0.3,0.8-0.8v-5.7
						c0-0.4-0.3-0.8-0.8-0.8H54.4z"/>
				</g>
			</g>
			<g>
				<g>
					<path class="st2" d="M58.8,30.2c-0.8,0-1.5-0.7-1.5-1.5v-2.3c0-0.8,0.7-1.5,1.5-1.5s1.5,0.7,1.5,1.5v2.3
						C60.3,29.5,59.6,30.2,58.8,30.2z"/>
				</g>
				<g>
					<path class="st2" d="M64.3,30.2c-0.8,0-1.5-0.7-1.5-1.5v-2.3c0-0.8,0.7-1.5,1.5-1.5c0.8,0,1.5,0.7,1.5,1.5v2.3
						C65.8,29.5,65.1,30.2,64.3,30.2z"/>
				</g>
				<g>
					<path class="st2" d="M69.8,30.2c-0.8,0-1.5-0.7-1.5-1.5v-2.3c0-0.8,0.7-1.5,1.5-1.5s1.5,0.7,1.5,1.5v2.3
						C71.3,29.5,70.7,30.2,69.8,30.2z"/>
				</g>
				<g>
					<path class="st2" d="M75.4,30.2c-0.8,0-1.5-0.7-1.5-1.5v-2.3c0-0.8,0.7-1.5,1.5-1.5s1.5,0.7,1.5,1.5v2.3
						C76.9,29.5,76.2,30.2,75.4,30.2z"/>
				</g>
				<g>
					<path class="st2" d="M80.9,30.2c-0.8,0-1.5-0.7-1.5-1.5v-2.3c0-0.8,0.7-1.5,1.5-1.5s1.5,0.7,1.5,1.5v2.3
						C82.4,29.5,81.7,30.2,80.9,30.2z"/>
				</g>
				<g>
					<path class="st2" d="M86.4,30.2c-0.8,0-1.5-0.7-1.5-1.5v-2.3c0-0.8,0.7-1.5,1.5-1.5s1.5,0.7,1.5,1.5v2.3
						C87.9,29.5,87.2,30.2,86.4,30.2z"/>
				</g>
				<g>
					<path class="st2" d="M91.9,30.2c-0.8,0-1.5-0.7-1.5-1.5v-2.3c0-0.8,0.7-1.5,1.5-1.5s1.5,0.7,1.5,1.5v2.3
						C93.4,29.5,92.8,30.2,91.9,30.2z"/>
				</g>
			</g>
		</g>
		<g>
			<g>
				<g>
					<path class="st0" d="M98.2,40.6c0,1.3-1,2.3-2.3,2.3H54.4c-1.2,0-2.3-1-2.3-2.3v-5.7c0-1.3,1-2.3,2.3-2.3H96
						c1.3,0,2.3,1,2.3,2.3V40.6z"/>
				</g>
				<g>
					<path class="st1" d="M54.4,32.7c-1.2,0-2.2,0.9-2.2,2.1c0.1,1.2,1.1,2.1,2.2,2.1H96c1.2,0,2.2-0.9,2.2-2.1
						c-0.1-1.2-1.1-2.1-2.2-2.1H54.4z"/>
				</g>
				<g>
					<path class="st2" d="M96,44.4H54.4c-2.1,0-3.8-1.7-3.8-3.8v-5.7c0-2.1,1.7-3.8,3.8-3.8H96c2.1,0,3.8,1.7,3.8,3.8v5.7
						C99.7,42.7,98,44.4,96,44.4z M54.4,34.2c-0.4,0-0.8,0.3-0.8,0.8v5.7c0,0.4,0.3,0.8,0.8,0.8H96c0.4,0,0.8-0.3,0.8-0.8v-5.7
						c0-0.4-0.3-0.8-0.8-0.8H54.4z"/>
				</g>
			</g>
			<g>
				<g>
					<path class="st2" d="M58.8,40.4c-0.8,0-1.5-0.7-1.5-1.5v-2.3c0-0.8,0.7-1.5,1.5-1.5s1.5,0.7,1.5,1.5v2.3
						C60.3,39.7,59.6,40.4,58.8,40.4z"/>
				</g>
				<g>
					<path class="st2" d="M64.3,40.4c-0.8,0-1.5-0.7-1.5-1.5v-2.3c0-0.8,0.7-1.5,1.5-1.5c0.8,0,1.5,0.7,1.5,1.5v2.3
						C65.8,39.7,65.1,40.4,64.3,40.4z"/>
				</g>
				<g>
					<path class="st2" d="M69.8,40.4c-0.8,0-1.5-0.7-1.5-1.5v-2.3c0-0.8,0.7-1.5,1.5-1.5s1.5,0.7,1.5,1.5v2.3
						C71.3,39.7,70.7,40.4,69.8,40.4z"/>
				</g>
				<g>
					<path class="st2" d="M75.4,40.4c-0.8,0-1.5-0.7-1.5-1.5v-2.3c0-0.8,0.7-1.5,1.5-1.5s1.5,0.7,1.5,1.5v2.3
						C76.9,39.7,76.2,40.4,75.4,40.4z"/>
				</g>
				<g>
					<path class="st2" d="M80.9,40.4c-0.8,0-1.5-0.7-1.5-1.5v-2.3c0-0.8,0.7-1.5,1.5-1.5s1.5,0.7,1.5,1.5v2.3
						C82.4,39.7,81.7,40.4,80.9,40.4z"/>
				</g>
				<g>
					<path class="st2" d="M86.4,40.4c-0.8,0-1.5-0.7-1.5-1.5v-2.3c0-0.8,0.7-1.5,1.5-1.5s1.5,0.7,1.5,1.5v2.3
						C87.9,39.7,87.2,40.4,86.4,40.4z"/>
				</g>
				<g>
					<path class="st2" d="M91.9,40.4c-0.8,0-1.5-0.7-1.5-1.5v-2.3c0-0.8,0.7-1.5,1.5-1.5s1.5,0.7,1.5,1.5v2.3
						C93.4,39.7,92.8,40.4,91.9,40.4z"/>
				</g>
			</g>
		</g>
		<g>
			<g>
				<g>
					<path class="st0" d="M98.2,50.8c0,1.3-1,2.3-2.3,2.3H54.4c-1.2,0-2.3-1-2.3-2.3v-5.7c0-1.3,1-2.3,2.3-2.3H96
						c1.3,0,2.3,1,2.3,2.3V50.8z"/>
				</g>
				<g>
					<path class="st1" d="M54.4,42.9c-1.2,0-2.2,0.9-2.2,2.1c0.1,1.2,1.1,2.1,2.2,2.1H96c1.2,0,2.2-0.9,2.2-2.1
						c-0.1-1.2-1.1-2.1-2.2-2.1H54.4z"/>
				</g>
				<g>
					<path class="st2" d="M96,54.5H54.4c-2.1,0-3.8-1.7-3.8-3.8v-5.7c0-2.1,1.7-3.8,3.8-3.8H96c2.1,0,3.8,1.7,3.8,3.8v5.7
						C99.7,52.9,98,54.5,96,54.5z M54.4,44.4c-0.4,0-0.8,0.3-0.8,0.8v5.7c0,0.4,0.3,0.8,0.8,0.8H96c0.4,0,0.8-0.3,0.8-0.8v-5.7
						c0-0.4-0.3-0.8-0.8-0.8H54.4z"/>
				</g>
			</g>
			<g>
				<g>
					<path class="st2" d="M58.8,50.6c-0.8,0-1.5-0.7-1.5-1.5v-2.3c0-0.8,0.7-1.5,1.5-1.5s1.5,0.7,1.5,1.5v2.3
						C60.3,49.9,59.6,50.6,58.8,50.6z"/>
				</g>
				<g>
					<path class="st2" d="M64.3,50.6c-0.8,0-1.5-0.7-1.5-1.5v-2.3c0-0.8,0.7-1.5,1.5-1.5c0.8,0,1.5,0.7,1.5,1.5v2.3
						C65.8,49.9,65.1,50.6,64.3,50.6z"/>
				</g>
				<g>
					<path class="st2" d="M69.8,50.6c-0.8,0-1.5-0.7-1.5-1.5v-2.3c0-0.8,0.7-1.5,1.5-1.5s1.5,0.7,1.5,1.5v2.3
						C71.3,49.9,70.7,50.6,69.8,50.6z"/>
				</g>
				<g>
					<path class="st2" d="M75.4,50.6c-0.8,0-1.5-0.7-1.5-1.5v-2.3c0-0.8,0.7-1.5,1.5-1.5s1.5,0.7,1.5,1.5v2.3
						C76.9,49.9,76.2,50.6,75.4,50.6z"/>
				</g>
				<g>
					<path class="st2" d="M80.9,50.6c-0.8,0-1.5-0.7-1.5-1.5v-2.3c0-0.8,0.7-1.5,1.5-1.5s1.5,0.7,1.5,1.5v2.3
						C82.4,49.9,81.7,50.6,80.9,50.6z"/>
				</g>
				<g>
					<path class="st2" d="M86.4,50.6c-0.8,0-1.5-0.7-1.5-1.5v-2.3c0-0.8,0.7-1.5,1.5-1.5s1.5,0.7,1.5,1.5v2.3
						C87.9,49.9,87.2,50.6,86.4,50.6z"/>
				</g>
				<g>
					<path class="st2" d="M91.9,50.6c-0.8,0-1.5-0.7-1.5-1.5v-2.3c0-0.8,0.7-1.5,1.5-1.5s1.5,0.7,1.5,1.5v2.3
						C93.4,49.9,92.8,50.6,91.9,50.6z"/>
				</g>
			</g>
		</g>
		<g>
			<g>
				<g>
					<path class="st0" d="M98.2,61c0,1.3-1,2.3-2.3,2.3H54.4c-1.2,0-2.3-1-2.3-2.3v-5.7c0-1.3,1-2.3,2.3-2.3H96c1.3,0,2.3,1,2.3,2.3
						V61z"/>
				</g>
				<g>
					<path class="st1" d="M54.4,53c-1.2,0-2.2,0.9-2.2,2.1c0.1,1.2,1.1,2.1,2.2,2.1H96c1.2,0,2.2-0.9,2.2-2.1C98.1,54,97.1,53,96,53
						H54.4z"/>
				</g>
				<g>
					<path class="st2" d="M96,64.7H54.4c-2.1,0-3.8-1.7-3.8-3.8v-5.7c0-2.1,1.7-3.8,3.8-3.8H96c2.1,0,3.8,1.7,3.8,3.8V61
						C99.7,63,98,64.7,96,64.7z M54.4,54.5c-0.4,0-0.8,0.3-0.8,0.8V61c0,0.4,0.3,0.8,0.8,0.8H96c0.4,0,0.8-0.3,0.8-0.8v-5.7
						c0-0.4-0.3-0.8-0.8-0.8H54.4z"/>
				</g>
			</g>
			<g>
				<g>
					<path class="st2" d="M58.8,60.8c-0.8,0-1.5-0.7-1.5-1.5V57c0-0.8,0.7-1.5,1.5-1.5s1.5,0.7,1.5,1.5v2.3
						C60.3,60.1,59.6,60.8,58.8,60.8z"/>
				</g>
				<g>
					<path class="st2" d="M64.3,60.8c-0.8,0-1.5-0.7-1.5-1.5V57c0-0.8,0.7-1.5,1.5-1.5c0.8,0,1.5,0.7,1.5,1.5v2.3
						C65.8,60.1,65.1,60.8,64.3,60.8z"/>
				</g>
				<g>
					<path class="st2" d="M69.8,60.8c-0.8,0-1.5-0.7-1.5-1.5V57c0-0.8,0.7-1.5,1.5-1.5s1.5,0.7,1.5,1.5v2.3
						C71.3,60.1,70.7,60.8,69.8,60.8z"/>
				</g>
				<g>
					<path class="st2" d="M75.4,60.8c-0.8,0-1.5-0.7-1.5-1.5V57c0-0.8,0.7-1.5,1.5-1.5s1.5,0.7,1.5,1.5v2.3
						C76.9,60.1,76.2,60.8,75.4,60.8z"/>
				</g>
				<g>
					<path class="st2" d="M80.9,60.8c-0.8,0-1.5-0.7-1.5-1.5V57c0-0.8,0.7-1.5,1.5-1.5s1.5,0.7,1.5,1.5v2.3
						C82.4,60.1,81.7,60.8,80.9,60.8z"/>
				</g>
				<g>
					<path class="st2" d="M86.4,60.8c-0.8,0-1.5-0.7-1.5-1.5V57c0-0.8,0.7-1.5,1.5-1.5s1.5,0.7,1.5,1.5v2.3
						C87.9,60.1,87.2,60.8,86.4,60.8z"/>
				</g>
				<g>
					<path class="st2" d="M91.9,60.8c-0.8,0-1.5-0.7-1.5-1.5V57c0-0.8,0.7-1.5,1.5-1.5s1.5,0.7,1.5,1.5v2.3
						C93.4,60.1,92.8,60.8,91.9,60.8z"/>
				</g>
			</g>
		</g>
		<g>
			<g>
				<g>
					<path class="st0" d="M98.2,71.2c0,1.3-1,2.3-2.3,2.3H54.4c-1.2,0-2.3-1-2.3-2.3v-5.7c0-1.3,1-2.3,2.3-2.3H96
						c1.3,0,2.3,1,2.3,2.3V71.2z"/>
				</g>
				<g>
					<path class="st1" d="M54.4,63.2c-1.2,0-2.2,0.9-2.2,2.1c0.1,1.2,1.1,2.1,2.2,2.1H96c1.2,0,2.2-0.9,2.2-2.1
						c-0.1-1.2-1.1-2.1-2.2-2.1H54.4z"/>
				</g>
				<g>
					<path class="st2" d="M96,74.9H54.4c-2.1,0-3.8-1.7-3.8-3.8v-5.7c0-2.1,1.7-3.8,3.8-3.8H96c2.1,0,3.8,1.7,3.8,3.8v5.7
						C99.7,73.2,98,74.9,96,74.9z M54.4,64.7c-0.4,0-0.8,0.3-0.8,0.8v5.7c0,0.4,0.3,0.8,0.8,0.8H96c0.4,0,0.8-0.3,0.8-0.8v-5.7
						c0-0.4-0.3-0.8-0.8-0.8H54.4z"/>
				</g>
			</g>
			<g>
				<g>
					<path class="st2" d="M58.8,71c-0.8,0-1.5-0.7-1.5-1.5v-2.3c0-0.8,0.7-1.5,1.5-1.5s1.5,0.7,1.5,1.5v2.3
						C60.3,70.3,59.6,71,58.8,71z"/>
				</g>
				<g>
					<path class="st2" d="M64.3,71c-0.8,0-1.5-0.7-1.5-1.5v-2.3c0-0.8,0.7-1.5,1.5-1.5c0.8,0,1.5,0.7,1.5,1.5v2.3
						C65.8,70.3,65.1,71,64.3,71z"/>
				</g>
				<g>
					<path class="st2" d="M69.8,71c-0.8,0-1.5-0.7-1.5-1.5v-2.3c0-0.8,0.7-1.5,1.5-1.5s1.5,0.7,1.5,1.5v2.3
						C71.3,70.3,70.7,71,69.8,71z"/>
				</g>
				<g>
					<path class="st2" d="M75.4,71c-0.8,0-1.5-0.7-1.5-1.5v-2.3c0-0.8,0.7-1.5,1.5-1.5s1.5,0.7,1.5,1.5v2.3
						C76.9,70.3,76.2,71,75.4,71z"/>
				</g>
				<g>
					<path class="st2" d="M80.9,71c-0.8,0-1.5-0.7-1.5-1.5v-2.3c0-0.8,0.7-1.5,1.5-1.5s1.5,0.7,1.5,1.5v2.3
						C82.4,70.3,81.7,71,80.9,71z"/>
				</g>
				<g>
					<path class="st2" d="M86.4,71c-0.8,0-1.5-0.7-1.5-1.5v-2.3c0-0.8,0.7-1.5,1.5-1.5s1.5,0.7,1.5,1.5v2.3
						C87.9,70.3,87.2,71,86.4,71z"/>
				</g>
				<g>
					<path class="st2" d="M91.9,71c-0.8,0-1.5-0.7-1.5-1.5v-2.3c0-0.8,0.7-1.5,1.5-1.5s1.5,0.7,1.5,1.5v2.3
						C93.4,70.3,92.8,71,91.9,71z"/>
				</g>
			</g>
		</g>
		<g>
			<g>
				<g>
					<path class="st0" d="M98.2,81.4c0,1.3-1,2.3-2.3,2.3H54.4c-1.2,0-2.3-1-2.3-2.3v-5.7c0-1.3,1-2.3,2.3-2.3H96
						c1.3,0,2.3,1,2.3,2.3V81.4z"/>
				</g>
				<g>
					<path class="st1" d="M54.4,73.4c-1.2,0-2.2,0.9-2.2,2.1c0.1,1.2,1.1,2.1,2.2,2.1H96c1.2,0,2.2-0.9,2.2-2.1
						c-0.1-1.2-1.1-2.1-2.2-2.1H54.4z"/>
				</g>
				<g>
					<path class="st2" d="M96,85.1H54.4c-2.1,0-3.8-1.7-3.8-3.8v-5.7c0-2.1,1.7-3.8,3.8-3.8H96c2.1,0,3.8,1.7,3.8,3.8v5.7
						C99.7,83.4,98,85.1,96,85.1z M54.4,74.9c-0.4,0-0.8,0.3-0.8,0.8v5.7c0,0.4,0.3,0.8,0.8,0.8H96c0.4,0,0.8-0.3,0.8-0.8v-5.7
						c0-0.4-0.3-0.8-0.8-0.8L54.4,74.9L54.4,74.9z"/>
				</g>
			</g>
			<g>
				<g>
					<path class="st2" d="M58.8,81.2c-0.8,0-1.5-0.7-1.5-1.5v-2.3c0-0.8,0.7-1.5,1.5-1.5s1.5,0.7,1.5,1.5v2.3
						C60.3,80.5,59.6,81.2,58.8,81.2z"/>
				</g>
				<g>
					<path class="st2" d="M64.3,81.2c-0.8,0-1.5-0.7-1.5-1.5v-2.3c0-0.8,0.7-1.5,1.5-1.5c0.8,0,1.5,0.7,1.5,1.5v2.3
						C65.8,80.5,65.1,81.2,64.3,81.2z"/>
				</g>
				<g>
					<path class="st2" d="M69.8,81.2c-0.8,0-1.5-0.7-1.5-1.5v-2.3c0-0.8,0.7-1.5,1.5-1.5s1.5,0.7,1.5,1.5v2.3
						C71.3,80.5,70.7,81.2,69.8,81.2z"/>
				</g>
				<g>
					<path class="st2" d="M75.4,81.2c-0.8,0-1.5-0.7-1.5-1.5v-2.3c0-0.8,0.7-1.5,1.5-1.5s1.5,0.7,1.5,1.5v2.3
						C76.9,80.5,76.2,81.2,75.4,81.2z"/>
				</g>
				<g>
					<path class="st2" d="M80.9,81.2c-0.8,0-1.5-0.7-1.5-1.5v-2.3c0-0.8,0.7-1.5,1.5-1.5s1.5,0.7,1.5,1.5v2.3
						C82.4,80.5,81.7,81.2,80.9,81.2z"/>
				</g>
				<g>
					<path class="st2" d="M86.4,81.2c-0.8,0-1.5-0.7-1.5-1.5v-2.3c0-0.8,0.7-1.5,1.5-1.5s1.5,0.7,1.5,1.5v2.3
						C87.9,80.5,87.2,81.2,86.4,81.2z"/>
				</g>
				<g>
					<path class="st2" d="M91.9,81.2c-0.8,0-1.5-0.7-1.5-1.5v-2.3c0-0.8,0.7-1.5,1.5-1.5s1.5,0.7,1.5,1.5v2.3
						C93.4,80.5,92.8,81.2,91.9,81.2z"/>
				</g>
			</g>
		</g>
		<g>
			<g>
				<g>
					<path class="st0" d="M98.2,91.5c0,1.3-1,2.3-2.3,2.3H54.4c-1.2,0-2.3-1-2.3-2.3v-5.7c0-1.2,1-2.3,2.3-2.3H96
						c1.3,0,2.3,1,2.3,2.3V91.5z"/>
				</g>
				<g>
					<path class="st1" d="M54.4,83.6c-1.2,0-2.2,0.9-2.2,2.1c0.1,1.2,1.1,2.1,2.2,2.1H96c1.2,0,2.2-0.9,2.2-2.1
						c-0.1-1.2-1.1-2.1-2.2-2.1H54.4z"/>
				</g>
				<g>
					<path class="st2" d="M96,95.3H54.4c-2.1,0-3.8-1.7-3.8-3.8v-5.7c0-2.1,1.7-3.8,3.8-3.8H96c2.1,0,3.8,1.7,3.8,3.8v5.7
						C99.7,93.6,98,95.3,96,95.3z M54.4,85.1c-0.4,0-0.8,0.3-0.8,0.8v5.7c0,0.4,0.3,0.8,0.8,0.8H96c0.4,0,0.8-0.3,0.8-0.8v-5.7
						c0-0.4-0.3-0.8-0.8-0.8H54.4z"/>
				</g>
			</g>
			<g>
				<g>
					<path class="st2" d="M58.8,91.3c-0.8,0-1.5-0.7-1.5-1.5v-2.3c0-0.8,0.7-1.5,1.5-1.5s1.5,0.7,1.5,1.5v2.3
						C60.3,90.7,59.6,91.3,58.8,91.3z"/>
				</g>
				<g>
					<path class="st2" d="M64.3,91.3c-0.8,0-1.5-0.7-1.5-1.5v-2.3c0-0.8,0.7-1.5,1.5-1.5c0.8,0,1.5,0.7,1.5,1.5v2.3
						C65.8,90.7,65.1,91.3,64.3,91.3z"/>
				</g>
				<g>
					<path class="st2" d="M69.8,91.3c-0.8,0-1.5-0.7-1.5-1.5v-2.3c0-0.8,0.7-1.5,1.5-1.5s1.5,0.7,1.5,1.5v2.3
						C71.3,90.7,70.7,91.3,69.8,91.3z"/>
				</g>
				<g>
					<path class="st2" d="M75.4,91.3c-0.8,0-1.5-0.7-1.5-1.5v-2.3c0-0.8,0.7-1.5,1.5-1.5s1.5,0.7,1.5,1.5v2.3
						C76.9,90.7,76.2,91.3,75.4,91.3z"/>
				</g>
				<g>
					<path class="st2" d="M80.9,91.3c-0.8,0-1.5-0.7-1.5-1.5v-2.3c0-0.8,0.7-1.5,1.5-1.5s1.5,0.7,1.5,1.5v2.3
						C82.4,90.7,81.7,91.3,80.9,91.3z"/>
				</g>
				<g>
					<path class="st2" d="M86.4,91.3c-0.8,0-1.5-0.7-1.5-1.5v-2.3c0-0.8,0.7-1.5,1.5-1.5s1.5,0.7,1.5,1.5v2.3
						C87.9,90.7,87.2,91.3,86.4,91.3z"/>
				</g>
				<g>
					<path class="st2" d="M91.9,91.3c-0.8,0-1.5-0.7-1.5-1.5v-2.3c0-0.8,0.7-1.5,1.5-1.5s1.5,0.7,1.5,1.5v2.3
						C93.4,90.7,92.8,91.3,91.9,91.3z"/>
				</g>
			</g>
		</g>
	</g>
	<g>
		<g>
			<polygon class="st3" points="109.8,123.7 40.6,123.7 24.5,30.1 125.9,30.1 			"/>
		</g>
		<g>
			<polygon class="st4" points="32,73.7 118.4,73.7 125.9,30.1 24.5,30.1 			"/>
		</g>
		<g>
			<polygon class="st5" points="93.2,123.7 57.3,123.7 48.9,30.1 101.5,30.1 			"/>
		</g>
		<g>
			<polygon class="st6" points="97.6,73.7 101.5,30.1 48.9,30.1 52.8,73.7 			"/>
		</g>
		<path class="st2" d="M127,29.2c-0.3-0.3-0.7-0.5-1.1-0.5h-16.3V7.8c0-3.1-2.6-5.7-5.7-5.7H46.6c-3.1,0-5.7,2.6-5.7,5.7v20.8H24.5
			c-0.4,0-0.9,0.2-1.1,0.5c-0.3,0.3-0.4,0.8-0.3,1.2L39.1,124c0.1,0.7,0.7,1.2,1.5,1.2h69.2c0.7,0,1.4-0.5,1.5-1.2l16.1-93.6
			C127.4,30,127.3,29.5,127,29.2z M43.9,7.8c0-1.5,1.2-2.7,2.7-2.7h57.3c1.5,0,2.7,1.2,2.7,2.7v20.8H43.9V7.8z M108.5,122.2H41.9
			L26.3,31.6h14.6v7.4c-2.1,0.7-3.6,2.6-3.6,4.9c0,2.9,2.3,5.2,5.2,5.2s5.2-2.3,5.2-5.2c0-2.4-1.6-4.4-3.8-5v-7.4h80.2L108.5,122.2z
			 M42.5,41.8c1.2,0,2.2,1,2.2,2.2c0,1.2-1,2.2-2.2,2.2s-2.2-1-2.2-2.2C40.3,42.8,41.3,41.8,42.5,41.8z"/>
	</g>
	<g>
		<circle class="st1" cx="75.2" cy="76.1" r="27.6"/>
	</g>
	<g>
		<path class="st0" d="M75.2,48.5v55.2c15.2,0,27.6-12.4,27.6-27.6C102.8,60.8,90.5,48.5,75.2,48.5z"/>
	</g>
	<g>
		<circle class="st1" cx="75.2" cy="76.1" r="21.4"/>
	</g>
	<g>
		<path class="st0" d="M60.1,61l30.2,30.2c8.3-8.3,8.3-21.9,0-30.2C82,52.6,68.4,52.6,60.1,61z"/>
	</g>
	<g>
		<path class="st2" d="M84.1,80.9c-0.3,0-0.6-0.1-0.9-0.3c-0.2,0.2-0.5,0.3-0.9,0.3c-0.8,0-1.5-0.7-1.5-1.5c0-1.3,1.1-2.4,2.4-2.4
			s2.4,1.1,2.4,2.4C85.6,80.2,85,80.9,84.1,80.9z"/>
	</g>
	<g>
		<path class="st7" d="M84.6,84.2c0,1.3-1,2.3-2.3,2.3s-2.3-1-2.3-2.3c0-1.3,1-2.3,2.3-2.3S84.6,82.9,84.6,84.2z"/>
	</g>
	<g>
		<path class="st8" d="M82.3,81.9c1.3,0,2.3,1,2.3,2.3c0,1.3-1,2.3-2.3,2.3"/>
	</g>
	<path class="st2" d="M75.2,47C59.2,47,46.1,60,46.1,76.1c0,16.1,13.1,29.1,29.1,29.1s29.1-13.1,29.1-29.1C104.3,60,91.3,47,75.2,47
		z M100.7,81.6c-0.2-0.2-0.4-0.4-0.7-0.4l-1.5-0.4c-0.3-0.1-0.6-0.1-0.9,0c0.2-1.2,0.4-2.3,0.4-3.5c0.2,0.2,0.6,0.3,0.9,0.3h1.6
		c0.3,0,0.6-0.1,0.8-0.2C101.2,78.8,101,80.2,100.7,81.6z M97.8,87.4l-1.4-0.8c-0.3-0.2-0.6-0.2-0.9-0.2c0.5-1.1,1-2.1,1.4-3.3
		c0.2,0.2,0.4,0.4,0.8,0.5l1.5,0.4c0.1,0,0.3,0.1,0.4,0.1c0.2,0,0.3,0,0.5-0.1c-0.4,1.4-1,2.7-1.7,4C98.3,87.8,98.1,87.6,97.8,87.4z
		 M55.3,76.1c0-2.4,0.5-4.8,1.3-7c0,0.1,0.1,0.2,0.1,0.3c0,0.1,0.1,0.2,0.1,0.3c0.1,0.2,0.2,0.4,0.3,0.7c0,0,0,0.1,0.1,0.1
		c0,0,0,0,0,0c0.6,1.5,1.6,2.9,2.7,4c1.5,1.5,3.4,2.6,5.4,3.2c-0.6,0.9-1.3,1.9-1.9,2.9c-1.3,2-2.7,4.2-4.5,6.6
		C56.6,84.1,55.3,80.2,55.3,76.1z M52,88c-0.7-1.3-1.2-2.6-1.7-4c0.1,0,0.3,0.1,0.5,0.1c0.1,0,0.3,0,0.4-0.1l1.5-0.4
		c0.3-0.1,0.6-0.3,0.8-0.5c0.4,1.1,0.8,2.2,1.4,3.3c-0.3,0-0.6,0-0.9,0.2l-1.4,0.8C52.3,87.6,52.1,87.8,52,88z M49.1,77.3
		c0.2,0.2,0.5,0.2,0.8,0.2h1.6c0.3,0,0.6-0.1,0.9-0.3c0.1,1.2,0.2,2.4,0.4,3.5c-0.3-0.1-0.6-0.1-0.9,0l-1.5,0.4
		c-0.3,0.1-0.5,0.2-0.7,0.4C49.4,80.2,49.2,78.8,49.1,77.3z M49.7,70.5c0.2,0.2,0.4,0.4,0.7,0.4l1.5,0.4c0.1,0,0.3,0.1,0.4,0.1
		c0.2,0,0.4,0,0.5-0.1c-0.2,1.2-0.4,2.3-0.4,3.5c-0.2-0.2-0.6-0.3-0.9-0.3h-1.6c-0.3,0-0.6,0.1-0.8,0.2
		C49.2,73.4,49.4,71.9,49.7,70.5z M52.6,64.7l1.4,0.8c0.2,0.1,0.5,0.2,0.8,0.2c0,0,0.1,0,0.1,0c-0.5,1.1-1,2.1-1.4,3.3
		c-0.2-0.2-0.5-0.4-0.8-0.5l-1.5-0.4c-0.3-0.1-0.6-0.1-0.8,0c0.4-1.4,1-2.7,1.7-4C52.1,64.4,52.3,64.6,52.6,64.7z M90.9,58.3
		c-0.2,0.2-0.4,0.5-0.4,0.9c-0.9-0.8-1.8-1.6-2.8-2.2c0.3-0.1,0.5-0.3,0.7-0.6l0.8-1.4c0.1-0.3,0.2-0.5,0.2-0.8
		c1.2,0.8,2.4,1.7,3.4,2.6c-0.3,0.1-0.5,0.2-0.8,0.4L90.9,58.3z M86.5,53.4l-0.8,1.4c-0.2,0.3-0.2,0.6-0.2,0.9
		c-1.1-0.5-2.1-1-3.3-1.4c0.2-0.2,0.4-0.4,0.5-0.8l0.4-1.5c0.1-0.3,0.1-0.6,0-0.8c1.4,0.4,2.7,1,4,1.7C86.9,53,86.7,53.2,86.5,53.4z
		 M80.3,51.3l-0.4,1.5c-0.1,0.3-0.1,0.6,0,0.9c-1.2-0.2-2.3-0.4-3.5-0.4c0.2-0.2,0.3-0.6,0.3-0.9v-1.6c0-0.3-0.1-0.6-0.2-0.8
		c1.5,0.1,2.9,0.3,4.3,0.6C80.5,50.7,80.4,51,80.3,51.3z M74,53.3c-1.2,0.1-2.4,0.2-3.5,0.4c0.1-0.3,0.1-0.6,0-0.9l-0.4-1.5
		c-0.1-0.3-0.2-0.5-0.4-0.7c1.4-0.3,2.8-0.5,4.3-0.6c-0.2,0.2-0.2,0.5-0.2,0.8v1.6C73.7,52.7,73.8,53,74,53.3z M67.2,52.1l0.4,1.5
		c0.1,0.3,0.3,0.6,0.5,0.8c-1.1,0.4-2.2,0.8-3.3,1.4c0-0.3,0-0.6-0.2-0.9l-0.8-1.4c-0.1-0.3-0.4-0.4-0.6-0.6c1.3-0.7,2.6-1.2,4-1.7
		C67.2,51.5,67.1,51.8,67.2,52.1z M61.3,54.9l0.8,1.4c0.2,0.3,0.4,0.5,0.7,0.6c-1,0.7-1.9,1.4-2.8,2.2c0-0.3-0.2-0.6-0.4-0.9
		l-1.1-1.1c-0.2-0.2-0.5-0.3-0.8-0.4c1.1-1,2.2-1.8,3.4-2.6C61.1,54.4,61.1,54.7,61.3,54.9z M69.2,68.5c1.2,1.2,2.1,2.6,2.7,4.1
		c0.2,0.4,0.5,0.7,0.8,0.8s0.8,0.1,1.2,0c1-0.5,2-0.6,3.3-0.6c3,0,8.3,2.4,10.4,6.9c1.9,4,0.9,8.8-3.1,13.8c0,0,0,0,0,0
		c-2.9,1.5-6.1,2.4-9.4,2.4c-5.3,0-10.3-2.1-14.1-5.8c-0.1-0.1-0.2-0.2-0.3-0.4c0.2-0.2,0.3-0.4,0.5-0.6c0.2,0.1,0.5,0.1,0.8,0
		c1.7-0.5,2.6,1.2,2.7,1.4c0.3,0.5,0.8,0.8,1.3,0.8c0.2,0,0.5-0.1,0.7-0.2c0.7-0.4,1-1.3,0.7-2c-0.5-1.1-1.9-2.7-4-3.1
		c0.3-0.4,0.6-0.9,0.9-1.3c0.1,0,0.1,0,0.2,0c1.7-0.5,2.6,1.2,2.7,1.4c0.3,0.5,0.8,0.8,1.3,0.8c0.2,0,0.5-0.1,0.7-0.2
		c0.7-0.4,1-1.3,0.7-2c-0.5-1-1.8-2.5-3.6-3c1.6-2.5,2.9-4.5,4.5-6.1c0.4-0.3,0.5-0.8,0.4-1.3s-0.4-0.9-0.8-1.1
		c-1-0.5-2-1.1-2.9-1.9c0,0,0,0,0,0c-0.2-0.2-0.4-0.4-0.6-0.6c-0.4-0.4-0.7-0.8-1.1-1.2c-0.1-0.1-0.2-0.3-0.3-0.4
		c-0.5-0.7-0.9-1.4-1.2-2.1l1.2-1.2C66.8,66.6,68.1,67.4,69.2,68.5z M61.2,69.3c0.4,0.2,0.8,0.5,1.2,0.8c0.1,0.1,0.1,0.2,0.2,0.3
		c0.2,0.4,0.5,0.7,0.7,1c0.1,0.1,0.2,0.3,0.3,0.4c0.3,0.4,0.7,0.8,1.1,1.2c0,0,0,0,0,0h0c0.2,0.2,0.4,0.4,0.6,0.5
		c0.2,0.4,0.4,0.9,0.5,1.3c-1.4-0.5-2.8-1.3-3.9-2.4c-0.7-0.7-1.2-1.4-1.6-2.2L61.2,69.3z M60.3,62.9c-0.1,0.2-0.1,0.4-0.1,0.6
		c0,0,0,0,0,0l0,0v0c0,0.4,0.1,0.8,0.2,1.2c0,0.1,0,0.2,0.1,0.4c0,0.2,0.1,0.5,0.2,0.7c-0.3-0.1-0.6-0.2-0.9-0.3c0,0,0,0-0.1,0
		c-0.3-0.1-0.5-0.1-0.8-0.2c-0.1,0-0.1,0-0.2,0c-0.1,0-0.1,0-0.2,0C59.1,64.4,59.7,63.7,60.3,62.9z M59.5,93.9
		c0.2-0.2,0.4-0.5,0.4-0.8c0.9,0.8,1.8,1.6,2.8,2.2c-0.3,0.1-0.5,0.3-0.7,0.6l-0.8,1.4c-0.1,0.3-0.2,0.5-0.2,0.8
		c-1.2-0.8-2.4-1.7-3.4-2.6c0.3-0.1,0.5-0.2,0.8-0.4L59.5,93.9z M63.9,98.7l0.8-1.4c0.2-0.3,0.2-0.6,0.2-0.9c1.1,0.5,2.1,1,3.3,1.4
		c-0.2,0.2-0.4,0.5-0.5,0.8l-0.4,1.5c-0.1,0.3-0.1,0.6,0,0.8c-1.4-0.4-2.7-1-4-1.7C63.5,99.2,63.7,99,63.9,98.7z M70.1,100.9
		l0.4-1.5c0.1-0.3,0.1-0.6,0-0.9c1.2,0.2,2.3,0.4,3.5,0.4c-0.2,0.2-0.3,0.6-0.3,0.9v1.6c0,0.3,0.1,0.6,0.2,0.8
		c-1.5-0.1-2.9-0.3-4.3-0.6C69.9,101.4,70,101.2,70.1,100.9z M76.4,98.9c1.2-0.1,2.4-0.2,3.5-0.4c-0.1,0.3-0.1,0.6,0,0.9l0.4,1.5
		c0.1,0.3,0.2,0.5,0.5,0.7c-1.4,0.3-2.8,0.5-4.3,0.6c0.2-0.2,0.2-0.5,0.2-0.8v-1.6C76.7,99.4,76.6,99.1,76.4,98.9z M83.2,100.1
		l-0.4-1.5c-0.1-0.3-0.3-0.6-0.5-0.8c1.1-0.4,2.2-0.8,3.3-1.4c0,0.3,0,0.6,0.2,0.9l0.8,1.4c0.1,0.3,0.4,0.4,0.6,0.6
		c-1.3,0.7-2.6,1.2-4,1.7C83.3,100.7,83.3,100.4,83.2,100.1z M89.1,97.2l-0.8-1.4c-0.2-0.3-0.4-0.5-0.7-0.6c1-0.6,1.9-1.4,2.8-2.2
		c0,0.3,0.2,0.6,0.4,0.8L92,95c0.2,0.2,0.5,0.3,0.8,0.4c-1.1,1-2.2,1.8-3.4,2.6C89.3,97.7,89.3,97.5,89.1,97.2z M91,88.1
		c0.9-3,0.8-5.6,0.2-7.7c0.6-0.8,0.7-1.9,0.1-2.9c-0.5-0.8-1.3-1.2-2.2-1.2c-3-4-8.1-6.5-11.9-6.5c-1,0-2.1,0.1-3.1,0.3
		c-0.7-1.4-1.7-2.7-2.8-3.8c-1.6-1.6-3.6-2.8-5.7-3.6c0,0,0,0,0,0c-0.3-0.1-0.7-0.2-1-0.3c-0.1,0-0.2,0-0.3-0.1
		c-0.3-0.1-0.6-0.2-0.9-0.2c-0.1,0-0.2,0-0.3-0.1c-0.4-0.1-0.8-0.1-1.2-0.2c-0.3,0-0.5,0-0.8,0.1c0,0,0,0,0,0
		c3.8-3.8,8.7-5.8,14.1-5.8s10.3,2.1,14.1,5.8l0,0c3.8,3.8,5.8,8.7,5.8,14.1C95.1,80.5,93.6,84.7,91,88.1z M98.4,64.1
		c0.7,1.3,1.2,2.6,1.7,4c-0.3-0.1-0.6-0.1-0.8,0l-1.5,0.4c-0.3,0.1-0.6,0.3-0.8,0.5c-0.4-1.1-0.8-2.2-1.4-3.3c0,0,0.1,0,0.1,0
		c0.3,0,0.5-0.1,0.8-0.2l1.4-0.8C98.1,64.6,98.3,64.4,98.4,64.1z M100.5,74.6h-1.6c-0.3,0-0.6,0.1-0.9,0.3c-0.1-1.2-0.2-2.4-0.4-3.5
		c0.2,0.1,0.3,0.1,0.5,0.1c0.1,0,0.3,0,0.4-0.1L100,71c0.3-0.1,0.5-0.2,0.7-0.4c0.3,1.4,0.5,2.8,0.6,4.3
		C101,74.7,100.8,74.6,100.5,74.6z M97.1,61.9c-0.3,0-0.6,0-0.8,0.2L95,62.9c-0.3,0.2-0.5,0.4-0.6,0.7c-0.6-1-1.4-1.9-2.2-2.8
		c0.3,0,0.6-0.2,0.8-0.4l1.1-1.1c0.2-0.2,0.3-0.5,0.4-0.8C95.5,59.6,96.4,60.7,97.1,61.9z M55.9,58.5c0.1,0.3,0.2,0.5,0.4,0.8
		l1.1,1.1c0.2,0.2,0.5,0.4,0.9,0.4c-0.8,0.9-1.5,1.8-2.2,2.8c-0.1-0.3-0.3-0.5-0.6-0.7l-1.4-0.8c-0.3-0.1-0.5-0.2-0.8-0.2
		C54,60.7,54.9,59.6,55.9,58.5z M53.3,90.2C53.3,90.2,53.3,90.2,53.3,90.2c0.3,0,0.6-0.1,0.8-0.2l1.4-0.8c0.3-0.2,0.5-0.4,0.6-0.7
		c0.5,0.8,1,1.5,1.6,2.2c0.1,0.1,0.1,0.1,0.2,0.2c0.1,0.1,0.3,0.3,0.4,0.4c-0.3,0-0.6,0.2-0.8,0.4l-1.1,1.1
		c-0.2,0.2-0.3,0.5-0.4,0.8C54.9,92.6,54,91.4,53.3,90.2z M94.5,93.6c-0.1-0.3-0.2-0.5-0.4-0.8L93,91.8c-0.2-0.2-0.5-0.4-0.8-0.4
		c0.8-0.9,1.5-1.8,2.2-2.8c0.1,0.3,0.3,0.5,0.6,0.7l1.4,0.8c0.2,0.1,0.5,0.2,0.8,0.2c0,0,0,0,0.1,0C96.4,91.4,95.5,92.6,94.5,93.6z"
		/>
</g>
<g>
	<g>
		<g>
			<path class="st9" d="M152.4,68.5c-3.1,0-5.8-1.6-7.3-4.2l0,0l-8.1-8.1c-3.3-3.3-3.3-8.7,0-12c2.6-2.6,6.4-3.1,9.5-1.7
				c1.5-1.5,3.6-2.5,5.9-2.5c2.3,0,4.4,1,5.9,2.5c3.1-1.4,6.9-0.9,9.5,1.7c3.3,3.3,3.3,8.7,0,12l-8.1,8.1l0,0
				C158.2,66.8,155.5,68.5,152.4,68.5z"/>
		</g>
		<g>
			<path class="st3" d="M145.1,64.3l1.3,0.5l-9.4-8.7c-3.3-3.3-3.3-8.7,0-12c1.4-1.4,3.1-2.1,4.8-2.4c1.8,0.2,3.5,1,4.8,2.4
				C149.9,47.5,148.4,61,145.1,64.3z"/>
		</g>
		<g>
			<path class="st2" d="M152.4,69.5c-3.3,0-6.4-1.7-8.1-4.6l-8-8c-1.8-1.8-2.8-4.2-2.8-6.7s1-4.9,2.8-6.7c2.6-2.6,6.6-3.4,10-2.2
				c1.7-1.5,3.9-2.3,6.2-2.3c2.3,0,4.4,0.8,6.2,2.3c3.4-1.2,7.4-0.4,10,2.2c3.7,3.7,3.7,9.7,0,13.5l-8.1,8
				C158.7,67.8,155.7,69.5,152.4,69.5z M146,63.8c1.4,2.3,3.8,3.7,6.4,3.7c2.7,0,5.1-1.4,6.4-3.7c0.1-0.1,0.1-0.1,0.2-0.2l8.1-8.1
				c2.9-2.9,2.9-7.7,0-10.5c-2.2-2.2-5.5-2.8-8.3-1.5c-0.4,0.2-0.8,0.1-1.2-0.2c-1.4-1.4-3.3-2.2-5.3-2.2c-2,0-3.8,0.8-5.3,2.2
				c-0.3,0.3-0.8,0.4-1.2,0.2c-2.9-1.3-6.2-0.7-8.3,1.5c-1.4,1.4-2.2,3.3-2.2,5.3s0.8,3.8,2.2,5.3l8.2,8.1
				C145.9,63.6,145.9,63.7,146,63.8L146,63.8z"/>
		</g>
	</g>
	<g>
		<path class="st3" d="M186,105.9c0,17.2-15,20-33.6,20s-33.6-2.7-33.6-20s15-37.7,33.6-37.7C171,68.3,186,88.7,186,105.9z"/>
	</g>
	<g>
		<path class="st9" d="M156.6,68.6c-16.6,2.7-29.5,21.4-29.5,37.2s12.8,19.5,29.5,19.9c16.6-0.5,29.5-4,29.5-19.9
			S173.2,71.3,156.6,68.6z"/>
	</g>
	<g>
		<path class="st2" d="M152.4,126.9c-18,0-34.7-2.5-34.7-21c0-17.5,15.4-38.7,34.7-38.7S187,88.4,187,105.9
			C187,124.4,170.4,126.9,152.4,126.9z M152.4,69.3c-18,0-32.6,20-32.6,36.6c0,15.7,13.1,18.9,32.6,18.9s32.6-3.2,32.6-18.9
			C185,89.3,170.4,69.3,152.4,69.3z"/>
	</g>
	<g>
		<path class="st0" d="M166.5,68.8c0,2.1-1.7,3.9-3.9,3.9h-20.4c-2.1,0-3.9-1.7-3.9-3.9l0,0c0-2.1,1.7-3.9,3.9-3.9h20.4
			C164.8,64.9,166.5,66.6,166.5,68.8L166.5,68.8z"/>
	</g>
	<g>
		<path class="st4" d="M166.5,68.8L166.5,68.8c0,2.1-1.7,3.9-3.9,3.9h-20.4c-2.1,0-3.9-1.7-3.9-3.9l0,0"/>
	</g>
	<path class="st2" d="M162.6,63.9h-8.7l2.8-2.8c0.4-0.4,0.4-1,0-1.4s-1-0.4-1.4,0l-2.9,2.9l-2.9-2.9c-0.4-0.4-1-0.4-1.4,0
		s-0.4,1,0,1.4l2.8,2.8h-8.7c-2.7,0-4.9,2.2-4.9,4.9c0,2.7,2.2,4.9,4.9,4.9h20.4c2.7,0,4.9-2.2,4.9-4.9
		C167.5,66.1,165.3,63.9,162.6,63.9z M162.6,71.6h-20.4c-1.6,0-2.9-1.3-2.9-2.9c0-1.6,1.3-2.9,2.9-2.9h20.4c1.6,0,2.9,1.3,2.9,2.9
		C165.4,70.4,164.1,71.6,162.6,71.6z"/>
	<g>
		<path class="st10" d="M135,103.7c0-2.5,2-4.4,4.4-4.4c1.3,0,2.5,0.5,3.3,1.5c-0.4-2.1-2.2-3.6-4.4-3.6c-2.5,0-4.4,2-4.4,4.4
			c0,1.2,0.4,2.2,1.2,2.9C135,104.3,135,104.1,135,103.7z"/>
	</g>
	<g>
		<path class="st3" d="M131.3,111.9c1-2.3,3.6-3.3,5.8-2.3c1.2,0.5,2.1,1.5,2.5,2.7c0.4-2.1-0.6-4.2-2.6-5c-2.3-1-4.9,0.1-5.8,2.3
			c-0.5,1-0.5,2.2-0.1,3.1C131.1,112.4,131.1,112.1,131.3,111.9z"/>
	</g>
	<g>
		<path class="st10" d="M136.8,90.3c0-1.5,1.2-2.7,2.7-2.7c0.8,0,1.5,0.3,2,0.9c-0.2-1.2-1.3-2.1-2.6-2.1c-1.5,0-2.7,1.2-2.7,2.7
			c0,0.7,0.3,1.3,0.7,1.8C136.8,90.7,136.8,90.5,136.8,90.3z"/>
	</g>
	<g>
		<path class="st3" d="M140.6,80.1c0.9-1.2,2.5-1.4,3.7-0.6c0.6,0.5,1,1.2,1.1,1.8c0.5-1.2,0.2-2.5-0.9-3.3
			c-1.2-0.9-2.9-0.6-3.7,0.6c-0.4,0.5-0.5,1.2-0.5,1.8C140.5,80.5,140.6,80.3,140.6,80.1z"/>
	</g>
	<g>
		<path class="st3" d="M130.2,92.2c0.9-1.2,2.5-1.4,3.7-0.6c0.6,0.5,1,1.2,1.1,1.8c0.5-1.2,0.2-2.5-0.9-3.3
			c-1.2-0.9-2.9-0.6-3.7,0.6c-0.4,0.5-0.5,1.2-0.5,1.8C130,92.5,130,92.3,130.2,92.2z"/>
	</g>
	<g>
		<path class="st2" d="M149.4,52.8c-0.1,0-0.3,0-0.4-0.1c-0.5-0.2-0.8-0.8-0.5-1.4c0.1-0.3,3.5-7.5,9.5-9.8c0.5-0.2,1.1,0.1,1.3,0.6
			c0.2,0.5-0.1,1.1-0.6,1.3c-5.2,2-8.3,8.7-8.4,8.7C150.1,52.6,149.8,52.8,149.4,52.8z"/>
	</g>
	<g>
		<path class="st2" d="M142.8,49.1c-0.1,0-0.2,0-0.3-0.1c-0.5-0.1-0.9-0.7-0.8-1.2c0.1-0.2,1.3-4.6,4.5-6.6c0.5-0.3,1.1-0.1,1.4,0.3
			c0.3,0.5,0.1,1.1-0.3,1.4c-2.5,1.5-3.6,5.3-3.6,5.3C143.6,48.8,143.2,49.1,142.8,49.1z"/>
	</g>
	<g>
		<circle class="st1" cx="152.4" cy="99.1" r="18.9"/>
	</g>
	<g>
		<path class="st0" d="M152.4,80.3V118c10.4,0,18.9-8.5,18.9-18.9C171.3,88.7,162.8,80.3,152.4,80.3z"/>
	</g>
	<g>
		<circle class="st1" cx="152.4" cy="99.1" r="14.6"/>
	</g>
	<g>
		<path class="st0" d="M142.1,88.8l20.6,20.6c5.7-5.7,5.7-15,0-20.6C157,83.1,147.7,83.1,142.1,88.8z"/>
	</g>
	<g>
		<path class="st2" d="M158.5,102.4c-0.2,0-0.4-0.1-0.6-0.2c-0.1,0.1-0.3,0.2-0.6,0.2c-0.5,0-1-0.5-1-1c0-0.9,0.8-1.6,1.6-1.6
			s1.6,0.8,1.6,1.6C159.5,102,159.1,102.4,158.5,102.4z"/>
	</g>
	<g>
		<path class="st7" d="M158.8,104.7c0,0.9-0.7,1.6-1.6,1.6s-1.6-0.7-1.6-1.6s0.7-1.6,1.6-1.6S158.8,103.8,158.8,104.7z"/>
	</g>
	<g>
		<path class="st8" d="M157.2,103.1c0.9,0,1.6,0.7,1.6,1.6s-0.7,1.6-1.6,1.6"/>
	</g>
	<path class="st2" d="M152.4,79.3c-11,0-19.9,9-19.9,19.9c0,11,9,19.9,19.9,19.9c11,0,19.9-9,19.9-19.9
		C172.3,88.1,163.3,79.3,152.4,79.3z M169.8,102.9c-0.1-0.1-0.3-0.3-0.5-0.3l-1-0.3c-0.2-0.1-0.4-0.1-0.6,0c0.1-0.8,0.3-1.6,0.3-2.4
		c0.1,0.1,0.4,0.2,0.6,0.2h1.1c0.2,0,0.4-0.1,0.5-0.1C170.2,101,170,102,169.8,102.9z M167.8,106.9l-1-0.5c-0.2-0.1-0.4-0.1-0.6-0.1
		c0.3-0.8,0.7-1.4,1-2.3c0.1,0.1,0.3,0.3,0.5,0.3l1,0.3c0.1,0,0.2,0.1,0.3,0.1c0.1,0,0.2,0,0.3-0.1c-0.3,1-0.7,1.8-1.2,2.7
		C168.2,107.1,168,107,167.8,106.9z M138.8,99.1c0-1.6,0.3-3.3,0.9-4.8c0,0.1,0.1,0.1,0.1,0.2s0.1,0.1,0.1,0.2
		c0.1,0.1,0.1,0.3,0.2,0.5c0,0,0,0.1,0.1,0.1l0,0c0.4,1,1.1,2,1.8,2.7c1,1,2.3,1.8,3.7,2.2c-0.4,0.6-0.9,1.3-1.3,2
		c-0.9,1.4-1.8,2.9-3.1,4.5C139.7,104.6,138.8,102,138.8,99.1z M136.5,107.3c-0.5-0.9-0.8-1.8-1.2-2.7c0.1,0,0.2,0.1,0.3,0.1
		c0.1,0,0.2,0,0.3-0.1l1-0.3c0.2-0.1,0.4-0.2,0.5-0.3c0.3,0.8,0.5,1.5,1,2.3c-0.2,0-0.4,0-0.6,0.1l-1,0.5
		C136.7,107,136.6,107.1,136.5,107.3z M134.6,100c0.1,0.1,0.3,0.1,0.5,0.1h1.1c0.2,0,0.4-0.1,0.6-0.2c0.1,0.8,0.1,1.6,0.3,2.4
		c-0.2-0.1-0.4-0.1-0.6,0l-1,0.3c-0.2,0.1-0.3,0.1-0.5,0.3C134.8,102,134.6,101,134.6,100z M135,95.4c0.1,0.1,0.3,0.3,0.5,0.3l1,0.3
		c0.1,0,0.2,0.1,0.3,0.1c0.1,0,0.2,0,0.3-0.1c-0.1,0.8-0.3,1.6-0.3,2.4c-0.1-0.1-0.4-0.2-0.6-0.2h-1.1c-0.2,0-0.4,0.1-0.5,0.1
		C134.6,97.3,134.8,96.3,135,95.4z M136.9,91.4l1,0.5c0.1,0.1,0.3,0.1,0.5,0.1h0.1c-0.3,0.8-0.7,1.4-1,2.3c-0.1-0.1-0.3-0.3-0.5-0.3
		l-1-0.3c-0.2-0.1-0.4-0.1-0.5,0c0.3-1,0.7-1.8,1.2-2.7C136.6,91.2,136.7,91.3,136.9,91.4z M163.1,87c-0.1,0.1-0.3,0.3-0.3,0.6
		c-0.6-0.5-1.2-1.1-1.9-1.5c0.2-0.1,0.3-0.2,0.5-0.4l0.5-1c0.1-0.2,0.1-0.3,0.1-0.5c0.8,0.5,1.6,1.2,2.3,1.8
		c-0.2,0.1-0.3,0.1-0.5,0.3L163.1,87z M160.1,83.7l-0.5,1c-0.1,0.2-0.1,0.4-0.1,0.6c-0.8-0.3-1.5-0.7-2.3-0.9
		c0.1-0.1,0.3-0.3,0.3-0.5l0.3-1c0.1-0.2,0.1-0.4,0-0.5c1,0.3,1.8,0.7,2.7,1.2C160.4,83.4,160.2,83.5,160.1,83.7z M155.9,82.2
		l-0.3,1c-0.1,0.2-0.1,0.4,0.1,0.6c-0.8-0.1-1.6-0.3-2.4-0.3c0.1-0.1,0.2-0.4,0.2-0.6v-1.1c0-0.2-0.1-0.4-0.1-0.5
		c1,0.1,2,0.2,2.9,0.4C156,81.9,155.9,82,155.9,82.2z M151.6,83.6c-0.8,0.1-1.6,0.1-2.4,0.3c0.1-0.2,0.1-0.4,0.1-0.6l-0.3-1
		c-0.1-0.2-0.1-0.3-0.3-0.5c1-0.2,1.9-0.3,2.9-0.4c-0.1,0.1-0.1,0.3-0.1,0.5V83C151.4,83.2,151.4,83.4,151.6,83.6z M146.9,82.7
		l0.3,1c0.1,0.2,0.2,0.4,0.3,0.5c-0.8,0.3-1.5,0.5-2.3,0.9c0-0.2,0-0.4-0.1-0.6l-0.5-1c-0.1-0.2-0.3-0.3-0.4-0.4
		c0.9-0.5,1.8-0.8,2.7-1.2C146.9,82.3,146.9,82.5,146.9,82.7z M142.9,84.7l0.5,1c0.1,0.2,0.3,0.3,0.5,0.4c-0.7,0.4-1.3,1-1.9,1.5
		c0-0.2-0.1-0.4-0.3-0.6l-0.8-0.8c-0.1-0.1-0.3-0.2-0.5-0.3c0.8-0.7,1.5-1.2,2.3-1.8C142.7,84.3,142.8,84.5,142.9,84.7z M148.3,94
		c0.8,0.8,1.4,1.8,1.8,2.8c0.1,0.3,0.3,0.5,0.5,0.5c0.3,0.1,0.5,0.1,0.8,0c0.7-0.3,1.4-0.4,2.3-0.4c2.1,0,5.7,1.6,7.1,4.7
		c1.3,2.7,0.6,6-2.1,9.4l0,0c-2,1-4.2,1.6-6.4,1.6c-3.6,0-7-1.4-9.6-4c-0.1-0.1-0.1-0.1-0.2-0.3c0.1-0.1,0.2-0.3,0.3-0.4
		c0.1,0.1,0.3,0.1,0.5,0c1.2-0.3,1.8,0.8,1.8,1c0.2,0.3,0.5,0.5,0.9,0.5c0.1,0,0.3-0.1,0.5-0.1c0.5-0.3,0.7-0.9,0.5-1.4
		c-0.3-0.8-1.3-1.8-2.7-2.1c0.2-0.3,0.4-0.6,0.6-0.9c0.1,0,0.1,0,0.1,0c1.2-0.3,1.8,0.8,1.8,1c0.2,0.3,0.5,0.5,0.9,0.5
		c0.1,0,0.3-0.1,0.5-0.1c0.5-0.3,0.7-0.9,0.5-1.4c-0.3-0.7-1.2-1.7-2.5-2.1c1.1-1.7,2-3.1,3.1-4.2c0.3-0.2,0.3-0.5,0.3-0.9
		s-0.3-0.6-0.5-0.8c-0.7-0.3-1.4-0.8-2-1.3l0,0c-0.1-0.1-0.3-0.2-0.4-0.3c0,0,0,0-0.1-0.1l-0.1-0.1c-0.5-0.5-1-1.1-1.3-1.7l0,0
		c-0.1-0.3-0.3-0.5-0.4-0.8l0.8-0.8C146.6,92.7,147.5,93.2,148.3,94z M142.8,94.5c0.3,0.1,0.5,0.3,0.8,0.5c0.1,0.1,0.1,0.1,0.1,0.2
		c0.1,0.2,0.3,0.5,0.5,0.7c0.1,0.1,0.1,0.2,0.2,0.3c0.2,0.3,0.5,0.5,0.8,0.8l0,0l0,0l0,0l0,0c0.1,0.1,0.3,0.3,0.4,0.3
		c0.1,0.3,0.3,0.6,0.3,0.9c-1-0.3-1.9-0.9-2.7-1.6c-0.5-0.5-0.8-1-1.2-1.5L142.8,94.5z M142.2,90.2c-0.1,0.1-0.1,0.3-0.1,0.4
		c0,0.3,0.1,0.5,0.1,0.8c0,0.1,0,0.1,0.1,0.2c0,0.1,0.1,0.3,0.1,0.5c-0.2-0.1-0.4-0.1-0.6-0.2l0,0c-0.2-0.1-0.3-0.1-0.5-0.1h-0.1
		c-0.1,0-0.1,0-0.1,0C141.4,91.2,141.7,90.7,142.2,90.2z M141.7,111.3c0.1-0.1,0.3-0.3,0.3-0.5c0.6,0.5,1.2,1,1.9,1.5
		c-0.2,0.1-0.3,0.2-0.5,0.4l-0.5,1c-0.1,0.2-0.1,0.3-0.1,0.5c-0.8-0.5-1.6-1.2-2.3-1.8c0.2-0.1,0.3-0.1,0.5-0.3L141.7,111.3z
		 M144.6,114.6l0.5-1c0.1-0.2,0.1-0.4,0.1-0.6c0.8,0.3,1.4,0.7,2.3,1c-0.1,0.1-0.3,0.3-0.3,0.5l-0.3,1c-0.1,0.2-0.1,0.4,0,0.5
		c-1-0.3-1.8-0.7-2.7-1.2C144.4,114.9,144.5,114.8,144.6,114.6z M148.9,116.1l0.3-1c0.1-0.2,0.1-0.4,0-0.6c0.8,0.1,1.6,0.3,2.4,0.3
		c-0.1,0.1-0.2,0.4-0.2,0.6v1.1c0,0.2,0.1,0.4,0.1,0.5c-1-0.1-2-0.2-2.9-0.4C148.7,116.4,148.8,116.3,148.9,116.1z M153.2,114.7
		c0.8-0.1,1.6-0.1,2.4-0.3c-0.1,0.2-0.1,0.4,0,0.6l0.3,1c0.1,0.2,0.1,0.3,0.3,0.5c-1,0.2-1.9,0.3-2.9,0.4c0.1-0.1,0.1-0.3,0.1-0.5
		v-1.1C153.4,115.1,153.3,114.9,153.2,114.7z M157.9,115.6l-0.3-1c-0.1-0.2-0.2-0.4-0.3-0.5c0.8-0.3,1.5-0.5,2.3-1
		c0,0.2,0,0.4,0.1,0.6l0.5,1c0.1,0.2,0.3,0.3,0.4,0.4c-0.9,0.5-1.8,0.8-2.7,1.2C157.9,116,157.9,115.8,157.9,115.6z M161.9,113.6
		l-0.5-1c-0.1-0.2-0.3-0.3-0.5-0.4c0.7-0.4,1.3-1,1.9-1.5c0,0.2,0.1,0.4,0.3,0.6l0.8,0.8c0.1,0.1,0.3,0.2,0.5,0.3
		c-0.8,0.7-1.5,1.2-2.3,1.8C162,114,162,113.8,161.9,113.6z M163.1,107.4c0.6-2.1,0.5-3.8,0.1-5.3c0.1-0.2,0.3-0.4,0.3-0.6
		c0.1-0.5,0.1-1-0.2-1.3c-0.3-0.4-0.6-0.7-1.1-0.8c-0.1-0.1-0.3-0.1-0.4-0.1c-2.1-2.7-5.5-4.4-8.1-4.4c-0.7,0-1.4,0.1-2.1,0.2
		c-0.5-1-1.2-1.8-1.9-2.6c-1.1-1.1-2.5-1.9-3.9-2.5l0,0c-0.2-0.1-0.5-0.1-0.7-0.2c-0.1,0-0.1,0-0.2-0.1c-0.2-0.1-0.4-0.1-0.6-0.1
		c-0.1,0-0.1,0-0.2-0.1c-0.3-0.1-0.5-0.1-0.8-0.1c-0.2,0-0.3,0-0.5,0.1l0,0c2.7-2.7,6.2-4,9.6-4s7,1.3,9.6,4c2.6,2.6,4,5.9,4,9.6
		C166,102.2,165,105,163.1,107.4z M168.2,90.9c0.5,0.9,0.8,1.8,1.2,2.7c-0.2-0.1-0.4-0.1-0.5,0l-1,0.3c-0.2,0.1-0.4,0.2-0.5,0.3
		c-0.3-0.8-0.5-1.5-1-2.3h0.1c0.2,0,0.3-0.1,0.5-0.1l1-0.5C168,91.3,168.2,91.2,168.2,90.9z M169.7,98.1h-1.1
		c-0.2,0-0.4,0.1-0.6,0.2c-0.1-0.8-0.1-1.6-0.3-2.4c0.1,0.1,0.2,0.1,0.3,0.1c0.1,0,0.2,0,0.3-0.1l1-0.3c0.2-0.1,0.3-0.1,0.5-0.3
		c0.2,1,0.3,1.9,0.4,2.9C170,98.2,169.9,98.1,169.7,98.1z M167.4,89.5c-0.2,0-0.4,0.1-0.5,0.1l-1,0.5c-0.2,0.1-0.3,0.3-0.4,0.5
		c-0.4-0.7-1-1.3-1.5-1.9c0.2,0,0.4-0.1,0.5-0.3l0.8-0.8c0.1-0.1,0.2-0.3,0.3-0.5C166.3,87.9,166.8,88.6,167.4,89.5z M139.2,87.1
		c0.1,0.2,0.1,0.3,0.3,0.5l0.8,0.8c0.1,0.1,0.3,0.3,0.5,0.3c-0.5,0.6-1,1.2-1.5,1.9c-0.1-0.2-0.2-0.3-0.4-0.5l-1-0.5
		c-0.2-0.1-0.3-0.1-0.5-0.1C137.9,88.6,138.5,87.9,139.2,87.1z M137.4,108.8C137.4,108.8,137.4,108.8,137.4,108.8
		c0.2,0,0.4-0.1,0.5-0.1l1-0.5c0.2-0.1,0.3-0.3,0.4-0.5c0.3,0.5,0.7,1,1.1,1.5c0.1,0.1,0.1,0.1,0.1,0.1c0.1,0.1,0.2,0.2,0.3,0.3
		c-0.2,0-0.4,0.1-0.5,0.3l-0.8,0.8c-0.1,0.1-0.2,0.3-0.3,0.5C138.5,110.4,137.9,109.6,137.4,108.8z M165.6,111.1
		c-0.1-0.2-0.1-0.3-0.3-0.5l-0.8-0.8c-0.1-0.1-0.3-0.3-0.6-0.3c0.5-0.6,1-1.2,1.5-1.9c0.1,0.2,0.2,0.3,0.4,0.5l1,0.5
		c0.1,0.1,0.3,0.1,0.5,0.1c0,0,0,0,0.1,0C166.8,109.6,166.3,110.4,165.6,111.1z"/>
</g>
<g>
	<g>
		<circle class="st1" cx="201.8" cy="111.7" r="14.1"/>
	</g>
	<g>
		<path class="st0" d="M201.8,97.6v28.2c7.8,0,14.1-6.3,14.1-14.1S209.6,97.6,201.8,97.6z"/>
	</g>
	<g>
		<path class="st2" d="M201.8,126.1c-7.9,0-14.4-6.5-14.4-14.4s6.5-14.4,14.4-14.4c7.9,0,14.4,6.5,14.4,14.4
			S209.7,126.1,201.8,126.1z M201.8,98c-7.6,0-13.7,6.2-13.7,13.7c0,7.6,6.2,13.7,13.7,13.7c7.6,0,13.7-6.2,13.7-13.7
			C215.5,104.1,209.4,98,201.8,98z"/>
	</g>
	<g>
		<circle class="st1" cx="201.8" cy="111.7" r="10.9"/>
	</g>
	<g>
		<path class="st0" d="M194.1,104l15.4,15.4c4.2-4.2,4.2-11.1,0-15.4C205.3,99.8,198.4,99.8,194.1,104z"/>
	</g>
	<g>
		<g>
			<g>
				<path class="st2" d="M201.8,100c-0.2,0-0.3-0.1-0.3-0.3v-0.8c0-0.2,0.1-0.3,0.3-0.3s0.3,0.1,0.3,0.3v0.8
					C202.1,99.8,202,100,201.8,100z"/>
			</g>
			<g>
				<path class="st2" d="M201.8,124.9c-0.2,0-0.3-0.1-0.3-0.3v-0.8c0-0.2,0.1-0.3,0.3-0.3s0.3,0.1,0.3,0.3v0.8
					C202.1,124.7,202,124.9,201.8,124.9z"/>
			</g>
		</g>
		<g>
			<g>
				<path class="st2" d="M210.3,103.5c-0.1,0-0.2,0-0.3-0.1c-0.1-0.1-0.1-0.3,0-0.5l0.5-0.5c0.1-0.1,0.3-0.1,0.5,0s0.1,0.3,0,0.5
					l-0.5,0.5C210.6,103.5,210.4,103.5,210.3,103.5z"/>
			</g>
			<g>
				<path class="st2" d="M192.7,121.2c-0.1,0-0.2,0-0.3-0.1c-0.1-0.1-0.1-0.3,0-0.5l0.5-0.5c0.1-0.1,0.3-0.1,0.5,0
					c0.1,0.1,0.1,0.3,0,0.5l-0.5,0.5C192.8,121.1,192.8,121.2,192.7,121.2z"/>
			</g>
		</g>
		<g>
			<g>
				<path class="st2" d="M214.7,112h-0.8c-0.2,0-0.3-0.1-0.3-0.3c0-0.2,0.1-0.3,0.3-0.3h0.8c0.2,0,0.3,0.1,0.3,0.3
					C215,111.9,214.9,112,214.7,112z"/>
			</g>
			<g>
				<path class="st2" d="M189.7,112h-0.8c-0.2,0-0.3-0.1-0.3-0.3c0-0.2,0.1-0.3,0.3-0.3h0.8c0.2,0,0.3,0.1,0.3,0.3
					C190,111.9,189.9,112,189.7,112z"/>
			</g>
		</g>
		<g>
			<g>
				<path class="st2" d="M210.9,121.2c-0.1,0-0.2,0-0.3-0.1l-0.5-0.5c-0.1-0.1-0.1-0.3,0-0.5s0.3-0.1,0.5,0l0.5,0.5
					c0.1,0.1,0.1,0.3,0,0.5C211.1,121.1,211,121.2,210.9,121.2z"/>
			</g>
			<g>
				<path class="st2" d="M193.3,103.5c-0.1,0-0.2,0-0.3-0.1l-0.5-0.5c-0.1-0.1-0.1-0.3,0-0.5c0.1-0.1,0.3-0.1,0.5,0l0.5,0.5
					c0.1,0.1,0.1,0.3,0,0.5C193.5,103.5,193.3,103.5,193.3,103.5z"/>
			</g>
		</g>
	</g>
	<g>
		<g>
			<g>
				<path class="st2" d="M195.8,101.5c-0.1,0-0.2-0.1-0.3-0.2l-0.4-0.7c-0.1-0.1-0.1-0.3,0.1-0.5s0.3-0.1,0.5,0.1l0.4,0.7
					c0.1,0.1,0.1,0.3-0.1,0.5C195.9,101.5,195.8,101.5,195.8,101.5z"/>
			</g>
			<g>
				<path class="st2" d="M208.2,123.2c-0.1,0-0.2-0.1-0.3-0.2l-0.4-0.7c-0.1-0.1-0.1-0.3,0.1-0.5c0.1-0.1,0.3-0.1,0.5,0.1l0.4,0.7
					c0.1,0.1,0.1,0.3-0.1,0.5C208.4,123.1,208.3,123.2,208.2,123.2z"/>
			</g>
		</g>
		<g>
			<g>
				<path class="st2" d="M204.9,100.4L204.9,100.4c-0.3-0.1-0.3-0.2-0.3-0.4l0.2-0.8c0.1-0.2,0.2-0.3,0.4-0.3
					c0.2,0.1,0.3,0.2,0.3,0.4l-0.2,0.8C205.2,100.3,205.1,100.4,204.9,100.4z"/>
			</g>
			<g>
				<path class="st2" d="M198.5,124.4L198.5,124.4c-0.3-0.1-0.3-0.2-0.3-0.4l0.2-0.8c0.1-0.2,0.2-0.3,0.4-0.3
					c0.2,0.1,0.3,0.2,0.3,0.4l-0.2,0.8C198.8,124.4,198.7,124.4,198.5,124.4z"/>
			</g>
		</g>
		<g>
			<g>
				<path class="st2" d="M212.3,106c-0.1,0-0.2-0.1-0.3-0.2s-0.1-0.3,0.1-0.5l0.7-0.4c0.1-0.1,0.3-0.1,0.5,0.1
					c0.1,0.2,0.1,0.3-0.1,0.5l-0.7,0.4C212.4,106,212.3,106,212.3,106z"/>
			</g>
			<g>
				<path class="st2" d="M190.7,118.4c-0.1,0-0.2-0.1-0.3-0.2c-0.1-0.1-0.1-0.3,0.1-0.5l0.7-0.4c0.1-0.1,0.3-0.1,0.5,0.1
					c0.1,0.2,0.1,0.3-0.1,0.5l-0.7,0.4C190.8,118.4,190.7,118.4,190.7,118.4z"/>
			</g>
		</g>
		<g>
			<g>
				<path class="st2" d="M214.2,115.3L214.2,115.3l-0.8-0.2c-0.2-0.1-0.3-0.2-0.3-0.4c0.1-0.2,0.2-0.3,0.4-0.3l0.8,0.2
					c0.2,0.1,0.3,0.2,0.3,0.4C214.5,115.3,214.4,115.3,214.2,115.3z"/>
			</g>
			<g>
				<path class="st2" d="M190.1,108.9L190.1,108.9l-0.8-0.2c-0.2-0.1-0.3-0.2-0.3-0.4c0.1-0.2,0.2-0.3,0.4-0.3l0.8,0.2
					c0.2,0.1,0.3,0.2,0.3,0.4C190.5,108.8,190.3,108.9,190.1,108.9z"/>
			</g>
		</g>
	</g>
	<g>
		<g>
			<g>
				<path class="st2" d="M191.3,106c-0.1,0-0.1,0-0.1-0.1l-0.7-0.4c-0.1-0.1-0.2-0.3-0.1-0.5c0.1-0.1,0.3-0.2,0.5-0.1l0.7,0.4
					c0.1,0.1,0.2,0.3,0.1,0.5C191.6,105.9,191.5,106,191.3,106z"/>
			</g>
			<g>
				<path class="st2" d="M212.9,118.4c-0.1,0-0.1,0-0.1-0.1l-0.7-0.4c-0.1-0.1-0.2-0.3-0.1-0.5c0.1-0.1,0.3-0.2,0.5-0.1l0.7,0.4
					c0.1,0.1,0.2,0.3,0.1,0.5C213.1,118.4,213.1,118.4,212.9,118.4z"/>
			</g>
		</g>
		<g>
			<g>
				<path class="st2" d="M198.7,100.4c-0.1,0-0.3-0.1-0.3-0.3l-0.2-0.8c-0.1-0.2,0.1-0.3,0.3-0.4c0.1-0.1,0.3,0.1,0.4,0.2l0.2,0.8
					C199.1,100.1,198.9,100.3,198.7,100.4C198.7,100.4,198.7,100.4,198.7,100.4z"/>
			</g>
			<g>
				<path class="st2" d="M205.2,124.4c-0.1,0-0.3-0.1-0.3-0.3l-0.2-0.8c-0.1-0.2,0.1-0.3,0.3-0.4c0.2-0.1,0.3,0.1,0.4,0.3l0.2,0.8
					C205.6,124.2,205.4,124.4,205.2,124.4C205.2,124.4,205.2,124.4,205.2,124.4z"/>
			</g>
		</g>
		<g>
			<g>
				<path class="st2" d="M207.8,101.5c-0.1,0-0.1,0-0.1-0.1c-0.1-0.1-0.2-0.3-0.1-0.5l0.4-0.7c0.1-0.1,0.3-0.2,0.5-0.1
					c0.1,0.1,0.2,0.3,0.1,0.5l-0.4,0.7C208.1,101.5,208,101.5,207.8,101.5z"/>
			</g>
			<g>
				<path class="st2" d="M195.4,123.2c-0.1,0-0.1,0-0.1-0.1c-0.1-0.1-0.2-0.3-0.1-0.5l0.4-0.7c0.1-0.1,0.3-0.2,0.5-0.1
					c0.1,0.1,0.2,0.3,0.1,0.5l-0.4,0.7C195.6,123.1,195.4,123.2,195.4,123.2z"/>
			</g>
		</g>
		<g>
			<g>
				<path class="st2" d="M213.5,108.9c-0.1,0-0.3-0.1-0.3-0.3s0.1-0.3,0.3-0.4l0.8-0.2c0.2-0.1,0.3,0.1,0.4,0.3s-0.1,0.3-0.3,0.4
					L213.5,108.9C213.5,108.9,213.5,108.9,213.5,108.9z"/>
			</g>
			<g>
				<path class="st2" d="M189.4,115.3c-0.1,0-0.3-0.1-0.3-0.3c-0.1-0.2,0.1-0.3,0.3-0.4l0.8-0.2c0.2-0.1,0.3,0.1,0.4,0.3
					c0.1,0.2-0.1,0.3-0.3,0.4L189.4,115.3L189.4,115.3z"/>
			</g>
		</g>
	</g>
	<g>
		<path class="st2" d="M206.4,113.7c-0.2,0-0.3-0.1-0.3-0.3c0-0.1-0.1-0.1-0.1-0.1c-0.1,0-0.1,0.1-0.1,0.1c0,0.2-0.1,0.3-0.3,0.3
			c-0.2,0-0.3-0.1-0.3-0.3c0-0.4,0.3-0.8,0.8-0.8c0.5,0,0.8,0.3,0.8,0.8C206.7,113.6,206.5,113.7,206.4,113.7z"/>
	</g>
	<g>
		<circle class="st7" cx="205.4" cy="115.8" r="1.2"/>
	</g>
	<g>
		<path class="st8" d="M205.4,114.7c0.7,0,1.2,0.5,1.2,1.2c0,0.6-0.5,1.2-1.2,1.2"/>
	</g>
	<g>
		<path class="st2" d="M205.4,117.3c-0.8,0-1.5-0.7-1.5-1.5s0.7-1.5,1.5-1.5c0.8,0,1.5,0.7,1.5,1.5S206.2,117.3,205.4,117.3z
			 M205.4,115c-0.5,0-0.8,0.4-0.8,0.8c0,0.5,0.4,0.8,0.8,0.8c0.4,0,0.8-0.4,0.8-0.8C206.2,115.3,205.9,115,205.4,115z"/>
	</g>
	<path class="st2" d="M209.7,103.7c-4.4-4.4-11.5-4.4-15.9,0c-4.2,4.2-4.4,10.7-0.7,15.2c0,0,0,0,0.1,0.1c0.2,0.2,0.4,0.5,0.6,0.7
		c2.2,2.2,5.1,3.3,7.9,3.3s5.7-1.1,7.9-3.3C214.1,115.3,214.1,108.1,209.7,103.7z M206.9,121c-4,2.2-9.2,1.6-12.6-1.8
		c-0.1-0.1-0.3-0.3-0.4-0.5c1.2-1.5,2.1-2.9,2.8-4c0.9-1.4,1.6-2.5,2.5-3.4c0.1-0.1,0.1-0.2,0.1-0.3c0-0.1-0.1-0.2-0.2-0.3
		c-0.5-0.3-1.1-0.6-1.6-1l0,0c-0.1-0.1-0.2-0.2-0.3-0.3c0,0,0,0-0.1-0.1c-0.1-0.1-0.2-0.3-0.3-0.3c0-0.1-0.1-0.1-0.1-0.1
		c-0.1-0.1-0.1-0.2-0.2-0.3c0-0.1-0.1-0.1-0.1-0.1c-0.1-0.1-0.1-0.2-0.2-0.3c0-0.1-0.1-0.1-0.1-0.1c-0.2-0.3-0.3-0.7-0.5-1l1-1
		c0.9,0.3,1.6,0.9,2.3,1.5c0.6,0.6,1.2,1.4,1.5,2.3c0.1,0.1,0.1,0.1,0.2,0.2c0.1,0,0.2,0,0.3,0c0.6-0.3,1.2-0.3,1.8-0.3
		c1.6,0,4.5,1.3,5.7,3.8C209.6,115.6,209,118.1,206.9,121C206.9,120.9,206.9,120.9,206.9,121z M198.2,110.9c0.1,0.1,0.2,0.1,0.3,0.2
		c-0.1,0.1-0.1,0.1-0.2,0.2C198.2,111.2,198.2,111,198.2,110.9z M197.6,111.7c-1.1-0.2-2.1-0.8-2.9-1.5c-0.4-0.4-0.8-1-1.1-1.5
		l0.9-0.9c0.3,0.2,0.7,0.4,1,0.6c0,0.1,0.1,0.1,0.1,0.1c0.1,0.1,0.1,0.1,0.1,0.2c0,0.1,0.1,0.1,0.1,0.1c0.1,0.1,0.1,0.2,0.2,0.3
		l0.1,0.1c0.1,0.1,0.1,0.1,0.2,0.3l0.1,0.1c0.1,0.1,0.2,0.2,0.3,0.3l0,0l0,0l0,0l0,0c0.1,0.1,0.1,0.1,0.3,0.2l0.1,0.1
		C197.4,110.6,197.6,111.1,197.6,111.7z M209.3,119.1c-0.3,0.3-0.5,0.5-0.8,0.8c1.6-2.6,1.5-4.6,1-6.1c0.3-0.3,0.4-0.8,0.2-1.2
		c-0.2-0.3-0.6-0.5-1-0.4c-1.4-2.1-4-3.3-5.8-3.3c-0.6,0-1.2,0.1-1.8,0.3c-0.3-0.8-0.9-1.6-1.5-2.2c-0.8-0.8-1.7-1.4-2.7-1.8l0,0
		h-0.1c-0.1-0.1-0.2-0.1-0.3-0.1h-0.1c-0.1-0.1-0.3-0.1-0.4-0.1h-0.1c-0.1,0-0.2-0.1-0.3-0.1c-0.1,0-0.1,0-0.1,0
		c-0.1,0-0.3-0.1-0.4-0.1c-0.1,0-0.2,0-0.3,0.1c-0.1,0.1-0.1,0.2-0.1,0.3l0,0l0,0l0,0c0,0.1,0.1,0.3,0.1,0.5c0,0.1,0,0.1,0,0.1
		c0,0.1,0.1,0.2,0.1,0.3c0,0.1,0,0.1,0.1,0.1c0,0.1,0.1,0.2,0.1,0.3c0,0.1,0,0.1,0.1,0.1c0,0.1,0.1,0.1,0.1,0.2l0,0
		c0,0.1,0,0.1,0.1,0.1c-0.1-0.1-0.3-0.1-0.4-0.2l0,0l0,0c-0.1-0.1-0.3-0.1-0.4-0.1l0,0c-0.1-0.1-0.3-0.1-0.4-0.1c0,0,0,0-0.1,0
		c-0.1-0.1-0.3-0.1-0.4-0.1h-0.1c-0.1,0-0.3-0.1-0.4-0.1c-0.1,0-0.2,0-0.3,0.1c-0.1,0.1-0.1,0.2-0.1,0.3l0,0l0,0l0,0
		c0,0.1,0.1,0.3,0.1,0.5c0,0.1,0,0.1,0.1,0.2c0.1,0.1,0.1,0.1,0.1,0.2c0,0.1,0.1,0.2,0.1,0.3s0,0.1,0.1,0.1c0.1,0.1,0.1,0.2,0.1,0.3
		v0.1l0,0c0.3,0.7,0.8,1.4,1.3,1.9c0.9,0.9,2,1.4,3.1,1.7c-0.4,0.6-0.9,1.3-1.3,2c-0.8,1.2-1.6,2.5-2.7,3.8
		c-3.2-4.1-2.9-10.1,0.9-13.9c2.1-2.1,4.8-3.1,7.4-3.1c2.7,0,5.4,1,7.4,3.1C213.4,108.3,213.4,115,209.3,119.1z"/>
	<g>
		<path class="st2" d="M197.6,117.7c-0.1,0-0.3-0.1-0.3-0.2c0-0.1-0.7-1.3-1.8-1c-0.2,0.1-0.3-0.1-0.4-0.2c-0.1-0.2,0.1-0.3,0.2-0.4
			c1.4-0.4,2.4,0.7,2.7,1.3c0.1,0.1,0,0.3-0.1,0.5C197.7,117.7,197.6,117.7,197.6,117.7z"/>
	</g>
	<g>
		<path class="st2" d="M196.7,119c-0.1,0-0.3-0.1-0.3-0.2c0-0.1-0.7-1.3-1.8-1c-0.2,0.1-0.3-0.1-0.4-0.2c-0.1-0.2,0.1-0.3,0.2-0.4
			c1.4-0.4,2.4,0.7,2.7,1.3c0.1,0.1,0,0.3-0.1,0.5C196.8,119,196.7,119,196.7,119z"/>
	</g>
	<g>
		<g>
			<g>
				<path class="st2" d="M206.2,106.1c-0.1,0-0.1,0-0.1,0c-0.2-0.1-0.3-0.3-0.2-0.4l0.1-0.1c0.1-0.2,0.3-0.3,0.4-0.2
					c0.2,0.1,0.3,0.3,0.2,0.4l-0.1,0.1C206.5,106.1,206.3,106.1,206.2,106.1z"/>
			</g>
			<g>
				<path class="st2" d="M205.4,108.6c-0.1,0-0.1,0-0.1,0c-0.2-0.1-0.3-0.3-0.2-0.4l0.3-1c0.1-0.2,0.3-0.3,0.4-0.2
					c0.2,0.1,0.3,0.3,0.2,0.4l-0.3,1C205.6,108.4,205.5,108.6,205.4,108.6z"/>
			</g>
		</g>
		<g>
			<g>
				<g>
					<path class="st2" d="M201.4,105.5c-0.1,0-0.3-0.1-0.3-0.2l-0.1-0.1c-0.1-0.1,0-0.3,0.1-0.5c0.1-0.1,0.3,0,0.5,0.1l0.1,0.1
						c0.1,0.1,0,0.3-0.1,0.5C201.5,105.5,201.5,105.5,201.4,105.5z"/>
				</g>
				<g>
					<path class="st2" d="M202.6,107.8c-0.1,0-0.3-0.1-0.3-0.2l-0.4-0.9c-0.1-0.1,0-0.3,0.1-0.5c0.1-0.1,0.3,0,0.5,0.1l0.4,0.9
						c0.1,0.1,0,0.3-0.1,0.5C202.6,107.8,202.6,107.8,202.6,107.8z"/>
				</g>
			</g>
			<g>
				<g>
					<path class="st2" d="M210.3,108.5c-0.1,0-0.3-0.1-0.3-0.2c-0.1-0.1,0-0.3,0.1-0.5l0.1-0.1c0.1-0.1,0.3,0,0.5,0.1
						c0.1,0.1,0,0.3-0.1,0.5l-0.1,0.1C210.4,108.5,210.3,108.5,210.3,108.5z"/>
				</g>
				<g>
					<path class="st2" d="M208,109.7c-0.1,0-0.3-0.1-0.3-0.2c-0.1-0.1,0-0.3,0.1-0.5l0.9-0.4c0.1-0.1,0.3,0,0.5,0.1
						c0.1,0.1,0,0.3-0.1,0.5l-0.9,0.4C208.1,109.7,208.1,109.7,208,109.7z"/>
				</g>
			</g>
		</g>
	</g>
</g>
</svg>
