<?xml version="1.0" encoding="utf-8"?>
<!-- Generator: Adobe Illustrator 21.1.0, SVG Export Plug-In . SVG Version: 6.00 Build 0)  -->
<svg version="1.1" id="Layer_1" xmlns="http://www.w3.org/2000/svg" xmlns:xlink="http://www.w3.org/1999/xlink" x="0px" y="0px"
	 viewBox="0 0 186.8 128.6" style="enable-background:new 0 0 186.8 128.6;" xml:space="preserve">
<style type="text/css">
	.st0{fill:#E8E8ED;}
	.st1{fill:#FFFFFF;}
	.st2{fill:#33363A;}
	.st3{fill:#FFBE08;}
	.st4{fill:#FF900B;}
	.st5{fill:#FFF1D9;}
	.st6{fill:#FFD00B;}
	.st7{fill:#E04038;}
	.st8{fill:#FF6155;}
</style>
<g>
	<g>
		<g>
			<path class="st0" d="M93.4,43.1c-4.5,0-8.5-2.4-10.7-6.1l0,0L70.8,25.1c-4.8-4.8-4.8-12.7,0-17.5c3.8-3.8,9.3-4.6,13.9-2.5
				c2.2-2.2,5.3-3.6,8.7-3.6s6.5,1.4,8.7,3.6c4.6-2.1,10.1-1.3,13.9,2.5c4.8,4.8,4.8,12.7,0,17.5L104.1,37l0,0
				C101.9,40.7,97.9,43.1,93.4,43.1z"/>
		</g>
		<g>
			<path class="st1" d="M82.7,37l1.9,0.8L70.8,25.1c-4.8-4.8-4.8-12.7,0-17.5c2-2,4.5-3.1,7-3.5c2.6,0.3,5.1,1.5,7,3.5
				C89.8,12.4,87.6,32.2,82.7,37z"/>
		</g>
		<g>
			<path class="st2" d="M93.4,44.6c-4.8,0-9.3-2.5-11.9-6.7L69.8,26.2c-2.6-2.6-4.1-6.1-4.1-9.8s1.4-7.2,4.1-9.8
				c3.8-3.8,9.6-5,14.6-3.2c2.5-2.2,5.7-3.3,9-3.3s6.5,1.2,9,3.3c5-1.8,10.8-0.6,14.6,3.2c5.4,5.4,5.4,14.2,0,19.7L105.2,38
				C102.7,42.1,98.2,44.6,93.4,44.6z M84,36.3c2,3.4,5.5,5.4,9.4,5.4s7.4-2,9.4-5.4c0.1-0.1,0.2-0.2,0.3-0.3L115,24.1
				c4.2-4.3,4.2-11.2,0-15.4c-3.2-3.2-8-4.1-12.2-2.2c-0.6,0.3-1.2,0.1-1.7-0.3C99,4.2,96.3,3,93.4,3c-2.9,0-5.6,1.1-7.7,3.2
				c-0.4,0.4-1.1,0.6-1.7,0.3c-4.2-1.9-9-1-12.2,2.2c-2.1,2.1-3.2,4.8-3.2,7.7s1.1,5.6,3.2,7.7l12,11.9C83.9,36,83.9,36.2,84,36.3
				L84,36.3z"/>
		</g>
	</g>
	<g>
		<path class="st1" d="M142.6,97.9c0,25.2-22,29.2-49.2,29.2s-49.2-4-49.2-29.2s22-55.1,49.2-55.1C120.6,42.8,142.6,72.7,142.6,97.9
			z"/>
	</g>
	<g>
		<path class="st0" d="M99.5,43.3c-24.3,4-43.1,31.3-43.1,54.5s18.8,28.5,43.1,29.1c24.3-0.7,43.1-5.8,43.1-29.1
			S123.8,47.3,99.5,43.3z"/>
	</g>
	<g>
		<path class="st2" d="M93.4,128.6c-26.3,0-50.7-3.7-50.7-30.7c0-25.6,22.6-56.6,50.7-56.6s50.7,31,50.7,56.6
			C144.1,124.9,119.7,128.6,93.4,128.6z M93.4,44.3c-26.4,0-47.7,29.3-47.7,53.6c0,23,19.1,27.7,47.7,27.7s47.7-4.7,47.7-27.7
			C141.1,73.6,119.8,44.3,93.4,44.3z"/>
	</g>
	<g>
		<path class="st3" d="M114,43.6c0,3.1-2.5,5.7-5.7,5.7H78.4c-3.1,0-5.7-2.5-5.7-5.7l0,0c0-3.1,2.5-5.7,5.7-5.7h29.9
			C111.5,37.9,114,40.4,114,43.6L114,43.6z"/>
	</g>
	<g>
		<path class="st4" d="M114,43.6L114,43.6c0,3.1-2.5,5.7-5.7,5.7H78.4c-3.1,0-5.7-2.5-5.7-5.7l0,0"/>
	</g>
	<path class="st2" d="M108.3,36.4H95.6l4.1-4.1c0.6-0.6,0.6-1.5,0-2.1s-1.5-0.6-2.1,0l-4.2,4.2l-4.2-4.2c-0.6-0.6-1.5-0.6-2.1,0
		s-0.6,1.5,0,2.1l4.1,4.1H78.4c-4,0-7.2,3.2-7.2,7.2s3.2,7.2,7.2,7.2h29.9c4,0,7.2-3.2,7.2-7.2C115.5,39.6,112.3,36.4,108.3,36.4z
		 M108.3,47.7H78.4c-2.3,0-4.2-1.9-4.2-4.2s1.9-4.2,4.2-4.2h29.9c2.3,0,4.2,1.9,4.2,4.2C112.5,45.9,110.6,47.7,108.3,47.7z"/>
	<g>
		<path class="st5" d="M67.9,94.7c0-3.6,2.9-6.5,6.5-6.5c1.9,0,3.6,0.8,4.8,2.2c-0.6-3-3.2-5.2-6.4-5.2c-3.6,0-6.5,2.9-6.5,6.5
			c0,1.7,0.6,3.2,1.7,4.3C67.9,95.6,67.9,95.2,67.9,94.7z"/>
	</g>
	<g>
		<path class="st1" d="M62.5,106.6c1.4-3.3,5.2-4.8,8.5-3.4c1.8,0.8,3,2.2,3.6,3.9c0.6-3-0.9-6.1-3.8-7.3c-3.3-1.4-7.1,0.1-8.5,3.4
			c-0.7,1.5-0.7,3.2-0.2,4.6C62.2,107.4,62.3,107,62.5,106.6z"/>
	</g>
	<g>
		<path class="st5" d="M70.6,75c0-2.2,1.7-3.9,3.9-3.9c1.2,0,2.2,0.5,2.9,1.3c-0.3-1.8-1.9-3.1-3.8-3.1c-2.2,0-3.9,1.7-3.9,3.9
			c0,1,0.4,1.9,1,2.6C70.6,75.6,70.6,75.3,70.6,75z"/>
	</g>
	<g>
		<path class="st1" d="M76.2,60.2c1.3-1.7,3.7-2.1,5.4-0.9c0.9,0.7,1.5,1.7,1.6,2.7c0.8-1.7,0.3-3.7-1.3-4.8
			c-1.7-1.3-4.2-0.9-5.4,0.9c-0.6,0.8-0.8,1.8-0.7,2.7C76,60.7,76.1,60.4,76.2,60.2z"/>
	</g>
	<g>
		<path class="st1" d="M60.9,77.8c1.3-1.7,3.7-2.1,5.4-0.9c0.9,0.7,1.5,1.7,1.6,2.7c0.8-1.7,0.3-3.7-1.3-4.8
			c-1.7-1.3-4.2-0.9-5.4,0.9c-0.6,0.8-0.8,1.8-0.7,2.7C60.6,78.2,60.7,78,60.9,77.8z"/>
	</g>
	<g>
		<path class="st2" d="M89,20.2c-0.2,0-0.4,0-0.6-0.1c-0.8-0.3-1.1-1.2-0.7-2c0.2-0.4,5.1-11,13.9-14.4c0.8-0.3,1.6,0.1,1.9,0.9
			s-0.1,1.6-0.9,1.9C95,9.4,90.4,19.2,90.3,19.3C90.1,19.9,89.6,20.2,89,20.2z"/>
	</g>
	<g>
		<path class="st2" d="M79.4,14.8c-0.1,0-0.3,0-0.4-0.1c-0.8-0.2-1.3-1-1.1-1.8c0.1-0.3,1.9-6.8,6.6-9.6c0.7-0.4,1.6-0.2,2.1,0.5
			c0.4,0.7,0.2,1.6-0.5,2.1c-3.7,2.2-5.2,7.7-5.2,7.8C80.6,14.3,80,14.8,79.4,14.8z"/>
	</g>
	<g>
		<circle class="st6" cx="93.4" cy="88" r="27.6"/>
	</g>
	<g>
		<path class="st3" d="M93.4,60.4v55.2c15.2,0,27.6-12.4,27.6-27.6C121,72.7,108.6,60.4,93.4,60.4z"/>
	</g>
	<g>
		<circle class="st6" cx="93.4" cy="88" r="21.4"/>
	</g>
	<g>
		<path class="st3" d="M78.3,72.9l30.2,30.2c8.3-8.3,8.3-21.9,0-30.2C100.2,64.5,86.6,64.5,78.3,72.9z"/>
	</g>
	<g>
		<path class="st2" d="M102.3,92.8c-0.3,0-0.6-0.1-0.9-0.3c-0.2,0.2-0.5,0.3-0.9,0.3c-0.8,0-1.5-0.7-1.5-1.5c0-1.3,1.1-2.4,2.4-2.4
			s2.4,1.1,2.4,2.4C103.8,92.1,103.2,92.8,102.3,92.8z"/>
	</g>
	<g>
		<path class="st7" d="M102.8,96.1c0,1.3-1,2.3-2.3,2.3s-2.3-1-2.3-2.3s1-2.3,2.3-2.3S102.8,94.8,102.8,96.1z"/>
	</g>
	<g>
		<path class="st8" d="M100.5,93.8c1.3,0,2.3,1,2.3,2.3s-1,2.3-2.3,2.3"/>
	</g>
	<path class="st2" d="M93.4,58.9C77.3,58.9,64.3,72,64.3,88c0,16.1,13.1,29.1,29.1,29.1c16.1,0,29.1-13.1,29.1-29.1
		C122.5,71.9,109.4,58.9,93.4,58.9z M118.9,93.5c-0.2-0.2-0.4-0.4-0.7-0.4l-1.5-0.4c-0.3-0.1-0.6-0.1-0.9,0c0.2-1.2,0.4-2.3,0.4-3.5
		c0.2,0.2,0.6,0.3,0.9,0.3h1.6c0.3,0,0.6-0.1,0.8-0.2C119.4,90.7,119.2,92.1,118.9,93.5z M116,99.3l-1.4-0.8
		c-0.3-0.2-0.6-0.2-0.9-0.2c0.5-1.1,1-2.1,1.4-3.3c0.2,0.2,0.4,0.4,0.8,0.5l1.5,0.4c0.1,0,0.3,0.1,0.4,0.1c0.2,0,0.3,0,0.5-0.1
		c-0.4,1.4-1,2.7-1.7,4C116.5,99.7,116.3,99.5,116,99.3z M73.5,88c0-2.4,0.5-4.8,1.3-7c0,0.1,0.1,0.2,0.1,0.3c0,0.1,0.1,0.2,0.1,0.3
		c0.1,0.2,0.2,0.5,0.3,0.7c0,0,0,0.1,0.1,0.1l0,0c0.6,1.5,1.6,2.9,2.7,4c1.5,1.5,3.4,2.6,5.4,3.2c-0.6,0.9-1.3,1.9-1.9,2.9
		c-1.3,2-2.7,4.2-4.5,6.6C74.8,96,73.5,92.1,73.5,88z M70.2,99.9c-0.7-1.3-1.2-2.6-1.7-4c0.1,0,0.3,0.1,0.5,0.1c0.1,0,0.3,0,0.4-0.1
		l1.5-0.4c0.3-0.1,0.6-0.3,0.8-0.5c0.4,1.1,0.8,2.2,1.4,3.3c-0.3,0-0.6,0-0.9,0.2l-1.4,0.8C70.5,99.5,70.3,99.7,70.2,99.9z
		 M67.3,89.2c0.2,0.2,0.5,0.2,0.8,0.2h1.6c0.3,0,0.6-0.1,0.9-0.3c0.1,1.2,0.2,2.4,0.4,3.5c-0.3-0.1-0.6-0.1-0.9,0L68.6,93
		c-0.3,0.1-0.5,0.2-0.7,0.4C67.6,92.1,67.4,90.7,67.3,89.2z M67.9,82.5c0.2,0.2,0.4,0.4,0.7,0.4l1.5,0.4c0.1,0,0.3,0.1,0.4,0.1
		c0.2,0,0.3,0,0.5-0.1c-0.2,1.2-0.4,2.3-0.4,3.5c-0.2-0.2-0.6-0.3-0.9-0.3h-1.6c-0.3,0-0.6,0.1-0.8,0.2
		C67.4,85.3,67.6,83.8,67.9,82.5z M70.8,76.7l1.4,0.8c0.2,0.1,0.5,0.2,0.8,0.2h0.1c-0.5,1.1-1,2.1-1.4,3.3c-0.2-0.2-0.5-0.4-0.8-0.5
		L69.4,80c-0.3-0.1-0.6-0.1-0.8,0c0.4-1.4,1-2.7,1.7-4C70.3,76.3,70.5,76.5,70.8,76.7z M109.1,70.2c-0.2,0.2-0.4,0.5-0.4,0.9
		c-0.9-0.8-1.8-1.6-2.8-2.2c0.3-0.1,0.5-0.3,0.7-0.6l0.8-1.4c0.1-0.3,0.2-0.5,0.2-0.8c1.2,0.8,2.4,1.7,3.4,2.6
		c-0.3,0.1-0.5,0.2-0.8,0.4L109.1,70.2z M104.7,65.4l-0.8,1.4c-0.2,0.3-0.2,0.6-0.2,0.9c-1.1-0.5-2.2-1-3.3-1.3
		c0.2-0.2,0.4-0.5,0.5-0.8l0.4-1.5c0.1-0.3,0.1-0.6,0-0.8c1.4,0.4,2.7,1,4,1.7C105.1,64.9,104.9,65.1,104.7,65.4z M98.5,63.2
		l-0.4,1.5C98,65,98,65.3,98.2,65.6c-1.2-0.2-2.3-0.4-3.5-0.4c0.2-0.2,0.3-0.6,0.3-0.9v-1.6c0-0.3-0.1-0.6-0.2-0.8
		c1.5,0.1,2.9,0.3,4.3,0.6C98.7,62.7,98.6,62.9,98.5,63.2z M92.2,65.2c-1.2,0.1-2.4,0.2-3.5,0.4c0.1-0.3,0.1-0.6,0.1-0.9l-0.4-1.5
		c-0.1-0.3-0.2-0.5-0.4-0.7c1.4-0.3,2.8-0.5,4.3-0.6c-0.2,0.2-0.2,0.5-0.2,0.8v1.6C91.9,64.6,92,64.9,92.2,65.2z M85.4,64l0.4,1.5
		c0.1,0.3,0.3,0.6,0.5,0.8c-1.1,0.4-2.2,0.8-3.3,1.3c0-0.3,0-0.6-0.2-0.9L82,65.3c-0.1-0.3-0.4-0.4-0.6-0.6c1.3-0.7,2.6-1.2,4-1.7
		C85.3,63.4,85.3,63.7,85.4,64z M79.5,66.9l0.8,1.4c0.2,0.3,0.4,0.5,0.7,0.6c-1,0.6-1.9,1.4-2.8,2.2c0-0.3-0.2-0.6-0.4-0.9l-1.1-1.1
		c-0.2-0.2-0.5-0.3-0.8-0.4c1.1-1,2.2-1.8,3.4-2.6C79.2,66.3,79.3,66.6,79.5,66.9z M87.4,80.4c1.2,1.2,2.1,2.6,2.7,4.1
		c0.2,0.4,0.5,0.7,0.8,0.8c0.4,0.2,0.8,0.1,1.2,0c1-0.5,2-0.6,3.3-0.6c3,0,8.3,2.4,10.4,6.9c1.9,4,0.9,8.8-3.1,13.8l0,0
		c-2.9,1.5-6.1,2.4-9.4,2.4c-5.3,0-10.3-2.1-14.1-5.8c-0.1-0.1-0.2-0.2-0.3-0.4c0.2-0.2,0.3-0.4,0.5-0.6c0.2,0.1,0.5,0.1,0.8,0
		c1.7-0.5,2.6,1.2,2.7,1.4c0.3,0.5,0.8,0.8,1.3,0.8c0.2,0,0.5-0.1,0.7-0.2c0.7-0.4,1-1.3,0.7-2c-0.5-1.1-1.9-2.7-4-3.1
		c0.3-0.4,0.6-0.9,0.9-1.3c0.1,0,0.1,0,0.2,0c1.7-0.5,2.6,1.2,2.7,1.4c0.3,0.5,0.8,0.8,1.3,0.8c0.2,0,0.5-0.1,0.7-0.2
		c0.7-0.4,1-1.3,0.7-2c-0.5-1-1.8-2.5-3.6-3c1.6-2.5,2.9-4.5,4.5-6.1c0.4-0.3,0.5-0.8,0.4-1.3s-0.4-0.9-0.8-1.1
		c-1-0.5-2-1.1-2.9-1.9l0,0c-0.2-0.2-0.4-0.3-0.6-0.5c0,0,0,0-0.1-0.1l-0.1-0.1c-0.7-0.7-1.4-1.6-1.9-2.5l0,0
		c-0.2-0.4-0.4-0.8-0.6-1.2l1.2-1.2C85,78.5,86.3,79.3,87.4,80.4z M79.4,81.2c0.4,0.2,0.8,0.5,1.2,0.8c0.1,0.1,0.1,0.2,0.2,0.3
		c0.2,0.3,0.5,0.7,0.7,1c0.1,0.1,0.2,0.3,0.3,0.4c0.3,0.4,0.7,0.8,1.1,1.2l0,0l0,0l0,0l0,0c0.2,0.2,0.4,0.4,0.6,0.5
		c0.2,0.4,0.4,0.9,0.5,1.3c-1.4-0.5-2.8-1.3-3.9-2.4c-0.7-0.7-1.2-1.4-1.7-2.2L79.4,81.2z M78.5,74.9c-0.1,0.2-0.1,0.4-0.1,0.6
		c0,0.4,0.1,0.8,0.2,1.2c0,0.1,0,0.2,0.1,0.3c0,0.2,0.1,0.5,0.2,0.7c-0.3-0.1-0.6-0.2-0.9-0.3l0,0c-0.3-0.1-0.5-0.1-0.8-0.2h-0.1
		c-0.1,0-0.1,0-0.2,0C77.3,76.3,77.8,75.6,78.5,74.9z M77.7,105.8c0.2-0.2,0.4-0.5,0.4-0.8c0.9,0.8,1.8,1.5,2.8,2.2
		c-0.3,0.1-0.5,0.3-0.7,0.6l-0.8,1.4c-0.1,0.3-0.2,0.5-0.2,0.8c-1.2-0.8-2.4-1.7-3.4-2.6c0.3-0.1,0.5-0.2,0.8-0.4L77.7,105.8z
		 M82,110.6l0.8-1.4c0.2-0.3,0.2-0.6,0.2-0.9c1.1,0.5,2.1,1,3.3,1.4c-0.2,0.2-0.4,0.5-0.5,0.8l-0.4,1.5c-0.1,0.3-0.1,0.6,0,0.8
		c-1.4-0.4-2.7-1-4-1.7C81.7,111.1,81.9,110.9,82,110.6z M88.3,112.8l0.4-1.5c0.1-0.3,0.1-0.6,0-0.9c1.2,0.2,2.3,0.4,3.5,0.4
		c-0.2,0.2-0.3,0.6-0.3,0.9v1.6c0,0.3,0.1,0.6,0.2,0.8c-1.5-0.1-2.9-0.3-4.3-0.6C88,113.3,88.2,113.1,88.3,112.8z M94.6,110.8
		c1.2-0.1,2.4-0.2,3.5-0.4c-0.1,0.3-0.1,0.6,0,0.9l0.4,1.5c0.1,0.3,0.2,0.5,0.5,0.7c-1.4,0.3-2.8,0.5-4.3,0.6
		c0.2-0.2,0.2-0.5,0.2-0.8v-1.6C94.9,111.4,94.8,111.1,94.6,110.8z M101.4,112l-0.4-1.5c-0.1-0.3-0.3-0.6-0.5-0.8
		c1.1-0.4,2.2-0.8,3.3-1.4c0,0.3,0,0.6,0.2,0.9l0.8,1.4c0.1,0.3,0.4,0.4,0.6,0.6c-1.3,0.7-2.6,1.2-4,1.7
		C101.4,112.6,101.4,112.3,101.4,112z M107.3,109.1l-0.8-1.4c-0.2-0.3-0.4-0.5-0.7-0.6c1-0.6,1.9-1.4,2.8-2.2c0,0.3,0.2,0.6,0.4,0.9
		l1.1,1.1c0.2,0.2,0.5,0.3,0.8,0.4c-1.1,1-2.2,1.8-3.4,2.6C107.5,109.7,107.5,109.4,107.3,109.1z M109.1,100.1
		c0.9-3,0.8-5.6,0.2-7.7c0.2-0.3,0.4-0.6,0.4-0.9c0.2-0.7,0.1-1.4-0.3-1.9c-0.4-0.6-0.9-1-1.6-1.2c-0.2-0.1-0.4-0.1-0.6-0.1
		c-3-4-8.1-6.5-11.9-6.5c-1,0-2.1,0.1-3.1,0.3c-0.7-1.4-1.7-2.7-2.8-3.8c-1.6-1.6-3.6-2.8-5.7-3.6l0,0c-0.3-0.1-0.7-0.2-1-0.3
		c-0.1,0-0.2,0-0.3-0.1c-0.3-0.1-0.6-0.2-0.9-0.2c-0.1,0-0.2,0-0.3-0.1c-0.4-0.1-0.8-0.1-1.2-0.2c-0.3,0-0.5,0-0.8,0.1l0,0
		c3.9-3.9,9-5.8,14.1-5.8s10.2,1.9,14.1,5.8c3.8,3.8,5.8,8.7,5.8,14.1C113.3,92.4,111.8,96.6,109.1,100.1z M116.6,76
		c0.7,1.3,1.2,2.6,1.7,4c-0.3-0.1-0.6-0.1-0.8,0l-1.5,0.4c-0.3,0.1-0.6,0.3-0.8,0.5c-0.4-1.1-0.8-2.2-1.4-3.3h0.1
		c0.3,0,0.5-0.1,0.8-0.2l1.4-0.8C116.3,76.5,116.5,76.3,116.6,76z M118.7,86.5h-1.6c-0.3,0-0.6,0.1-0.9,0.3
		c-0.1-1.2-0.2-2.4-0.4-3.5c0.2,0.1,0.3,0.1,0.5,0.1c0.1,0,0.3,0,0.4-0.1l1.5-0.4c0.3-0.1,0.5-0.2,0.7-0.4c0.3,1.4,0.5,2.8,0.6,4.3
		C119.2,86.6,119,86.5,118.7,86.5z M115.3,73.9c-0.3,0-0.6,0.1-0.8,0.2l-1.4,0.8c-0.3,0.2-0.5,0.4-0.6,0.7c-0.6-1-1.4-1.9-2.2-2.8
		c0.3,0,0.6-0.2,0.8-0.4l1.1-1.1c0.2-0.2,0.3-0.5,0.4-0.8C113.7,71.5,114.5,72.6,115.3,73.9z M74.1,70.4c0.1,0.3,0.2,0.5,0.4,0.8
		l1.1,1.1c0.2,0.2,0.5,0.4,0.8,0.4c-0.8,0.9-1.5,1.8-2.2,2.8c-0.1-0.3-0.3-0.5-0.6-0.7L72.2,74c-0.3-0.1-0.5-0.2-0.8-0.2
		C72.2,72.6,73.1,71.5,74.1,70.4z M71.4,102.1C71.5,102.1,71.5,102.1,71.4,102.1c0.3,0,0.6-0.1,0.8-0.2l1.4-0.8
		c0.3-0.2,0.5-0.4,0.6-0.7c0.5,0.8,1,1.5,1.6,2.2c0.1,0.1,0.1,0.1,0.2,0.2s0.3,0.3,0.4,0.4c-0.3,0-0.6,0.2-0.8,0.4l-1.1,1.1
		c-0.2,0.2-0.3,0.5-0.4,0.8C73.1,104.5,72.2,103.3,71.4,102.1z M112.7,105.5c-0.1-0.3-0.2-0.5-0.4-0.8l-1.1-1.1
		c-0.2-0.2-0.5-0.4-0.9-0.4c0.8-0.9,1.5-1.8,2.2-2.8c0.1,0.3,0.3,0.5,0.6,0.7l1.4,0.8c0.2,0.1,0.5,0.2,0.8,0.2c0,0,0,0,0.1,0
		C114.5,103.3,113.7,104.5,112.7,105.5z"/>
</g>
<g>
	<g>
		<circle class="st6" cx="165.7" cy="106.4" r="20.6"/>
	</g>
	<g>
		<path class="st3" d="M165.7,85.8v41.2c11.4,0,20.6-9.2,20.6-20.6S177.1,85.8,165.7,85.8z"/>
	</g>
	<g>
		<path class="st2" d="M165.7,127.4c-11.6,0-21.1-9.5-21.1-21.1s9.5-21.1,21.1-21.1c11.6,0,21.1,9.5,21.1,21.1
			S177.3,127.4,165.7,127.4z M165.7,86.3c-11.1,0-20.1,9-20.1,20.1c0,11.1,9,20.1,20.1,20.1c11.1,0,20.1-9,20.1-20.1
			C185.8,95.3,176.8,86.3,165.7,86.3z"/>
	</g>
	<g>
		<circle class="st6" cx="165.7" cy="106.4" r="15.9"/>
	</g>
	<g>
		<path class="st3" d="M154.5,95.1l22.5,22.5c6.2-6.2,6.2-16.3,0-22.5C170.8,88.9,160.7,88.9,154.5,95.1z"/>
	</g>
	<g>
		<g>
			<g>
				<path class="st2" d="M165.7,89.2c-0.3,0-0.5-0.2-0.5-0.5v-1.2c0-0.3,0.2-0.5,0.5-0.5c0.3,0,0.5,0.2,0.5,0.5v1.2
					C166.2,89,166,89.2,165.7,89.2z"/>
			</g>
			<g>
				<path class="st2" d="M165.7,125.7c-0.3,0-0.5-0.2-0.5-0.5V124c0-0.3,0.2-0.5,0.5-0.5c0.3,0,0.5,0.2,0.5,0.5v1.2
					C166.2,125.4,166,125.7,165.7,125.7z"/>
			</g>
		</g>
		<g>
			<g>
				<path class="st2" d="M178.2,94.4c-0.1,0-0.3,0-0.4-0.1c-0.2-0.2-0.2-0.5,0-0.7l0.8-0.8c0.2-0.2,0.5-0.2,0.7,0s0.2,0.5,0,0.7
					l-0.8,0.8C178.5,94.3,178.3,94.4,178.2,94.4z"/>
			</g>
			<g>
				<path class="st2" d="M152.4,120.2c-0.1,0-0.3,0-0.4-0.1c-0.2-0.2-0.2-0.5,0-0.7l0.8-0.8c0.2-0.2,0.5-0.2,0.7,0
					c0.2,0.2,0.2,0.5,0,0.7l-0.8,0.8C152.6,120.1,152.5,120.2,152.4,120.2z"/>
			</g>
		</g>
		<g>
			<g>
				<path class="st2" d="M184.5,106.8h-1.2c-0.3,0-0.5-0.2-0.5-0.5c0-0.3,0.2-0.5,0.5-0.5h1.2c0.3,0,0.5,0.2,0.5,0.5
					C185,106.6,184.8,106.8,184.5,106.8z"/>
			</g>
			<g>
				<path class="st2" d="M148,106.8h-1.2c-0.3,0-0.5-0.2-0.5-0.5c0-0.3,0.2-0.5,0.5-0.5h1.2c0.3,0,0.5,0.2,0.5,0.5
					C148.5,106.6,148.3,106.8,148,106.8z"/>
			</g>
		</g>
		<g>
			<g>
				<path class="st2" d="M179,120.2c-0.1,0-0.3,0-0.4-0.1l-0.8-0.8c-0.2-0.2-0.2-0.5,0-0.7c0.2-0.2,0.5-0.2,0.7,0l0.8,0.8
					c0.2,0.2,0.2,0.5,0,0.7C179.3,120.1,179.2,120.2,179,120.2z"/>
			</g>
			<g>
				<path class="st2" d="M153.2,94.4c-0.1,0-0.3,0-0.4-0.1l-0.8-0.8c-0.2-0.2-0.2-0.5,0-0.7s0.5-0.2,0.7,0l0.8,0.8
					c0.2,0.2,0.2,0.5,0,0.7C153.5,94.3,153.3,94.4,153.2,94.4z"/>
			</g>
		</g>
	</g>
	<g>
		<g>
			<g>
				<path class="st2" d="M156.9,91.5c-0.2,0-0.3-0.1-0.4-0.3l-0.6-1c-0.1-0.2-0.1-0.5,0.2-0.7s0.5-0.1,0.7,0.2l0.6,1
					c0.1,0.2,0.1,0.5-0.2,0.7C157,91.5,156.9,91.5,156.9,91.5z"/>
			</g>
			<g>
				<path class="st2" d="M175.1,123.2c-0.2,0-0.3-0.1-0.4-0.3l-0.6-1c-0.1-0.2-0.1-0.5,0.2-0.7c0.2-0.1,0.5-0.1,0.7,0.2l0.6,1
					c0.1,0.2,0.1,0.5-0.2,0.7C175.3,123.1,175.2,123.2,175.1,123.2z"/>
			</g>
		</g>
		<g>
			<g>
				<path class="st2" d="M170.3,89.8c0,0-0.1,0-0.1,0c-0.3-0.1-0.4-0.3-0.4-0.6l0.3-1.1c0.1-0.3,0.3-0.4,0.6-0.4
					c0.3,0.1,0.4,0.3,0.4,0.6l-0.3,1.1C170.7,89.7,170.5,89.8,170.3,89.8z"/>
			</g>
			<g>
				<path class="st2" d="M160.8,125c0,0-0.1,0-0.1,0c-0.3-0.1-0.4-0.3-0.4-0.6l0.3-1.1c0.1-0.3,0.3-0.4,0.6-0.4
					c0.3,0.1,0.4,0.3,0.4,0.6l-0.3,1.1C161.3,124.9,161.1,125,160.8,125z"/>
			</g>
		</g>
		<g>
			<g>
				<path class="st2" d="M181,98c-0.2,0-0.3-0.1-0.4-0.3c-0.1-0.2-0.1-0.5,0.2-0.7l1-0.6c0.2-0.1,0.5-0.1,0.7,0.2s0.1,0.5-0.2,0.7
					l-1,0.6C181.2,98,181.1,98,181,98z"/>
			</g>
			<g>
				<path class="st2" d="M149.4,116.2c-0.2,0-0.3-0.1-0.4-0.3c-0.1-0.2-0.1-0.5,0.2-0.7l1-0.6c0.2-0.1,0.5-0.1,0.7,0.2
					s0.1,0.5-0.2,0.7l-1,0.6C149.6,116.2,149.5,116.2,149.4,116.2z"/>
			</g>
		</g>
		<g>
			<g>
				<path class="st2" d="M183.9,111.7c0,0-0.1,0-0.1,0l-1.1-0.3c-0.3-0.1-0.4-0.3-0.4-0.6c0.1-0.3,0.3-0.4,0.6-0.4l1.1,0.3
					c0.3,0.1,0.4,0.3,0.4,0.6C184.3,111.6,184.1,111.7,183.9,111.7z"/>
			</g>
			<g>
				<path class="st2" d="M148.6,102.3c0,0-0.1,0-0.1,0l-1.1-0.3c-0.3-0.1-0.4-0.3-0.4-0.6c0.1-0.3,0.3-0.4,0.6-0.4l1.1,0.3
					c0.3,0.1,0.4,0.3,0.4,0.6C149.1,102.1,148.9,102.3,148.6,102.3z"/>
			</g>
		</g>
	</g>
	<g>
		<g>
			<g>
				<path class="st2" d="M150.4,98c-0.1,0-0.2,0-0.2-0.1l-1-0.6c-0.2-0.1-0.3-0.4-0.2-0.7c0.1-0.2,0.4-0.3,0.7-0.2l1,0.6
					c0.2,0.1,0.3,0.4,0.2,0.7C150.7,97.9,150.6,98,150.4,98z"/>
			</g>
			<g>
				<path class="st2" d="M182,116.2c-0.1,0-0.2,0-0.2-0.1l-1-0.6c-0.2-0.1-0.3-0.4-0.2-0.7c0.1-0.2,0.4-0.3,0.7-0.2l1,0.6
					c0.2,0.1,0.3,0.4,0.2,0.7C182.3,116.2,182.2,116.2,182,116.2z"/>
			</g>
		</g>
		<g>
			<g>
				<path class="st2" d="M161.1,89.8c-0.2,0-0.4-0.1-0.5-0.4l-0.3-1.1c-0.1-0.3,0.1-0.5,0.4-0.6c0.2-0.1,0.5,0.1,0.6,0.3l0.3,1.1
					C161.7,89.4,161.5,89.7,161.1,89.8C161.2,89.8,161.2,89.8,161.1,89.8z"/>
			</g>
			<g>
				<path class="st2" d="M170.6,125c-0.2,0-0.4-0.1-0.5-0.4l-0.3-1.1c-0.1-0.3,0.1-0.5,0.4-0.6c0.3-0.1,0.5,0.1,0.6,0.4l0.3,1.1
					c0.1,0.3-0.1,0.5-0.4,0.6C170.7,125,170.6,125,170.6,125z"/>
			</g>
		</g>
		<g>
			<g>
				<path class="st2" d="M174.5,91.5c-0.1,0-0.2,0-0.2-0.1c-0.2-0.1-0.3-0.4-0.2-0.7l0.6-1c0.1-0.2,0.4-0.3,0.7-0.2
					c0.2,0.1,0.3,0.4,0.2,0.7l-0.6,1C174.9,91.4,174.7,91.5,174.5,91.5z"/>
			</g>
			<g>
				<path class="st2" d="M156.3,123.2c-0.1,0-0.2,0-0.2-0.1c-0.2-0.1-0.3-0.4-0.2-0.7l0.6-1c0.1-0.2,0.4-0.3,0.7-0.2
					c0.2,0.1,0.3,0.4,0.2,0.7l-0.6,1C156.6,123.1,156.4,123.2,156.3,123.2z"/>
			</g>
		</g>
		<g>
			<g>
				<path class="st2" d="M182.8,102.3c-0.2,0-0.4-0.1-0.5-0.4c-0.1-0.3,0.1-0.5,0.4-0.6l1.1-0.3c0.3-0.1,0.5,0.1,0.6,0.4
					c0.1,0.3-0.1,0.5-0.4,0.6l-1.1,0.3C182.8,102.3,182.8,102.3,182.8,102.3z"/>
			</g>
			<g>
				<path class="st2" d="M147.5,111.7c-0.2,0-0.4-0.1-0.5-0.4c-0.1-0.3,0.1-0.5,0.4-0.6l1.1-0.3c0.3-0.1,0.5,0.1,0.6,0.4
					c0.1,0.3-0.1,0.5-0.4,0.6l-1.1,0.3C147.6,111.7,147.5,111.7,147.5,111.7z"/>
			</g>
		</g>
	</g>
	<g>
		<path class="st2" d="M172.4,109.3c-0.3,0-0.5-0.2-0.5-0.5c0-0.1-0.1-0.2-0.2-0.2s-0.2,0.1-0.2,0.2c0,0.3-0.2,0.5-0.5,0.5
			c-0.3,0-0.5-0.2-0.5-0.5c0-0.6,0.5-1.2,1.2-1.2s1.2,0.5,1.2,1.2C172.9,109.1,172.6,109.3,172.4,109.3z"/>
	</g>
	<g>
		<circle class="st7" cx="171" cy="112.4" r="1.7"/>
	</g>
	<g>
		<path class="st8" d="M171,110.7c1,0,1.7,0.8,1.7,1.7s-0.8,1.7-1.7,1.7"/>
	</g>
	<g>
		<path class="st2" d="M171,114.6c-1.2,0-2.2-1-2.2-2.2s1-2.2,2.2-2.2c1.2,0,2.2,1,2.2,2.2S172.2,114.6,171,114.6z M171,111.2
			c-0.7,0-1.2,0.6-1.2,1.2c0,0.7,0.6,1.2,1.2,1.2s1.2-0.6,1.2-1.2C172.2,111.7,171.7,111.2,171,111.2z"/>
	</g>
	<path class="st2" d="M177.3,94.7c-6.4-6.4-16.8-6.4-23.2,0c-6.1,6.1-6.4,15.7-1,22.2c0,0,0,0,0.1,0.1c0.3,0.3,0.6,0.7,0.9,1
		c3.2,3.2,7.4,4.8,11.6,4.8c4.2,0,8.4-1.6,11.6-4.8C183.7,111.6,183.7,101.1,177.3,94.7z M173.1,119.9c-5.9,3.2-13.4,2.4-18.4-2.6
		c-0.2-0.2-0.4-0.4-0.6-0.7c1.7-2.2,3-4.2,4.1-5.9c1.3-2.1,2.4-3.7,3.7-5c0.1-0.1,0.2-0.3,0.1-0.4c0-0.2-0.1-0.3-0.3-0.4
		c-0.8-0.4-1.6-0.9-2.3-1.5l0,0c-0.2-0.1-0.3-0.3-0.5-0.4c0,0,0,0-0.1-0.1c-0.2-0.2-0.3-0.4-0.5-0.5c0-0.1-0.1-0.1-0.1-0.2
		c-0.1-0.1-0.2-0.3-0.3-0.4c0-0.1-0.1-0.1-0.1-0.2c-0.1-0.1-0.2-0.3-0.3-0.5c0-0.1-0.1-0.1-0.1-0.2c-0.3-0.5-0.5-1-0.8-1.5l1.5-1.5
		c1.3,0.5,2.4,1.3,3.4,2.2c0.9,0.9,1.7,2.1,2.2,3.3c0.1,0.1,0.2,0.2,0.3,0.3c0.1,0,0.3,0,0.4,0c0.9-0.4,1.8-0.5,2.7-0.5
		c2.4,0,6.6,1.9,8.3,5.5C177.1,112,176.2,115.8,173.1,119.9C173.2,119.8,173.2,119.8,173.1,119.9z M160.4,105.2
		c0.1,0.1,0.3,0.2,0.4,0.3c-0.1,0.1-0.2,0.2-0.3,0.3C160.5,105.6,160.4,105.4,160.4,105.2z M159.6,106.3c-1.6-0.3-3.1-1.1-4.2-2.2
		c-0.6-0.6-1.2-1.4-1.6-2.2l1.3-1.3c0.5,0.3,1,0.6,1.5,0.9c0,0.1,0.1,0.1,0.1,0.2c0.1,0.1,0.1,0.2,0.2,0.3c0,0.1,0.1,0.1,0.1,0.2
		c0.1,0.2,0.2,0.3,0.3,0.5c0,0,0.1,0.1,0.1,0.1c0.1,0.1,0.2,0.2,0.3,0.4c0,0,0.1,0.1,0.1,0.1c0.1,0.1,0.3,0.3,0.4,0.4l0,0l0,0l0,0
		l0,0c0.1,0.1,0.2,0.2,0.4,0.3c0,0,0.1,0.1,0.1,0.1C159.2,104.8,159.5,105.5,159.6,106.3z M176.6,117.2c-0.4,0.4-0.8,0.8-1.2,1.1
		c2.3-3.8,2.2-6.8,1.5-8.9c0.5-0.4,0.6-1.1,0.3-1.7c-0.3-0.5-0.9-0.7-1.4-0.6c-2.1-3-5.8-4.9-8.5-4.9c-0.9,0-1.8,0.1-2.7,0.4
		c-0.5-1.2-1.3-2.3-2.2-3.2c-1.1-1.1-2.5-2-4-2.6c0,0,0,0,0,0s-0.1,0-0.1,0c-0.1-0.1-0.3-0.1-0.5-0.1c0,0-0.1,0-0.1,0
		c-0.2-0.1-0.4-0.1-0.6-0.2c0,0-0.1,0-0.1,0c-0.2,0-0.3-0.1-0.5-0.1c-0.1,0-0.1,0-0.2,0c-0.2,0-0.4-0.1-0.6-0.1
		c-0.1,0-0.3,0-0.4,0.1s-0.2,0.3-0.1,0.4l0,0l0,0l0,0c0,0.2,0.1,0.5,0.1,0.7c0,0.1,0,0.1,0,0.2c0,0.2,0.1,0.3,0.1,0.5
		c0,0.1,0,0.2,0.1,0.2c0,0.2,0.1,0.3,0.1,0.5c0,0.1,0,0.1,0.1,0.2c0,0.1,0.1,0.2,0.1,0.3c0,0,0,0,0,0c0,0.1,0,0.1,0.1,0.2
		c-0.2-0.1-0.4-0.2-0.6-0.3l0,0h0c-0.2-0.1-0.4-0.2-0.6-0.2l0,0c-0.2-0.1-0.4-0.1-0.6-0.2c0,0,0,0-0.1,0c-0.2-0.1-0.4-0.1-0.6-0.1
		c0,0-0.1,0-0.1,0c-0.2,0-0.4-0.1-0.6-0.1c-0.1,0-0.3,0-0.4,0.1c-0.1,0.1-0.2,0.3-0.1,0.4l0,0l0,0l0,0c0,0.2,0.1,0.5,0.1,0.7
		c0,0.1,0,0.2,0.1,0.3s0.1,0.2,0.1,0.3c0,0.1,0.1,0.3,0.1,0.4c0,0.1,0,0.2,0.1,0.2c0.1,0.2,0.1,0.3,0.2,0.5c0,0,0,0.1,0,0.1v0
		c0.4,1,1.1,2,1.9,2.8c1.3,1.3,2.9,2.1,4.6,2.5c-0.6,0.9-1.3,1.9-1.9,2.9c-1.1,1.7-2.3,3.6-3.9,5.6c-4.7-6-4.3-14.8,1.3-20.4
		c3-3,7-4.5,10.9-4.5c4,0,7.9,1.5,10.9,4.5C182.6,101.4,182.6,111.2,176.6,117.2z"/>
	<g>
		<path class="st2" d="M159.5,115.2c-0.2,0-0.4-0.1-0.4-0.3c0-0.1-1-1.9-2.7-1.4c-0.3,0.1-0.5-0.1-0.6-0.3c-0.1-0.3,0.1-0.5,0.3-0.6
			c2.1-0.6,3.5,1,3.9,1.9c0.1,0.2,0,0.5-0.2,0.7C159.7,115.2,159.6,115.2,159.5,115.2z"/>
	</g>
	<g>
		<path class="st2" d="M158.2,117.1c-0.2,0-0.4-0.1-0.4-0.3c0-0.1-1-1.9-2.7-1.4c-0.3,0.1-0.5-0.1-0.6-0.3c-0.1-0.3,0.1-0.5,0.3-0.6
			c2.1-0.6,3.5,1,3.9,1.9c0.1,0.2,0,0.5-0.2,0.7C158.4,117.1,158.3,117.1,158.2,117.1z"/>
	</g>
	<g>
		<g>
			<g>
				<path class="st2" d="M172.1,98.2c-0.1,0-0.1,0-0.2,0c-0.3-0.1-0.4-0.4-0.3-0.6l0.1-0.2c0.1-0.3,0.4-0.4,0.6-0.3
					c0.3,0.1,0.4,0.4,0.3,0.6l-0.1,0.2C172.5,98.1,172.3,98.2,172.1,98.2z"/>
			</g>
			<g>
				<path class="st2" d="M170.9,101.8c-0.1,0-0.1,0-0.2,0c-0.3-0.1-0.4-0.4-0.3-0.6l0.5-1.4c0.1-0.3,0.4-0.4,0.6-0.3
					c0.3,0.1,0.4,0.4,0.3,0.6l-0.5,1.4C171.3,101.6,171.1,101.8,170.9,101.8z"/>
			</g>
		</g>
		<g>
			<g>
				<g>
					<path class="st2" d="M165.1,97.3c-0.2,0-0.4-0.1-0.4-0.3l-0.1-0.2c-0.1-0.2,0-0.5,0.2-0.7c0.2-0.1,0.5,0,0.7,0.2l0.1,0.2
						c0.1,0.2,0,0.5-0.2,0.7C165.3,97.3,165.2,97.3,165.1,97.3z"/>
				</g>
				<g>
					<path class="st2" d="M166.8,100.6c-0.2,0-0.4-0.1-0.4-0.3l-0.6-1.3c-0.1-0.2,0-0.5,0.2-0.7c0.2-0.1,0.5,0,0.7,0.2l0.6,1.3
						c0.1,0.2,0,0.5-0.2,0.7C166.9,100.6,166.8,100.6,166.8,100.6z"/>
				</g>
			</g>
			<g>
				<g>
					<path class="st2" d="M178.2,101.7c-0.2,0-0.4-0.1-0.4-0.3c-0.1-0.2,0-0.5,0.2-0.7l0.2-0.1c0.2-0.1,0.5,0,0.7,0.2
						c0.1,0.2,0,0.5-0.2,0.7l-0.2,0.1C178.3,101.7,178.2,101.7,178.2,101.7z"/>
				</g>
				<g>
					<path class="st2" d="M174.8,103.4c-0.2,0-0.4-0.1-0.4-0.3c-0.1-0.2,0-0.5,0.2-0.7l1.3-0.6c0.2-0.1,0.5,0,0.7,0.2
						c0.1,0.2,0,0.5-0.2,0.7l-1.3,0.6C174.9,103.4,174.9,103.4,174.8,103.4z"/>
				</g>
			</g>
		</g>
	</g>
</g>
<g>
	<g>
		<circle class="st6" cx="165.7" cy="63.8" r="20.6"/>
	</g>
	<g>
		<path class="st3" d="M165.7,43.3v41.2c11.4,0,20.6-9.2,20.6-20.6S177.1,43.3,165.7,43.3z"/>
	</g>
	<g>
		<path class="st2" d="M165.7,84.9c-11.6,0-21.1-9.5-21.1-21.1s9.5-21.1,21.1-21.1c11.6,0,21.1,9.5,21.1,21.1S177.3,84.9,165.7,84.9
			z M165.7,43.8c-11.1,0-20.1,9-20.1,20.1c0,11.1,9,20.1,20.1,20.1c11.1,0,20.1-9,20.1-20.1C185.8,52.8,176.8,43.8,165.7,43.8z"/>
	</g>
	<g>
		<circle class="st6" cx="165.7" cy="63.8" r="15.9"/>
	</g>
	<g>
		<path class="st3" d="M154.5,52.6L177,75.1c6.2-6.2,6.2-16.3,0-22.5C170.8,46.4,160.7,46.4,154.5,52.6z"/>
	</g>
	<g>
		<g>
			<g>
				<path class="st2" d="M165.7,46.7c-0.3,0-0.5-0.2-0.5-0.5V45c0-0.3,0.2-0.5,0.5-0.5c0.3,0,0.5,0.2,0.5,0.5v1.2
					C166.2,46.5,166,46.7,165.7,46.7z"/>
			</g>
			<g>
				<path class="st2" d="M165.7,83.2c-0.3,0-0.5-0.2-0.5-0.5v-1.2c0-0.3,0.2-0.5,0.5-0.5c0.3,0,0.5,0.2,0.5,0.5v1.2
					C166.2,82.9,166,83.2,165.7,83.2z"/>
			</g>
		</g>
		<g>
			<g>
				<path class="st2" d="M178.2,51.9c-0.1,0-0.3,0-0.4-0.1c-0.2-0.2-0.2-0.5,0-0.7l0.8-0.8c0.2-0.2,0.5-0.2,0.7,0
					c0.2,0.2,0.2,0.5,0,0.7l-0.8,0.8C178.5,51.8,178.3,51.9,178.2,51.9z"/>
			</g>
			<g>
				<path class="st2" d="M152.4,77.7c-0.1,0-0.3,0-0.4-0.1c-0.2-0.2-0.2-0.5,0-0.7l0.8-0.8c0.2-0.2,0.5-0.2,0.7,0
					c0.2,0.2,0.2,0.5,0,0.7l-0.8,0.8C152.6,77.6,152.5,77.7,152.4,77.7z"/>
			</g>
		</g>
		<g>
			<g>
				<path class="st2" d="M184.5,64.3h-1.2c-0.3,0-0.5-0.2-0.5-0.5s0.2-0.5,0.5-0.5h1.2c0.3,0,0.5,0.2,0.5,0.5S184.8,64.3,184.5,64.3
					z"/>
			</g>
			<g>
				<path class="st2" d="M148,64.3h-1.2c-0.3,0-0.5-0.2-0.5-0.5s0.2-0.5,0.5-0.5h1.2c0.3,0,0.5,0.2,0.5,0.5S148.3,64.3,148,64.3z"/>
			</g>
		</g>
		<g>
			<g>
				<path class="st2" d="M179,77.7c-0.1,0-0.3,0-0.4-0.1l-0.8-0.8c-0.2-0.2-0.2-0.5,0-0.7c0.2-0.2,0.5-0.2,0.7,0l0.8,0.8
					c0.2,0.2,0.2,0.5,0,0.7C179.3,77.6,179.2,77.7,179,77.7z"/>
			</g>
			<g>
				<path class="st2" d="M153.2,51.9c-0.1,0-0.3,0-0.4-0.1l-0.8-0.8c-0.2-0.2-0.2-0.5,0-0.7c0.2-0.2,0.5-0.2,0.7,0l0.8,0.8
					c0.2,0.2,0.2,0.5,0,0.7C153.5,51.8,153.3,51.9,153.2,51.9z"/>
			</g>
		</g>
	</g>
	<g>
		<g>
			<g>
				<path class="st2" d="M156.9,49c-0.2,0-0.3-0.1-0.4-0.3l-0.6-1c-0.1-0.2-0.1-0.5,0.2-0.7c0.2-0.1,0.5-0.1,0.7,0.2l0.6,1
					c0.1,0.2,0.1,0.5-0.2,0.7C157,49,156.9,49,156.9,49z"/>
			</g>
			<g>
				<path class="st2" d="M175.1,80.6c-0.2,0-0.3-0.1-0.4-0.3l-0.6-1c-0.1-0.2-0.1-0.5,0.2-0.7c0.2-0.1,0.5-0.1,0.7,0.2l0.6,1
					c0.1,0.2,0.1,0.5-0.2,0.7C175.3,80.6,175.2,80.6,175.1,80.6z"/>
			</g>
		</g>
		<g>
			<g>
				<path class="st2" d="M170.3,47.3c0,0-0.1,0-0.1,0c-0.3-0.1-0.4-0.3-0.4-0.6l0.3-1.1c0.1-0.3,0.3-0.4,0.6-0.4
					c0.3,0.1,0.4,0.3,0.4,0.6l-0.3,1.1C170.7,47.1,170.5,47.3,170.3,47.3z"/>
			</g>
			<g>
				<path class="st2" d="M160.8,82.5c0,0-0.1,0-0.1,0c-0.3-0.1-0.4-0.3-0.4-0.6l0.3-1.1c0.1-0.3,0.3-0.4,0.6-0.4s0.4,0.3,0.4,0.6
					l-0.3,1.1C161.3,82.4,161.1,82.5,160.8,82.5z"/>
			</g>
		</g>
		<g>
			<g>
				<path class="st2" d="M181,55.5c-0.2,0-0.3-0.1-0.4-0.3c-0.1-0.2-0.1-0.5,0.2-0.7l1-0.6c0.2-0.1,0.5-0.1,0.7,0.2
					c0.1,0.2,0.1,0.5-0.2,0.7l-1,0.6C181.2,55.5,181.1,55.5,181,55.5z"/>
			</g>
			<g>
				<path class="st2" d="M149.4,73.7c-0.2,0-0.3-0.1-0.4-0.3c-0.1-0.2-0.1-0.5,0.2-0.7l1-0.6c0.2-0.1,0.5-0.1,0.7,0.2
					c0.1,0.2,0.1,0.5-0.2,0.7l-1,0.6C149.6,73.7,149.5,73.7,149.4,73.7z"/>
			</g>
		</g>
		<g>
			<g>
				<path class="st2" d="M183.9,69.2c0,0-0.1,0-0.1,0l-1.1-0.3c-0.3-0.1-0.4-0.3-0.4-0.6c0.1-0.3,0.3-0.4,0.6-0.4l1.1,0.3
					c0.3,0.1,0.4,0.3,0.4,0.6C184.3,69.1,184.1,69.2,183.9,69.2z"/>
			</g>
			<g>
				<path class="st2" d="M148.6,59.8c0,0-0.1,0-0.1,0l-1.1-0.3c-0.3-0.1-0.4-0.3-0.4-0.6c0.1-0.3,0.3-0.4,0.6-0.4l1.1,0.3
					c0.3,0.1,0.4,0.3,0.4,0.6C149.1,59.6,148.9,59.8,148.6,59.8z"/>
			</g>
		</g>
	</g>
	<g>
		<g>
			<g>
				<path class="st2" d="M150.4,55.5c-0.1,0-0.2,0-0.2-0.1l-1-0.6c-0.2-0.1-0.3-0.4-0.2-0.7c0.1-0.2,0.4-0.3,0.7-0.2l1,0.6
					c0.2,0.1,0.3,0.4,0.2,0.7C150.7,55.4,150.6,55.5,150.4,55.5z"/>
			</g>
			<g>
				<path class="st2" d="M182,73.7c-0.1,0-0.2,0-0.2-0.1l-1-0.6c-0.2-0.1-0.3-0.4-0.2-0.7c0.1-0.2,0.4-0.3,0.7-0.2l1,0.6
					c0.2,0.1,0.3,0.4,0.2,0.7C182.3,73.7,182.2,73.7,182,73.7z"/>
			</g>
		</g>
		<g>
			<g>
				<path class="st2" d="M161.1,47.3c-0.2,0-0.4-0.1-0.5-0.4l-0.3-1.1c-0.1-0.3,0.1-0.5,0.4-0.6c0.2-0.1,0.5,0.1,0.6,0.3l0.3,1.1
					C161.7,46.9,161.5,47.2,161.1,47.3C161.2,47.3,161.2,47.3,161.1,47.3z"/>
			</g>
			<g>
				<path class="st2" d="M170.6,82.5c-0.2,0-0.4-0.1-0.5-0.4l-0.3-1.1c-0.1-0.3,0.1-0.5,0.4-0.6c0.3-0.1,0.5,0.1,0.6,0.4l0.3,1.1
					c0.1,0.3-0.1,0.5-0.4,0.6C170.7,82.5,170.6,82.5,170.6,82.5z"/>
			</g>
		</g>
		<g>
			<g>
				<path class="st2" d="M174.5,49c-0.1,0-0.2,0-0.2-0.1c-0.2-0.1-0.3-0.4-0.2-0.7l0.6-1c0.1-0.2,0.4-0.3,0.7-0.2
					c0.2,0.1,0.3,0.4,0.2,0.7l-0.6,1C174.9,48.9,174.7,49,174.5,49z"/>
			</g>
			<g>
				<path class="st2" d="M156.3,80.6c-0.1,0-0.2,0-0.2-0.1c-0.2-0.1-0.3-0.4-0.2-0.7l0.6-1c0.1-0.2,0.4-0.3,0.7-0.2
					c0.2,0.1,0.3,0.4,0.2,0.7l-0.6,1C156.6,80.5,156.4,80.6,156.3,80.6z"/>
			</g>
		</g>
		<g>
			<g>
				<path class="st2" d="M182.8,59.8c-0.2,0-0.4-0.1-0.5-0.4c-0.1-0.3,0.1-0.5,0.4-0.6l1.1-0.3c0.3-0.1,0.5,0.1,0.6,0.4
					c0.1,0.3-0.1,0.5-0.4,0.6l-1.1,0.3C182.8,59.8,182.8,59.8,182.8,59.8z"/>
			</g>
			<g>
				<path class="st2" d="M147.5,69.2c-0.2,0-0.4-0.1-0.5-0.4c-0.1-0.3,0.1-0.5,0.4-0.6l1.1-0.3c0.3-0.1,0.5,0.1,0.6,0.4
					c0.1,0.3-0.1,0.5-0.4,0.6l-1.1,0.3C147.6,69.2,147.5,69.2,147.5,69.2z"/>
			</g>
		</g>
	</g>
	<g>
		<path class="st2" d="M172.4,66.8c-0.3,0-0.5-0.2-0.5-0.5c0-0.1-0.1-0.2-0.2-0.2c-0.1,0-0.2,0.1-0.2,0.2c0,0.3-0.2,0.5-0.5,0.5
			c-0.3,0-0.5-0.2-0.5-0.5c0-0.6,0.5-1.2,1.2-1.2s1.2,0.5,1.2,1.2C172.9,66.6,172.6,66.8,172.4,66.8z"/>
	</g>
	<g>
		<circle class="st7" cx="171" cy="69.9" r="1.7"/>
	</g>
	<g>
		<path class="st8" d="M171,68.2c1,0,1.7,0.8,1.7,1.7s-0.8,1.7-1.7,1.7"/>
	</g>
	<g>
		<path class="st2" d="M171,72.1c-1.2,0-2.2-1-2.2-2.2s1-2.2,2.2-2.2s2.2,1,2.2,2.2S172.2,72.1,171,72.1z M171,68.7
			c-0.7,0-1.2,0.6-1.2,1.2c0,0.7,0.6,1.2,1.2,1.2s1.2-0.6,1.2-1.2C172.2,69.2,171.7,68.7,171,68.7z"/>
	</g>
	<path class="st2" d="M177.3,52.2c-6.4-6.4-16.8-6.4-23.2,0c-6.1,6.1-6.4,15.7-1,22.2c0,0,0,0,0.1,0.1c0.3,0.3,0.6,0.7,0.9,1
		c3.2,3.2,7.4,4.8,11.6,4.8c4.2,0,8.4-1.6,11.6-4.8C183.7,69.1,183.7,58.6,177.3,52.2z M173.1,77.4c-5.9,3.2-13.4,2.4-18.4-2.6
		c-0.2-0.2-0.4-0.4-0.6-0.7c1.7-2.2,3-4.2,4.1-5.9c1.3-2.1,2.4-3.7,3.7-5c0.1-0.1,0.2-0.3,0.1-0.4s-0.1-0.3-0.3-0.4
		c-0.8-0.4-1.6-0.9-2.3-1.5l0,0c-0.2-0.1-0.3-0.3-0.5-0.4c0,0,0,0-0.1-0.1c-0.2-0.2-0.3-0.4-0.5-0.5c0-0.1-0.1-0.1-0.1-0.2
		c-0.1-0.1-0.2-0.3-0.3-0.4c0-0.1-0.1-0.1-0.1-0.2c-0.1-0.1-0.2-0.3-0.3-0.5c0-0.1-0.1-0.1-0.1-0.2c-0.3-0.5-0.5-1-0.8-1.5l1.5-1.5
		c1.3,0.5,2.4,1.3,3.4,2.2c0.9,0.9,1.7,2.1,2.2,3.3c0.1,0.1,0.2,0.2,0.3,0.3c0.1,0,0.3,0,0.4,0c0.9-0.4,1.8-0.5,2.7-0.5
		c2.4,0,6.6,1.9,8.3,5.5C177.1,69.5,176.2,73.3,173.1,77.4C173.2,77.3,173.2,77.3,173.1,77.4z M160.4,62.7c0.1,0.1,0.3,0.2,0.4,0.3
		c-0.1,0.1-0.2,0.2-0.3,0.3C160.5,63.1,160.4,62.9,160.4,62.7z M159.6,63.8c-1.6-0.3-3.1-1.1-4.2-2.2c-0.6-0.6-1.2-1.4-1.6-2.2
		l1.3-1.3c0.5,0.3,1,0.6,1.5,0.9c0,0.1,0.1,0.1,0.1,0.2c0.1,0.1,0.1,0.2,0.2,0.3c0,0.1,0.1,0.1,0.1,0.2c0.1,0.2,0.2,0.3,0.3,0.5
		c0,0,0.1,0.1,0.1,0.1c0.1,0.1,0.2,0.2,0.3,0.4c0,0,0.1,0.1,0.1,0.1c0.1,0.1,0.3,0.3,0.4,0.4l0,0l0,0l0,0l0,0
		c0.1,0.1,0.2,0.2,0.4,0.3c0,0,0.1,0.1,0.1,0.1C159.2,62.3,159.5,63,159.6,63.8z M176.6,74.7c-0.4,0.4-0.8,0.8-1.2,1.1
		c2.3-3.8,2.2-6.8,1.5-8.9c0.5-0.4,0.6-1.1,0.3-1.7c-0.3-0.5-0.9-0.7-1.4-0.6c-2.1-3-5.8-4.9-8.5-4.9c-0.9,0-1.8,0.1-2.7,0.4
		c-0.5-1.2-1.3-2.3-2.2-3.2c-1.1-1.1-2.5-2-4-2.6c0,0,0,0,0,0s-0.1,0-0.1,0c-0.1-0.1-0.3-0.1-0.5-0.1c0,0-0.1,0-0.1,0
		c-0.2-0.1-0.4-0.1-0.6-0.2c0,0-0.1,0-0.1,0c-0.2,0-0.3-0.1-0.5-0.1c-0.1,0-0.1,0-0.2,0c-0.2,0-0.4-0.1-0.6-0.1
		c-0.1,0-0.3,0-0.4,0.1c-0.1,0.1-0.2,0.3-0.1,0.4l0,0l0,0l0,0c0,0.2,0.1,0.5,0.1,0.7c0,0.1,0,0.1,0,0.2c0,0.2,0.1,0.3,0.1,0.5
		c0,0.1,0,0.2,0.1,0.2c0,0.2,0.1,0.3,0.1,0.5c0,0.1,0,0.1,0.1,0.2c0,0.1,0.1,0.2,0.1,0.3c0,0,0,0,0,0c0,0.1,0,0.1,0.1,0.2
		c-0.2-0.1-0.4-0.2-0.6-0.3l0,0h0c-0.2-0.1-0.4-0.2-0.6-0.2l0,0c-0.2-0.1-0.4-0.1-0.6-0.2c0,0,0,0-0.1,0c-0.2-0.1-0.4-0.1-0.6-0.1
		c0,0-0.1,0-0.1,0c-0.2,0-0.4-0.1-0.6-0.1c-0.1,0-0.3,0-0.4,0.1c-0.1,0.1-0.2,0.3-0.1,0.4l0,0l0,0l0,0c0,0.2,0.1,0.5,0.1,0.7
		c0,0.1,0,0.2,0.1,0.3c0,0.1,0.1,0.2,0.1,0.3c0,0.1,0.1,0.3,0.1,0.4c0,0.1,0,0.2,0.1,0.2c0.1,0.2,0.1,0.3,0.2,0.5c0,0,0,0.1,0,0.1v0
		c0.4,1,1.1,2,1.9,2.8c1.3,1.3,2.9,2.1,4.6,2.5c-0.6,0.9-1.3,1.9-1.9,2.9c-1.1,1.7-2.3,3.6-3.9,5.6c-4.7-6-4.3-14.8,1.3-20.4
		c3-3,7-4.5,10.9-4.5s7.9,1.5,10.9,4.5C182.6,58.9,182.6,68.7,176.6,74.7z"/>
	<g>
		<path class="st2" d="M159.5,72.7c-0.2,0-0.4-0.1-0.4-0.3c0-0.1-1-1.9-2.7-1.4c-0.3,0.1-0.5-0.1-0.6-0.3c-0.1-0.3,0.1-0.5,0.3-0.6
			c2.1-0.6,3.5,1,3.9,1.9c0.1,0.2,0,0.5-0.2,0.7C159.7,72.7,159.6,72.7,159.5,72.7z"/>
	</g>
	<g>
		<path class="st2" d="M158.2,74.6c-0.2,0-0.4-0.1-0.4-0.3c0-0.1-1-1.9-2.7-1.4c-0.3,0.1-0.5-0.1-0.6-0.3c-0.1-0.3,0.1-0.5,0.3-0.6
			c2.1-0.6,3.5,1,3.9,1.9c0.1,0.2,0,0.5-0.2,0.7C158.4,74.6,158.3,74.6,158.2,74.6z"/>
	</g>
	<g>
		<g>
			<g>
				<path class="st2" d="M172.1,55.7c-0.1,0-0.1,0-0.2,0c-0.3-0.1-0.4-0.4-0.3-0.6l0.1-0.2c0.1-0.3,0.4-0.4,0.6-0.3
					c0.3,0.1,0.4,0.4,0.3,0.6l-0.1,0.2C172.5,55.6,172.3,55.7,172.1,55.7z"/>
			</g>
			<g>
				<path class="st2" d="M170.9,59.3c-0.1,0-0.1,0-0.2,0c-0.3-0.1-0.4-0.4-0.3-0.6l0.5-1.4c0.1-0.3,0.4-0.4,0.6-0.3
					c0.3,0.1,0.4,0.4,0.3,0.6l-0.5,1.4C171.3,59.1,171.1,59.3,170.9,59.3z"/>
			</g>
		</g>
		<g>
			<g>
				<g>
					<path class="st2" d="M165.1,54.8c-0.2,0-0.4-0.1-0.4-0.3l-0.1-0.2c-0.1-0.2,0-0.5,0.2-0.7c0.2-0.1,0.5,0,0.7,0.2l0.1,0.2
						c0.1,0.2,0,0.5-0.2,0.7C165.3,54.8,165.2,54.8,165.1,54.8z"/>
				</g>
				<g>
					<path class="st2" d="M166.8,58.1c-0.2,0-0.4-0.1-0.4-0.3l-0.6-1.3c-0.1-0.2,0-0.5,0.2-0.7c0.2-0.1,0.5,0,0.7,0.2l0.6,1.3
						c0.1,0.2,0,0.5-0.2,0.7C166.9,58.1,166.8,58.1,166.8,58.1z"/>
				</g>
			</g>
			<g>
				<g>
					<path class="st2" d="M178.2,59.2c-0.2,0-0.4-0.1-0.4-0.3c-0.1-0.2,0-0.5,0.2-0.7l0.2-0.1c0.2-0.1,0.5,0,0.7,0.2
						c0.1,0.2,0,0.5-0.2,0.7l-0.2,0.1C178.3,59.2,178.2,59.2,178.2,59.2z"/>
				</g>
				<g>
					<path class="st2" d="M174.8,60.9c-0.2,0-0.4-0.1-0.4-0.3c-0.1-0.2,0-0.5,0.2-0.7l1.3-0.6c0.2-0.1,0.5,0,0.7,0.2
						c0.1,0.2,0,0.5-0.2,0.7l-1.3,0.6C174.9,60.9,174.9,60.9,174.8,60.9z"/>
				</g>
			</g>
		</g>
	</g>
</g>
<g>
	<g>
		<circle class="st6" cx="21.1" cy="106.4" r="20.6"/>
	</g>
	<g>
		<path class="st3" d="M21.1,85.8v41.2c11.4,0,20.6-9.2,20.6-20.6S32.4,85.8,21.1,85.8z"/>
	</g>
	<g>
		<path class="st2" d="M21.1,127.4C9.5,127.4,0,118,0,106.4s9.5-21.1,21.1-21.1s21.1,9.5,21.1,21.1S32.7,127.4,21.1,127.4z
			 M21.1,86.3C10,86.3,1,95.3,1,106.4c0,11.1,9,20.1,20.1,20.1s20.1-9,20.1-20.1C41.2,95.3,32.1,86.3,21.1,86.3z"/>
	</g>
	<g>
		<circle class="st6" cx="21.1" cy="106.4" r="15.9"/>
	</g>
	<g>
		<path class="st3" d="M9.8,95.1l22.5,22.5c6.2-6.2,6.2-16.3,0-22.5C26.1,88.9,16,88.9,9.8,95.1z"/>
	</g>
	<g>
		<g>
			<g>
				<path class="st2" d="M21.1,89.2c-0.3,0-0.5-0.2-0.5-0.5v-1.2c0-0.3,0.2-0.5,0.5-0.5c0.3,0,0.5,0.2,0.5,0.5v1.2
					C21.6,89,21.3,89.2,21.1,89.2z"/>
			</g>
			<g>
				<path class="st2" d="M21.1,125.7c-0.3,0-0.5-0.2-0.5-0.5V124c0-0.3,0.2-0.5,0.5-0.5c0.3,0,0.5,0.2,0.5,0.5v1.2
					C21.6,125.4,21.3,125.7,21.1,125.7z"/>
			</g>
		</g>
		<g>
			<g>
				<path class="st2" d="M33.6,94.4c-0.1,0-0.3,0-0.4-0.1c-0.2-0.2-0.2-0.5,0-0.7l0.8-0.8c0.2-0.2,0.5-0.2,0.7,0s0.2,0.5,0,0.7
					l-0.8,0.8C33.8,94.3,33.7,94.4,33.6,94.4z"/>
			</g>
			<g>
				<path class="st2" d="M7.8,120.2c-0.1,0-0.3,0-0.4-0.1c-0.2-0.2-0.2-0.5,0-0.7l0.8-0.8c0.2-0.2,0.5-0.2,0.7,0
					c0.2,0.2,0.2,0.5,0,0.7L8.1,120C8,120.1,7.9,120.2,7.8,120.2z"/>
			</g>
		</g>
		<g>
			<g>
				<path class="st2" d="M39.9,106.8h-1.2c-0.3,0-0.5-0.2-0.5-0.5c0-0.3,0.2-0.5,0.5-0.5h1.2c0.3,0,0.5,0.2,0.5,0.5
					C40.4,106.6,40.2,106.8,39.9,106.8z"/>
			</g>
			<g>
				<path class="st2" d="M3.4,106.8H2.3c-0.3,0-0.5-0.2-0.5-0.5c0-0.3,0.2-0.5,0.5-0.5h1.2c0.3,0,0.5,0.2,0.5,0.5
					C3.9,106.6,3.7,106.8,3.4,106.8z"/>
			</g>
		</g>
		<g>
			<g>
				<path class="st2" d="M34.4,120.2c-0.1,0-0.3,0-0.4-0.1l-0.8-0.8c-0.2-0.2-0.2-0.5,0-0.7c0.2-0.2,0.5-0.2,0.7,0l0.8,0.8
					c0.2,0.2,0.2,0.5,0,0.7C34.6,120.1,34.5,120.2,34.4,120.2z"/>
			</g>
			<g>
				<path class="st2" d="M8.6,94.4c-0.1,0-0.3,0-0.4-0.1l-0.8-0.8c-0.2-0.2-0.2-0.5,0-0.7s0.5-0.2,0.7,0l0.8,0.8
					c0.2,0.2,0.2,0.5,0,0.7C8.8,94.3,8.7,94.4,8.6,94.4z"/>
			</g>
		</g>
	</g>
	<g>
		<g>
			<g>
				<path class="st2" d="M12.3,91.5c-0.2,0-0.3-0.1-0.4-0.3l-0.6-1c-0.1-0.2-0.1-0.5,0.2-0.7s0.5-0.1,0.7,0.2l0.6,1
					c0.1,0.2,0.1,0.5-0.2,0.7C12.4,91.5,12.3,91.5,12.3,91.5z"/>
			</g>
			<g>
				<path class="st2" d="M30.5,123.2c-0.2,0-0.3-0.1-0.4-0.3l-0.6-1c-0.1-0.2-0.1-0.5,0.2-0.7c0.2-0.1,0.5-0.1,0.7,0.2l0.6,1
					c0.1,0.2,0.1,0.5-0.2,0.7C30.6,123.1,30.6,123.2,30.5,123.2z"/>
			</g>
		</g>
		<g>
			<g>
				<path class="st2" d="M25.6,89.8c0,0-0.1,0-0.1,0c-0.3-0.1-0.4-0.3-0.4-0.6l0.3-1.1c0.1-0.3,0.3-0.4,0.6-0.4
					c0.3,0.1,0.4,0.3,0.4,0.6l-0.3,1.1C26.1,89.7,25.9,89.8,25.6,89.8z"/>
			</g>
			<g>
				<path class="st2" d="M16.2,125c0,0-0.1,0-0.1,0c-0.3-0.1-0.4-0.3-0.4-0.6l0.3-1.1c0.1-0.3,0.3-0.4,0.6-0.4
					c0.3,0.1,0.4,0.3,0.4,0.6l-0.3,1.1C16.6,124.9,16.4,125,16.2,125z"/>
			</g>
		</g>
		<g>
			<g>
				<path class="st2" d="M36.4,98c-0.2,0-0.3-0.1-0.4-0.3c-0.1-0.2-0.1-0.5,0.2-0.7l1-0.6c0.2-0.1,0.5-0.1,0.7,0.2
					c0.1,0.2,0.1,0.5-0.2,0.7l-1,0.6C36.6,98,36.5,98,36.4,98z"/>
			</g>
			<g>
				<path class="st2" d="M4.8,116.2c-0.2,0-0.3-0.1-0.4-0.3c-0.1-0.2-0.1-0.5,0.2-0.7l1-0.6c0.2-0.1,0.5-0.1,0.7,0.2
					c0.1,0.2,0.1,0.5-0.2,0.7l-1,0.6C4.9,116.2,4.8,116.2,4.8,116.2z"/>
			</g>
		</g>
		<g>
			<g>
				<path class="st2" d="M39.3,111.7c0,0-0.1,0-0.1,0l-1.1-0.3c-0.3-0.1-0.4-0.3-0.4-0.6c0.1-0.3,0.3-0.4,0.6-0.4l1.1,0.3
					c0.3,0.1,0.4,0.3,0.4,0.6C39.7,111.6,39.5,111.7,39.3,111.7z"/>
			</g>
			<g>
				<path class="st2" d="M4,102.3c0,0-0.1,0-0.1,0l-1.1-0.3c-0.3-0.1-0.4-0.3-0.4-0.6c0.1-0.3,0.3-0.4,0.6-0.4l1.1,0.3
					c0.3,0.1,0.4,0.3,0.4,0.6C4.4,102.1,4.2,102.3,4,102.3z"/>
			</g>
		</g>
	</g>
	<g>
		<g>
			<g>
				<path class="st2" d="M5.8,98c-0.1,0-0.2,0-0.2-0.1l-1-0.6c-0.2-0.1-0.3-0.4-0.2-0.7c0.1-0.2,0.4-0.3,0.7-0.2l1,0.6
					c0.2,0.1,0.3,0.4,0.2,0.7C6.1,97.9,5.9,98,5.8,98z"/>
			</g>
			<g>
				<path class="st2" d="M37.4,116.2c-0.1,0-0.2,0-0.2-0.1l-1-0.6c-0.2-0.1-0.3-0.4-0.2-0.7c0.1-0.2,0.4-0.3,0.7-0.2l1,0.6
					c0.2,0.1,0.3,0.4,0.2,0.7C37.7,116.2,37.6,116.2,37.4,116.2z"/>
			</g>
		</g>
		<g>
			<g>
				<path class="st2" d="M16.5,89.8c-0.2,0-0.4-0.1-0.5-0.4l-0.3-1.1c-0.1-0.3,0.1-0.5,0.4-0.6c0.2-0.1,0.5,0.1,0.6,0.3l0.3,1.1
					C17,89.4,16.9,89.7,16.5,89.8C16.6,89.8,16.5,89.8,16.5,89.8z"/>
			</g>
			<g>
				<path class="st2" d="M26,125c-0.2,0-0.4-0.1-0.5-0.4l-0.3-1.1c-0.1-0.3,0.1-0.5,0.4-0.6c0.3-0.1,0.5,0.1,0.6,0.4l0.3,1.1
					c0.1,0.3-0.1,0.5-0.4,0.6C26,125,26,125,26,125z"/>
			</g>
		</g>
		<g>
			<g>
				<path class="st2" d="M29.9,91.5c-0.1,0-0.2,0-0.2-0.1c-0.2-0.1-0.3-0.4-0.2-0.7l0.6-1c0.1-0.2,0.4-0.3,0.7-0.2
					c0.2,0.1,0.3,0.4,0.2,0.7l-0.6,1C30.2,91.4,30.1,91.5,29.9,91.5z"/>
			</g>
			<g>
				<path class="st2" d="M11.7,123.2c-0.1,0-0.2,0-0.2-0.1c-0.2-0.1-0.3-0.4-0.2-0.7l0.6-1c0.1-0.2,0.4-0.3,0.7-0.2
					c0.2,0.1,0.3,0.4,0.2,0.7l-0.6,1C12,123.1,11.8,123.2,11.7,123.2z"/>
			</g>
		</g>
		<g>
			<g>
				<path class="st2" d="M38.1,102.3c-0.2,0-0.4-0.1-0.5-0.4c-0.1-0.3,0.1-0.5,0.4-0.6l1.1-0.3c0.3-0.1,0.5,0.1,0.6,0.4
					c0.1,0.3-0.1,0.5-0.4,0.6l-1.1,0.3C38.2,102.3,38.2,102.3,38.1,102.3z"/>
			</g>
			<g>
				<path class="st2" d="M2.9,111.7c-0.2,0-0.4-0.1-0.5-0.4c-0.1-0.3,0.1-0.5,0.4-0.6l1.1-0.3c0.3-0.1,0.5,0.1,0.6,0.4
					c0.1,0.3-0.1,0.5-0.4,0.6L3,111.7C3,111.7,2.9,111.7,2.9,111.7z"/>
			</g>
		</g>
	</g>
	<g>
		<path class="st2" d="M27.8,109.3c-0.3,0-0.5-0.2-0.5-0.5c0-0.1-0.1-0.2-0.2-0.2c-0.1,0-0.2,0.1-0.2,0.2c0,0.3-0.2,0.5-0.5,0.5
			c-0.3,0-0.5-0.2-0.5-0.5c0-0.6,0.5-1.2,1.2-1.2s1.2,0.5,1.2,1.2C28.3,109.1,28,109.3,27.8,109.3z"/>
	</g>
	<g>
		<circle class="st7" cx="26.4" cy="112.4" r="1.7"/>
	</g>
	<g>
		<path class="st8" d="M26.4,110.7c1,0,1.7,0.8,1.7,1.7s-0.8,1.7-1.7,1.7"/>
	</g>
	<g>
		<path class="st2" d="M26.4,114.6c-1.2,0-2.2-1-2.2-2.2s1-2.2,2.2-2.2s2.2,1,2.2,2.2S27.6,114.6,26.4,114.6z M26.4,111.2
			c-0.7,0-1.2,0.6-1.2,1.2c0,0.7,0.6,1.2,1.2,1.2s1.2-0.6,1.2-1.2C27.6,111.7,27,111.2,26.4,111.2z"/>
	</g>
	<path class="st2" d="M32.7,94.7c-6.4-6.4-16.8-6.4-23.2,0c-6.1,6.1-6.4,15.7-1,22.2c0,0,0,0,0.1,0.1c0.3,0.3,0.6,0.7,0.9,1
		c3.2,3.2,7.4,4.8,11.6,4.8s8.4-1.6,11.6-4.8C39.1,111.6,39.1,101.1,32.7,94.7z M28.5,119.9c-5.9,3.2-13.4,2.4-18.4-2.6
		c-0.2-0.2-0.4-0.4-0.6-0.7c1.7-2.2,3-4.2,4.1-5.9c1.3-2.1,2.4-3.7,3.7-5c0.1-0.1,0.2-0.3,0.1-0.4c0-0.2-0.1-0.3-0.3-0.4
		c-0.8-0.4-1.6-0.9-2.3-1.5l0,0c-0.2-0.1-0.3-0.3-0.5-0.4c0,0,0,0-0.1-0.1c-0.2-0.2-0.3-0.4-0.5-0.5c0-0.1-0.1-0.1-0.1-0.2
		c-0.1-0.1-0.2-0.3-0.3-0.4c0-0.1-0.1-0.1-0.1-0.2c-0.1-0.1-0.2-0.3-0.3-0.5c0-0.1-0.1-0.1-0.1-0.2c-0.3-0.5-0.5-1-0.8-1.5l1.5-1.5
		c1.3,0.5,2.4,1.3,3.4,2.2c0.9,0.9,1.7,2.1,2.2,3.3c0.1,0.1,0.2,0.2,0.3,0.3c0.1,0,0.3,0,0.4,0c0.9-0.4,1.8-0.5,2.7-0.5
		c2.4,0,6.6,1.9,8.3,5.5C32.4,112,31.6,115.8,28.5,119.9C28.6,119.8,28.6,119.8,28.5,119.9z M15.7,105.2c0.1,0.1,0.3,0.2,0.4,0.3
		c-0.1,0.1-0.2,0.2-0.3,0.3C15.8,105.6,15.8,105.4,15.7,105.2z M15,106.3c-1.6-0.3-3.1-1.1-4.2-2.2c-0.6-0.6-1.2-1.4-1.6-2.2
		l1.3-1.3c0.5,0.3,1,0.6,1.5,0.9c0,0.1,0.1,0.1,0.1,0.2c0.1,0.1,0.1,0.2,0.2,0.3c0,0.1,0.1,0.1,0.1,0.2c0.1,0.2,0.2,0.3,0.3,0.5
		c0,0,0.1,0.1,0.1,0.1c0.1,0.1,0.2,0.2,0.3,0.4c0,0,0.1,0.1,0.1,0.1c0.1,0.1,0.3,0.3,0.4,0.4l0,0l0,0l0,0l0,0
		c0.1,0.1,0.2,0.2,0.4,0.3c0,0,0.1,0.1,0.1,0.1C14.6,104.8,14.8,105.5,15,106.3z M32,117.2c-0.4,0.4-0.8,0.8-1.2,1.1
		c2.3-3.8,2.2-6.8,1.5-8.9c0.5-0.4,0.6-1.1,0.3-1.7c-0.3-0.5-0.9-0.7-1.4-0.6c-2.1-3-5.8-4.9-8.5-4.9c-0.9,0-1.8,0.1-2.7,0.4
		c-0.5-1.2-1.3-2.3-2.2-3.2c-1.1-1.1-2.5-2-4-2.6c0,0,0,0,0,0c0,0-0.1,0-0.1,0c-0.1-0.1-0.3-0.1-0.5-0.1c0,0-0.1,0-0.1,0
		c-0.2-0.1-0.4-0.1-0.6-0.2c0,0-0.1,0-0.1,0c-0.2,0-0.3-0.1-0.5-0.1c-0.1,0-0.1,0-0.2,0c-0.2,0-0.4-0.1-0.6-0.1
		c-0.1,0-0.3,0-0.4,0.1s-0.2,0.3-0.1,0.4l0,0l0,0l0,0c0,0.2,0.1,0.5,0.1,0.7c0,0.1,0,0.1,0,0.2c0,0.2,0.1,0.3,0.1,0.5
		c0,0.1,0,0.2,0.1,0.2c0,0.2,0.1,0.3,0.1,0.5c0,0.1,0,0.1,0.1,0.2c0,0.1,0.1,0.2,0.1,0.3c0,0,0,0,0,0c0,0.1,0,0.1,0.1,0.2
		c-0.2-0.1-0.4-0.2-0.6-0.3l0,0h0c-0.2-0.1-0.4-0.2-0.6-0.2l0,0c-0.2-0.1-0.4-0.1-0.6-0.2c0,0,0,0-0.1,0C9.2,99,9,99,8.8,98.9
		c0,0-0.1,0-0.1,0c-0.2,0-0.4-0.1-0.6-0.1c-0.1,0-0.3,0-0.4,0.1c-0.1,0.1-0.2,0.3-0.1,0.4l0,0l0,0l0,0c0,0.2,0.1,0.5,0.1,0.7
		c0,0.1,0,0.2,0.1,0.3s0.1,0.2,0.1,0.3c0,0.1,0.1,0.3,0.1,0.4c0,0.1,0,0.2,0.1,0.2c0.1,0.2,0.1,0.3,0.2,0.5c0,0,0,0.1,0,0.1v0
		c0.4,1,1.1,2,1.9,2.8c1.3,1.3,2.9,2.1,4.6,2.5c-0.6,0.9-1.3,1.9-1.9,2.9c-1.1,1.7-2.3,3.6-3.9,5.6c-4.7-6-4.3-14.8,1.3-20.4
		c3-3,7-4.5,10.9-4.5S29,92.4,32,95.4C38,101.4,38,111.2,32,117.2z"/>
	<g>
		<path class="st2" d="M14.9,115.2c-0.2,0-0.4-0.1-0.4-0.3c0-0.1-1-1.9-2.7-1.4c-0.3,0.1-0.5-0.1-0.6-0.3c-0.1-0.3,0.1-0.5,0.3-0.6
			c2.1-0.6,3.5,1,3.9,1.9c0.1,0.2,0,0.5-0.2,0.7C15.1,115.2,15,115.2,14.9,115.2z"/>
	</g>
	<g>
		<path class="st2" d="M13.6,117.1c-0.2,0-0.4-0.1-0.4-0.3c0-0.1-1-1.9-2.7-1.4c-0.3,0.1-0.5-0.1-0.6-0.3c-0.1-0.3,0.1-0.5,0.3-0.6
			c2.1-0.6,3.5,1,3.9,1.9c0.1,0.2,0,0.5-0.2,0.7C13.7,117.1,13.7,117.1,13.6,117.1z"/>
	</g>
	<g>
		<g>
			<g>
				<path class="st2" d="M27.5,98.2c-0.1,0-0.1,0-0.2,0c-0.3-0.1-0.4-0.4-0.3-0.6l0.1-0.2c0.1-0.3,0.4-0.4,0.6-0.3
					c0.3,0.1,0.4,0.4,0.3,0.6l-0.1,0.2C27.9,98.1,27.7,98.2,27.5,98.2z"/>
			</g>
			<g>
				<path class="st2" d="M26.2,101.8c-0.1,0-0.1,0-0.2,0c-0.3-0.1-0.4-0.4-0.3-0.6l0.5-1.4c0.1-0.3,0.4-0.4,0.6-0.3
					c0.3,0.1,0.4,0.4,0.3,0.6l-0.5,1.4C26.6,101.6,26.4,101.8,26.2,101.8z"/>
			</g>
		</g>
		<g>
			<g>
				<g>
					<path class="st2" d="M20.5,97.3c-0.2,0-0.4-0.1-0.4-0.3l-0.1-0.2c-0.1-0.2,0-0.5,0.2-0.7c0.2-0.1,0.5,0,0.7,0.2l0.1,0.2
						c0.1,0.2,0,0.5-0.2,0.7C20.7,97.3,20.6,97.3,20.5,97.3z"/>
				</g>
				<g>
					<path class="st2" d="M22.1,100.6c-0.2,0-0.4-0.1-0.4-0.3L21.1,99c-0.1-0.2,0-0.5,0.2-0.7c0.2-0.1,0.5,0,0.7,0.2l0.6,1.3
						c0.1,0.2,0,0.5-0.2,0.7C22.3,100.6,22.2,100.6,22.1,100.6z"/>
				</g>
			</g>
			<g>
				<g>
					<path class="st2" d="M33.5,101.7c-0.2,0-0.4-0.1-0.4-0.3c-0.1-0.2,0-0.5,0.2-0.7l0.2-0.1c0.2-0.1,0.5,0,0.7,0.2
						c0.1,0.2,0,0.5-0.2,0.7l-0.2,0.1C33.7,101.7,33.6,101.7,33.5,101.7z"/>
				</g>
				<g>
					<path class="st2" d="M30.2,103.4c-0.2,0-0.4-0.1-0.4-0.3c-0.1-0.2,0-0.5,0.2-0.7l1.3-0.6c0.2-0.1,0.5,0,0.7,0.2
						c0.1,0.2,0,0.5-0.2,0.7l-1.3,0.6C30.3,103.4,30.2,103.4,30.2,103.4z"/>
				</g>
			</g>
		</g>
	</g>
</g>
</svg>
