<?xml version="1.0" encoding="utf-8"?>
<!-- Generator: Adobe Illustrator 21.1.0, SVG Export Plug-In . SVG Version: 6.00 Build 0)  -->
<svg version="1.1" xmlns="http://www.w3.org/2000/svg" xmlns:xlink="http://www.w3.org/1999/xlink" x="0px" y="0px"
	 viewBox="0 0 127.5 150.5" style="enable-background:new 0 0 127.5 150.5;" xml:space="preserve">
<style type="text/css">
	.st0{fill:#4F4B48;}
	.st1{fill:#33363A;}
	.st2{fill:#EFA3CC;}
	.st3{fill:#FBFCF2;}
	.st4{fill:#EAE4C5;}
	.st5{fill:#DDD2B1;}
	.st6{fill:#A35616;}
	.st7{fill:#FFFFFF;}
	.st8{fill:#FFD039;}
	.st9{fill:#FFB000;}
	.st10{fill:#EA7B1F;}
</style>
<g id="Layer_1">
	<g>
		<g>
			<g>
				<g>
					<g>
						<path class="st0" d="M113.9,26.8c6.3,8.7,7.6,20.5,2.4,30.7c-5.3,10.2-15.7,16-26.4,15.8c-6.3-8.7-7.6-20.5-2.4-30.7
							C92.8,32.5,103.2,26.7,113.9,26.8z"/>
					</g>
					<g>
						<path class="st1" d="M89.9,73.3c-6.3-8.7-7.6-20.5-2.4-30.7c5.3-10.2,15.7-16,26.4-15.8"/>
					</g>
					<g>
						<path class="st1" d="M90.3,74.8c-0.1,0-0.2,0-0.4,0c-0.5,0-0.9-0.2-1.2-0.6c-6.9-9.5-7.9-21.9-2.5-32.2
							c5.3-10.3,15.8-16.6,27.4-16.6c0.1,0,0.2,0,0.4,0c0.5,0,0.9,0.2,1.2,0.6c6.9,9.5,7.9,21.9,2.5,32.2
							C112.3,68.5,101.9,74.8,90.3,74.8z M113.2,28.3c-10.3,0.2-19.5,5.9-24.3,15c-4.7,9.2-4,20,1.8,28.5c10.3-0.2,19.6-5.9,24.3-15
							C119.7,47.7,119,36.8,113.2,28.3z"/>
					</g>
				</g>
				<g>
					<g>
						<path class="st2" d="M109.3,37.7c3.9,5.3,4.7,12.6,1.5,18.9c-3.2,6.3-9.6,9.8-16.2,9.7c-3.9-5.3-4.7-12.6-1.5-18.9
							C96.3,41.2,102.7,37.6,109.3,37.7z"/>
					</g>
					<g>
						<path class="st1" d="M94.7,67.8c-0.1,0-0.2,0-0.2,0c-0.5,0-0.9-0.2-1.2-0.6c-4.4-6-5-13.9-1.6-20.5c3.4-6.5,10-10.6,17.4-10.6
							c0.1,0,0.2,0,0.2,0c0.5,0,0.9,0.2,1.2,0.6c4.4,6,5,13.9,1.6,20.5C108.7,63.8,102.1,67.8,94.7,67.8z M108.5,39.2
							c-6,0.2-11.4,3.6-14.1,8.9c-2.8,5.4-2.4,11.7,0.9,16.7c6-0.2,11.4-3.6,14.1-8.9C112.2,50.5,111.8,44.2,108.5,39.2z"/>
					</g>
				</g>
			</g>
			<g>
				<g>
					<g>
						<path class="st0" d="M13.6,26.8C7.3,35.5,6,47.3,11.2,57.5c5.3,10.2,15.7,16,26.4,15.8c6.3-8.7,7.6-20.5,2.4-30.7
							S24.3,26.7,13.6,26.8z"/>
					</g>
					<g>
						<path class="st1" d="M37.6,73.3c6.3-8.7,7.6-20.5,2.4-30.7s-15.7-16-26.4-15.8"/>
					</g>
					<g>
						<path class="st1" d="M37.3,74.8c-11.6,0-22.1-6.4-27.4-16.6c-5.4-10.4-4.4-22.8,2.5-32.2c0.3-0.4,0.7-0.6,1.2-0.6
							c0.1,0,0.2,0,0.4,0c11.6,0,22.1,6.4,27.4,16.6c5.4,10.4,4.4,22.8-2.5,32.2c-0.3,0.4-0.7,0.6-1.2,0.6
							C37.5,74.8,37.4,74.8,37.3,74.8z M14.4,28.3c-5.8,8.5-6.5,19.3-1.8,28.5c4.7,9.2,14,14.9,24.3,15c5.8-8.5,6.5-19.3,1.8-28.5
							C33.9,34.2,24.7,28.5,14.4,28.3z"/>
					</g>
				</g>
				<g>
					<g>
						<path class="st2" d="M18.2,37.7c-3.9,5.3-4.7,12.6-1.5,18.9c3.2,6.3,9.6,9.8,16.2,9.7c3.9-5.3,4.7-12.6,1.5-18.9
							C31.2,41.2,24.8,37.6,18.2,37.7z"/>
					</g>
					<g>
						<path class="st1" d="M32.8,67.8c-7.4,0-14-4-17.4-10.6C12,50.7,12.6,42.8,17,36.8c0.3-0.4,0.7-0.6,1.2-0.6c0.1,0,0.2,0,0.2,0
							c7.4,0,14,4,17.4,10.6c3.4,6.6,2.8,14.4-1.6,20.5c-0.3,0.4-0.7,0.6-1.2,0.6C32.9,67.8,32.8,67.8,32.8,67.8z M19,39.2
							c-3.3,5-3.7,11.3-0.9,16.7c2.8,5.4,8.1,8.7,14.1,8.9c3.3-5,3.7-11.3,0.9-16.7C30.4,42.8,25,39.4,19,39.2z"/>
					</g>
				</g>
			</g>
		</g>
		<g>
			<g>
				<path class="st3" d="M113,77.2c0,20.7-22,37.4-49.2,37.4c-27.2,0-49.2-16.8-49.2-37.4c0-20.7,22-45.5,49.2-45.5
					C90.9,31.7,113,56.5,113,77.2z"/>
			</g>
			<g>
				<path class="st4" d="M113,77.2c0,20.7-22,37.4-49.2,37.4c-27.2,0-49.2-16.8-49.2-37.4c0-20.7,22-34.9,49.2-34.9
					C90.9,42.2,113,56.5,113,77.2z"/>
			</g>
			<g>
				<path class="st5" d="M113,77.2c0,20.7-22,37.4-49.2,37.4c-27.2,0-49.2-16.8-49.2-37.4c0-20.7,6.3,18.3,49.2,18.3
					C106.7,95.5,113,56.5,113,77.2z"/>
			</g>
			<g>
				<path class="st1" d="M63.8,116.1c-28,0-50.7-17.5-50.7-38.9c0-21.3,22.6-47,50.7-47s50.7,25.7,50.7,47
					C114.5,98.6,91.7,116.1,63.8,116.1z M63.8,33.2c-26.4,0-47.7,24-47.7,44c0,19.8,21.4,35.9,47.7,35.9s47.7-16.1,47.7-35.9
					C111.5,57.2,90.2,33.2,63.8,33.2z"/>
			</g>
		</g>
		<g>
			<path class="st6" d="M47.6,75c0,4.4-3.6,8.1-8.1,8.1c-4.4,0-8.1-3.6-8.1-8.1c0-4.4,3.6-8.1,8.1-8.1C44,66.9,47.6,70.5,47.6,75z"
				/>
		</g>
		<g>
			<circle class="st7" cx="35.5" cy="72.4" r="3.3"/>
		</g>
		<path class="st1" d="M39.5,65.4c-3.2,0-6.1,1.6-7.8,4.1c-0.1,0.1-0.2,0.3-0.3,0.4c-0.9,1.5-1.4,3.2-1.4,5c0,5.3,4.3,9.6,9.6,9.6
			c5.3,0,9.6-4.3,9.6-9.6S44.8,65.4,39.5,65.4z M39.5,81.5c-2.7,0-5.1-1.7-6-4c0.7,0,1.5-0.2,2.5-0.4c0.3,0,0.7-0.1,1-0.2
			c0.8-0.1,1.7-0.3,2.6-0.3c2.4,0,4.6,0.8,6,0.9C44.6,79.9,42.3,81.5,39.5,81.5z"/>
		<circle class="st7" cx="35.5" cy="72.4" r="1.8"/>
		<g>
			<path class="st6" d="M96,75c0,4.4-3.6,8.1-8.1,8.1s-8.1-3.6-8.1-8.1c0-4.4,3.6-8.1,8.1-8.1C92.4,66.9,96,70.5,96,75z"/>
		</g>
		<g>
			<circle class="st7" cx="84" cy="72.4" r="3.3"/>
		</g>
		<path class="st1" d="M88,65.4c-3.2,0-6.1,1.6-7.8,4.1c-0.1,0.2-0.2,0.3-0.3,0.5c-0.9,1.5-1.4,3.2-1.4,5c0,5.3,4.3,9.6,9.6,9.6
			s9.6-4.3,9.6-9.6S93.2,65.4,88,65.4z M88,81.5c-2.7,0-5.1-1.7-6-4c0.7,0,1.5-0.2,2.5-0.4c0.3,0,0.7-0.1,1-0.2
			c0.8-0.1,1.7-0.3,2.6-0.3c2.4,0,4.6,0.8,6,0.9C93,79.9,90.7,81.5,88,81.5z"/>
		<circle class="st7" cx="84" cy="72.4" r="1.8"/>
		<g>
			<path class="st3" d="M80,84.7c0,1.4-7.3,1.6-16.2,1.6c-9,0-16.2-0.2-16.2-1.6c0-1.4,7.3-5,16.2-5C72.7,79.7,80,83.3,80,84.7z"/>
		</g>
		<g>
			<g>
				<g>
					<polyline class="st4" points="105.3,85.2 125.2,69.8 102.2,76.4 					"/>
				</g>
				<g>
					<path class="st1" d="M105.3,86.7c-0.4,0-0.9-0.2-1.2-0.6c-0.5-0.7-0.4-1.6,0.3-2.1l13.7-10.6l-15.4,4.4c-0.8,0.2-1.6-0.2-1.9-1
						c-0.2-0.8,0.2-1.6,1-1.9l23-6.6c0.7-0.2,1.4,0.1,1.8,0.8c0.3,0.6,0.1,1.4-0.4,1.9l-19.9,15.4C105.9,86.6,105.6,86.7,105.3,86.7
						z"/>
				</g>
			</g>
			<g>
				<g>
					<polyline class="st4" points="22.3,85.2 2.3,69.8 25.3,76.4 					"/>
				</g>
				<g>
					<path class="st1" d="M22.3,86.7c-0.3,0-0.6-0.1-0.9-0.3L1.4,71c-0.6-0.4-0.7-1.2-0.4-1.9c0.3-0.6,1.1-1,1.8-0.8l23,6.6
						c0.8,0.2,1.3,1.1,1,1.9c-0.2,0.8-1.1,1.3-1.9,1L9.4,73.4L23.2,84c0.7,0.5,0.8,1.4,0.3,2.1C23.1,86.5,22.7,86.7,22.3,86.7z"/>
				</g>
			</g>
		</g>
		<g>
			<g>
				<g>
					<polyline class="st5" points="105.8,85.3 126,100.9 102.7,94.2 					"/>
				</g>
				<g>
					<path class="st1" d="M126,102.4c-0.1,0-0.3,0-0.4-0.1l-23.3-6.7c-0.8-0.2-1.3-1.1-1-1.9c0.2-0.8,1.1-1.3,1.9-1l15.8,4.5
						l-14-10.8c-0.7-0.5-0.8-1.4-0.3-2.1c0.5-0.7,1.4-0.8,2.1-0.3l20.2,15.6c0.6,0.4,0.7,1.2,0.4,1.9
						C127.1,102,126.6,102.4,126,102.4z"/>
				</g>
			</g>
			<g>
				<g>
					<polyline class="st5" points="21.7,85.3 1.5,100.9 24.8,94.2 					"/>
				</g>
				<g>
					<path class="st1" d="M1.5,102.4c-0.6,0-1.1-0.3-1.3-0.8c-0.3-0.6-0.1-1.4,0.4-1.9l20.2-15.6c0.7-0.5,1.6-0.4,2.1,0.3
						c0.5,0.7,0.4,1.6-0.3,2.1l-14,10.8l15.8-4.5c0.8-0.2,1.6,0.2,1.9,1c0.2,0.8-0.2,1.6-1,1.9l-23.3,6.7
						C1.8,102.3,1.6,102.4,1.5,102.4z"/>
				</g>
			</g>
		</g>
		<g>
			<g>
				<g>
					<polyline class="st4" points="88.4,44.3 89,19.1 79.6,41.1 					"/>
				</g>
				<g>
					<path class="st1" d="M88.4,45.8C88.4,45.8,88.4,45.8,88.4,45.8c-0.9,0-1.5-0.7-1.5-1.5l0.4-17.3L81,41.7
						c-0.3,0.8-1.2,1.1-2,0.8c-0.8-0.3-1.1-1.2-0.8-2l9.4-22c0.3-0.7,1-1,1.7-0.9c0.7,0.2,1.2,0.8,1.2,1.5l-0.6,25.2
						C89.9,45.1,89.2,45.8,88.4,45.8z"/>
				</g>
			</g>
			<g>
				<g>
					<polyline class="st4" points="39.1,44.3 38.5,19.1 47.9,41.1 					"/>
				</g>
				<g>
					<path class="st1" d="M39.1,45.8c-0.8,0-1.5-0.6-1.5-1.5L37,19.1c0-0.7,0.5-1.4,1.2-1.5c0.7-0.2,1.4,0.2,1.7,0.9l9.4,22
						c0.3,0.8,0,1.6-0.8,2c-0.8,0.3-1.6,0-2-0.8l-6.3-14.8l0.4,17.3C40.6,45.1,40,45.8,39.1,45.8C39.2,45.8,39.1,45.8,39.1,45.8z"/>
				</g>
			</g>
		</g>
		<g>
			<g>
				<path class="st8" d="M79.3,49.1c0,7.3-5.9,13.1-13.1,13.1h-4.8c-7.3,0-13.1-5.9-13.1-13.1v-23c0-7.3,5.9-13.1,13.1-13.1h4.8
					c7.3,0,13.1,5.9,13.1,13.1C79.3,26.1,79.3,49.1,79.3,49.1z"/>
			</g>
			<g>
				<path class="st9" d="M66.1,20.5h-4.8c-7.3,0-13.1,5.9-13.1,13.1v15.4c0,7.3,5.9,13.1,13.1,13.1h4.8c7.3,0,13.1-5.9,13.1-13.1
					V33.7C79.3,26.4,73.4,20.5,66.1,20.5z"/>
			</g>
			<g>
				<path class="st10" d="M78.1,26.6c0,0.9-0.7,1.6-1.6,1.6H49.9c-0.9,0-1.6-0.7-1.6-1.6l0,0c0-0.9,0.7-1.6,1.6-1.6h26.5
					C77.4,24.9,78.1,25.7,78.1,26.6L78.1,26.6z"/>
			</g>
			<g>
				<path class="st10" d="M78.1,35.3c0,0.9-0.7,1.6-1.6,1.6H49.9c-0.9,0-1.6-0.7-1.6-1.6l0,0c0-0.9,0.7-1.6,1.6-1.6h26.5
					C77.4,33.6,78.1,34.4,78.1,35.3L78.1,35.3z"/>
			</g>
			<g>
				<path class="st10" d="M78.1,44.8c0,0.9-0.7,1.6-1.6,1.6H49.9c-0.9,0-1.6-0.7-1.6-1.6l0,0c0-0.9,0.7-1.6,1.6-1.6h26.5
					C77.4,43.2,78.1,43.9,78.1,44.8L78.1,44.8z"/>
			</g>
			<g>
				<path class="st10" d="M78.1,54.3c0,0.9-0.7,1.6-1.6,1.6H49.9c-0.9,0-1.6-0.7-1.6-1.6l0,0c0-0.9,0.7-1.6,1.6-1.6h26.5
					C77.4,52.7,78.1,53.4,78.1,54.3L78.1,54.3z"/>
			</g>
			<g>
				<path class="st1" d="M66.1,63.7h-4.8c-8.1,0-14.6-6.6-14.6-14.6v-23c0-8.1,6.6-14.6,14.6-14.6h4.8c8.1,0,14.6,6.6,14.6,14.6v23
					C80.8,57.2,74.2,63.7,66.1,63.7z M61.4,14.4c-6.4,0-11.6,5.2-11.6,11.6v23c0,6.4,5.2,11.6,11.6,11.6h4.8
					c6.4,0,11.6-5.2,11.6-11.6v-23c0-6.4-5.2-11.6-11.6-11.6L61.4,14.4L61.4,14.4z"/>
			</g>
		</g>
		<g>
			<g>
				<g>
					<g>
						<path class="st1" d="M54.9,25.6h-1c-0.8,0-1.5-0.7-1.5-1.5s0.7-1.5,1.5-1.5h1c0.8,0,1.5,0.7,1.5,1.5S55.8,25.6,54.9,25.6z"/>
					</g>
					<g>
						<path class="st1" d="M73.5,25.6h-1c-0.8,0-1.5-0.7-1.5-1.5s0.7-1.5,1.5-1.5h1c0.8,0,1.5,0.7,1.5,1.5S74.4,25.6,73.5,25.6z"/>
					</g>
				</g>
				<g>
					<path class="st1" d="M67.9,25.6h-8.3c-0.8,0-1.5-0.7-1.5-1.5s0.7-1.5,1.5-1.5h8.3c0.8,0,1.5,0.7,1.5,1.5S68.8,25.6,67.9,25.6z"
						/>
				</g>
			</g>
			<g>
				<g>
					<g>
						<path class="st1" d="M54.9,35.1h-1c-0.8,0-1.5-0.7-1.5-1.5s0.7-1.5,1.5-1.5h1c0.8,0,1.5,0.7,1.5,1.5S55.8,35.1,54.9,35.1z"/>
					</g>
					<g>
						<path class="st1" d="M73.5,35.1h-1c-0.8,0-1.5-0.7-1.5-1.5s0.7-1.5,1.5-1.5h1c0.8,0,1.5,0.7,1.5,1.5S74.4,35.1,73.5,35.1z"/>
					</g>
				</g>
				<g>
					<path class="st1" d="M67.9,35.1h-8.3c-0.8,0-1.5-0.7-1.5-1.5s0.7-1.5,1.5-1.5h8.3c0.8,0,1.5,0.7,1.5,1.5S68.8,35.1,67.9,35.1z"
						/>
				</g>
			</g>
			<g>
				<g>
					<g>
						<path class="st1" d="M54.9,44.7h-1c-0.8,0-1.5-0.7-1.5-1.5s0.7-1.5,1.5-1.5h1c0.8,0,1.5,0.7,1.5,1.5S55.8,44.7,54.9,44.7z"/>
					</g>
					<g>
						<path class="st1" d="M73.5,44.7h-1c-0.8,0-1.5-0.7-1.5-1.5s0.7-1.5,1.5-1.5h1c0.8,0,1.5,0.7,1.5,1.5S74.4,44.7,73.5,44.7z"/>
					</g>
				</g>
				<g>
					<path class="st1" d="M67.9,44.7h-8.3c-0.8,0-1.5-0.7-1.5-1.5s0.7-1.5,1.5-1.5h8.3c0.8,0,1.5,0.7,1.5,1.5S68.8,44.7,67.9,44.7z"
						/>
				</g>
			</g>
			<g>
				<g>
					<g>
						<path class="st1" d="M54.9,54.2h-1c-0.8,0-1.5-0.7-1.5-1.5s0.7-1.5,1.5-1.5h1c0.8,0,1.5,0.7,1.5,1.5S55.8,54.2,54.9,54.2z"/>
					</g>
					<g>
						<path class="st1" d="M73.5,54.2h-1c-0.8,0-1.5-0.7-1.5-1.5s0.7-1.5,1.5-1.5h1c0.8,0,1.5,0.7,1.5,1.5S74.4,54.2,73.5,54.2z"/>
					</g>
				</g>
				<g>
					<path class="st1" d="M67.9,54.2h-8.3c-0.8,0-1.5-0.7-1.5-1.5s0.7-1.5,1.5-1.5h8.3c0.8,0,1.5,0.7,1.5,1.5S68.8,54.2,67.9,54.2z"
						/>
				</g>
			</g>
		</g>
		<path class="st1" d="M84.6,86.4c-0.8,0-1.5,0.7-1.5,1.5s0.7,1.5,1.5,1.5c1.1,0,2,0.9,2,2s-0.9,2-2,2H42.9c-1.1,0-2-0.9-2-2
			s0.9-2,2-2c0.8,0,1.5-0.7,1.5-1.5s-0.7-1.5-1.5-1.5c-2.8,0-5,2.2-5,5s2.2,5,5,5H44v1.7c0,0.8,0.7,1.5,1.5,1.5s1.5-0.7,1.5-1.5
			v-1.7h33.5v1.7c0,0.8,0.7,1.5,1.5,1.5s1.5-0.7,1.5-1.5v-1.7h1.1c2.8,0,5-2.2,5-5S87.4,86.4,84.6,86.4z"/>
	</g>
</g>
<g id="label">
	<g>
		<g>
			<path class="st1" d="M12,143.9h12.7c0.8,0,1.5-0.7,1.5-1.5V124c0-0.8-0.7-1.5-1.5-1.5s-1.5,0.7-1.5,1.5v16.9h-9.7v-17.1
				c0-0.8-0.7-1.5-1.5-1.5s-1.5,0.7-1.5,1.5v18.7C10.5,143.2,11.1,143.9,12,143.9z"/>
			<path class="st1" d="M19.9,142.1v-17.8c0-1-0.6-1.9-1.5-1.9s-1.5,0.8-1.5,1.9v17.8c0,1,0.7,1.8,1.5,1.8l0,0
				C19.2,143.9,19.9,143.1,19.9,142.1z"/>
		</g>
		<path class="st1" d="M46.9,133.2V124c0-0.8-0.7-1.5-1.5-1.5H32.7c-0.8,0-1.5,0.7-1.5,1.5v18.5c0,0.8,0.7,1.5,1.5,1.5
			c0.8,0,1.5-0.7,1.5-1.5v-7.7h4l5.9,8.6c0.3,0.4,0.8,0.6,1.2,0.6c0.3,0,0.6-0.1,0.8-0.3c0.7-0.5,0.9-1.4,0.4-2.1l-4.6-6.8h3.5
			C46.2,134.8,46.9,134.1,46.9,133.2z M34.2,125.5h9.7v6.3h-9.7V125.5z"/>
		<path class="st1" d="M66.1,122.5H53.4c-0.8,0-1.5,0.7-1.5,1.5v18.5c0,0.8,0.7,1.5,1.5,1.5s11.9,0,12.7,0c0.8,0,1.5-0.7,1.5-1.5
			V124C67.6,123.1,66.9,122.5,66.1,122.5z M54.9,140.9v-15.4h9.7v15.5L54.9,140.9L54.9,140.9z"/>
		<path class="st1" d="M86.8,122.2H74.1c-0.8,0-1.5,0.7-1.5,1.5v18.5c0,0.8,0.7,1.5,1.5,1.5c0.8,0,1.5-0.7,1.5-1.5v-16.9h9.7v17.1
			c0,0.8,0.7,1.5,1.5,1.5c0.8,0,1.5-0.7,1.5-1.5v-18.7C88.3,122.8,87.7,122.2,86.8,122.2z"/>
		<g>
			<path class="st1" d="M93.3,133.2v9.2c0,0.8,0.7,1.5,1.5,1.5h12.7c0.9,0,1.5-0.7,1.5-1.5v-1.5H96.3v-7.8v-7.7h11.2
				c0.8,0,1.5-0.7,1.5-1.5l0,0c0-0.8-0.6-1.5-1.5-1.5H94.8c-0.8,0-1.5,0.7-1.5,1.5V133.2z"/>
			<g>
				<path class="st1" d="M109,141v-7.5c0.1-0.6-3-1.5-3-0.8v8.3H109z"/>
			</g>
			<g>
				<path class="st1" d="M109,133.2c0-0.8-0.7-1.5-1.7-1.5h-5.7c-0.6,0-1.2,0.7-1.2,1.5s0.6,1.5,1.2,1.5h5.7
					C108.3,134.8,109,134.1,109,133.2L109,133.2z"/>
			</g>
		</g>
		<g>
			<path class="st1" d="M117,135.7v-11.4c0-1-0.6-1.9-1.5-1.9s-1.5,0.8-1.5,1.9v11.4c0,1,0.7,1.8,1.5,1.8l0,0
				C116.3,137.5,117,136.7,117,135.7z"/>
			<path class="st1" d="M117,142.2v-0.3c0-1-0.6-1.9-1.5-1.9s-1.5,0.8-1.5,1.9v0.3c0,1,0.7,1.8,1.5,1.8l0,0
				C116.3,144,117,143.2,117,142.2z"/>
		</g>
	</g>
</g>
</svg>
