<?xml version="1.0" encoding="utf-8"?>
<!-- Generator: Adobe Illustrator 21.1.0, SVG Export Plug-In . SVG Version: 6.00 Build 0)  -->
<svg version="1.1" id="Calque_1" xmlns="http://www.w3.org/2000/svg" xmlns:xlink="http://www.w3.org/1999/xlink" x="0px" y="0px"
	 viewBox="0 0 127.5 134.1" style="enable-background:new 0 0 127.5 134.1;" xml:space="preserve">
<style type="text/css">
	.st0{fill:#4F4B48;}
	.st1{fill:#33363A;}
	.st2{fill:#EFA3CC;}
	.st3{fill:#FBFCF2;}
	.st4{fill:#EAE4C5;}
	.st5{fill:#DDD2B1;}
	.st6{fill:#A35616;}
	.st7{fill:#FFFFFF;}
	.st8{fill:#FFD039;}
	.st9{fill:#FFB000;}
	.st10{fill:#EA7B1F;}
</style>
<g id="Layer_1">
	<g>
		<g>
			<g>
				<g>
					<g>
						<path class="st0" d="M113.9,15.3c6.3,8.7,7.6,20.5,2.4,30.7c-5.3,10.2-15.7,16-26.4,15.8c-6.3-8.7-7.6-20.5-2.4-30.7
							C92.8,21,103.2,15.2,113.9,15.3z"/>
					</g>
					<g>
						<path class="st1" d="M89.9,61.8c-6.3-8.7-7.6-20.5-2.4-30.7c5.3-10.2,15.7-16,26.4-15.8"/>
					</g>
					<g>
						<path class="st1" d="M90.3,63.3c-0.1,0-0.2,0-0.4,0c-0.5,0-0.9-0.2-1.2-0.6c-6.9-9.5-7.9-21.9-2.5-32.2
							c5.3-10.3,15.8-16.6,27.4-16.6c0.1,0,0.2,0,0.4,0c0.5,0,0.9,0.2,1.2,0.6c6.9,9.5,7.9,21.9,2.5,32.2S101.9,63.3,90.3,63.3z
							 M113.2,16.8c-10.3,0.2-19.5,5.9-24.3,15c-4.7,9.2-4,20,1.8,28.5c10.3-0.2,19.6-5.9,24.3-15C119.7,36.2,119,25.3,113.2,16.8z"
							/>
					</g>
				</g>
				<g>
					<g>
						<path class="st2" d="M109.3,26.2c3.9,5.3,4.7,12.6,1.5,18.9c-3.2,6.3-9.6,9.8-16.2,9.7c-3.9-5.3-4.7-12.6-1.5-18.9
							C96.3,29.7,102.7,26.1,109.3,26.2z"/>
					</g>
					<g>
						<path class="st1" d="M94.7,56.3c-0.1,0-0.2,0-0.2,0c-0.5,0-0.9-0.2-1.2-0.6c-4.4-6-5-13.9-1.6-20.5c3.4-6.5,10-10.6,17.4-10.6
							c0.1,0,0.2,0,0.2,0c0.5,0,0.9,0.2,1.2,0.6c4.4,6,5,13.9,1.6,20.5S102.1,56.3,94.7,56.3z M108.5,27.7c-6,0.2-11.4,3.6-14.1,8.9
							C91.6,42,92,48.3,95.3,53.3c6-0.2,11.4-3.6,14.1-8.9C112.2,39,111.8,32.7,108.5,27.7z"/>
					</g>
				</g>
			</g>
			<g>
				<g>
					<g>
						<path class="st0" d="M13.6,15.3C7.3,24,6,35.8,11.2,46c5.3,10.2,15.7,16,26.4,15.8c6.3-8.7,7.6-20.5,2.4-30.7
							S24.3,15.2,13.6,15.3z"/>
					</g>
					<g>
						<path class="st1" d="M37.6,61.8c6.3-8.7,7.6-20.5,2.4-30.7s-15.7-16-26.4-15.8"/>
					</g>
					<g>
						<path class="st1" d="M37.3,63.3c-11.6,0-22.1-6.4-27.4-16.6c-5.4-10.4-4.4-22.8,2.5-32.2c0.3-0.4,0.7-0.6,1.2-0.6
							c0.1,0,0.2,0,0.4,0c11.6,0,22.1,6.4,27.4,16.6c5.4,10.4,4.4,22.8-2.5,32.2c-0.3,0.4-0.7,0.6-1.2,0.6
							C37.5,63.3,37.4,63.3,37.3,63.3z M14.4,16.8c-5.8,8.5-6.5,19.3-1.8,28.5s14,14.9,24.3,15c5.8-8.5,6.5-19.3,1.8-28.5
							C33.9,22.7,24.7,17,14.4,16.8z"/>
					</g>
				</g>
				<g>
					<g>
						<path class="st2" d="M18.2,26.2c-3.9,5.3-4.7,12.6-1.5,18.9c3.2,6.3,9.6,9.8,16.2,9.7c3.9-5.3,4.7-12.6,1.5-18.9
							C31.2,29.7,24.8,26.1,18.2,26.2z"/>
					</g>
					<g>
						<path class="st1" d="M32.8,56.3c-7.4,0-14-4-17.4-10.6C12,39.2,12.6,31.3,17,25.3c0.3-0.4,0.7-0.6,1.2-0.6c0.1,0,0.2,0,0.2,0
							c7.4,0,14,4,17.4,10.6s2.8,14.4-1.6,20.5c-0.3,0.4-0.7,0.6-1.2,0.6C32.9,56.3,32.8,56.3,32.8,56.3z M19,27.7
							c-3.3,5-3.7,11.3-0.9,16.7s8.1,8.7,14.1,8.9c3.3-5,3.7-11.3,0.9-16.7C30.4,31.3,25,27.9,19,27.7z"/>
					</g>
				</g>
			</g>
		</g>
		<g>
			<g>
				<path class="st3" d="M113,65.7c0,20.7-22,37.4-49.2,37.4S14.6,86.3,14.6,65.7c0-20.7,22-45.5,49.2-45.5
					C90.9,20.2,113,45,113,65.7z"/>
			</g>
			<g>
				<path class="st4" d="M113,65.7c0,20.7-22,37.4-49.2,37.4S14.6,86.3,14.6,65.7c0-20.7,22-34.9,49.2-34.9
					C90.9,30.7,113,45,113,65.7z"/>
			</g>
			<g>
				<path class="st5" d="M113,65.7c0,20.7-22,37.4-49.2,37.4S14.6,86.3,14.6,65.7C14.6,45,20.9,84,63.8,84S113,45,113,65.7z"/>
			</g>
			<g>
				<path class="st1" d="M63.8,104.6c-28,0-50.7-17.5-50.7-38.9c0-21.3,22.6-47,50.7-47s50.7,25.7,50.7,47
					C114.5,87.1,91.7,104.6,63.8,104.6z M63.8,21.7c-26.4,0-47.7,24-47.7,44c0,19.8,21.4,35.9,47.7,35.9s47.7-16.1,47.7-35.9
					C111.5,45.7,90.2,21.7,63.8,21.7z"/>
			</g>
		</g>
		<g>
			<path class="st6" d="M47.6,63.5c0,4.4-3.6,8.1-8.1,8.1c-4.4,0-8.1-3.6-8.1-8.1c0-4.4,3.6-8.1,8.1-8.1S47.6,59,47.6,63.5z"/>
		</g>
		<g>
			<circle class="st7" cx="35.5" cy="60.9" r="3.3"/>
		</g>
		<path class="st1" d="M39.5,53.9c-3.2,0-6.1,1.6-7.8,4.1c-0.1,0.1-0.2,0.3-0.3,0.4c-0.9,1.5-1.4,3.2-1.4,5c0,5.3,4.3,9.6,9.6,9.6
			s9.6-4.3,9.6-9.6S44.8,53.9,39.5,53.9z M39.5,70c-2.7,0-5.1-1.7-6-4c0.7,0,1.5-0.2,2.5-0.4c0.3,0,0.7-0.1,1-0.2
			c0.8-0.1,1.7-0.3,2.6-0.3c2.4,0,4.6,0.8,6,0.9C44.6,68.4,42.3,70,39.5,70z"/>
		<circle class="st7" cx="35.5" cy="60.9" r="1.8"/>
		<g>
			<path class="st6" d="M96,63.5c0,4.4-3.6,8.1-8.1,8.1s-8.1-3.6-8.1-8.1c0-4.4,3.6-8.1,8.1-8.1S96,59,96,63.5z"/>
		</g>
		<g>
			<circle class="st7" cx="84" cy="60.9" r="3.3"/>
		</g>
		<path class="st1" d="M88,53.9c-3.2,0-6.1,1.6-7.8,4.1c-0.1,0.2-0.2,0.3-0.3,0.5c-0.9,1.5-1.4,3.2-1.4,5c0,5.3,4.3,9.6,9.6,9.6
			s9.6-4.3,9.6-9.6S93.2,53.9,88,53.9z M88,70c-2.7,0-5.1-1.7-6-4c0.7,0,1.5-0.2,2.5-0.4c0.3,0,0.7-0.1,1-0.2
			c0.8-0.1,1.7-0.3,2.6-0.3c2.4,0,4.6,0.8,6,0.9C93,68.4,90.7,70,88,70z"/>
		<circle class="st7" cx="84" cy="60.9" r="1.8"/>
		<g>
			<path class="st3" d="M80,73.2c0,1.4-7.3,1.6-16.2,1.6c-9,0-16.2-0.2-16.2-1.6s7.3-5,16.2-5S80,71.8,80,73.2z"/>
		</g>
		<g>
			<g>
				<g>
					<polyline class="st4" points="105.3,73.7 125.2,58.3 102.2,64.9 					"/>
				</g>
				<g>
					<path class="st1" d="M105.3,75.2c-0.4,0-0.9-0.2-1.2-0.6c-0.5-0.7-0.4-1.6,0.3-2.1l13.7-10.6l-15.4,4.4c-0.8,0.2-1.6-0.2-1.9-1
						c-0.2-0.8,0.2-1.6,1-1.9l23-6.6c0.7-0.2,1.4,0.1,1.8,0.8c0.3,0.6,0.1,1.4-0.4,1.9l-19.9,15.4C105.9,75.1,105.6,75.2,105.3,75.2
						z"/>
				</g>
			</g>
			<g>
				<g>
					<polyline class="st4" points="22.3,73.7 2.3,58.3 25.3,64.9 					"/>
				</g>
				<g>
					<path class="st1" d="M22.3,75.2c-0.3,0-0.6-0.1-0.9-0.3l-20-15.4c-0.6-0.4-0.7-1.2-0.4-1.9c0.3-0.6,1.1-1,1.8-0.8l23,6.6
						c0.8,0.2,1.3,1.1,1,1.9c-0.2,0.8-1.1,1.3-1.9,1L9.4,61.9l13.8,10.6c0.7,0.5,0.8,1.4,0.3,2.1C23.1,75,22.7,75.2,22.3,75.2z"/>
				</g>
			</g>
		</g>
		<g>
			<g>
				<g>
					<polyline class="st5" points="105.8,73.8 126,89.4 102.7,82.7 					"/>
				</g>
				<g>
					<path class="st1" d="M126,90.9c-0.1,0-0.3,0-0.4-0.1l-23.3-6.7c-0.8-0.2-1.3-1.1-1-1.9c0.2-0.8,1.1-1.3,1.9-1l15.8,4.5
						l-14-10.8c-0.7-0.5-0.8-1.4-0.3-2.1s1.4-0.8,2.1-0.3L127,88.1c0.6,0.4,0.7,1.2,0.4,1.9C127.1,90.5,126.6,90.9,126,90.9z"/>
				</g>
			</g>
			<g>
				<g>
					<polyline class="st5" points="21.7,73.8 1.5,89.4 24.8,82.7 					"/>
				</g>
				<g>
					<path class="st1" d="M1.5,90.9c-0.6,0-1.1-0.3-1.3-0.8c-0.3-0.6-0.1-1.4,0.4-1.9l20.2-15.6c0.7-0.5,1.6-0.4,2.1,0.3
						c0.5,0.7,0.4,1.6-0.3,2.1l-14,10.8l15.8-4.5c0.8-0.2,1.6,0.2,1.9,1c0.2,0.8-0.2,1.6-1,1.9L2,90.9C1.8,90.8,1.6,90.9,1.5,90.9z"
						/>
				</g>
			</g>
		</g>
		<g>
			<g>
				<g>
					<polyline class="st4" points="88.4,32.8 89,7.6 79.6,29.6 					"/>
				</g>
				<g>
					<path class="st1" d="M88.4,34.3L88.4,34.3c-0.9,0-1.5-0.7-1.5-1.5l0.4-17.3L81,30.2c-0.3,0.8-1.2,1.1-2,0.8s-1.1-1.2-0.8-2
						l9.4-22c0.3-0.7,1-1,1.7-0.9c0.7,0.2,1.2,0.8,1.2,1.5l-0.6,25.2C89.9,33.6,89.2,34.3,88.4,34.3z"/>
				</g>
			</g>
			<g>
				<g>
					<polyline class="st4" points="39.1,32.8 38.5,7.6 47.9,29.6 					"/>
				</g>
				<g>
					<path class="st1" d="M39.1,34.3c-0.8,0-1.5-0.6-1.5-1.5L37,7.6c0-0.7,0.5-1.4,1.2-1.5c0.7-0.2,1.4,0.2,1.7,0.9l9.4,22
						c0.3,0.8,0,1.6-0.8,2c-0.8,0.3-1.6,0-2-0.8l-6.3-14.8l0.4,17.3C40.6,33.6,40,34.3,39.1,34.3C39.2,34.3,39.1,34.3,39.1,34.3z"/>
				</g>
			</g>
		</g>
		<g>
			<g>
				<path class="st8" d="M79.3,37.6c0,7.3-5.9,13.1-13.1,13.1h-4.8c-7.3,0-13.1-5.9-13.1-13.1v-23c0-7.3,5.9-13.1,13.1-13.1h4.8
					c7.3,0,13.1,5.9,13.1,13.1C79.3,14.6,79.3,37.6,79.3,37.6z"/>
			</g>
			<g>
				<path class="st9" d="M66.1,9h-4.8C54,9,48.2,14.9,48.2,22.1v15.4c0,7.3,5.9,13.1,13.1,13.1h4.8c7.3,0,13.1-5.9,13.1-13.1V22.2
					C79.3,14.9,73.4,9,66.1,9z"/>
			</g>
			<g>
				<path class="st10" d="M78.1,15.1c0,0.9-0.7,1.6-1.6,1.6H49.9c-0.9,0-1.6-0.7-1.6-1.6l0,0c0-0.9,0.7-1.6,1.6-1.6h26.5
					C77.4,13.4,78.1,14.2,78.1,15.1L78.1,15.1z"/>
			</g>
			<g>
				<path class="st10" d="M78.1,23.8c0,0.9-0.7,1.6-1.6,1.6H49.9c-0.9,0-1.6-0.7-1.6-1.6l0,0c0-0.9,0.7-1.6,1.6-1.6h26.5
					C77.4,22.1,78.1,22.9,78.1,23.8L78.1,23.8z"/>
			</g>
			<g>
				<path class="st10" d="M78.1,33.3c0,0.9-0.7,1.6-1.6,1.6H49.9c-0.9,0-1.6-0.7-1.6-1.6l0,0c0-0.9,0.7-1.6,1.6-1.6h26.5
					C77.4,31.7,78.1,32.4,78.1,33.3L78.1,33.3z"/>
			</g>
			<g>
				<path class="st10" d="M78.1,42.8c0,0.9-0.7,1.6-1.6,1.6H49.9c-0.9,0-1.6-0.7-1.6-1.6l0,0c0-0.9,0.7-1.6,1.6-1.6h26.5
					C77.4,41.2,78.1,41.9,78.1,42.8L78.1,42.8z"/>
			</g>
			<g>
				<path class="st1" d="M66.1,52.2h-4.8c-8.1,0-14.6-6.6-14.6-14.6v-23C46.7,6.5,53.3,0,61.3,0h4.8c8.1,0,14.6,6.6,14.6,14.6v23
					C80.8,45.7,74.2,52.2,66.1,52.2z M61.4,2.9c-6.4,0-11.6,5.2-11.6,11.6v23c0,6.4,5.2,11.6,11.6,11.6h4.8
					c6.4,0,11.6-5.2,11.6-11.6v-23c0-6.4-5.2-11.6-11.6-11.6H61.4L61.4,2.9z"/>
			</g>
		</g>
		<g>
			<g>
				<g>
					<g>
						<path class="st1" d="M54.9,14.1h-1c-0.8,0-1.5-0.7-1.5-1.5s0.7-1.5,1.5-1.5h1c0.8,0,1.5,0.7,1.5,1.5S55.8,14.1,54.9,14.1z"/>
					</g>
					<g>
						<path class="st1" d="M73.5,14.1h-1c-0.8,0-1.5-0.7-1.5-1.5s0.7-1.5,1.5-1.5h1c0.8,0,1.5,0.7,1.5,1.5S74.4,14.1,73.5,14.1z"/>
					</g>
				</g>
				<g>
					<path class="st1" d="M67.9,14.1h-8.3c-0.8,0-1.5-0.7-1.5-1.5s0.7-1.5,1.5-1.5h8.3c0.8,0,1.5,0.7,1.5,1.5S68.8,14.1,67.9,14.1z"
						/>
				</g>
			</g>
			<g>
				<g>
					<g>
						<path class="st1" d="M54.9,23.6h-1c-0.8,0-1.5-0.7-1.5-1.5s0.7-1.5,1.5-1.5h1c0.8,0,1.5,0.7,1.5,1.5S55.8,23.6,54.9,23.6z"/>
					</g>
					<g>
						<path class="st1" d="M73.5,23.6h-1c-0.8,0-1.5-0.7-1.5-1.5s0.7-1.5,1.5-1.5h1c0.8,0,1.5,0.7,1.5,1.5S74.4,23.6,73.5,23.6z"/>
					</g>
				</g>
				<g>
					<path class="st1" d="M67.9,23.6h-8.3c-0.8,0-1.5-0.7-1.5-1.5s0.7-1.5,1.5-1.5h8.3c0.8,0,1.5,0.7,1.5,1.5S68.8,23.6,67.9,23.6z"
						/>
				</g>
			</g>
			<g>
				<g>
					<g>
						<path class="st1" d="M54.9,33.2h-1c-0.8,0-1.5-0.7-1.5-1.5c0-0.8,0.7-1.5,1.5-1.5h1c0.8,0,1.5,0.7,1.5,1.5
							C56.4,32.5,55.8,33.2,54.9,33.2z"/>
					</g>
					<g>
						<path class="st1" d="M73.5,33.2h-1c-0.8,0-1.5-0.7-1.5-1.5c0-0.8,0.7-1.5,1.5-1.5h1c0.8,0,1.5,0.7,1.5,1.5
							C75,32.5,74.4,33.2,73.5,33.2z"/>
					</g>
				</g>
				<g>
					<path class="st1" d="M67.9,33.2h-8.3c-0.8,0-1.5-0.7-1.5-1.5c0-0.8,0.7-1.5,1.5-1.5h8.3c0.8,0,1.5,0.7,1.5,1.5
						C69.4,32.5,68.8,33.2,67.9,33.2z"/>
				</g>
			</g>
			<g>
				<g>
					<g>
						<path class="st1" d="M54.9,42.7h-1c-0.8,0-1.5-0.7-1.5-1.5c0-0.8,0.7-1.5,1.5-1.5h1c0.8,0,1.5,0.7,1.5,1.5
							C56.4,42,55.8,42.7,54.9,42.7z"/>
					</g>
					<g>
						<path class="st1" d="M73.5,42.7h-1c-0.8,0-1.5-0.7-1.5-1.5c0-0.8,0.7-1.5,1.5-1.5h1c0.8,0,1.5,0.7,1.5,1.5
							C75,42,74.4,42.7,73.5,42.7z"/>
					</g>
				</g>
				<g>
					<path class="st1" d="M67.9,42.7h-8.3c-0.8,0-1.5-0.7-1.5-1.5c0-0.8,0.7-1.5,1.5-1.5h8.3c0.8,0,1.5,0.7,1.5,1.5
						C69.4,42,68.8,42.7,67.9,42.7z"/>
				</g>
			</g>
		</g>
		<path class="st1" d="M84.6,74.9c-0.8,0-1.5,0.7-1.5,1.5s0.7,1.5,1.5,1.5c1.1,0,2,0.9,2,2s-0.9,2-2,2H42.9c-1.1,0-2-0.9-2-2
			s0.9-2,2-2c0.8,0,1.5-0.7,1.5-1.5s-0.7-1.5-1.5-1.5c-2.8,0-5,2.2-5,5s2.2,5,5,5H44v1.7c0,0.8,0.7,1.5,1.5,1.5s1.5-0.7,1.5-1.5
			v-1.7h33.5v1.7c0,0.8,0.7,1.5,1.5,1.5s1.5-0.7,1.5-1.5v-1.7h1.1c2.8,0,5-2.2,5-5S87.4,74.9,84.6,74.9z"/>
	</g>
</g>
<g id="label">
	<g>
		<g>
			<path class="st1" d="M12,134h12.7c0.8,0,1.5-0.7,1.5-1.5v-18.4c0-0.8-0.7-1.5-1.5-1.5s-1.5,0.7-1.5,1.5V131h-9.7v-17.1
				c0-0.8-0.7-1.5-1.5-1.5c-0.8,0-1.5,0.7-1.5,1.5v18.7C10.5,133.3,11.1,134,12,134z"/>
			<path class="st1" d="M19.9,132.2v-17.8c0-1-0.6-1.9-1.5-1.9s-1.5,0.8-1.5,1.9v17.8c0,1,0.7,1.8,1.5,1.8l0,0
				C19.2,134,19.9,133.2,19.9,132.2z"/>
		</g>
		<path class="st1" d="M46.9,123.3v-9.2c0-0.8-0.7-1.5-1.5-1.5H32.7c-0.8,0-1.5,0.7-1.5,1.5v18.5c0,0.8,0.7,1.5,1.5,1.5
			s1.5-0.7,1.5-1.5v-7.7h4l5.9,8.6c0.3,0.4,0.8,0.6,1.2,0.6c0.3,0,0.6-0.1,0.8-0.3c0.7-0.5,0.9-1.4,0.4-2.1l-4.6-6.8h3.5
			C46.2,124.9,46.9,124.2,46.9,123.3z M34.2,115.6h9.7v6.3h-9.7V115.6z"/>
		<path class="st1" d="M66.1,112.6H53.4c-0.8,0-1.5,0.7-1.5,1.5v18.5c0,0.8,0.7,1.5,1.5,1.5s11.9,0,12.7,0c0.8,0,1.5-0.7,1.5-1.5
			v-18.5C67.6,113.2,66.9,112.6,66.1,112.6z M54.9,131v-15.4h9.7v15.5L54.9,131L54.9,131z"/>
		<path class="st1" d="M86.8,112.3H74.1c-0.8,0-1.5,0.7-1.5,1.5v18.5c0,0.8,0.7,1.5,1.5,1.5s1.5-0.7,1.5-1.5v-16.9h9.7v17.1
			c0,0.8,0.7,1.5,1.5,1.5s1.5-0.7,1.5-1.5v-18.7C88.3,112.9,87.7,112.3,86.8,112.3z"/>
		<g>
			<path class="st1" d="M93.3,123.3v9.2c0,0.8,0.7,1.5,1.5,1.5h12.7c0.9,0,1.5-0.7,1.5-1.5V131H96.3v-7.8v-7.7h11.2
				c0.8,0,1.5-0.7,1.5-1.5l0,0c0-0.8-0.6-1.5-1.5-1.5H94.8c-0.8,0-1.5,0.7-1.5,1.5V123.3z"/>
			<g>
				<path class="st1" d="M109,131.1v-7.5c0.1-0.6-3-1.5-3-0.8v8.3H109z"/>
			</g>
			<g>
				<path class="st1" d="M109,123.3c0-0.8-0.7-1.5-1.7-1.5h-5.7c-0.6,0-1.2,0.7-1.2,1.5s0.6,1.5,1.2,1.5h5.7
					C108.3,124.9,109,124.2,109,123.3L109,123.3z"/>
			</g>
		</g>
		<g>
			<path class="st1" d="M117,125.8v-11.4c0-1-0.6-1.9-1.5-1.9s-1.5,0.8-1.5,1.9v11.4c0,1,0.7,1.8,1.5,1.8l0,0
				C116.3,127.6,117,126.8,117,125.8z"/>
			<path class="st1" d="M117,132.3V132c0-1-0.6-1.9-1.5-1.9s-1.5,0.8-1.5,1.9v0.3c0,1,0.7,1.8,1.5,1.8l0,0
				C116.3,134.1,117,133.3,117,132.3z"/>
		</g>
	</g>
</g>
</svg>
