<?xml version="1.0" encoding="utf-8"?>
<!-- Generator: Adobe Illustrator 21.1.0, SVG Export Plug-In . SVG Version: 6.00 Build 0)  -->
<svg version="1.1" id="Calque_2_1_" xmlns="http://www.w3.org/2000/svg" xmlns:xlink="http://www.w3.org/1999/xlink" x="0px"
	 y="0px" viewBox="0 0 129 129" style="enable-background:new 0 0 129 129;" xml:space="preserve">
<style type="text/css">
	.st0{fill:#33363A;}
</style>
<g>
	<g id="sounds">
		<g>
			<g>
				<path class="st0" d="M18.2,84.9v-7.7h11.2c0.8,0,1.5-0.7,1.5-1.5l0,0c0-0.8-0.6-1.5-1.5-1.5H16.7c-0.8,0-1.5,0.7-1.5,1.5v9.2
					H18.2z"/>
				<path class="st0" d="M30.9,84.9v9.3c0,0.8-0.7,1.5-1.5,1.5H16.7c-0.9,0-1.5-0.7-1.5-1.5l0,0c0-0.8,0.7-1.5,1.5-1.5h11.2v-9.3
					h1.5C30.2,83.4,30.9,84.1,30.9,84.9z"/>
				<g>
					<path class="st0" d="M15.2,84.9c0,0.8,0.7,1.5,1.5,1.5h11.2c3.4-0.1,3.5-3.1,0-3H15.2V84.9z"/>
				</g>
			</g>
			<path class="st0" d="M45.3,77.3c0,5.6,0,11.2,0,16.8c0,0.9-0.7,1.7-1.6,1.6c-0.8,0-1.5-0.8-1.5-1.6c0-5.6,0-11.2,0-16.8
				c-1.6,0-3.1,0-4.7,0c-0.9,0.1-1.6-0.7-1.6-1.5s0.7-1.5,1.6-1.5c4.2,0,8.4,0,12.6,0c0.8,0,1.5,0.7,1.5,1.5s-0.7,1.5-1.6,1.5
				C48.5,77.3,46.9,77.3,45.3,77.3z"/>
			<path class="st0" d="M107.5,77.3c0,5.6,0,11.2,0,16.8c0,0.9-0.7,1.7-1.6,1.6c-0.8,0-1.5-0.8-1.5-1.6c0-5.6,0-11.2,0-16.8
				c-1.6,0-3.1,0-4.7,0c-0.9,0.1-1.6-0.7-1.6-1.5s0.7-1.5,1.6-1.5c4.2,0,8.4,0,12.6,0c0.8,0,1.5,0.7,1.5,1.5s-0.7,1.5-1.6,1.5
				C110.7,77.3,109.1,77.3,107.5,77.3z"/>
			<path class="st0" d="M70.8,74.2H58.1c-0.8,0-1.5,0.7-1.5,1.5v18.5c0,0.8,0.7,1.5,1.5,1.5s1.5-0.7,1.5-1.5v-7.7h9.7v7.8
				c0,0.8,0.7,1.5,1.5,1.5s1.5-0.7,1.5-1.5V75.7C72.3,74.9,71.7,74.2,70.8,74.2z M59.6,83.5v-6.3h9.7v6.3H59.6z"/>
			<path class="st0" d="M93.1,85v-9.3c0-0.8-0.7-1.5-1.5-1.5H78.8c-0.8,0-1.5,0.7-1.5,1.5v18.5c0,0.8,0.7,1.5,1.5,1.5
				s1.5-0.7,1.5-1.5v-7.7h4l5.9,8.6c0.3,0.4,0.8,0.6,1.2,0.6c0.3,0,0.6-0.1,0.8-0.3c0.7-0.5,0.9-1.4,0.4-2.1L88,86.5h3.5
				C92.3,86.5,93.1,85.8,93.1,85z M80.3,77.2H90v6.3h-9.7V77.2z"/>
		</g>
	</g>
	<g>
		<path class="st0" d="M29.4,45.6c0.8,0,1.5-0.7,1.5-1.5v-9.3c0-0.8-0.7-1.5-1.5-1.5H16.7c-0.8,0-1.5,0.7-1.5,1.5v18.5
			c0,0.8,0.7,1.5,1.5,1.5s1.5-0.7,1.5-1.5v-7.7H29.4z M18.2,36.4h9.7v6.3h-9.7V36.4z"/>
		<path class="st0" d="M51.7,44.1v-9.3c0-0.8-0.7-1.5-1.5-1.5H37.4c-0.8,0-1.5,0.7-1.5,1.5v18.5c0,0.8,0.7,1.5,1.5,1.5
			s1.5-0.7,1.5-1.5v-7.7h4l5.9,8.6c0.3,0.4,0.8,0.6,1.2,0.6c0.3,0,0.6-0.1,0.8-0.3c0.7-0.5,0.9-1.4,0.4-2.1l-4.6-6.8h3.5
			C50.9,45.6,51.7,44.9,51.7,44.1z M38.9,36.3h9.7v6.3h-9.7V36.3z"/>
		<g>
			<path class="st0" d="M56.7,44.1v9.2c0,0.8,0.7,1.5,1.5,1.5h12.7c0.9,0,1.5-0.7,1.5-1.5l0,0c0-0.8-0.7-1.5-1.5-1.5H59.7
				c0,0,0-7.7,0-7.8v-7.8h11.2c0.8,0,1.5-0.7,1.5-1.5l0,0c0-0.8-0.6-1.5-1.5-1.5H58.2c-0.8,0-1.5,0.7-1.5,1.5V44.1z"/>
			<g>
				<path class="st0" d="M59.7,45.6h9.2c0.8,0,1.5-0.7,1.5-1.5s-0.7-1.5-1.5-1.5h-9.3L59.7,45.6z"/>
			</g>
		</g>
		<g>
			<path class="st0" d="M80.4,44v-7.7h11.2c0.8,0,1.5-0.7,1.5-1.5l0,0c0-0.8-0.6-1.5-1.5-1.5H78.9c-0.8,0-1.5,0.7-1.5,1.5V44H80.4z"
				/>
			<path class="st0" d="M93.1,44v9.3c0,0.8-0.7,1.5-1.5,1.5H78.9c-0.9,0-1.5-0.7-1.5-1.5l0,0c0-0.8,0.7-1.5,1.5-1.5h11.2v-9.3h1.5
				C92.4,42.5,93.1,43.2,93.1,44z"/>
			<g>
				<path class="st0" d="M77.4,44c0,0.8,0.7,1.5,1.5,1.5h11.2c3.4-0.1,3.5-3.1,0-3H77.4V44z"/>
			</g>
		</g>
		<g>
			<path class="st0" d="M101.1,44v-7.7h11.2c0.8,0,1.5-0.7,1.5-1.5l0,0c0-0.8-0.6-1.5-1.5-1.5H99.6c-0.8,0-1.5,0.7-1.5,1.5V44H101.1
				z"/>
			<path class="st0" d="M113.8,44v9.3c0,0.8-0.7,1.5-1.5,1.5H99.6c-0.9,0-1.5-0.7-1.5-1.5l0,0c0-0.8,0.7-1.5,1.5-1.5h11.2v-9.3h1.5
				C113.1,42.5,113.8,43.2,113.8,44z"/>
			<g>
				<path class="st0" d="M98.1,44c0,0.8,0.7,1.5,1.5,1.5h11.2c3.4-0.1,3.5-3.1,0-3H98.1V44z"/>
			</g>
		</g>
	</g>
</g>
</svg>
