<?xml version="1.0" encoding="utf-8"?>
<!-- Generator: Adobe Illustrator 21.1.0, SVG Export Plug-In . SVG Version: 6.00 Build 0)  -->
<svg version="1.1" id="Layer_1" xmlns="http://www.w3.org/2000/svg" xmlns:xlink="http://www.w3.org/1999/xlink" x="0px" y="0px"
	 viewBox="0 0 127.8 127.8" style="enable-background:new 0 0 127.8 127.8;" xml:space="preserve">
<style type="text/css">
	.st0{fill:#93F9EA;}
	.st1{fill:#70D3E0;}
	.st2{fill:#33363A;}
	.st3{fill:#7FE5D8;}
	.st4{fill:#893015;}
	.st5{fill:#FFFFFF;}
	.st6{filter:url(#Adobe_OpacityMaskFilter);}
	.st7{opacity:0.8;mask:url(#SVGID_1_);}
	.st8{fill:#00CCFF;}
</style>
<g>
	<g>
		<g>
			<g>
				<g>
					<path class="st0" d="M97.2,24C97.2,24,97.2,24,97.2,24C94.3,11.1,82.8,1.5,69.1,1.5c-15.9,0-28.8,12.9-28.8,28.8
						c0,11.7,6.9,21.7,16.9,26.2c-0.5-2-0.7-4.1-0.7-6.3c0-6.6,2.2-12.7,6-17.6C64,41,71.3,47.4,80.2,47.4c9.9,0,17.9-8,17.9-17.9
						C98.1,27.6,97.7,25.7,97.2,24z"/>
				</g>
				<g>
					<path class="st1" d="M56.6,50.2c0-6.6,2.2-12.7,6-17.6C64,41,71.3,47.4,80.2,47.4c8.6,0,15.7-6,17.5-14.1
						c-0.1-0.6-0.3-1.2-0.5-1.8c0,0,0,0,0,0C94.3,18.7,82.8,9,69.1,9C54.5,9,42.5,19.9,40.6,34c1.3,9.8,7.5,18,16,22.2
						c0-0.7,0.1-1.5,0.2-2.2C56.7,52.8,56.6,51.5,56.6,50.2z"/>
				</g>
				<path class="st2" d="M98.7,23.7C98.7,23.7,98.7,23.7,98.7,23.7C95.6,9.9,83.2,0,69.1,0C52.4,0,38.8,13.6,38.8,30.3
					c0,11.9,7,22.7,17.8,27.6c0.2,0.1,0.4,0.1,0.6,0.1c0.3,0,0.7-0.1,0.9-0.3c0.4-0.4,0.6-0.9,0.5-1.5c-0.4-2-0.7-4-0.7-6
					c0-5,1.3-9.8,3.9-14.1c2.7,7.5,9.9,12.7,18.2,12.7c10.7,0,19.4-8.7,19.4-19.4C99.6,27.5,99.3,25.6,98.7,23.7z M80.2,45.9
					c-7,0-13-4.3-15.4-10.7c0-0.2,0-0.5-0.1-0.8c-2.5-6.5,0.8-13.9,7.3-16.4c2.5-0.9,5.1-0.9,7.5,0.2c2.4,1.1,4.2,3,5.2,5.5
					c0.7,1.9,0.7,3.9-0.2,5.8c-0.8,1.8-2.3,3.3-4.2,4c-3,1.1-6.3-0.4-7.4-3.3c-0.8-2.2,0.3-4.7,2.5-5.6c0.8-0.3,1.2-1.2,0.9-1.9
					s-1.2-1.2-1.9-0.9c-3.8,1.4-5.6,5.7-4.2,9.4c1.3,3.5,4.7,5.6,8.2,5.6c1,0,2.1-0.2,3.1-0.6c2.6-1,4.7-3,5.9-5.6s1.2-5.4,0.2-8.1
					c-1.2-3.2-3.6-5.7-6.8-7.1c-3.1-1.4-6.6-1.5-9.8-0.3c-7,2.7-10.9,9.8-9.9,16.9c-3.9,5.3-6,11.5-6,18.1c0,1.2,0.1,2.4,0.2,3.6
					C47,48.9,41.8,40,41.8,30.3C41.8,15.2,54.1,3,69.1,3c12.6,0,23.8,8.9,26.6,21.2c0,0.1,0,0.2,0.1,0.3c0.5,1.6,0.8,3.3,0.8,5
					C96.6,38.5,89.2,45.9,80.2,45.9z"/>
			</g>
			<g>
				<g>
					<g>
						<g>
							<path class="st0" d="M113.1,88.8c0,20.7-22,37.4-49.2,37.4c-27.2,0-49.2-16.8-49.2-37.4c0-20.7,22-45.5,49.2-45.5
								C91.1,43.4,113.1,68.2,113.1,88.8z"/>
						</g>
						<g>
							<path class="st3" d="M113.1,88.8c0,20.7-22,37.4-49.2,37.4c-27.2,0-49.2-16.8-49.2-37.4c0-20.7,22-34.9,49.2-34.9
								C91.1,53.9,113.1,68.2,113.1,88.8z"/>
						</g>
						<g>
							<path class="st0" d="M74.4,102.9c0,1.4-4.7,1.6-10.5,1.6s-10.5-0.2-10.5-1.6c0-1.4,4.7-5,10.5-5S74.4,101.5,74.4,102.9z"/>
						</g>
						<g>
							<path class="st1" d="M113.1,88.8c0,20.7-22,37.4-49.2,37.4c-27.2,0-49.2-16.8-49.2-37.4c0-20.7,6.3,18.3,49.2,18.3
								S113.1,68.2,113.1,88.8z"/>
						</g>
						<g>
							<path class="st2" d="M63.9,127.8c-28,0-50.7-17.5-50.7-38.9c0-21.3,22.6-47,50.7-47s50.7,25.7,50.7,47
								C114.6,110.3,91.9,127.8,63.9,127.8z M63.9,44.9c-26.4,0-47.7,24-47.7,44c0,19.8,21.4,35.9,47.7,35.9s47.7-16.1,47.7-35.9
								C111.6,68.9,90.3,44.9,63.9,44.9z"/>
						</g>
					</g>
					<g>
						<path class="st4" d="M47.7,94.8c0,4.4-3.6,8.1-8.1,8.1s-8.1-3.6-8.1-8.1c0-4.4,3.6-8.1,8.1-8.1C44.1,86.7,47.7,90.3,47.7,94.8
							z"/>
					</g>
					<g>
						<circle class="st5" cx="35.7" cy="92.1" r="3.3"/>
					</g>
					<path class="st2" d="M39.7,85.2c-3.2,0-6.1,1.6-7.8,4.1c-0.1,0.2-0.2,0.3-0.3,0.5c-0.9,1.4-1.4,3.1-1.4,5
						c0,5.3,4.3,9.6,9.6,9.6s9.6-4.3,9.6-9.6S44.9,85.2,39.7,85.2z M39.7,101.3c-2.7,0-5.1-1.7-6-4c0.7,0,1.5-0.2,2.5-0.4
						c0.3,0,0.7-0.1,1-0.2c0.8-0.1,1.7-0.3,2.6-0.3c2.4,0,4.6,0.8,6,0.9C44.7,99.6,42.4,101.3,39.7,101.3z"/>
					<circle class="st5" cx="35.7" cy="92.1" r="1.8"/>
					<g>
						<path class="st4" d="M96.2,94.8c0,4.4-3.6,8.1-8.1,8.1s-8.1-3.6-8.1-8.1c0-4.4,3.6-8.1,8.1-8.1C92.6,86.7,96.2,90.3,96.2,94.8
							z"/>
					</g>
					<g>
						<circle class="st5" cx="84.1" cy="92.1" r="3.3"/>
					</g>
					<path class="st2" d="M88.1,85.2c-3.2,0-6.1,1.6-7.8,4.1c-0.1,0.2-0.2,0.3-0.3,0.5c-0.9,1.5-1.4,3.2-1.4,5
						c0,5.3,4.3,9.6,9.6,9.6s9.6-4.3,9.6-9.6S93.4,85.2,88.1,85.2z M88.1,101.3c-2.7,0-5.1-1.7-6-4c0.7,0,1.5-0.2,2.5-0.4
						c0.3,0,0.7-0.1,1-0.2c0.8-0.1,1.7-0.3,2.6-0.3c2.4,0,4.6,0.8,6,0.9C93.2,99.6,90.8,101.3,88.1,101.3z"/>
					<circle class="st5" cx="84.1" cy="92.1" r="1.8"/>
				</g>
				<path class="st2" d="M94.8,105.7c-0.7-0.4-1.6-0.1-2,0.7c0,0.1-3.6,7-15.4,6.8c-0.3,0-0.6,0-0.9,0c-7.4,0-10.9,1.6-12.6,3.1
					c-1.7-1.6-5.4-3.2-13.5-3.1c-0.2,0-0.3,0-0.5,0c-11.4,0-14.8-6.5-15-6.8c-0.4-0.7-1.3-1-2-0.7c-0.7,0.4-1.1,1.3-0.7,2
					c0.2,0.3,4.3,8.5,17.6,8.5c0.2,0,0.4,0,0.5,0c9.1-0.2,11.7,2.2,11.9,3.1c0-0.1,0-0.1,0-0.1l1.5-0.1l1.5,0.1c0,0,0,0,0,0.1
					c0.2-0.9,2.8-3.2,11.9-3.1c13.7,0.2,18-8.1,18.2-8.5C95.8,107,95.5,106.1,94.8,105.7z"/>
				<g>
					<g>
						<path class="st2" d="M61.4,111c-0.4,0-0.8-0.2-1.1-0.5l-1.5-1.6c-0.6-0.6-0.5-1.6,0.1-2.1c0.6-0.6,1.6-0.5,2.1,0.1l1.5,1.6
							c0.6,0.6,0.5,1.6-0.1,2.1C62.2,110.9,61.8,111,61.4,111z"/>
					</g>
					<g>
						<path class="st2" d="M66.4,111c-0.4,0-0.7-0.1-1-0.4c-0.6-0.6-0.6-1.5-0.1-2.1l1.5-1.6c0.6-0.6,1.5-0.6,2.1-0.1
							c0.6,0.6,0.6,1.5,0.1,2.1l-1.5,1.6C67.2,110.9,66.8,111,66.4,111z"/>
					</g>
				</g>
				<g>
					<g>
						<path class="st2" d="M49,83c-0.3,0-0.5-0.1-0.8-0.2l-4.7-2.8c-0.7-0.4-0.9-1.4-0.5-2.1c0.4-0.7,1.4-0.9,2.1-0.5l4.7,2.8
							c0.7,0.4,0.9,1.4,0.5,2.1C50,82.7,49.5,83,49,83z"/>
					</g>
					<g>
						<path class="st2" d="M78.8,83c-0.5,0-1-0.3-1.3-0.7c-0.4-0.7-0.2-1.6,0.5-2.1l4.7-2.8c0.7-0.4,1.6-0.2,2.1,0.5
							c0.4,0.7,0.2,1.6-0.5,2.1l-4.7,2.8C79.3,82.9,79,83,78.8,83z"/>
					</g>
				</g>
			</g>
		</g>
	</g>
	<defs>
		<filter id="Adobe_OpacityMaskFilter" filterUnits="userSpaceOnUse" x="13.2" y="0" width="101.4" height="127.8">
			<feFlood  style="flood-color:white;flood-opacity:1" result="back"/>
			<feBlend  in="SourceGraphic" in2="back" mode="normal"/>
		</filter>
	</defs>
	<mask maskUnits="userSpaceOnUse" x="13.2" y="0" width="101.4" height="127.8" id="SVGID_1_">
		<g class="st6">
			
				<image style="overflow:visible;" width="106" height="132" xlink:href="6B22B13CAD4E90C6.jpg"  transform="matrix(1 0 0 1 11 -2.211)">
			</image>
		</g>
	</mask>
	<g class="st7">
		<g>
			<g>
				<g>
					<path class="st8" d="M97.2,24C97.2,24,97.2,24,97.2,24C94.3,11.1,82.8,1.5,69.1,1.5c-15.9,0-28.8,12.9-28.8,28.8
						c0,11.7,6.9,21.7,16.9,26.2c-0.5-2-0.7-4.1-0.7-6.3c0-6.6,2.2-12.7,6-17.6C64,41,71.3,47.4,80.2,47.4c9.9,0,17.9-8,17.9-17.9
						C98.1,27.6,97.7,25.7,97.2,24z"/>
				</g>
				<g>
					<path class="st8" d="M56.6,50.2c0-6.6,2.2-12.7,6-17.6C64,41,71.3,47.4,80.2,47.4c8.6,0,15.7-6,17.5-14.1
						c-0.1-0.6-0.3-1.2-0.5-1.8c0,0,0,0,0,0C94.3,18.7,82.8,9,69.1,9C54.5,9,42.5,19.9,40.6,34c1.3,9.8,7.5,18,16,22.2
						c0-0.7,0.1-1.5,0.2-2.2C56.7,52.8,56.6,51.5,56.6,50.2z"/>
				</g>
				<path class="st8" d="M98.7,23.7C98.7,23.7,98.7,23.7,98.7,23.7C95.6,9.9,83.2,0,69.1,0C52.4,0,38.8,13.6,38.8,30.3
					c0,11.9,7,22.7,17.8,27.6c0.2,0.1,0.4,0.1,0.6,0.1c0.3,0,0.7-0.1,0.9-0.3c0.4-0.4,0.6-0.9,0.5-1.5c-0.4-2-0.7-4-0.7-6
					c0-5,1.3-9.8,3.9-14.1c2.7,7.5,9.9,12.7,18.2,12.7c10.7,0,19.4-8.7,19.4-19.4C99.6,27.5,99.3,25.6,98.7,23.7z M80.2,45.9
					c-7,0-13-4.3-15.4-10.7c0-0.2,0-0.5-0.1-0.8c-2.5-6.5,0.8-13.9,7.3-16.4c2.5-0.9,5.1-0.9,7.5,0.2c2.4,1.1,4.2,3,5.2,5.5
					c0.7,1.9,0.7,3.9-0.2,5.8c-0.8,1.8-2.3,3.3-4.2,4c-3,1.1-6.3-0.4-7.4-3.3c-0.8-2.2,0.3-4.7,2.5-5.6c0.8-0.3,1.2-1.2,0.9-1.9
					s-1.2-1.2-1.9-0.9c-3.8,1.4-5.6,5.7-4.2,9.4c1.3,3.5,4.7,5.6,8.2,5.6c1,0,2.1-0.2,3.1-0.6c2.6-1,4.7-3,5.9-5.6s1.2-5.4,0.2-8.1
					c-1.2-3.2-3.6-5.7-6.8-7.1c-3.1-1.4-6.6-1.5-9.8-0.3c-7,2.7-10.9,9.8-9.9,16.9c-3.9,5.3-6,11.5-6,18.1c0,1.2,0.1,2.4,0.2,3.6
					C47,48.9,41.8,40,41.8,30.3C41.8,15.2,54.1,3,69.1,3c12.6,0,23.8,8.9,26.6,21.2c0,0.1,0,0.2,0.1,0.3c0.5,1.6,0.8,3.3,0.8,5
					C96.6,38.5,89.2,45.9,80.2,45.9z"/>
			</g>
			<g>
				<g>
					<g>
						<g>
							<path class="st8" d="M113.1,88.8c0,20.7-22,37.4-49.2,37.4c-27.2,0-49.2-16.8-49.2-37.4c0-20.7,22-45.5,49.2-45.5
								C91.1,43.4,113.1,68.2,113.1,88.8z"/>
						</g>
						<g>
							<path class="st8" d="M113.1,88.8c0,20.7-22,37.4-49.2,37.4c-27.2,0-49.2-16.8-49.2-37.4c0-20.7,22-34.9,49.2-34.9
								C91.1,53.9,113.1,68.2,113.1,88.8z"/>
						</g>
						<g>
							<path class="st8" d="M74.4,102.9c0,1.4-4.7,1.6-10.5,1.6s-10.5-0.2-10.5-1.6c0-1.4,4.7-5,10.5-5S74.4,101.5,74.4,102.9z"/>
						</g>
						<g>
							<path class="st8" d="M113.1,88.8c0,20.7-22,37.4-49.2,37.4c-27.2,0-49.2-16.8-49.2-37.4c0-20.7,6.3,18.3,49.2,18.3
								S113.1,68.2,113.1,88.8z"/>
						</g>
						<g>
							<path class="st8" d="M63.9,127.8c-28,0-50.7-17.5-50.7-38.9c0-21.3,22.6-47,50.7-47s50.7,25.7,50.7,47
								C114.6,110.3,91.9,127.8,63.9,127.8z M63.9,44.9c-26.4,0-47.7,24-47.7,44c0,19.8,21.4,35.9,47.7,35.9s47.7-16.1,47.7-35.9
								C111.6,68.9,90.3,44.9,63.9,44.9z"/>
						</g>
					</g>
					<g>
						<path class="st8" d="M47.7,94.8c0,4.4-3.6,8.1-8.1,8.1s-8.1-3.6-8.1-8.1c0-4.4,3.6-8.1,8.1-8.1C44.1,86.7,47.7,90.3,47.7,94.8
							z"/>
					</g>
					<g>
						<circle class="st8" cx="35.7" cy="92.1" r="3.3"/>
					</g>
					<path class="st8" d="M39.7,85.2c-3.2,0-6.1,1.6-7.8,4.1c-0.1,0.2-0.2,0.3-0.3,0.5c-0.9,1.4-1.4,3.1-1.4,5
						c0,5.3,4.3,9.6,9.6,9.6s9.6-4.3,9.6-9.6S44.9,85.2,39.7,85.2z M39.7,101.3c-2.7,0-5.1-1.7-6-4c0.7,0,1.5-0.2,2.5-0.4
						c0.3,0,0.7-0.1,1-0.2c0.8-0.1,1.7-0.3,2.6-0.3c2.4,0,4.6,0.8,6,0.9C44.7,99.6,42.4,101.3,39.7,101.3z"/>
					<circle class="st8" cx="35.7" cy="92.1" r="1.8"/>
					<g>
						<path class="st8" d="M96.2,94.8c0,4.4-3.6,8.1-8.1,8.1s-8.1-3.6-8.1-8.1c0-4.4,3.6-8.1,8.1-8.1C92.6,86.7,96.2,90.3,96.2,94.8
							z"/>
					</g>
					<g>
						<circle class="st8" cx="84.1" cy="92.1" r="3.3"/>
					</g>
					<path class="st8" d="M88.1,85.2c-3.2,0-6.1,1.6-7.8,4.1c-0.1,0.2-0.2,0.3-0.3,0.5c-0.9,1.5-1.4,3.2-1.4,5
						c0,5.3,4.3,9.6,9.6,9.6s9.6-4.3,9.6-9.6S93.4,85.2,88.1,85.2z M88.1,101.3c-2.7,0-5.1-1.7-6-4c0.7,0,1.5-0.2,2.5-0.4
						c0.3,0,0.7-0.1,1-0.2c0.8-0.1,1.7-0.3,2.6-0.3c2.4,0,4.6,0.8,6,0.9C93.2,99.6,90.8,101.3,88.1,101.3z"/>
					<circle class="st8" cx="84.1" cy="92.1" r="1.8"/>
				</g>
				<path class="st8" d="M94.8,105.7c-0.7-0.4-1.6-0.1-2,0.7c0,0.1-3.6,7-15.4,6.8c-0.3,0-0.6,0-0.9,0c-7.4,0-10.9,1.6-12.6,3.1
					c-1.7-1.6-5.4-3.2-13.5-3.1c-0.2,0-0.3,0-0.5,0c-11.4,0-14.8-6.5-15-6.8c-0.4-0.7-1.3-1-2-0.7c-0.7,0.4-1.1,1.3-0.7,2
					c0.2,0.3,4.3,8.5,17.6,8.5c0.2,0,0.4,0,0.5,0c9.1-0.2,11.7,2.2,11.9,3.1c0-0.1,0-0.1,0-0.1l1.5-0.1l1.5,0.1c0,0,0,0,0,0.1
					c0.2-0.9,2.8-3.2,11.9-3.1c13.7,0.2,18-8.1,18.2-8.5C95.8,107,95.5,106.1,94.8,105.7z"/>
				<g>
					<g>
						<path class="st8" d="M61.4,111c-0.4,0-0.8-0.2-1.1-0.5l-1.5-1.6c-0.6-0.6-0.5-1.6,0.1-2.1c0.6-0.6,1.6-0.5,2.1,0.1l1.5,1.6
							c0.6,0.6,0.5,1.6-0.1,2.1C62.2,110.9,61.8,111,61.4,111z"/>
					</g>
					<g>
						<path class="st8" d="M66.4,111c-0.4,0-0.7-0.1-1-0.4c-0.6-0.6-0.6-1.5-0.1-2.1l1.5-1.6c0.6-0.6,1.5-0.6,2.1-0.1
							c0.6,0.6,0.6,1.5,0.1,2.1l-1.5,1.6C67.2,110.9,66.8,111,66.4,111z"/>
					</g>
				</g>
				<g>
					<g>
						<path class="st8" d="M49,83c-0.3,0-0.5-0.1-0.8-0.2l-4.7-2.8c-0.7-0.4-0.9-1.4-0.5-2.1c0.4-0.7,1.4-0.9,2.1-0.5l4.7,2.8
							c0.7,0.4,0.9,1.4,0.5,2.1C50,82.7,49.5,83,49,83z"/>
					</g>
					<g>
						<path class="st8" d="M78.8,83c-0.5,0-1-0.3-1.3-0.7c-0.4-0.7-0.2-1.6,0.5-2.1l4.7-2.8c0.7-0.4,1.6-0.2,2.1,0.5
							c0.4,0.7,0.2,1.6-0.5,2.1l-4.7,2.8C79.3,82.9,79,83,78.8,83z"/>
					</g>
				</g>
			</g>
		</g>
	</g>
</g>
</svg>
