<?xml version="1.0" encoding="utf-8"?>
<!-- Generator: Adobe Illustrator 21.1.0, SVG Export Plug-In . SVG Version: 6.00 Build 0)  -->
<svg version="1.1" xmlns="http://www.w3.org/2000/svg" xmlns:xlink="http://www.w3.org/1999/xlink" x="0px" y="0px"
	 viewBox="0 0 129 129" style="enable-background:new 0 0 129 129;" xml:space="preserve">
<style type="text/css">
	.st0{fill:#DCE7EA;}
	.st1{fill:#D3DFE2;}
	.st2{fill:#33363A;}
	.st3{fill:#A7BBC1;}
	.st4{fill:#FFFFFF;}
	.st5{fill:#D8E5EA;}
</style>
<g id="Layer_1">
	<g>
		<g>
			<path class="st0" d="M127.5,64.5c0,16.1-13,29.1-29.1,29.1H30.6c-16.1,0-29.1-13-29.1-29.1l0,0c0-16.1,13-29.1,29.1-29.1h67.8
				C114.5,35.4,127.5,48.4,127.5,64.5L127.5,64.5z"/>
		</g>
		<g>
			<path class="st1" d="M98.4,35.4H30.6c-16.1,0-29.1,13-29.1,29.1h126C127.5,48.4,114.5,35.4,98.4,35.4z"/>
		</g>
		<g>
			<path class="st2" d="M98.4,95.1H30.6C13.7,95.1,0,81.4,0,64.5s13.7-30.6,30.6-30.6h67.8c16.9,0,30.6,13.7,30.6,30.6
				S115.3,95.1,98.4,95.1z M30.6,36.9C15.4,36.9,3,49.3,3,64.5s12.4,27.6,27.6,27.6h67.8c15.2,0,27.6-12.4,27.6-27.6
				s-12.4-27.6-27.6-27.6H30.6z"/>
		</g>
		<g>
			<g>
				<path class="st3" d="M43.7,57c7,7,7,18.2,0,25.2c-6.9,6.9-18.2,6.9-25.2,0c-6.9-7-6.9-18.2,0-25.2C25.5,50,36.8,50,43.7,57z"/>
			</g>
			<g>
				<circle class="st4" cx="31.1" cy="63.5" r="17.8"/>
			</g>
			<g>
				<path class="st5" d="M18.5,76.1c-6.9-6.9-6.9-18.2,0-25.2c6.9-6.9,18.2-6.9,25.2,0"/>
			</g>
			<g>
				<path class="st2" d="M31.1,82.8c-4.9,0-9.9-1.9-13.6-5.6c-3.6-3.6-5.7-8.5-5.7-13.6c0-5.2,2-10,5.7-13.6
					c3.6-3.6,8.5-5.7,13.6-5.7s10,2,13.6,5.7l0,0c3.6,3.6,5.7,8.5,5.7,13.6s-2,10-5.7,13.6C41,80.9,36.1,82.8,31.1,82.8z M31.1,47.2
					c-4.4,0-8.4,1.7-11.5,4.8s-4.8,7.2-4.8,11.5S16.5,72,19.6,75c6.4,6.4,16.7,6.4,23,0c3.1-3.1,4.8-7.2,4.8-11.5s-1.7-8.4-4.8-11.5
					l0,0C39.6,48.9,35.5,47.2,31.1,47.2z"/>
			</g>
		</g>
	</g>
</g>
<g id="sounds">
	<g>
		<g>
			<path class="st2" d="M7.9,112.5v-7.7h11.2c0.8,0,1.5-0.7,1.5-1.5l0,0c0-0.8-0.6-1.5-1.5-1.5H6.4c-0.8,0-1.5,0.7-1.5,1.5v9.2H7.9z
				"/>
			<path class="st2" d="M20.6,112.5v9.3c0,0.8-0.7,1.5-1.5,1.5H6.4c-0.9,0-1.5-0.7-1.5-1.5l0,0c0-0.8,0.7-1.5,1.5-1.5h11.2V111h1.5
				C19.9,111,20.6,111.7,20.6,112.5z"/>
			<g>
				<path class="st2" d="M4.9,112.5c0,0.8,0.7,1.5,1.5,1.5h11.2c3.4-0.1,3.5-3.1,0-3H4.9V112.5z"/>
			</g>
		</g>
		<g>
			<path class="st2" d="M111.4,112.5v-7.7h11.2c0.8,0,1.5-0.7,1.5-1.5l0,0c0-0.8-0.6-1.5-1.5-1.5h-12.7c-0.8,0-1.5,0.7-1.5,1.5v9.2
				H111.4z"/>
			<path class="st2" d="M124.1,112.5v9.3c0,0.8-0.7,1.5-1.5,1.5h-12.7c-0.9,0-1.5-0.7-1.5-1.5l0,0c0-0.8,0.7-1.5,1.5-1.5h11.2V111
				h1.5C123.4,111,124.1,111.7,124.1,112.5z"/>
			<g>
				<path class="st2" d="M108.4,112.5c0,0.8,0.7,1.5,1.5,1.5h11.2c3.4-0.1,3.5-3.1,0-3h-12.7V112.5z"/>
			</g>
		</g>
		<path class="st2" d="M39.8,101.8H27.1c-0.8,0-1.5,0.7-1.5,1.5v18.5c0,0.8,0.7,1.5,1.5,1.5s11.9,0,12.7,0s1.5-0.7,1.5-1.5v-18.5
			C41.3,102.5,40.6,101.8,39.8,101.8z M28.6,120.3v-15.5h9.7v15.5H28.6z"/>
		<path class="st2" d="M99.4,101.8H89.2c-0.8,0-1.5,0.7-1.5,1.5v18.5c0,0.8,0.7,1.5,1.5,1.5h10.2c2.2,0,4-1.8,4-4v-13.5
			C103.4,103.6,101.6,101.8,99.4,101.8z M90.7,120.3v-15.5h9.7v15.5H90.7z"/>
		<path class="st2" d="M47.8,123.4h12.7c0.8,0,1.5-0.7,1.5-1.5v-18.5c0-0.8-0.7-1.5-1.5-1.5s-1.5,0.7-1.5,1.5v16.9h-9.7v-17.1
			c0-0.8-0.7-1.5-1.5-1.5s-1.5,0.7-1.5,1.5v18.7C46.3,122.7,46.9,123.4,47.8,123.4z"/>
		<path class="st2" d="M81.2,101.7H68.5c-0.8,0-1.5,0.7-1.5,1.5v18.5c0,0.8,0.7,1.5,1.5,1.5s1.5-0.7,1.5-1.5v-16.9h9.7v17.1
			c0,0.8,0.7,1.5,1.5,1.5s1.5-0.7,1.5-1.5v-18.7C82.7,102.4,82.1,101.7,81.2,101.7z"/>
	</g>
</g>
<g id="label">
	<g>
		<path class="st2" d="M73.6,66c0.8,0,1.5-0.7,1.5-1.5v-9.3c0-0.8-0.7-1.5-1.5-1.5H60.9c-0.8,0-1.5,0.7-1.5,1.5v18.5
			c0,0.8,0.7,1.5,1.5,1.5c0.8,0,1.5-0.7,1.5-1.5v-7.7L73.6,66z M62.4,56.8h9.7v6.3h-9.7V56.8z"/>
		<g>
			<path class="st2" d="M80.1,55.6v17.8c0,1,0.6,1.9,1.5,1.9c0.9,0,1.5-0.8,1.5-1.9V55.6c0-1-0.7-1.8-1.5-1.8l0,0
				C80.7,53.8,80.1,54.6,80.1,55.6z"/>
			<path class="st2" d="M83.1,64.8l12.1-8.4c0.4-0.3,0.6-0.8,0.6-1.2c0-0.3-0.1-0.6-0.3-0.8c-0.5-0.7-1.4-0.9-2.1-0.4l-10.3,7V64.8z
				"/>
			<path class="st2" d="M85.5,63.1l7.6,11.5c0.3,0.4,0.8,0.6,1.2,0.6c0.3,0,0.6-0.1,0.8-0.3c0.7-0.5,0.9-1.4,0.4-2.1l-7.4-11.5
				L85.5,63.1z"/>
		</g>
		<g>
			<path class="st2" d="M115,53.7h-12.7c-0.8,0-1.5,0.7-1.5,1.5v18.5c0,0.8,0.7,1.5,1.5,1.5s1.5-0.7,1.5-1.5V56.8h9.7v17.1
				c0,0.8,0.7,1.5,1.5,1.5s1.5-0.7,1.5-1.5V55.2C116.5,54.4,115.9,53.7,115,53.7z"/>
			<path class="st2" d="M107.1,55.6v17.8c0,1,0.6,1.9,1.5,1.9c0.9,0,1.5-0.8,1.5-1.9V55.6c0-1-0.7-1.8-1.5-1.8l0,0
				C107.8,53.8,107.1,54.6,107.1,55.6z"/>
		</g>
	</g>
</g>
</svg>
