<?xml version="1.0" encoding="utf-8"?>
<!-- Generator: Adobe Illustrator 21.1.0, SVG Export Plug-In . SVG Version: 6.00 Build 0)  -->
<svg version="1.1" xmlns="http://www.w3.org/2000/svg" xmlns:xlink="http://www.w3.org/1999/xlink" x="0px" y="0px"
	 viewBox="0 0 129 129" style="enable-background:new 0 0 129 129;" xml:space="preserve">
<style type="text/css">
	.st0{fill:#DCE7EA;}
	.st1{fill:#D3DFE2;}
	.st2{fill:#33363A;}
	.st3{fill:#FFFFFF;}
	.st4{fill:#D8E5EA;}
</style>
<g id="Calque_1">
	<g id="Layer_1">
		<g>
			<g>
				<path class="st0" d="M93.8,64.5c0,16.1-13,29.1-29.1,29.1h-0.5c-16.1,0-29.1-13-29.1-29.1l0,0c0-16.1,13-29.1,29.1-29.1h0.5
					C80.8,35.4,93.8,48.4,93.8,64.5L93.8,64.5z"/>
			</g>
			<g>
				<path class="st1" d="M64.8,35.4h-0.5c-16.1,0-29.1,13-29.1,29.1h58.7C93.8,48.4,80.8,35.4,64.8,35.4z"/>
			</g>
			<g>
				<path class="st2" d="M64.8,95.1h-0.5c-16.9,0-30.6-13.7-30.6-30.6s13.7-30.6,30.6-30.6h0.5c16.9,0,30.6,13.7,30.6,30.6
					S81.7,95.1,64.8,95.1z M64.2,36.9c-15.2,0-27.6,12.4-27.6,27.6S49,92.1,64.2,92.1h0.5c15.2,0,27.6-12.4,27.6-27.6
					S79.9,36.9,64.8,36.9H64.2z"/>
			</g>
		</g>
	</g>
	<g id="sounds">
		<g>
			<g>
				<path class="st2" d="M18.2,112.4v-7.7h11.2c0.8,0,1.5-0.7,1.5-1.5l0,0c0-0.8-0.6-1.5-1.5-1.5H16.7c-0.8,0-1.5,0.7-1.5,1.5v9.2
					H18.2z"/>
				<path class="st2" d="M30.9,112.4v9.3c0,0.8-0.7,1.5-1.5,1.5H16.7c-0.9,0-1.5-0.7-1.5-1.5l0,0c0-0.8,0.7-1.5,1.5-1.5h11.2v-9.3
					h1.5C30.2,110.9,30.9,111.6,30.9,112.4z"/>
				<g>
					<path class="st2" d="M15.2,112.4c0,0.8,0.7,1.5,1.5,1.5h11.2c3.4-0.1,3.5-3.1,0-3H15.2V112.4z"/>
				</g>
			</g>
			<path class="st2" d="M45.3,104.8c0,5.6,0,11.2,0,16.8c0,0.9-0.7,1.7-1.6,1.6c-0.8,0-1.5-0.8-1.5-1.6c0-5.6,0-11.2,0-16.8
				c-1.6,0-3.1,0-4.7,0c-0.9,0.1-1.6-0.7-1.6-1.5s0.7-1.5,1.6-1.5c4.2,0,8.4,0,12.6,0c0.8,0,1.5,0.7,1.5,1.5s-0.7,1.5-1.6,1.5
				C48.5,104.8,46.9,104.8,45.3,104.8z"/>
			<path class="st2" d="M107.5,104.8c0,5.6,0,11.2,0,16.8c0,0.9-0.7,1.7-1.6,1.6c-0.8,0-1.5-0.8-1.5-1.6c0-5.6,0-11.2,0-16.8
				c-1.6,0-3.1,0-4.7,0c-0.9,0.1-1.6-0.7-1.6-1.5s0.7-1.5,1.6-1.5c4.2,0,8.4,0,12.6,0c0.8,0,1.5,0.7,1.5,1.5s-0.7,1.5-1.6,1.5
				C110.7,104.8,109.1,104.8,107.5,104.8z"/>
			<path class="st2" d="M70.8,101.7H58.1c-0.8,0-1.5,0.7-1.5,1.5v18.5c0,0.8,0.7,1.5,1.5,1.5s1.5-0.7,1.5-1.5V114h9.7v7.8
				c0,0.8,0.7,1.5,1.5,1.5c0.8,0,1.5-0.7,1.5-1.5v-18.6C72.3,102.4,71.7,101.7,70.8,101.7z M59.6,111v-6.3h9.7v6.3H59.6z"/>
			<path class="st2" d="M93.1,112.5v-9.3c0-0.8-0.7-1.5-1.5-1.5H78.8c-0.8,0-1.5,0.7-1.5,1.5v18.5c0,0.8,0.7,1.5,1.5,1.5
				s1.5-0.7,1.5-1.5V114h4l5.9,8.6c0.3,0.4,0.8,0.6,1.2,0.6c0.3,0,0.6-0.1,0.8-0.3c0.7-0.5,0.9-1.4,0.4-2.1l-4.6-6.8h3.5
				C92.3,114,93.1,113.3,93.1,112.5z M80.3,104.7H90v6.3h-9.7V104.7z"/>
		</g>
	</g>
</g>
<g id="Calque_2">
	<g>
		<g>
			<circle class="st3" cx="64.5" cy="63.5" r="17.8"/>
		</g>
		<g>
			<path class="st4" d="M51.9,76.1c-6.9-6.9-6.9-18.2,0-25.2c6.9-6.9,18.2-6.9,25.2,0"/>
		</g>
		<g>
			<path class="st2" d="M64.5,82.8c-4.9,0-9.9-1.9-13.6-5.6c-3.6-3.6-5.7-8.5-5.7-13.6c0-5.2,2-10,5.7-13.6
				c3.6-3.6,8.5-5.7,13.6-5.7s10,2,13.6,5.7l0,0c3.6,3.6,5.7,8.5,5.7,13.6s-2,10-5.7,13.6C74.4,80.9,69.5,82.8,64.5,82.8z
				 M64.5,47.2c-4.4,0-8.4,1.7-11.5,4.8c-3.1,3.1-4.8,7.2-4.8,11.5S49.9,72,53,75c6.4,6.4,16.7,6.4,23,0c3.1-3.1,4.8-7.2,4.8-11.5
				S79.1,55.1,76,52l0,0C73,48.9,68.9,47.2,64.5,47.2z"/>
		</g>
	</g>
</g>
</svg>
