<?xml version="1.0" encoding="utf-8"?>
<!-- Generator: Adobe Illustrator 21.1.0, SVG Export Plug-In . SVG Version: 6.00 Build 0)  -->
<svg version="1.1" id="Layer_1" xmlns="http://www.w3.org/2000/svg" xmlns:xlink="http://www.w3.org/1999/xlink" x="0px" y="0px"
	 viewBox="0 0 126.3 160" style="enable-background:new 0 0 126.3 160;" xml:space="preserve">
<style type="text/css">
	.st0{fill:#D988FF;}
	.st1{fill:#BF44F2;}
	.st2{fill:#FFFFFF;}
	.st3{fill:#D8E5EA;}
	.st4{fill:#33363A;}
	.st5{fill:#A7BBC1;}
</style>
<g>
	<g>
		<g>
			<g>
				<circle class="st0" cx="63.2" cy="63.2" r="61.7"/>
			</g>
			<g>
				<ellipse class="st1" cx="63.2" cy="63.2" rx="61.7" ry="47.2"/>
			</g>
			<g>
				<path class="st0" d="M120.3,40c-5.9-14.5-17.1-26.2-31.2-32.8c-2,3.5-3.2,7.5-3.2,11.8c0,13,10.6,23.6,23.6,23.6
					C113.4,42.6,117.1,41.7,120.3,40z"/>
			</g>
			<g>
				<path class="st0" d="M6,40c3.2,1.7,6.9,2.6,10.8,2.6c13,0,23.6-10.6,23.6-23.6c0-4.3-1.2-8.3-3.2-11.8C23.1,13.8,11.9,25.5,6,40
					z"/>
			</g>
			<g>
				<path class="st2" d="M1.5,63.2c0,34.1,27.6,61.7,61.7,61.7s61.7-27.6,61.7-61.7H1.5z"/>
			</g>
			<g>
				<path class="st3" d="M63.2,110.4c34.1,0,61.7-21.1,61.7-47.2H1.5C1.5,89.2,29.1,110.4,63.2,110.4z"/>
			</g>
			<path class="st4" d="M121.7,39.5C121.7,39.5,121.7,39.4,121.7,39.5c-0.1-0.2-0.2-0.4-0.2-0.6c-0.1-0.4-0.3-0.7-0.5-1.1
				c-0.3-0.6-0.5-1.2-0.8-1.8c-0.1-0.2-0.2-0.4-0.3-0.7c-0.4-0.7-0.7-1.5-1.1-2.2c0-0.1-0.1-0.1-0.1-0.2c-5.3-9.8-13.1-18-22.7-23.8
				c0,0-0.1-0.1-0.1-0.1c-0.7-0.4-1.5-0.9-2.2-1.3c-0.2-0.1-0.4-0.2-0.6-0.3c-0.6-0.3-1.2-0.6-1.9-1c-0.3-0.2-0.7-0.3-1-0.5
				C90,6,89.9,5.9,89.7,5.8c0,0-0.1,0-0.1,0c-8-3.7-17-5.8-26.4-5.8S44.8,2.1,36.7,5.8c0,0-0.1,0-0.1,0c-0.2,0.1-0.3,0.2-0.5,0.2
				c-0.3,0.2-0.7,0.3-1,0.5c-0.6,0.3-1.2,0.6-1.9,1c-0.2,0.1-0.4,0.2-0.6,0.3c-0.8,0.4-1.5,0.8-2.2,1.3c0,0-0.1,0.1-0.1,0.1
				C20.8,15,13.1,23.1,7.7,32.9c-0.1,0.1-0.1,0.2-0.2,0.3c-0.4,0.7-0.7,1.4-1.1,2.1c-0.1,0.3-0.3,0.5-0.4,0.8
				c-0.3,0.6-0.5,1.1-0.8,1.7C5.2,38.2,5,38.6,4.8,39c-0.1,0.1-0.1,0.3-0.2,0.4c0,0,0,0.1,0,0.1C1.7,46.8,0,54.8,0,63.2
				c0,34.8,28.3,63.2,63.2,63.2s63.2-28.3,63.2-63.2C126.3,54.8,124.7,46.8,121.7,39.5z M89.7,9.2c12.8,6.3,23,17,28.7,30.1
				c-2.8,1.2-5.8,1.9-8.9,1.9c-12.2,0-22.1-9.9-22.1-22.1C87.4,15.6,88.2,12.2,89.7,9.2z M87,7.9c-1.7,3.4-2.6,7.2-2.6,11.1
				c0,13.8,11.3,25.1,25.1,25.1c3.5,0,6.8-0.7,10-2.1c2.3,6.1,3.6,12.7,3.8,19.6H3C3.2,54.8,4.5,48.2,6.8,42c3.2,1.4,6.5,2.1,10,2.1
				c13.8,0,25.1-11.3,25.1-25.1c0-3.9-0.9-7.7-2.6-11.1C46.7,4.8,54.7,3,63.2,3S79.7,4.8,87,7.9z M8.9,37.3c0-0.1,0.1-0.1,0.1-0.2
				c5.8-12.1,15.6-22,27.7-27.9c1.5,3,2.3,6.4,2.3,9.8c0,12.2-9.9,22.1-22.1,22.1c-3.1,0-6.1-0.6-8.9-1.9
				C8.3,38.6,8.6,37.9,8.9,37.3z M63.2,123.3C30.5,123.3,3.8,97.2,3,64.7h120.3C122.5,97.2,95.8,123.3,63.2,123.3z"/>
			<g>
				<g>
					<circle class="st5" cx="63.2" cy="68.9" r="16.8"/>
				</g>
				<g>
					<circle class="st2" cx="63.2" cy="63.2" r="16.8"/>
				</g>
				<g>
					<path class="st3" d="M51.3,75c-6.5-6.5-6.5-17.2,0-23.7c6.5-6.5,17.2-6.5,23.7,0"/>
				</g>
				<g>
					<path class="st4" d="M63.2,81.4c-4.9,0-9.5-1.9-12.9-5.3c-7.1-7.1-7.1-18.7,0-25.8c3.5-3.4,8-5.3,12.9-5.3
						c4.9,0,9.5,1.9,12.9,5.3l0,0c7.1,7.1,7.1,18.7,0,25.8C72.6,79.5,68,81.4,63.2,81.4z M63.2,47.9c-4.1,0-7.9,1.6-10.8,4.5
						c-6,6-6,15.6,0,21.6c2.9,2.9,6.7,4.5,10.8,4.5c4.1,0,7.9-1.6,10.8-4.5c6-6,6-15.6,0-21.6C71.1,49.5,67.2,47.9,63.2,47.9z"/>
				</g>
			</g>
			<g>
				<g>
					<path class="st2" d="M68.9,68.9c-3.1,3.1-8.3,3.1-11.4,0c-3.1-3.2-3.1-8.3,0-11.4c3.1-3.2,8.3-3.1,11.4,0
						C72,60.6,72,65.7,68.9,68.9z"/>
				</g>
				<g>
					<path class="st3" d="M57.5,57.5c3.1-3.2,8.3-3.1,11.4,0s3.1,8.3,0,11.4"/>
				</g>
				<g>
					<path class="st4" d="M63.2,72.7c-2.4,0-4.9-0.9-6.8-2.8c-3.7-3.7-3.7-9.8,0-13.5c1.8-1.8,4.2-2.8,6.8-2.8c0,0,0,0,0,0
						c2.6,0,5,1,6.8,2.8c3.7,3.7,3.7,9.8,0,13.5c0,0,0,0,0,0C68.1,71.8,65.6,72.7,63.2,72.7z M63.2,56.6c-1.8,0-3.4,0.7-4.6,1.9
						c-2.6,2.6-2.6,6.7,0,9.3c2.6,2.6,6.7,2.6,9.3,0c2.6-2.6,2.6-6.7,0-9.3C66.6,57.3,64.9,56.6,63.2,56.6L63.2,56.6z"/>
				</g>
			</g>
		</g>
		<path class="st4" d="M70.4,23.4H55.9c-0.8,0-1.5,0.7-1.5,1.5v12.2c0,0.8,0.7,1.5,1.5,1.5s1.5-0.7,1.5-1.5V26.4h4.2v10.7
			c0,0.8,0.7,1.5,1.5,1.5s1.5-0.7,1.5-1.5V26.4h4.2v10.7c0,0.8,0.7,1.5,1.5,1.5s1.5-0.7,1.5-1.5V24.9C71.9,24.1,71.2,23.4,70.4,23.4
			z"/>
	</g>
	<g>
		<path class="st4" d="M86.4,149.3v9.2c0,0.8,0.7,1.5,1.5,1.5h12.7c0.9,0,1.5-0.7,1.5-1.5l0,0c0-0.8-0.7-1.5-1.5-1.5H89.4
			c0,0,0-7.8,0-7.8v-7.8h11.2c0.8,0,1.5-0.7,1.5-1.5l0,0c0-0.8-0.6-1.5-1.5-1.5H87.9c-0.8,0-1.5,0.7-1.5,1.5V149.3z"/>
		<path class="st4" d="M33.6,141.5c0,5.6,0,11.2,0,16.8c0,0.9-0.7,1.7-1.6,1.6c-0.8,0-1.5-0.8-1.5-1.6c0-5.6,0-11.2,0-16.8
			c-1.6,0-3.1,0-4.7,0c-0.9,0.1-1.6-0.7-1.6-1.5c0-0.8,0.7-1.5,1.6-1.5c4.2,0,8.4,0,12.6,0c0.8,0,1.5,0.7,1.5,1.5
			c0,0.8-0.7,1.5-1.6,1.5C36.8,141.5,35.2,141.5,33.6,141.5z"/>
		<g>
			<path class="st4" d="M6.6,149.3v-7.8h11.2c0.8,0,1.5-0.7,1.5-1.5l0,0c0-0.8-0.6-1.5-1.5-1.5H5.1c-0.8,0-1.5,0.7-1.5,1.5v9.2H6.6z
				"/>
			<path class="st4" d="M19.3,149.3v9.3c0,0.8-0.7,1.5-1.5,1.5H5.1c-0.9,0-1.5-0.7-1.5-1.5v0c0-0.8,0.7-1.5,1.5-1.5h11.2v-9.3h1.5
				C18.6,147.8,19.3,148.4,19.3,149.3z"/>
			<g>
				<path class="st4" d="M3.6,149.3c0,0.8,0.7,1.5,1.5,1.5h11.2c3.4-0.1,3.5-3.1,0-3H3.6L3.6,149.3z"/>
			</g>
		</g>
		<path class="st4" d="M60.7,149.3V140c0-0.8-0.7-1.5-1.5-1.5H46.5c-0.8,0-1.5,0.7-1.5,1.5v18.5c0,0.8,0.7,1.5,1.5,1.5
			s1.5-0.7,1.5-1.5v-7.7h4l5.9,8.6c0.3,0.4,0.8,0.6,1.2,0.6c0.3,0,0.6-0.1,0.8-0.3c0.7-0.5,0.9-1.4,0.4-2.1l-4.6-6.8h3.5
			C60,150.8,60.7,150.1,60.7,149.3z M48,141.5h9.7v6.3H48V141.5z"/>
		<g>
			<path class="st4" d="M72,141.5c0,5.6,0,11.2,0,16.8c0,0.9,0.6,1.6,1.5,1.6c0.9,0,1.6-0.7,1.6-1.6c0-5.6,0-11.2,0-16.8l0,0
				c1.6,0,3.1,0,4.7,0c0.9,0.1,1.6-0.6,1.6-1.5c0-0.8-0.7-1.5-1.5-1.5c-4.2,0-8.4,0-12.6,0c-0.9,0-1.6,0.7-1.6,1.5
				c0,0.9,0.7,1.6,1.6,1.5C68.9,141.5,70.4,141.5,72,141.5"/>
			<path class="st4" d="M75,157c1.6,0,3.1,0,4.7,0c0.9-0.1,1.6,0.7,1.6,1.5c0,0.8-0.7,1.5-1.6,1.5c-4.2,0-8.4,0-12.6,0
				c-0.8,0-1.5-0.7-1.5-1.5c0-0.8,0.7-1.5,1.6-1.5c1.6,0,3.1,0,4.7,0"/>
		</g>
		<path class="st4" d="M116.4,141.5c0,5.6,0,11.2,0,16.8c0,0.9-0.7,1.7-1.6,1.6c-0.8,0-1.5-0.8-1.5-1.6c0-5.6,0-11.2,0-16.8
			c-1.6,0-3.1,0-4.7,0c-0.9,0.1-1.6-0.7-1.6-1.5c0-0.8,0.7-1.5,1.6-1.5c4.2,0,8.4,0,12.6,0c0.8,0,1.5,0.7,1.5,1.5
			c0,0.8-0.7,1.5-1.6,1.5C119.6,141.5,118,141.5,116.4,141.5z"/>
	</g>
</g>
</svg>
