<?xml version="1.0" encoding="utf-8"?>
<!-- Generator: Adobe Illustrator 21.1.0, SVG Export Plug-In . SVG Version: 6.00 Build 0)  -->
<svg version="1.1" id="Layer_1" xmlns="http://www.w3.org/2000/svg" xmlns:xlink="http://www.w3.org/1999/xlink" x="0px" y="0px"
	 viewBox="0 0 139.9 160" style="enable-background:new 0 0 139.9 160;" xml:space="preserve">
<style type="text/css">
	.st0{fill:#D988FF;}
	.st1{fill:#BF44F2;}
	.st2{fill:#FFFFFF;}
	.st3{fill:#D8E5EA;}
	.st4{fill:#33363A;}
	.st5{fill:#A7BBC1;}
</style>
<g>
	<g>
		<g>
			<g>
				<circle class="st0" cx="70" cy="63.2" r="61.7"/>
			</g>
			<g>
				<ellipse class="st1" cx="70" cy="63.2" rx="61.7" ry="47.2"/>
			</g>
			<g>
				<path class="st0" d="M127.1,40C121.2,25.5,110,13.8,95.9,7.2c-2,3.5-3.2,7.5-3.2,11.8c0,13,10.6,23.6,23.6,23.6
					C120.2,42.6,123.9,41.7,127.1,40z"/>
			</g>
			<g>
				<path class="st0" d="M12.8,40c3.2,1.7,6.9,2.6,10.8,2.6c13,0,23.6-10.6,23.6-23.6c0-4.3-1.2-8.3-3.2-11.8
					C29.9,13.8,18.7,25.5,12.8,40z"/>
			</g>
			<g>
				<path class="st2" d="M8.3,63.2c0,34.1,27.6,61.7,61.7,61.7s61.7-27.6,61.7-61.7H8.3z"/>
			</g>
			<g>
				<path class="st3" d="M70,110.4c34.1,0,61.7-21.1,61.7-47.2H8.3C8.3,89.2,35.9,110.4,70,110.4z"/>
			</g>
			<path class="st4" d="M128.5,39.5C128.5,39.5,128.5,39.4,128.5,39.5c-0.1-0.2-0.2-0.4-0.2-0.6c-0.1-0.4-0.3-0.7-0.5-1.1
				c-0.3-0.6-0.5-1.2-0.8-1.8c-0.1-0.2-0.2-0.4-0.3-0.7c-0.4-0.7-0.7-1.5-1.1-2.2c0-0.1-0.1-0.1-0.1-0.2c-5.3-9.8-13.1-18-22.7-23.8
				L102.7,9c-0.7-0.4-1.5-0.9-2.2-1.3c-0.2-0.1-0.4-0.2-0.6-0.3c-0.6-0.3-1.2-0.6-1.9-1c-0.3-0.2-0.7-0.3-1-0.5
				c-0.2,0.1-0.3,0-0.5-0.1h-0.1C88.4,2.1,79.4,0,70,0S51.6,2.1,43.5,5.8h-0.1C43.2,5.9,43.1,6,42.9,6c-0.3,0.2-0.7,0.3-1,0.5
				c-0.6,0.3-1.2,0.6-1.9,1c-0.2,0.1-0.4,0.2-0.6,0.3c-0.8,0.4-1.5,0.8-2.2,1.3l-0.1,0.1C27.6,15,19.9,23.1,14.5,32.9
				c-0.1,0.1-0.1,0.2-0.2,0.3c-0.4,0.7-0.7,1.4-1.1,2.1c-0.1,0.3-0.3,0.5-0.4,0.8c-0.3,0.6-0.5,1.1-0.8,1.7c0,0.4-0.2,0.8-0.4,1.2
				c-0.1,0.1-0.1,0.3-0.2,0.4v0.1c-2.9,7.3-4.6,15.3-4.6,23.7c0,34.8,28.3,63.2,63.2,63.2s63.2-28.3,63.2-63.2
				C133.1,54.8,131.5,46.8,128.5,39.5z M96.5,9.2c12.8,6.3,23,17,28.7,30.1c-2.8,1.2-5.8,1.9-8.9,1.9c-12.2,0-22.1-9.9-22.1-22.1
				C94.2,15.6,95,12.2,96.5,9.2z M93.8,7.9c-1.7,3.4-2.6,7.2-2.6,11.1c0,13.8,11.3,25.1,25.1,25.1c3.5,0,6.8-0.7,10-2.1
				c2.3,6.1,3.6,12.7,3.8,19.6H9.8c0.2-6.8,1.5-13.4,3.8-19.6c3.2,1.4,6.5,2.1,10,2.1c13.8,0,25.1-11.3,25.1-25.1
				c0-3.9-0.9-7.7-2.6-11.1C53.5,4.8,61.5,3,70,3S86.5,4.8,93.8,7.9z M15.7,37.3c0-0.1,0.1-0.1,0.1-0.2c5.8-12.1,15.6-22,27.7-27.9
				c1.5,3,2.3,6.4,2.3,9.8c0,12.2-9.9,22.1-22.1,22.1c-3.1,0-6.1-0.6-8.9-1.9C15.1,38.6,15.4,37.9,15.7,37.3z M70,123.3
				c-32.7,0-59.4-26.1-60.2-58.6h120.3C129.3,97.2,102.6,123.3,70,123.3z"/>
			<g>
				<g>
					<circle class="st5" cx="70" cy="68.9" r="16.8"/>
				</g>
				<g>
					<circle class="st2" cx="70" cy="63.2" r="16.8"/>
				</g>
				<g>
					<path class="st3" d="M58.1,75c-6.5-6.5-6.5-17.2,0-23.7s17.2-6.5,23.7,0"/>
				</g>
				<g>
					<path class="st4" d="M70,81.4c-4.9,0-9.5-1.9-12.9-5.3C50,69,50,57.4,57.1,50.3c3.5-3.4,8-5.3,12.9-5.3s9.5,1.9,12.9,5.3l0,0
						c7.1,7.1,7.1,18.7,0,25.8C79.4,79.5,74.8,81.4,70,81.4z M70,47.9c-4.1,0-7.9,1.6-10.8,4.5c-6,6-6,15.6,0,21.6
						c2.9,2.9,6.7,4.5,10.8,4.5s7.9-1.6,10.8-4.5c6-6,6-15.6,0-21.6C77.9,49.5,74,47.9,70,47.9z"/>
				</g>
			</g>
			<g>
				<g>
					<path class="st2" d="M75.7,68.9c-3.1,3.1-8.3,3.1-11.4,0c-3.1-3.2-3.1-8.3,0-11.4c3.1-3.2,8.3-3.1,11.4,0S78.8,65.7,75.7,68.9z
						"/>
				</g>
				<g>
					<path class="st3" d="M64.3,57.5c3.1-3.2,8.3-3.1,11.4,0s3.1,8.3,0,11.4"/>
				</g>
				<g>
					<path class="st4" d="M70,72.7c-2.4,0-4.9-0.9-6.8-2.8c-3.7-3.7-3.7-9.8,0-13.5c1.8-1.8,4.2-2.8,6.8-2.8l0,0c2.6,0,5,1,6.8,2.8
						c3.7,3.7,3.7,9.8,0,13.5l0,0C74.9,71.8,72.4,72.7,70,72.7z M70,56.6c-1.8,0-3.4,0.7-4.6,1.9c-2.6,2.6-2.6,6.7,0,9.3
						c2.6,2.6,6.7,2.6,9.3,0s2.6-6.7,0-9.3C73.4,57.3,71.7,56.6,70,56.6L70,56.6z"/>
				</g>
			</g>
		</g>
		<path class="st4" d="M77.2,23.4H62.7c-0.8,0-1.5,0.7-1.5,1.5v12.2c0,0.8,0.7,1.5,1.5,1.5s1.5-0.7,1.5-1.5V26.4h4.2v10.7
			c0,0.8,0.7,1.5,1.5,1.5c0.8,0,1.5-0.7,1.5-1.5V26.4h4.2v10.7c0,0.8,0.7,1.5,1.5,1.5s1.5-0.7,1.5-1.5V24.9
			C78.7,24.1,78,23.4,77.2,23.4z"/>
	</g>
	<g>
		<path class="st4" d="M93.2,149.3v9.2c0,0.8,0.7,1.5,1.5,1.5h12.7c0.9,0,1.5-0.7,1.5-1.5l0,0c0-0.8-0.7-1.5-1.5-1.5H96.2v-7.8v-7.8
			h11.2c0.8,0,1.5-0.7,1.5-1.5l0,0c0-0.8-0.6-1.5-1.5-1.5H94.7c-0.8,0-1.5,0.7-1.5,1.5V149.3z"/>
		<path class="st4" d="M40.4,141.5c0,5.6,0,11.2,0,16.8c0,0.9-0.7,1.7-1.6,1.6c-0.8,0-1.5-0.8-1.5-1.6c0-5.6,0-11.2,0-16.8
			c-1.6,0-3.1,0-4.7,0c-0.9,0.1-1.6-0.7-1.6-1.5s0.7-1.5,1.6-1.5c4.2,0,8.4,0,12.6,0c0.8,0,1.5,0.7,1.5,1.5s-0.7,1.5-1.6,1.5
			C43.6,141.5,42,141.5,40.4,141.5z"/>
		<g>
			<path class="st4" d="M13.4,149.3v-7.8h11.2c0.8,0,1.5-0.7,1.5-1.5l0,0c0-0.8-0.6-1.5-1.5-1.5H11.9c-0.8,0-1.5,0.7-1.5,1.5v9.2h3
				V149.3z"/>
			<path class="st4" d="M26.1,149.3v9.3c0,0.8-0.7,1.5-1.5,1.5H11.9c-0.9,0-1.5-0.7-1.5-1.5l0,0c0-0.8,0.7-1.5,1.5-1.5h11.2v-9.3
				h1.5C25.4,147.8,26.1,148.4,26.1,149.3z"/>
			<g>
				<path class="st4" d="M10.4,149.3c0,0.8,0.7,1.5,1.5,1.5h11.2c3.4-0.1,3.5-3.1,0-3H10.4V149.3z"/>
			</g>
		</g>
		<path class="st4" d="M67.5,149.3V140c0-0.8-0.7-1.5-1.5-1.5H53.3c-0.8,0-1.5,0.7-1.5,1.5v18.5c0,0.8,0.7,1.5,1.5,1.5
			s1.5-0.7,1.5-1.5v-7.7h4l5.9,8.6c0.3,0.4,0.8,0.6,1.2,0.6c0.3,0,0.6-0.1,0.8-0.3c0.7-0.5,0.9-1.4,0.4-2.1l-4.6-6.8H66
			C66.8,150.8,67.5,150.1,67.5,149.3z M54.8,141.5h9.7v6.3h-9.7V141.5z"/>
		<g>
			<path class="st4" d="M78.8,141.5c0,5.6,0,11.2,0,16.8c0,0.9,0.6,1.6,1.5,1.6s1.6-0.7,1.6-1.6c0-5.6,0-11.2,0-16.8l0,0
				c1.6,0,3.1,0,4.7,0c0.9,0.1,1.6-0.6,1.6-1.5c0-0.8-0.7-1.5-1.5-1.5c-4.2,0-8.4,0-12.6,0c-0.9,0-1.6,0.7-1.6,1.5
				c0,0.9,0.7,1.6,1.6,1.5C75.7,141.5,77.2,141.5,78.8,141.5"/>
			<path class="st4" d="M81.8,157c1.6,0,3.1,0,4.7,0c0.9-0.1,1.6,0.7,1.6,1.5s-0.7,1.5-1.6,1.5c-4.2,0-8.4,0-12.6,0
				c-0.8,0-1.5-0.7-1.5-1.5s0.7-1.5,1.6-1.5c1.6,0,3.1,0,4.7,0"/>
		</g>
		<path class="st4" d="M123.2,141.5c0,5.6,0,11.2,0,16.8c0,0.9-0.7,1.7-1.6,1.6c-0.8,0-1.5-0.8-1.5-1.6c0-5.6,0-11.2,0-16.8
			c-1.6,0-3.1,0-4.7,0c-0.9,0.1-1.6-0.7-1.6-1.5s0.7-1.5,1.6-1.5c4.2,0,8.4,0,12.6,0c0.8,0,1.5,0.7,1.5,1.5s-0.7,1.5-1.6,1.5
			C126.4,141.5,124.8,141.5,123.2,141.5z"/>
	</g>
</g>
</svg>
