<?xml version="1.0" encoding="utf-8"?>
<!-- Generator: Adobe Illustrator 21.1.0, SVG Export Plug-In . SVG Version: 6.00 Build 0)  -->
<svg version="1.1" xmlns="http://www.w3.org/2000/svg" xmlns:xlink="http://www.w3.org/1999/xlink" x="0px" y="0px"
	 viewBox="0 0 126.9 126.9" style="enable-background:new 0 0 126.9 126.9;" xml:space="preserve">
<style type="text/css">
	.st0{fill:#7BC7FF;}
	.st1{fill:#0086FF;}
	.st2{fill:#33363A;}
</style>
<g id="Layer_1">
</g>
<g id="text">
	<g>
		<g>
			<g>
				<g>
					<g>
						<g>
							<path class="st0" d="M125.4,74.6c0,6.7-5.4,12.1-12.1,12.1H13.6c-6.7,0-12.1-5.4-12.1-12.1V45.6c0-6.7,5.4-12.1,12.1-12.1
								h99.6c6.7,0,12.1,5.4,12.1,12.1L125.4,74.6L125.4,74.6z"/>
						</g>
						<g>
							<path class="st1" d="M113.3,33.4H13.6c-6.7,0-12.1,5.4-12.1,12.1v23.8c0,6.7,5.4,12.1,12.1,12.1h99.6
								c6.7,0,12.1-5.4,12.1-12.1V45.6C125.4,38.9,120,33.4,113.3,33.4z"/>
						</g>
						<g>
							<path class="st2" d="M113.3,88.3H13.6C6.1,88.3,0,82.2,0,74.6V45.6C0,38,6.1,31.9,13.6,31.9h99.6c7.5,0,13.6,6.1,13.6,13.6
								v29.1C126.9,82.2,120.8,88.3,113.3,88.3z M13.6,34.9C7.8,34.9,3,39.7,3,45.6v29.1c0,5.9,4.8,10.6,10.6,10.6h99.6
								c5.9,0,10.6-4.8,10.6-10.6V45.6c0-5.9-4.8-10.6-10.6-10.6H13.6z"/>
						</g>
					</g>
					<g>
						<polyline class="st0" points="76.7,82.9 63.5,96.2 50.2,82.9 						"/>
					</g>
					<g>
						<path class="st2" d="M63.5,97.7c-0.4,0-0.8-0.1-1.1-0.4L49.1,84c-0.6-0.6-0.6-1.5,0-2.1s1.5-0.6,2.1,0l12.2,12.2l12.2-12.2
							c0.6-0.6,1.5-0.6,2.1,0s0.6,1.5,0,2.1L64.5,97.2C64.2,97.5,63.8,97.7,63.5,97.7z"/>
					</g>
				</g>
				<g>
					<g>
						<g>
							<g>
								<path class="st2" d="M63.5,11.8c-0.8,0-1.5-0.7-1.5-1.5v-1c0-0.8,0.7-1.5,1.5-1.5c0.8,0,1.5,0.7,1.5,1.5v1
									C65,11.1,64.3,11.8,63.5,11.8z"/>
							</g>
							<g>
								<path class="st2" d="M63.5,26.6c-0.8,0-1.5-0.7-1.5-1.5v-5.8c0-0.8,0.7-1.5,1.5-1.5c0.8,0,1.5,0.7,1.5,1.5v5.8
									C65,26,64.3,26.6,63.5,26.6z"/>
							</g>
						</g>
						<g>
							<g>
								<g>
									<path class="st2" d="M36.1,17.1c-0.4,0-0.8-0.1-1.1-0.4L34.3,16c-0.6-0.6-0.6-1.5,0-2.1c0.6-0.6,1.5-0.6,2.1,0l0.7,0.7
										c0.6,0.6,0.6,1.5,0,2.1C36.9,17,36.5,17.1,36.1,17.1z"/>
								</g>
								<g>
									<path class="st2" d="M46.6,27.6c-0.4,0-0.8-0.1-1.1-0.4l-4.1-4.1c-0.6-0.6-0.6-1.5,0-2.1c0.6-0.6,1.5-0.6,2.1,0l4.1,4.1
										c0.6,0.6,0.6,1.5,0,2.1C47.4,27.5,47,27.6,46.6,27.6z"/>
								</g>
							</g>
							<g>
								<g>
									<path class="st2" d="M90.8,17.1c-0.4,0-0.8-0.1-1.1-0.4c-0.6-0.6-0.6-1.5,0-2.1l0.7-0.7c0.6-0.6,1.5-0.6,2.1,0
										s0.6,1.5,0,2.1l-0.7,0.7C91.6,17,91.2,17.1,90.8,17.1z"/>
								</g>
								<g>
									<path class="st2" d="M80.3,27.6c-0.4,0-0.8-0.1-1.1-0.4c-0.6-0.6-0.6-1.5,0-2.1l4.1-4.1c0.6-0.6,1.5-0.6,2.1,0
										c0.6,0.6,0.6,1.5,0,2.1l-4.1,4.1C81.1,27.5,80.7,27.6,80.3,27.6z"/>
								</g>
							</g>
						</g>
					</g>
				</g>
			</g>
		</g>
		<g>
			<path class="st2" d="M14.2,60v9.2c0,0.8,0.7,1.5,1.5,1.5h12.7c0.9,0,1.5-0.7,1.5-1.5l0,0c0-0.8-0.7-1.5-1.5-1.5H17.2
				c0,0,0-7.7,0-7.8v-7.7h11.2c0.8,0,1.5-0.7,1.5-1.5v0c0-0.8-0.6-1.5-1.5-1.5H15.7c-0.8,0-1.5,0.7-1.5,1.5V60z"/>
			<path class="st2" d="M49.1,49.2H36.4c-0.8,0-1.5,0.7-1.5,1.5v18.5c0,0.8,0.7,1.5,1.5,1.5s11.9,0,12.7,0s1.5-0.7,1.5-1.5V50.7
				C50.6,49.9,49.9,49.2,49.1,49.2z M37.9,67.7V52.2h9.7v15.5H37.9z"/>
			<path class="st2" d="M57.1,70.8h12.7c0.8,0,1.5-0.7,1.5-1.5V50.8c0-0.8-0.7-1.5-1.5-1.5s-1.5,0.7-1.5,1.5v16.9h-9.7V50.7
				c0-0.8-0.7-1.5-1.5-1.5s-1.5,0.7-1.5,1.5v18.6C55.6,70.1,56.2,70.8,57.1,70.8z"/>
			<path class="st2" d="M90.5,49.2H77.8c-0.8,0-1.5,0.7-1.5,1.5v18.5c0,0.8,0.7,1.5,1.5,1.5s1.5-0.7,1.5-1.5V52.3H89v17.1
				c0,0.8,0.7,1.5,1.5,1.5s1.5-0.7,1.5-1.5V50.7C92,49.9,91.4,49.2,90.5,49.2z"/>
			<path class="st2" d="M106.4,52.3c0,5.6,0,11.2,0,16.8c0,0.9-0.7,1.7-1.6,1.6c-0.8,0-1.5-0.8-1.5-1.6c0-5.6,0-11.2,0-16.8
				c-1.6,0-3.1,0-4.7,0c-0.9,0.1-1.6-0.7-1.6-1.5c0-0.8,0.7-1.5,1.6-1.5c4.2,0,8.4,0,12.6,0c0.8,0,1.5,0.7,1.5,1.5
				c0,0.8-0.7,1.5-1.6,1.5C109.5,52.2,107.9,52.2,106.4,52.3z"/>
		</g>
	</g>
</g>
</svg>
