<?xml version="1.0" encoding="utf-8"?>
<!-- Generator: Adobe Illustrator 21.1.0, SVG Export Plug-In . SVG Version: 6.00 Build 0)  -->
<svg version="1.1" id="Layer_1" xmlns="http://www.w3.org/2000/svg" xmlns:xlink="http://www.w3.org/1999/xlink" x="0px" y="0px"
	 viewBox="0 0 129 129" style="enable-background:new 0 0 129 129;" xml:space="preserve">
<style type="text/css">
	.st0{fill:#DCE7EA;}
	.st1{fill:#D3DFE2;}
	.st2{fill:#33363A;}
	.st3{fill:#A7BBC1;}
	.st4{fill:#FFFFFF;}
	.st5{fill:#D8E5EA;}
</style>
<g>
	<g>
		<path class="st0" d="M127.5,64.5c0,16.1-13,29.1-29.1,29.1H30.6c-16.1,0-29.1-13-29.1-29.1l0,0c0-16.1,13-29.1,29.1-29.1h67.8
			C114.5,35.4,127.5,48.4,127.5,64.5L127.5,64.5z"/>
	</g>
	<g>
		<path class="st1" d="M98.4,35.4H30.6c-16.1,0-29.1,13-29.1,29.1h126C127.5,48.4,114.5,35.4,98.4,35.4z"/>
	</g>
	<g>
		<path class="st2" d="M98.4,95.1H30.6C13.7,95.1,0,81.4,0,64.5s13.7-30.6,30.6-30.6h67.8c16.9,0,30.6,13.7,30.6,30.6
			S115.3,95.1,98.4,95.1z M30.6,36.9C15.4,36.9,3,49.3,3,64.5s12.4,27.6,27.6,27.6h67.8c15.2,0,27.6-12.4,27.6-27.6
			s-12.4-27.6-27.6-27.6H30.6z"/>
	</g>
	<g>
		<g>
			<path class="st3" d="M43.7,57c7,7,7,18.2,0,25.2c-6.9,6.9-18.2,6.9-25.2,0c-6.9-7-6.9-18.2,0-25.2C25.5,50,36.8,50,43.7,57z"/>
		</g>
		<g>
			<circle class="st4" cx="31.1" cy="63.5" r="17.8"/>
		</g>
		<g>
			<path class="st5" d="M18.5,76.1c-6.9-6.9-6.9-18.2,0-25.2c6.9-6.9,18.2-6.9,25.2,0"/>
		</g>
		<g>
			<path class="st2" d="M31.1,82.8c-4.9,0-9.9-1.9-13.6-5.6c-3.6-3.6-5.7-8.5-5.7-13.6c0-5.2,2-10,5.7-13.6
				c3.6-3.6,8.5-5.7,13.6-5.7s10,2,13.6,5.7l0,0c3.6,3.6,5.7,8.5,5.7,13.6s-2,10-5.7,13.6C41,80.9,36.1,82.8,31.1,82.8z M31.1,47.2
				c-4.4,0-8.4,1.7-11.5,4.8s-4.8,7.2-4.8,11.5S16.5,72,19.6,75c6.4,6.4,16.7,6.4,23,0c3.1-3.1,4.8-7.2,4.8-11.5s-1.7-8.4-4.8-11.5
				l0,0C39.6,48.9,35.5,47.2,31.1,47.2z"/>
		</g>
	</g>
	<g>
		<path class="st2" d="M73.6,53.8H60.9c-0.8,0-1.5,0.7-1.5,1.5v18.5c0,0.8,0.7,1.5,1.5,1.5s11.9,0,12.7,0c0.8,0,1.5-0.7,1.5-1.5
			V55.2C75.1,54.5,74.4,53.8,73.6,53.8z M62.4,72.2V56.8h9.7v15.5h-9.7V72.2z"/>
		<path class="st2" d="M94.2,56.8c0.8,0,1.5-0.7,1.5-1.5l0,0c0-0.8-0.6-1.5-1.5-1.5H81.5c-0.8,0-1.5,0.7-1.5,1.5v18.5
			c0,0.8,0.7,1.5,1.5,1.5s1.5-0.7,1.5-1.5v-7.7h8.2c0.8,0,1.5-0.7,1.5-1.5l0,0c0-0.8-0.7-1.5-1.5-1.5H83v-6.3
			C83,56.8,94.2,56.8,94.2,56.8z"/>
		<path class="st2" d="M114.9,56.8c0.8,0,1.5-0.7,1.5-1.5l0,0c0-0.8-0.6-1.5-1.5-1.5h-12.7c-0.8,0-1.5,0.7-1.5,1.5v18.5
			c0,0.8,0.7,1.5,1.5,1.5s1.5-0.7,1.5-1.5v-7.7h8.2c0.8,0,1.5-0.7,1.5-1.5l0,0c0-0.8-0.7-1.5-1.5-1.5h-8.2v-6.3
			C103.7,56.8,114.9,56.8,114.9,56.8z"/>
	</g>
</g>
<g>
	<g>
		<path class="st2" d="M25.6,112.7v9.2c0,0.8,0.7,1.5,1.5,1.5h12.7c0.9,0,1.5-0.7,1.5-1.5v-1.5H28.6v-7.8v-7.7h11.2
			c0.8,0,1.5-0.7,1.5-1.5l0,0c0-0.8-0.6-1.5-1.5-1.5H27.1c-0.8,0-1.5,0.7-1.5,1.5V112.7z"/>
		<g>
			<path class="st2" d="M41.3,120.4v-7.5c0.1-0.6-3-1.5-3-0.8v8.3H41.3z"/>
		</g>
		<g>
			<path class="st2" d="M41.3,112.7c0-0.8-0.7-1.5-1.7-1.5h-5.7c-0.6,0-1.2,0.7-1.2,1.5s0.6,1.5,1.2,1.5h5.7
				C40.6,114.2,41.3,113.5,41.3,112.7L41.3,112.7z"/>
		</g>
	</g>
	<path class="st2" d="M60.5,101.8H47.8c-0.8,0-1.5,0.7-1.5,1.5v18.5c0,0.8,0.7,1.5,1.5,1.5s1.5-0.7,1.5-1.5v-7.7H59v7.8
		c0,0.8,0.7,1.5,1.5,1.5s1.5-0.7,1.5-1.5v-18.6C62,102.5,61.4,101.8,60.5,101.8z M49.3,111.1v-6.3H59v6.3H49.3z"/>
	<g>
		<path class="st2" d="M87.7,112.8v9.2c0,0.8,0.7,1.5,1.5,1.5h12.7c0.9,0,1.5-0.7,1.5-1.5l0,0c0-0.8-0.7-1.5-1.5-1.5H90.7
			c0,0,0-7.7,0-7.8v-7.8h11.2c0.8,0,1.5-0.7,1.5-1.5l0,0c0-0.8-0.6-1.5-1.5-1.5H89.2c-0.8,0-1.5,0.7-1.5,1.5V112.8z"/>
		<g>
			<path class="st2" d="M90.7,114.3h9.2c0.8,0,1.5-0.7,1.5-1.5s-0.7-1.5-1.5-1.5h-9.3L90.7,114.3z"/>
		</g>
	</g>
	<g>
		<path class="st2" d="M81.2,101.8H68.5c-0.8,0-1.5,0.7-1.5,1.5v18.5c0,0.8,0.7,1.5,1.5,1.5s1.5-0.7,1.5-1.5v-16.9h9.7V122
			c0,0.8,0.7,1.5,1.5,1.5s1.5-0.7,1.5-1.5v-18.7C82.7,102.5,82.1,101.8,81.2,101.8z"/>
		<path class="st2" d="M73.3,103.7v17.8c0,1,0.6,1.9,1.5,1.9s1.5-0.8,1.5-1.9v-17.8c0-1-0.7-1.8-1.5-1.8l0,0
			C74,101.9,73.3,102.7,73.3,103.7z"/>
	</g>
</g>
</svg>
