<?xml version="1.0" encoding="utf-8"?>
<!-- Generator: Adobe Illustrator 21.1.0, SVG Export Plug-In . SVG Version: 6.00 Build 0)  -->
<svg version="1.1" id="Layer_1" xmlns="http://www.w3.org/2000/svg" xmlns:xlink="http://www.w3.org/1999/xlink" x="0px" y="0px"
	 viewBox="0 0 127.6 127.6" style="enable-background:new 0 0 127.6 127.6;" xml:space="preserve">
<style type="text/css">
	.st0{fill:#FFD400;}
	.st1{fill:#FFC200;}
	.st2{fill:#FF5B00;}
	.st3{fill:#FF7900;}
	.st4{fill:#33363A;}
	.st5{fill:#E86207;}
	.st6{fill:#F77819;}
	.st7{fill:#FFAD40;}
	.st8{fill:#1362A8;}
	.st9{fill:#FFFFFF;}
	.st10{filter:url(#Adobe_OpacityMaskFilter);}
	.st11{opacity:0.75;mask:url(#SVGID_1_);}
	.st12{fill:#FF3300;}
</style>
<g>
	<g>
		<g>
			<g>
				<g>
					<g>
						<path class="st0" d="M39.1,13.4c-3,5.1-3,11.1-0.7,16.1c5.5-0.5,10.7-3.5,13.6-8.7c3-5.1,3-11.1,0.7-16.1
							C47.3,5.2,42.1,8.2,39.1,13.4z"/>
					</g>
					<g>
						<path class="st1" d="M38.5,29.5c5.5-0.5,10.7-3.5,13.6-8.7c3-5.1,3-11.1,0.7-16.1"/>
					</g>
					<g>
						<path class="st2" d="M39.3,17.9c-2,3.5-2,7.5-0.5,10.9c3.7-0.3,7.2-2.4,9.2-5.8c2-3.5,2-7.5,0.5-10.9
							C44.8,12.3,41.3,14.4,39.3,17.9z"/>
					</g>
					<g>
						<path class="st3" d="M38.9,28.8c3.7-0.3,7.2-2.4,9.2-5.8c2-3.5,2-7.5,0.5-10.9"/>
					</g>
					<g>
						<path class="st4" d="M38.5,31c-0.6,0-1.1-0.3-1.4-0.9c-2.6-5.6-2.4-12.2,0.7-17.5l0,0c3.1-5.4,8.6-8.9,14.8-9.4
							c0.6-0.1,1.2,0.3,1.5,0.9c2.6,5.6,2.4,12.2-0.7,17.5c-3.1,5.4-8.6,8.9-14.8,9.4C38.5,31,38.5,31,38.5,31z M51.8,6.3
							c-4.8,0.7-9,3.6-11.4,7.8l0,0c-2.4,4.2-2.8,9.3-1,13.8c4.8-0.7,9-3.6,11.4-7.8C53.2,15.9,53.6,10.8,51.8,6.3z"/>
					</g>
				</g>
				<g>
					<g>
						<path class="st0" d="M47.5,16.1c-5.1,3-8.2,8.1-8.7,13.6c5,2.3,11,2.3,16.1-0.7c5.1-3,8.2-8.1,8.7-13.6
							C58.7,13.1,52.7,13.1,47.5,16.1z"/>
					</g>
					<g>
						<path class="st1" d="M38.9,29.7c5,2.3,11,2.3,16.1-0.7c5.1-3,8.2-8.1,8.7-13.6"/>
					</g>
					<g>
						<path class="st2" d="M45.5,20.1c-3.5,2-5.5,5.5-5.8,9.2c3.4,1.6,7.4,1.5,10.9-0.5c3.5-2,5.5-5.5,5.8-9.2
							C53,18.1,48.9,18.1,45.5,20.1z"/>
					</g>
					<g>
						<path class="st3" d="M39.6,29.3c3.4,1.6,7.4,1.5,10.9-0.5c3.5-2,5.5-5.5,5.8-9.2"/>
					</g>
					<g>
						<path class="st4" d="M46.3,32.9c-2.7,0-5.5-0.6-8.1-1.8c-0.6-0.3-0.9-0.9-0.9-1.5c0.5-6.2,4-11.7,9.4-14.8l0,0
							c5.4-3.1,11.9-3.4,17.5-0.7c0.6,0.3,0.9,0.9,0.9,1.5c-0.5,6.2-4,11.7-9.4,14.8C52.9,32.1,49.6,32.9,46.3,32.9z M40.5,28.8
							c4.5,1.7,9.6,1.4,13.8-1c4.2-2.4,7.1-6.6,7.8-11.4c-4.5-1.8-9.6-1.4-13.8,1c0,0,0,0,0,0C44.1,19.8,41.2,24,40.5,28.8z"/>
					</g>
				</g>
			</g>
			<g>
				<g>
					<path class="st5" d="M63.2,80.8c-18-1.4-31.4-17.1-30-35.1c0.5-5.9,2.5-11.4,5.7-15.9c-12.3,3.9-21.6,14.9-22.7,28.6
						c-1.4,18,12,33.7,30,35.1c12,0.9,23-4.8,29.4-14.1C71.7,80.6,67.6,81.2,63.2,80.8z"/>
				</g>
				<g>
					<path class="st6" d="M30.9,33.6c-3,4.5-5,9.8-5.4,15.6c-1.4,18,12,33.7,30,35.1c7.2,0.6,13.9-1.3,19.6-4.8
						c-3.7,1.1-7.7,1.6-11.9,1.3c-18-1.4-31.4-17.1-30-35.1c0.5-5.9,2.5-11.4,5.7-15.9C36.1,30.7,33.4,32,30.9,33.6z"/>
				</g>
				<g>
					<path class="st4" d="M48.7,95.1c-0.9,0-1.7,0-2.6-0.1C27.3,93.5,13.3,77,14.7,58.3c1.1-13.9,10.4-25.7,23.7-29.9
						c0.6-0.2,1.3,0,1.7,0.5c0.4,0.5,0.4,1.2,0,1.7c-3.1,4.5-5,9.8-5.4,15.2c-0.6,8.3,2,16.3,7.4,22.7c5.4,6.3,12.9,10.2,21.2,10.8
						l0,0c4,0.3,8-0.1,11.8-1.4c0.6-0.2,1.3,0,1.7,0.5c0.4,0.5,0.4,1.2,0,1.7C70.5,89.5,59.9,95.1,48.7,95.1z M35.4,32.8
						c-10,4.7-16.8,14.4-17.7,25.7C16.4,75.6,29.2,90.6,46.3,92c9.6,0.8,19-3,25.4-10.1c-2.8,0.5-5.7,0.6-8.6,0.4
						c-9.1-0.7-17.4-4.9-23.3-11.8c-5.9-6.9-8.8-15.8-8.1-24.8C32.1,41.2,33.3,36.8,35.4,32.8z"/>
				</g>
			</g>
			<g>
				<g>
					<path class="st7" d="M107.9,88.6c0,20.7-22,37.4-49.2,37.4c-27.2,0-49.2-16.8-49.2-37.4c0-20.7,22-45.5,49.2-45.5
						C85.9,43.2,107.9,68,107.9,88.6z"/>
				</g>
				<g>
					<path class="st6" d="M107.9,88.6c0,20.7-22,37.4-49.2,37.4c-27.2,0-49.2-16.8-49.2-37.4c0-20.7,22-34.9,49.2-34.9
						C85.9,53.7,107.9,68,107.9,88.6z"/>
				</g>
				<g>
					<path class="st7" d="M69.1,82.8c0,1.4-4.7,1.6-10.5,1.6s-10.5-0.2-10.5-1.6c0-1.4,4.7-5,10.5-5C64.4,77.8,69.1,81.4,69.1,82.8z
						"/>
				</g>
				<g>
					<path class="st5" d="M107.9,88.6c0,20.7-22,37.4-49.2,37.4c-27.2,0-49.2-16.8-49.2-37.4C9.5,68,15.7,107,58.7,107
						C101.6,107,107.9,68,107.9,88.6z"/>
				</g>
				<g>
					<path class="st4" d="M58.7,127.6c-28,0-50.7-17.5-50.7-38.9c0-21.3,22.6-47,50.7-47s50.7,25.7,50.7,47
						C109.4,110.1,86.7,127.6,58.7,127.6z M58.7,44.7c-26.4,0-47.7,24-47.7,44c0,19.8,21.4,35.9,47.7,35.9s47.7-16.1,47.7-35.9
						C106.4,68.7,85.1,44.7,58.7,44.7z"/>
				</g>
			</g>
			<g>
				<path class="st8" d="M42.5,74.5c0,4.4-3.6,8.1-8.1,8.1s-8.1-3.6-8.1-8.1c0-4.4,3.6-8.1,8.1-8.1C38.9,66.5,42.5,70.1,42.5,74.5z"
					/>
			</g>
			<g>
				<circle class="st9" cx="30.5" cy="71.9" r="3.3"/>
			</g>
			<path class="st4" d="M34.5,65c-3.2,0-6.1,1.6-7.8,4.1c-0.1,0.2-0.2,0.3-0.3,0.5c-0.9,1.4-1.4,3.1-1.4,5c0,5.3,4.3,9.6,9.6,9.6
				c5.3,0,9.6-4.3,9.6-9.6S39.7,65,34.5,65z M34.5,81.1c-2.7,0-5.1-1.7-6-4c0.7,0,1.5-0.2,2.5-0.4c0.3,0,0.7-0.1,1-0.2
				c0.8-0.1,1.7-0.3,2.6-0.3c2.4,0,4.6,0.8,6,0.9C39.5,79.4,37.2,81.1,34.5,81.1z"/>
			<circle class="st9" cx="30.5" cy="71.9" r="1.8"/>
			<g>
				<path class="st8" d="M91,74.5c0,4.4-3.6,8.1-8.1,8.1c-4.4,0-8.1-3.6-8.1-8.1c0-4.4,3.6-8.1,8.1-8.1C87.4,66.5,91,70.1,91,74.5z"
					/>
			</g>
			<g>
				<circle class="st9" cx="78.9" cy="71.9" r="3.3"/>
			</g>
			<path class="st4" d="M82.9,65c-3.2,0-6.1,1.6-7.8,4.1c-0.1,0.1-0.2,0.3-0.3,0.5c-0.9,1.5-1.4,3.2-1.4,5c0,5.3,4.3,9.6,9.6,9.6
				c5.3,0,9.6-4.3,9.6-9.6S88.2,65,82.9,65z M82.9,81.1c-2.7,0-5.1-1.7-6-4c0.7,0,1.5-0.2,2.5-0.4c0.3,0,0.7-0.1,1-0.2
				c0.8-0.1,1.7-0.3,2.6-0.3c2.4,0,4.6,0.8,6,0.9C88,79.4,85.6,81.1,82.9,81.1z"/>
			<path class="st9" d="M78.9,70.2c-1,0-1.8,0.8-1.8,1.8c0,1,0.8,1.8,1.8,1.8c1,0,1.8-0.8,1.8-1.8C80.7,70.9,79.9,70.2,78.9,70.2z"
				/>
			<g>
				<g>
					<path class="st4" d="M56.2,90.8c-0.4,0-0.8-0.2-1.1-0.5l-1.5-1.6c-0.6-0.6-0.5-1.6,0.1-2.1c0.6-0.6,1.6-0.5,2.1,0.1l1.5,1.6
						c0.6,0.6,0.5,1.6-0.1,2.1C57,90.7,56.6,90.8,56.2,90.8z"/>
				</g>
				<g>
					<path class="st4" d="M61.2,90.8c-0.4,0-0.7-0.1-1-0.4c-0.6-0.6-0.6-1.5-0.1-2.1l1.5-1.6c0.6-0.6,1.5-0.6,2.1-0.1
						c0.6,0.6,0.6,1.5,0.1,2.1l-1.5,1.6C62,90.7,61.6,90.8,61.2,90.8z"/>
				</g>
			</g>
			<g>
				<polyline class="st9" points="36.5,94.3 31.4,97.3 31,91.4 				"/>
			</g>
			<g>
				<polyline class="st9" points="80.9,94.3 86,97.3 86.3,91.4 				"/>
			</g>
			<path class="st4" d="M89.6,85.5c-0.7-0.4-1.6-0.1-2,0.7c0,0.1-3.5,6.8-15,6.8c-0.2,0-0.3,0-0.5,0c-8-0.1-11.7,1.5-13.5,3.1
				c-1.7-1.6-5.4-3.2-13.5-3.1c-11.7,0.2-15.3-6.5-15.4-6.8c-0.4-0.7-1.3-1-2-0.7c-0.7,0.4-1.1,1.3-0.7,2c0.1,0.1,0.8,1.6,2.6,3.3
				c-0.1,0.2-0.2,0.5-0.2,0.7l0.4,5.9c0,0.5,0.3,1,0.8,1.2c0.2,0.1,0.5,0.2,0.7,0.2c0.3,0,0.5-0.1,0.8-0.2l5.1-3
				c0.2-0.1,0.4-0.3,0.5-0.5c2.1,0.6,4.6,0.9,7.6,0.9c9.1-0.1,11.7,2.2,11.9,3.1c0-0.1,0-0.1,0-0.1l1.5-0.1l1.5,0.1c0,0,0,0,0,0.1
				c0.2-0.9,2.8-3.2,11.9-3.1c2.9,0.1,5.4-0.3,7.6-0.9c0.1,0.2,0.3,0.4,0.5,0.5l5.1,3c0.2,0.1,0.5,0.2,0.8,0.2
				c0.2,0,0.5-0.1,0.7-0.2c0.5-0.2,0.8-0.7,0.8-1.2l0.4-5.9c0-0.3,0-0.5-0.2-0.7c1.8-1.7,2.5-3.1,2.6-3.3
				C90.6,86.8,90.3,85.9,89.6,85.5z M32.8,94.7L32.6,93c0.5,0.3,1,0.6,1.6,0.9L32.8,94.7z M84.6,94.7l-1.5-0.9
				c0.6-0.3,1.1-0.6,1.6-0.9L84.6,94.7z"/>
			<g>
				<g>
					<path class="st0" d="M46.3,15.8c0,5.9-3,11.2-7.5,14.3c-4.5-3.2-7.5-8.4-7.5-14.3c0-5.9,3-11.2,7.5-14.3
						C43.3,4.7,46.3,9.9,46.3,15.8z"/>
				</g>
				<g>
					<path class="st1" d="M38.8,30.1c-4.5-3.2-7.5-8.4-7.5-14.3c0-5.9,3-11.2,7.5-14.3"/>
				</g>
				<g>
					<path class="st2" d="M43.9,19.6c0,4-2,7.5-5.1,9.7c-3.1-2.1-5.1-5.7-5.1-9.7c0-4,2-7.5,5.1-9.7C41.9,12.1,43.9,15.6,43.9,19.6z
						"/>
				</g>
				<g>
					<path class="st3" d="M38.8,29.3c-3.1-2.1-5.1-5.7-5.1-9.7c0-4,2-7.5,5.1-9.7"/>
				</g>
				<g>
					<path class="st4" d="M38.8,31.6c-0.3,0-0.6-0.1-0.9-0.3c-5.1-3.5-8.1-9.4-8.1-15.5c0-6.2,3-12,8.1-15.5c0.5-0.4,1.2-0.4,1.7,0
						c5.1,3.5,8.1,9.4,8.1,15.5c0,6.2-3,12-8.1,15.5C39.4,31.5,39.1,31.6,38.8,31.6z M38.8,3.4c-3.8,3-6,7.6-6,12.4s2.2,9.4,6,12.4
						c3.8-3,6-7.6,6-12.4C44.8,11,42.6,6.4,38.8,3.4z"/>
				</g>
			</g>
			<g>
				<g>
					<path class="st0" d="M98.4,25c0,5.9-3,11.2-7.5,14.3c-4.5-3.2-7.5-8.4-7.5-14.3s3-11.2,7.5-14.3C95.5,13.9,98.4,19.1,98.4,25z"
						/>
				</g>
				<g>
					<path class="st1" d="M91,39.4c-4.5-3.2-7.5-8.4-7.5-14.3s3-11.2,7.5-14.3"/>
				</g>
				<g>
					<path class="st2" d="M96,28.8c0,4-2,7.5-5.1,9.7c-3.1-2.1-5.1-5.7-5.1-9.7c0-4,2-7.5,5.1-9.7C94,21.3,96,24.8,96,28.8z"/>
				</g>
				<g>
					<path class="st3" d="M91,38.5c-3.1-2.1-5.1-5.7-5.1-9.7c0-4,2-7.5,5.1-9.7"/>
				</g>
				<g>
					<path class="st4" d="M91,40.9c-0.3,0-0.6-0.1-0.9-0.3C85,37,82,31.2,82,25c0-6.2,3-12,8.1-15.5c0.5-0.4,1.2-0.4,1.7,0
						c5.1,3.5,8.1,9.4,8.1,15.5c0,6.2-3,12-8.1,15.5C91.6,40.8,91.3,40.9,91,40.9z M91,12.6c-3.8,3-6,7.6-6,12.4s2.2,9.4,6,12.4
						c3.8-3,6-7.6,6-12.4C96.9,20.2,94.7,15.6,91,12.6z"/>
				</g>
			</g>
			<g>
				<g>
					<path class="st0" d="M118.1,48.7c0,5.9-3,11.2-7.5,14.3c-4.5-3.2-7.5-8.4-7.5-14.3s3-11.2,7.5-14.3
						C115.1,37.6,118.1,42.8,118.1,48.7z"/>
				</g>
				<g>
					<path class="st1" d="M110.6,63.1c-4.5-3.2-7.5-8.4-7.5-14.3s3-11.2,7.5-14.3"/>
				</g>
				<g>
					<path class="st2" d="M115.7,52.5c0,4-2,7.5-5.1,9.7c-3.1-2.1-5.1-5.7-5.1-9.7c0-4,2-7.5,5.1-9.7
						C113.7,45,115.7,48.5,115.7,52.5z"/>
				</g>
				<g>
					<path class="st3" d="M110.6,62.2c-3.1-2.1-5.1-5.7-5.1-9.7c0-4,2-7.5,5.1-9.7"/>
				</g>
				<g>
					<path class="st4" d="M110.6,64.6c-0.3,0-0.6-0.1-0.9-0.3c-5.1-3.5-8.1-9.4-8.1-15.5c0-6.2,3-12,8.1-15.5c0.5-0.4,1.2-0.4,1.7,0
						c5.1,3.5,8.1,9.4,8.1,15.5c0,6.2-3,12-8.1,15.5C111.2,64.5,110.9,64.6,110.6,64.6z M110.6,36.3c-3.8,3-6,7.6-6,12.4
						s2.2,9.4,6,12.4c3.8-3,6-7.6,6-12.4C116.6,43.9,114.4,39.3,110.6,36.3z"/>
				</g>
			</g>
		</g>
	</g>
	<defs>
		<filter id="Adobe_OpacityMaskFilter" filterUnits="userSpaceOnUse" x="8" y="0" width="111.6" height="127.6">
			<feFlood  style="flood-color:white;flood-opacity:1" result="back"/>
			<feBlend  in="SourceGraphic" in2="back" mode="normal"/>
		</filter>
	</defs>
	<mask maskUnits="userSpaceOnUse" x="8" y="0" width="111.6" height="127.6" id="SVGID_1_">
		<g class="st10">
			
				<image style="overflow:visible;" width="117" height="132" xlink:href="192A7DD9599E41D7.jpg"  transform="matrix(1 0 0 1 5 -2.416)">
			</image>
		</g>
	</mask>
	<g class="st11">
		<g>
			<g>
				<g>
					<g>
						<path class="st12" d="M39.1,13.4c-3,5.1-3,11.1-0.7,16.1c5.5-0.5,10.7-3.5,13.6-8.7c3-5.1,3-11.1,0.7-16.1
							C47.3,5.2,42.1,8.2,39.1,13.4z"/>
					</g>
					<g>
						<path class="st12" d="M38.5,29.5c5.5-0.5,10.7-3.5,13.6-8.7c3-5.1,3-11.1,0.7-16.1"/>
					</g>
					<g>
						<path class="st12" d="M39.3,17.9c-2,3.5-2,7.5-0.5,10.9c3.7-0.3,7.2-2.4,9.2-5.8c2-3.5,2-7.5,0.5-10.9
							C44.8,12.3,41.3,14.4,39.3,17.9z"/>
					</g>
					<g>
						<path class="st12" d="M38.9,28.8c3.7-0.3,7.2-2.4,9.2-5.8c2-3.5,2-7.5,0.5-10.9"/>
					</g>
					<g>
						<path class="st12" d="M38.5,31c-0.6,0-1.1-0.3-1.4-0.9c-2.6-5.6-2.4-12.2,0.7-17.5l0,0c3.1-5.4,8.6-8.9,14.8-9.4
							c0.6-0.1,1.2,0.3,1.5,0.9c2.6,5.6,2.4,12.2-0.7,17.5c-3.1,5.4-8.6,8.9-14.8,9.4C38.5,31,38.5,31,38.5,31z M51.8,6.3
							c-4.8,0.7-9,3.6-11.4,7.8l0,0c-2.4,4.2-2.8,9.3-1,13.8c4.8-0.7,9-3.6,11.4-7.8C53.2,15.9,53.6,10.8,51.8,6.3z"/>
					</g>
				</g>
				<g>
					<g>
						<path class="st12" d="M47.5,16.1c-5.1,3-8.2,8.1-8.7,13.6c5,2.3,11,2.3,16.1-0.7c5.1-3,8.2-8.1,8.7-13.6
							C58.7,13.1,52.7,13.1,47.5,16.1z"/>
					</g>
					<g>
						<path class="st12" d="M38.9,29.7c5,2.3,11,2.3,16.1-0.7c5.1-3,8.2-8.1,8.7-13.6"/>
					</g>
					<g>
						<path class="st12" d="M45.5,20.1c-3.5,2-5.5,5.5-5.8,9.2c3.4,1.6,7.4,1.5,10.9-0.5c3.5-2,5.5-5.5,5.8-9.2
							C53,18.1,48.9,18.1,45.5,20.1z"/>
					</g>
					<g>
						<path class="st12" d="M39.6,29.3c3.4,1.6,7.4,1.5,10.9-0.5c3.5-2,5.5-5.5,5.8-9.2"/>
					</g>
					<g>
						<path class="st12" d="M46.3,32.9c-2.7,0-5.5-0.6-8.1-1.8c-0.6-0.3-0.9-0.9-0.9-1.5c0.5-6.2,4-11.7,9.4-14.8l0,0
							c5.4-3.1,11.9-3.4,17.5-0.7c0.6,0.3,0.9,0.9,0.9,1.5c-0.5,6.2-4,11.7-9.4,14.8C52.9,32.1,49.6,32.9,46.3,32.9z M40.5,28.8
							c4.5,1.7,9.6,1.4,13.8-1c4.2-2.4,7.1-6.6,7.8-11.4c-4.5-1.8-9.6-1.4-13.8,1c0,0,0,0,0,0C44.1,19.8,41.2,24,40.5,28.8z"/>
					</g>
				</g>
			</g>
			<g>
				<g>
					<path class="st12" d="M63.2,80.8c-18-1.4-31.4-17.1-30-35.1c0.5-5.9,2.5-11.4,5.7-15.9c-12.3,3.9-21.6,14.9-22.7,28.6
						c-1.4,18,12,33.7,30,35.1c12,0.9,23-4.8,29.4-14.1C71.7,80.6,67.6,81.2,63.2,80.8z"/>
				</g>
				<g>
					<path class="st12" d="M30.9,33.6c-3,4.5-5,9.8-5.4,15.6c-1.4,18,12,33.7,30,35.1c7.2,0.6,13.9-1.3,19.6-4.8
						c-3.7,1.1-7.7,1.6-11.9,1.3c-18-1.4-31.4-17.1-30-35.1c0.5-5.9,2.5-11.4,5.7-15.9C36.1,30.7,33.4,32,30.9,33.6z"/>
				</g>
				<g>
					<path class="st12" d="M48.7,95.1c-0.9,0-1.7,0-2.6-0.1C27.3,93.5,13.3,77,14.7,58.3c1.1-13.9,10.4-25.7,23.7-29.9
						c0.6-0.2,1.3,0,1.7,0.5c0.4,0.5,0.4,1.2,0,1.7c-3.1,4.5-5,9.8-5.4,15.2c-0.6,8.3,2,16.3,7.4,22.7c5.4,6.3,12.9,10.2,21.2,10.8
						l0,0c4,0.3,8-0.1,11.8-1.4c0.6-0.2,1.3,0,1.7,0.5c0.4,0.5,0.4,1.2,0,1.7C70.5,89.5,59.9,95.1,48.7,95.1z M35.4,32.8
						c-10,4.7-16.8,14.4-17.7,25.7C16.4,75.6,29.2,90.6,46.3,92c9.6,0.8,19-3,25.4-10.1c-2.8,0.5-5.7,0.6-8.6,0.4
						c-9.1-0.7-17.4-4.9-23.3-11.8c-5.9-6.9-8.8-15.8-8.1-24.8C32.1,41.2,33.3,36.8,35.4,32.8z"/>
				</g>
			</g>
			<g>
				<g>
					<path class="st12" d="M107.9,88.6c0,20.7-22,37.4-49.2,37.4c-27.2,0-49.2-16.8-49.2-37.4c0-20.7,22-45.5,49.2-45.5
						C85.9,43.2,107.9,68,107.9,88.6z"/>
				</g>
				<g>
					<path class="st12" d="M107.9,88.6c0,20.7-22,37.4-49.2,37.4c-27.2,0-49.2-16.8-49.2-37.4c0-20.7,22-34.9,49.2-34.9
						C85.9,53.7,107.9,68,107.9,88.6z"/>
				</g>
				<g>
					<path class="st12" d="M69.1,82.8c0,1.4-4.7,1.6-10.5,1.6s-10.5-0.2-10.5-1.6c0-1.4,4.7-5,10.5-5C64.4,77.8,69.1,81.4,69.1,82.8
						z"/>
				</g>
				<g>
					<path class="st12" d="M107.9,88.6c0,20.7-22,37.4-49.2,37.4c-27.2,0-49.2-16.8-49.2-37.4C9.5,68,15.7,107,58.7,107
						C101.6,107,107.9,68,107.9,88.6z"/>
				</g>
				<g>
					<path class="st12" d="M58.7,127.6c-28,0-50.7-17.5-50.7-38.9c0-21.3,22.6-47,50.7-47s50.7,25.7,50.7,47
						C109.4,110.1,86.7,127.6,58.7,127.6z M58.7,44.7c-26.4,0-47.7,24-47.7,44c0,19.8,21.4,35.9,47.7,35.9s47.7-16.1,47.7-35.9
						C106.4,68.7,85.1,44.7,58.7,44.7z"/>
				</g>
			</g>
			<g>
				<path class="st12" d="M42.5,74.5c0,4.4-3.6,8.1-8.1,8.1s-8.1-3.6-8.1-8.1c0-4.4,3.6-8.1,8.1-8.1C38.9,66.5,42.5,70.1,42.5,74.5z
					"/>
			</g>
			<g>
				<circle class="st12" cx="30.5" cy="71.9" r="3.3"/>
			</g>
			<path class="st12" d="M34.5,65c-3.2,0-6.1,1.6-7.8,4.1c-0.1,0.2-0.2,0.3-0.3,0.5c-0.9,1.4-1.4,3.1-1.4,5c0,5.3,4.3,9.6,9.6,9.6
				c5.3,0,9.6-4.3,9.6-9.6S39.7,65,34.5,65z M34.5,81.1c-2.7,0-5.1-1.7-6-4c0.7,0,1.5-0.2,2.5-0.4c0.3,0,0.7-0.1,1-0.2
				c0.8-0.1,1.7-0.3,2.6-0.3c2.4,0,4.6,0.8,6,0.9C39.5,79.4,37.2,81.1,34.5,81.1z"/>
			<circle class="st12" cx="30.5" cy="71.9" r="1.8"/>
			<g>
				<path class="st12" d="M91,74.5c0,4.4-3.6,8.1-8.1,8.1c-4.4,0-8.1-3.6-8.1-8.1c0-4.4,3.6-8.1,8.1-8.1C87.4,66.5,91,70.1,91,74.5z
					"/>
			</g>
			<g>
				<circle class="st12" cx="78.9" cy="71.9" r="3.3"/>
			</g>
			<path class="st12" d="M82.9,65c-3.2,0-6.1,1.6-7.8,4.1c-0.1,0.1-0.2,0.3-0.3,0.5c-0.9,1.5-1.4,3.2-1.4,5c0,5.3,4.3,9.6,9.6,9.6
				c5.3,0,9.6-4.3,9.6-9.6S88.2,65,82.9,65z M82.9,81.1c-2.7,0-5.1-1.7-6-4c0.7,0,1.5-0.2,2.5-0.4c0.3,0,0.7-0.1,1-0.2
				c0.8-0.1,1.7-0.3,2.6-0.3c2.4,0,4.6,0.8,6,0.9C88,79.4,85.6,81.1,82.9,81.1z"/>
			<path class="st12" d="M78.9,70.2c-1,0-1.8,0.8-1.8,1.8c0,1,0.8,1.8,1.8,1.8c1,0,1.8-0.8,1.8-1.8C80.7,70.9,79.9,70.2,78.9,70.2z"
				/>
			<g>
				<g>
					<path class="st12" d="M56.2,90.8c-0.4,0-0.8-0.2-1.1-0.5l-1.5-1.6c-0.6-0.6-0.5-1.6,0.1-2.1c0.6-0.6,1.6-0.5,2.1,0.1l1.5,1.6
						c0.6,0.6,0.5,1.6-0.1,2.1C57,90.7,56.6,90.8,56.2,90.8z"/>
				</g>
				<g>
					<path class="st12" d="M61.2,90.8c-0.4,0-0.7-0.1-1-0.4c-0.6-0.6-0.6-1.5-0.1-2.1l1.5-1.6c0.6-0.6,1.5-0.6,2.1-0.1
						c0.6,0.6,0.6,1.5,0.1,2.1l-1.5,1.6C62,90.7,61.6,90.8,61.2,90.8z"/>
				</g>
			</g>
			<g>
				<polyline class="st12" points="36.5,94.3 31.4,97.3 31,91.4 				"/>
			</g>
			<g>
				<polyline class="st12" points="80.9,94.3 86,97.3 86.3,91.4 				"/>
			</g>
			<path class="st12" d="M89.6,85.5c-0.7-0.4-1.6-0.1-2,0.7c0,0.1-3.5,6.8-15,6.8c-0.2,0-0.3,0-0.5,0c-8-0.1-11.7,1.5-13.5,3.1
				c-1.7-1.6-5.4-3.2-13.5-3.1c-11.7,0.2-15.3-6.5-15.4-6.8c-0.4-0.7-1.3-1-2-0.7c-0.7,0.4-1.1,1.3-0.7,2c0.1,0.1,0.8,1.6,2.6,3.3
				c-0.1,0.2-0.2,0.5-0.2,0.7l0.4,5.9c0,0.5,0.3,1,0.8,1.2c0.2,0.1,0.5,0.2,0.7,0.2c0.3,0,0.5-0.1,0.8-0.2l5.1-3
				c0.2-0.1,0.4-0.3,0.5-0.5c2.1,0.6,4.6,0.9,7.6,0.9c9.1-0.1,11.7,2.2,11.9,3.1c0-0.1,0-0.1,0-0.1l1.5-0.1l1.5,0.1c0,0,0,0,0,0.1
				c0.2-0.9,2.8-3.2,11.9-3.1c2.9,0.1,5.4-0.3,7.6-0.9c0.1,0.2,0.3,0.4,0.5,0.5l5.1,3c0.2,0.1,0.5,0.2,0.8,0.2
				c0.2,0,0.5-0.1,0.7-0.2c0.5-0.2,0.8-0.7,0.8-1.2l0.4-5.9c0-0.3,0-0.5-0.2-0.7c1.8-1.7,2.5-3.1,2.6-3.3
				C90.6,86.8,90.3,85.9,89.6,85.5z M32.8,94.7L32.6,93c0.5,0.3,1,0.6,1.6,0.9L32.8,94.7z M84.6,94.7l-1.5-0.9
				c0.6-0.3,1.1-0.6,1.6-0.9L84.6,94.7z"/>
			<g>
				<g>
					<path class="st12" d="M46.3,15.8c0,5.9-3,11.2-7.5,14.3c-4.5-3.2-7.5-8.4-7.5-14.3c0-5.9,3-11.2,7.5-14.3
						C43.3,4.7,46.3,9.9,46.3,15.8z"/>
				</g>
				<g>
					<path class="st12" d="M38.8,30.1c-4.5-3.2-7.5-8.4-7.5-14.3c0-5.9,3-11.2,7.5-14.3"/>
				</g>
				<g>
					<path class="st12" d="M43.9,19.6c0,4-2,7.5-5.1,9.7c-3.1-2.1-5.1-5.7-5.1-9.7c0-4,2-7.5,5.1-9.7C41.9,12.1,43.9,15.6,43.9,19.6
						z"/>
				</g>
				<g>
					<path class="st12" d="M38.8,29.3c-3.1-2.1-5.1-5.7-5.1-9.7c0-4,2-7.5,5.1-9.7"/>
				</g>
				<g>
					<path class="st12" d="M38.8,31.6c-0.3,0-0.6-0.1-0.9-0.3c-5.1-3.5-8.1-9.4-8.1-15.5c0-6.2,3-12,8.1-15.5c0.5-0.4,1.2-0.4,1.7,0
						c5.1,3.5,8.1,9.4,8.1,15.5c0,6.2-3,12-8.1,15.5C39.4,31.5,39.1,31.6,38.8,31.6z M38.8,3.4c-3.8,3-6,7.6-6,12.4s2.2,9.4,6,12.4
						c3.8-3,6-7.6,6-12.4C44.8,11,42.6,6.4,38.8,3.4z"/>
				</g>
			</g>
			<g>
				<g>
					<path class="st12" d="M98.4,25c0,5.9-3,11.2-7.5,14.3c-4.5-3.2-7.5-8.4-7.5-14.3s3-11.2,7.5-14.3C95.5,13.9,98.4,19.1,98.4,25z
						"/>
				</g>
				<g>
					<path class="st12" d="M91,39.4c-4.5-3.2-7.5-8.4-7.5-14.3s3-11.2,7.5-14.3"/>
				</g>
				<g>
					<path class="st12" d="M96,28.8c0,4-2,7.5-5.1,9.7c-3.1-2.1-5.1-5.7-5.1-9.7c0-4,2-7.5,5.1-9.7C94,21.3,96,24.8,96,28.8z"/>
				</g>
				<g>
					<path class="st12" d="M91,38.5c-3.1-2.1-5.1-5.7-5.1-9.7c0-4,2-7.5,5.1-9.7"/>
				</g>
				<g>
					<path class="st12" d="M91,40.9c-0.3,0-0.6-0.1-0.9-0.3C85,37,82,31.2,82,25c0-6.2,3-12,8.1-15.5c0.5-0.4,1.2-0.4,1.7,0
						c5.1,3.5,8.1,9.4,8.1,15.5c0,6.2-3,12-8.1,15.5C91.6,40.8,91.3,40.9,91,40.9z M91,12.6c-3.8,3-6,7.6-6,12.4s2.2,9.4,6,12.4
						c3.8-3,6-7.6,6-12.4C96.9,20.2,94.7,15.6,91,12.6z"/>
				</g>
			</g>
			<g>
				<g>
					<path class="st12" d="M118.1,48.7c0,5.9-3,11.2-7.5,14.3c-4.5-3.2-7.5-8.4-7.5-14.3s3-11.2,7.5-14.3
						C115.1,37.6,118.1,42.8,118.1,48.7z"/>
				</g>
				<g>
					<path class="st12" d="M110.6,63.1c-4.5-3.2-7.5-8.4-7.5-14.3s3-11.2,7.5-14.3"/>
				</g>
				<g>
					<path class="st12" d="M115.7,52.5c0,4-2,7.5-5.1,9.7c-3.1-2.1-5.1-5.7-5.1-9.7c0-4,2-7.5,5.1-9.7
						C113.7,45,115.7,48.5,115.7,52.5z"/>
				</g>
				<g>
					<path class="st12" d="M110.6,62.2c-3.1-2.1-5.1-5.7-5.1-9.7c0-4,2-7.5,5.1-9.7"/>
				</g>
				<g>
					<path class="st12" d="M110.6,64.6c-0.3,0-0.6-0.1-0.9-0.3c-5.1-3.5-8.1-9.4-8.1-15.5c0-6.2,3-12,8.1-15.5
						c0.5-0.4,1.2-0.4,1.7,0c5.1,3.5,8.1,9.4,8.1,15.5c0,6.2-3,12-8.1,15.5C111.2,64.5,110.9,64.6,110.6,64.6z M110.6,36.3
						c-3.8,3-6,7.6-6,12.4s2.2,9.4,6,12.4c3.8-3,6-7.6,6-12.4C116.6,43.9,114.4,39.3,110.6,36.3z"/>
				</g>
			</g>
		</g>
	</g>
</g>
</svg>
