<?xml version="1.0" encoding="utf-8"?>
<!-- Generator: Adobe Illustrator 21.1.0, SVG Export Plug-In . SVG Version: 6.00 Build 0)  -->
<svg version="1.1" id="Layer_1" xmlns="http://www.w3.org/2000/svg" xmlns:xlink="http://www.w3.org/1999/xlink" x="0px" y="0px"
	 viewBox="0 0 128 128" style="enable-background:new 0 0 128 128;" xml:space="preserve">
<style type="text/css">
	.st0{fill:#43B530;}
	.st1{fill:#107510;}
	.st2{fill:#1A8E1C;}
	.st3{fill:#33363A;}
	.st4{fill:#80EDAC;}
	.st5{fill:#6ADB9A;}
	.st6{fill:#47C67B;}
	.st7{fill:#BA503A;}
	.st8{fill:#AD2707;}
	.st9{fill:#FFFFFF;}
	.st10{fill:#9CFFC4;}
	.st11{filter:url(#Adobe_OpacityMaskFilter);}
	.st12{opacity:0.75;mask:url(#SVGID_1_);}
	.st13{fill:#00CC00;}
</style>
<g>
	<g>
		<g>
			<g>
				<g>
					<path class="st0" d="M112.8,38.5c18.4,18.4,18.4,35.7,0,54c-18.4,18.4-79.1,18.4-97.5,0c-18.4-18.4-18.4-35.7,0-54
						C63.8-10.1,64.2-10.1,112.8,38.5z"/>
				</g>
				<g>
					<path class="st1" d="M15.3,45.1c-8,8-12.6,15.9-13.6,23.7c1,7.8,5.5,15.7,13.6,23.7c18.4,18.4,79.1,18.4,97.5,0
						c8-8,12.6-15.9,13.6-23.7c-1-7.8-5.5-15.7-13.6-23.7C64.2-3.4,63.8-3.4,15.3,45.1z"/>
				</g>
				<g>
					<path class="st2" d="M15.3,45.1c-5,5-8.6,9.9-10.9,14.8c2.3,4.9,5.9,9.8,10.9,14.8c18.4,18.4,79.1,18.4,97.5,0
						c5-5,8.6-9.9,10.9-14.8c-2.3-4.9-5.9-9.8-10.9-14.8C64.2-3.4,63.8-3.4,15.3,45.1z"/>
				</g>
				<g>
					<path class="st3" d="M64,107.8C64,107.8,64,107.8,64,107.8c-22,0-41-5.4-49.8-14.2C4.6,84,0,74.8,0,65.5S4.6,47,14.2,37.4
						C38.7,12.9,51.1,0.6,64,0.6s25.3,12.3,49.8,36.9C123.4,47,128,56.2,128,65.5s-4.6,18.5-14.2,28.1
						C105.1,102.3,86,107.8,64,107.8z M64,3.6c-11.7,0-24.5,12.8-47.7,36C7.4,48.5,3,57,3,65.5c0,8.5,4.4,17,13.3,25.9
						c8.2,8.2,26.5,13.3,47.7,13.3c21.2,0,39.5-5.1,47.7-13.3c9-9,13.3-17.5,13.3-25.9c0-8.5-4.4-17-13.3-26l0,0
						C88.5,16.4,75.7,3.6,64,3.6z"/>
				</g>
			</g>
			<g>
				<g>
					<path class="st0" d="M86.8,38.5c8.6,18.4,8.6,35.7,0,54c-8.6,18.4-37.1,18.4-45.6,0c-8.6-18.4-8.6-35.7,0-54
						C63.9-10.1,64.1-10.1,86.8,38.5z"/>
				</g>
				<g>
					<path class="st2" d="M43.7,45.1c-3.8,8-8.4,15.9-8.8,23.7c0.5,7.8,2.6,15.7,6.3,23.7c8.6,18.4,37,18.4,45.6,0
						c3.8-8,5.9-15.9,6.3-23.7c-0.5-7.8-5.1-15.7-8.8-23.7C61.6-3.4,66.4-3.4,43.7,45.1z"/>
				</g>
				<g>
					<path class="st3" d="M64,107.8C64,107.8,64,107.8,64,107.8c-10.7,0-20-5.6-24.2-14.6c-8.8-18.9-8.8-36.4,0-55.3
						C51.8,12.3,57.3,0.6,64,0.6l0,0c6.7,0,12.2,11.7,24.2,37.3c8.8,18.9,8.8,36.4,0,55.3C84,102.2,74.7,107.8,64,107.8z M64,3.6
						c-4.8,0-11.1,13.4-21.5,35.5c-8.4,18-8.4,34.8,0,52.8c3.7,8,12,12.9,21.5,12.9s17.7-4.9,21.5-12.9c8.4-18,8.4-34.8,0-52.8l0,0
						C75.1,17,68.8,3.6,64,3.6z"/>
				</g>
			</g>
			<g>
				<path class="st4" d="M113.2,88.5c0,20.7-22,37.4-49.2,37.4c-27.2,0-49.2-16.8-49.2-37.4c0-20.7,22-45.5,49.2-45.5
					C91.2,43.1,113.2,67.8,113.2,88.5z"/>
			</g>
			<g>
				<path class="st5" d="M113.2,88.5c0,20.7-22,37.4-49.2,37.4c-27.2,0-49.2-16.8-49.2-37.4c0-20.7,22-34.9,49.2-34.9
					C91.2,53.6,113.2,67.8,113.2,88.5z"/>
			</g>
			<g>
				<path class="st4" d="M74.5,91.6c0,1.4-4.7,1.6-10.5,1.6S53.5,93,53.5,91.6c0-1.4,4.7-5,10.5-5S74.5,90.2,74.5,91.6z"/>
			</g>
			<g>
				<path class="st6" d="M113.2,88.5c0,20.7-22,37.4-49.2,37.4c-27.2,0-49.2-16.8-49.2-37.4c0-20.7,6.3,18.3,49.2,18.3
					S113.2,67.8,113.2,88.5z"/>
			</g>
			<g>
				<path class="st7" d="M77.6,103.1c0,3.9-6.1,7-13.6,7s-13.6-3.2-13.6-7"/>
			</g>
			<g>
				<path class="st3" d="M64,127.5c-28,0-50.7-17.5-50.7-38.9c0-21.3,22.6-47,50.7-47s50.7,25.7,50.7,47
					C114.7,110,92,127.5,64,127.5z M64,44.6c-26.4,0-47.7,24-47.7,44c0,19.8,21.4,35.9,47.7,35.9s47.7-16.1,47.7-35.9
					C111.7,68.6,90.4,44.6,64,44.6z"/>
			</g>
			<g>
				<path class="st8" d="M47.9,84.7c0,4.4-3.6,8.1-8.1,8.1s-8.1-3.6-8.1-8.1c0-4.4,3.6-8.1,8.1-8.1C44.3,76.6,47.9,80.2,47.9,84.7z"
					/>
			</g>
			<g>
				<circle class="st9" cx="35.8" cy="82.1" r="3.3"/>
			</g>
			<path class="st3" d="M39.8,75.1c-3.2,0-6.1,1.6-7.8,4.1c-0.1,0.2-0.2,0.3-0.3,0.5c-0.9,1.4-1.4,3.1-1.4,5c0,5.3,4.3,9.6,9.6,9.6
				c5.3,0,9.6-4.3,9.6-9.6S45.1,75.1,39.8,75.1z M39.8,91.2c-2.7,0-5.1-1.7-6-4c0.7,0,1.5-0.2,2.5-0.4c0.3,0,0.7-0.1,1-0.2
				c0.8-0.1,1.7-0.3,2.6-0.3c2.4,0,4.6,0.8,6,0.9C44.9,89.6,42.5,91.2,39.8,91.2z"/>
			<circle class="st9" cx="35.8" cy="82.1" r="1.8"/>
			<g>
				<path class="st8" d="M96.3,84.7c0,4.4-3.6,8.1-8.1,8.1s-8.1-3.6-8.1-8.1c0-4.4,3.6-8.1,8.1-8.1C92.7,76.6,96.3,80.2,96.3,84.7z"
					/>
			</g>
			<g>
				<circle class="st9" cx="84.2" cy="82.1" r="3.3"/>
			</g>
			<path class="st3" d="M88.2,75.1c-3.2,0-6.1,1.6-7.8,4.1c-0.1,0.1-0.2,0.3-0.3,0.5c-0.9,1.5-1.4,3.2-1.4,5c0,5.3,4.3,9.6,9.6,9.6
				c5.3,0,9.6-4.3,9.6-9.6S93.5,75.1,88.2,75.1z M88.2,91.2c-2.7,0-5.1-1.7-6-4c0.7,0,1.5-0.2,2.5-0.4c0.3,0,0.7-0.1,1-0.2
				c0.8-0.1,1.7-0.3,2.6-0.3c2.4,0,4.6,0.8,6,0.9C93.3,89.6,91,91.2,88.2,91.2z"/>
			<path class="st9" d="M84.2,80.3c-1,0-1.8,0.8-1.8,1.8c0,1,0.8,1.8,1.8,1.8c1,0,1.8-0.8,1.8-1.8C86,81.1,85.2,80.3,84.2,80.3z"/>
			<g>
				<g>
					<path class="st3" d="M61.6,98.2c-0.4,0-0.8-0.2-1.1-0.5L59,96.2c-0.6-0.6-0.5-1.6,0.1-2.1c0.6-0.6,1.6-0.5,2.1,0.1l1.5,1.6
						c0.6,0.6,0.5,1.6-0.1,2.1C62.3,98.1,61.9,98.2,61.6,98.2z"/>
				</g>
				<g>
					<path class="st3" d="M66.5,98.2c-0.4,0-0.7-0.1-1-0.4c-0.6-0.6-0.6-1.5-0.1-2.1l1.5-1.6c0.6-0.6,1.5-0.6,2.1-0.1
						c0.6,0.6,0.6,1.5,0.1,2.1l-1.5,1.6C67.3,98.1,66.9,98.2,66.5,98.2z"/>
				</g>
			</g>
			<g>
				<g>
					<g>
						<path class="st10" d="M33.5,57.2c2.6-1.8,5.4-3.1,8.1-3.7c0.4-2.5,0-4.8-1.3-6.7c-2.9-4.1-9.3-4.8-15.6-2.1
							c-4.7,5-6.2,11.3-3.3,15.4c1.3,1.9,3.4,3.1,5.9,3.5C28.9,61.3,31,59.1,33.5,57.2z"/>
					</g>
					<g>
						<path class="st4" d="M36.7,49.4c-2.6-3.7-8-4.6-13.6-2.8c-3.4,4.6-4.2,9.9-1.7,13.5c1.1,1.6,2.8,2.6,4.7,3.2
							c1.1-1.2,2.7-0.2,4.1-1.2c0.4-0.3,0.6-2.7,1-3c0.7-0.6,1.5-1.3,2.3-1.8c1.5-1.1,3.1-1.9,4.6-2.6C38.2,52.8,37.8,51,36.7,49.4z
							"/>
					</g>
					<g>
						<path class="st3" d="M27.3,65.1c-0.1,0-0.2,0-0.3,0c-3-0.5-5.4-2-6.9-4.1c-3.3-4.6-1.9-11.6,3.4-17.3c0.1-0.2,0.3-0.3,0.5-0.4
							c7.1-3.1,14.1-2,17.4,2.6c1.5,2.2,2.1,4.9,1.6,7.9c-0.1,0.8-0.9,1.4-1.7,1.2c-0.8-0.1-1.4-0.9-1.2-1.7c0.4-2.2,0-4.1-1.1-5.6
							c-2.4-3.3-7.9-4-13.5-1.7c-4.1,4.5-5.3,9.9-2.9,13.3c1.1,1.5,2.8,2.5,4.9,2.9c0.8,0.1,1.4,0.9,1.2,1.7
							C28.7,64.6,28,65.1,27.3,65.1z"/>
					</g>
				</g>
				<g>
					<g>
						<path class="st10" d="M94.5,57.2c-2.6-1.8-5.4-3.1-8.1-3.7c-0.4-2.5,0-4.8,1.3-6.7c2.9-4.1,9.3-4.8,15.6-2.1
							c4.7,5,6.2,11.3,3.3,15.4c-1.3,1.9-3.4,3.1-5.9,3.5C99.2,61.3,97.1,59.1,94.5,57.2z"/>
					</g>
					<g>
						<path class="st4" d="M91.3,49.4c2.6-3.7,8-4.6,13.6-2.8c3.4,4.6,4.2,9.9,1.7,13.5c-1.1,1.6-2.8,2.6-4.7,3.2
							c-1.1-1.2-2.7-0.2-4.1-1.2c-0.4-0.3-0.6-2.7-1-3c-0.7-0.6-1.5-1.3-2.3-1.8c-1.5-1.1-3.1-1.9-4.6-2.6
							C89.8,52.8,90.3,51,91.3,49.4z"/>
					</g>
					<g>
						<path class="st3" d="M100.7,65.1c-0.7,0-1.3-0.5-1.5-1.2c-0.1-0.8,0.4-1.6,1.2-1.7c2.2-0.4,3.9-1.4,4.9-2.9
							c2.4-3.3,1.1-8.8-2.9-13.3c-5.6-2.3-11.1-1.6-13.5,1.7c-1.1,1.5-1.4,3.4-1.1,5.6c0.1,0.8-0.4,1.6-1.2,1.7
							c-0.8,0.1-1.6-0.4-1.7-1.2c-0.5-3,0-5.7,1.6-7.9c3.3-4.6,10.3-5.7,17.4-2.6c0.2,0.1,0.4,0.2,0.5,0.4
							c5.3,5.7,6.7,12.6,3.4,17.3c-1.5,2.2-3.9,3.6-6.9,4.1C100.9,65.1,100.8,65.1,100.7,65.1z"/>
					</g>
				</g>
			</g>
			<g>
				<path class="st6" d="M57.6,69c-4.2,0-7.6-3.4-7.6-7.6c0-4.2,5.3-5.7,9.5-5.7s5.7,1.5,5.7,5.7C65.1,65.6,61.7,69,57.6,69z"/>
			</g>
			<g>
				<circle class="st6" cx="72.5" cy="66.4" r="2.7"/>
			</g>
			<g>
				<circle class="st6" cx="82.9" cy="64.4" r="2"/>
			</g>
			<g>
				<circle class="st6" cx="69.3" cy="80.6" r="1.3"/>
			</g>
			<g>
				<circle class="st6" cx="46.4" cy="66.9" r="2.5"/>
			</g>
			<g>
				<polyline class="st9" points="41.8,101.5 36.7,104.5 36.4,98.6 				"/>
			</g>
			<g>
				<polyline class="st9" points="86.3,101.5 91.3,104.5 91.7,98.6 				"/>
			</g>
			<path class="st3" d="M94.9,92.9c-0.7-0.4-1.6-0.1-2,0.7c0,0.1-3.6,7-15.4,6.8c-8-0.1-11.7,1.5-13.5,3.1
				c-1.7-1.6-5.4-3.2-13.5-3.1c-11.8,0.2-15.3-6.5-15.4-6.8c-0.4-0.7-1.3-1-2-0.7c-0.7,0.4-1.1,1.3-0.7,2c0.1,0.1,0.8,1.6,2.5,3.2
				c-0.1,0.2-0.1,0.4-0.1,0.6l0.4,5.9c0,0.5,0.3,1,0.8,1.2c0.2,0.1,0.5,0.2,0.7,0.2c0.3,0,0.5-0.1,0.8-0.2l5.1-3
				c0.2-0.1,0.3-0.2,0.4-0.4c1.7,0.5,3.7,0.8,6,0.9c0.2,4.7,6.7,8.3,15.1,8.3c8.3,0,14.9-3.6,15.1-8.3c2.3-0.1,4.3-0.4,6-0.9
				c0.1,0.1,0.3,0.3,0.4,0.4l5.1,3c0.2,0.1,0.5,0.2,0.8,0.2c0.2,0,0.5-0.1,0.7-0.2c0.5-0.2,0.8-0.7,0.8-1.2l0.4-5.9
				c0-0.2,0-0.4-0.1-0.6c1.7-1.6,2.5-3.1,2.5-3.2C96,94.1,95.7,93.2,94.9,92.9z M38.1,101.9l-0.1-1.6c0.5,0.3,1,0.5,1.5,0.8
				L38.1,101.9z M64,108.6c-6.9,0-11.7-2.7-12.1-5.3c8,0.1,10.3,2.2,10.5,3.1c0-0.1,0-0.1,0-0.1l1.5-0.1l1.5,0.1c0,0,0,0,0,0.1
				c0.2-0.9,2.6-3,10.5-3.1C75.8,105.9,70.9,108.6,64,108.6z M90,101.9l-1.4-0.8c0.5-0.3,1-0.5,1.5-0.8L90,101.9z"/>
		</g>
	</g>
	<defs>
		<filter id="Adobe_OpacityMaskFilter" filterUnits="userSpaceOnUse" x="0" y="0.6" width="128" height="126.9">
			<feFlood  style="flood-color:white;flood-opacity:1" result="back"/>
			<feBlend  in="SourceGraphic" in2="back" mode="normal"/>
		</filter>
	</defs>
	<mask maskUnits="userSpaceOnUse" x="0" y="0.6" width="128" height="126.9" id="SVGID_1_">
		<g class="st11">
			
				<image style="overflow:visible;" width="133" height="132" xlink:href="F7D4DDF005EAB0FC.jpg"  transform="matrix(1 0 0 1 -2 -1.959)">
			</image>
		</g>
	</mask>
	<g class="st12">
		<g>
			<g>
				<g>
					<path class="st13" d="M112.8,38.5c18.4,18.4,18.4,35.7,0,54c-18.4,18.4-79.1,18.4-97.5,0c-18.4-18.4-18.4-35.7,0-54
						C63.8-10.1,64.2-10.1,112.8,38.5z"/>
				</g>
				<g>
					<path class="st13" d="M15.3,45.1c-8,8-12.6,15.9-13.6,23.7c1,7.8,5.5,15.7,13.6,23.7c18.4,18.4,79.1,18.4,97.5,0
						c8-8,12.6-15.9,13.6-23.7c-1-7.8-5.5-15.7-13.6-23.7C64.2-3.4,63.8-3.4,15.3,45.1z"/>
				</g>
				<g>
					<path class="st13" d="M15.3,45.1c-5,5-8.6,9.9-10.9,14.8c2.3,4.9,5.9,9.8,10.9,14.8c18.4,18.4,79.1,18.4,97.5,0
						c5-5,8.6-9.9,10.9-14.8c-2.3-4.9-5.9-9.8-10.9-14.8C64.2-3.4,63.8-3.4,15.3,45.1z"/>
				</g>
				<g>
					<path class="st13" d="M64,107.8C64,107.8,64,107.8,64,107.8c-22,0-41-5.4-49.8-14.2C4.6,84,0,74.8,0,65.5S4.6,47,14.2,37.4
						C38.7,12.9,51.1,0.6,64,0.6s25.3,12.3,49.8,36.9C123.4,47,128,56.2,128,65.5s-4.6,18.5-14.2,28.1
						C105.1,102.3,86,107.8,64,107.8z M64,3.6c-11.7,0-24.5,12.8-47.7,36C7.4,48.5,3,57,3,65.5c0,8.5,4.4,17,13.3,25.9
						c8.2,8.2,26.5,13.3,47.7,13.3c21.2,0,39.5-5.1,47.7-13.3c9-9,13.3-17.5,13.3-25.9c0-8.5-4.4-17-13.3-26l0,0
						C88.5,16.4,75.7,3.6,64,3.6z"/>
				</g>
			</g>
			<g>
				<g>
					<path class="st13" d="M86.8,38.5c8.6,18.4,8.6,35.7,0,54c-8.6,18.4-37.1,18.4-45.6,0c-8.6-18.4-8.6-35.7,0-54
						C63.9-10.1,64.1-10.1,86.8,38.5z"/>
				</g>
				<g>
					<path class="st13" d="M43.7,45.1c-3.8,8-8.4,15.9-8.8,23.7c0.5,7.8,2.6,15.7,6.3,23.7c8.6,18.4,37,18.4,45.6,0
						c3.8-8,5.9-15.9,6.3-23.7c-0.5-7.8-5.1-15.7-8.8-23.7C61.6-3.4,66.4-3.4,43.7,45.1z"/>
				</g>
				<g>
					<path class="st13" d="M64,107.8C64,107.8,64,107.8,64,107.8c-10.7,0-20-5.6-24.2-14.6c-8.8-18.9-8.8-36.4,0-55.3
						C51.8,12.3,57.3,0.6,64,0.6l0,0c6.7,0,12.2,11.7,24.2,37.3c8.8,18.9,8.8,36.4,0,55.3C84,102.2,74.7,107.8,64,107.8z M64,3.6
						c-4.8,0-11.1,13.4-21.5,35.5c-8.4,18-8.4,34.8,0,52.8c3.7,8,12,12.9,21.5,12.9s17.7-4.9,21.5-12.9c8.4-18,8.4-34.8,0-52.8l0,0
						C75.1,17,68.8,3.6,64,3.6z"/>
				</g>
			</g>
			<g>
				<path class="st13" d="M113.2,88.5c0,20.7-22,37.4-49.2,37.4c-27.2,0-49.2-16.8-49.2-37.4c0-20.7,22-45.5,49.2-45.5
					C91.2,43.1,113.2,67.8,113.2,88.5z"/>
			</g>
			<g>
				<path class="st13" d="M113.2,88.5c0,20.7-22,37.4-49.2,37.4c-27.2,0-49.2-16.8-49.2-37.4c0-20.7,22-34.9,49.2-34.9
					C91.2,53.6,113.2,67.8,113.2,88.5z"/>
			</g>
			<g>
				<path class="st13" d="M74.5,91.6c0,1.4-4.7,1.6-10.5,1.6S53.5,93,53.5,91.6c0-1.4,4.7-5,10.5-5S74.5,90.2,74.5,91.6z"/>
			</g>
			<g>
				<path class="st13" d="M113.2,88.5c0,20.7-22,37.4-49.2,37.4c-27.2,0-49.2-16.8-49.2-37.4c0-20.7,6.3,18.3,49.2,18.3
					S113.2,67.8,113.2,88.5z"/>
			</g>
			<g>
				<path class="st13" d="M77.6,103.1c0,3.9-6.1,7-13.6,7s-13.6-3.2-13.6-7"/>
			</g>
			<g>
				<path class="st13" d="M64,127.5c-28,0-50.7-17.5-50.7-38.9c0-21.3,22.6-47,50.7-47s50.7,25.7,50.7,47
					C114.7,110,92,127.5,64,127.5z M64,44.6c-26.4,0-47.7,24-47.7,44c0,19.8,21.4,35.9,47.7,35.9s47.7-16.1,47.7-35.9
					C111.7,68.6,90.4,44.6,64,44.6z"/>
			</g>
			<g>
				<path class="st13" d="M47.9,84.7c0,4.4-3.6,8.1-8.1,8.1s-8.1-3.6-8.1-8.1c0-4.4,3.6-8.1,8.1-8.1C44.3,76.6,47.9,80.2,47.9,84.7z
					"/>
			</g>
			<g>
				<circle class="st13" cx="35.8" cy="82.1" r="3.3"/>
			</g>
			<path class="st13" d="M39.8,75.1c-3.2,0-6.1,1.6-7.8,4.1c-0.1,0.2-0.2,0.3-0.3,0.5c-0.9,1.4-1.4,3.1-1.4,5c0,5.3,4.3,9.6,9.6,9.6
				c5.3,0,9.6-4.3,9.6-9.6S45.1,75.1,39.8,75.1z M39.8,91.2c-2.7,0-5.1-1.7-6-4c0.7,0,1.5-0.2,2.5-0.4c0.3,0,0.7-0.1,1-0.2
				c0.8-0.1,1.7-0.3,2.6-0.3c2.4,0,4.6,0.8,6,0.9C44.9,89.6,42.5,91.2,39.8,91.2z"/>
			<circle class="st13" cx="35.8" cy="82.1" r="1.8"/>
			<g>
				<path class="st13" d="M96.3,84.7c0,4.4-3.6,8.1-8.1,8.1s-8.1-3.6-8.1-8.1c0-4.4,3.6-8.1,8.1-8.1C92.7,76.6,96.3,80.2,96.3,84.7z
					"/>
			</g>
			<g>
				<circle class="st13" cx="84.2" cy="82.1" r="3.3"/>
			</g>
			<path class="st13" d="M88.2,75.1c-3.2,0-6.1,1.6-7.8,4.1c-0.1,0.1-0.2,0.3-0.3,0.5c-0.9,1.5-1.4,3.2-1.4,5c0,5.3,4.3,9.6,9.6,9.6
				c5.3,0,9.6-4.3,9.6-9.6S93.5,75.1,88.2,75.1z M88.2,91.2c-2.7,0-5.1-1.7-6-4c0.7,0,1.5-0.2,2.5-0.4c0.3,0,0.7-0.1,1-0.2
				c0.8-0.1,1.7-0.3,2.6-0.3c2.4,0,4.6,0.8,6,0.9C93.3,89.6,91,91.2,88.2,91.2z"/>
			<path class="st13" d="M84.2,80.3c-1,0-1.8,0.8-1.8,1.8c0,1,0.8,1.8,1.8,1.8c1,0,1.8-0.8,1.8-1.8C86,81.1,85.2,80.3,84.2,80.3z"/>
			<g>
				<g>
					<path class="st13" d="M61.6,98.2c-0.4,0-0.8-0.2-1.1-0.5L59,96.2c-0.6-0.6-0.5-1.6,0.1-2.1c0.6-0.6,1.6-0.5,2.1,0.1l1.5,1.6
						c0.6,0.6,0.5,1.6-0.1,2.1C62.3,98.1,61.9,98.2,61.6,98.2z"/>
				</g>
				<g>
					<path class="st13" d="M66.5,98.2c-0.4,0-0.7-0.1-1-0.4c-0.6-0.6-0.6-1.5-0.1-2.1l1.5-1.6c0.6-0.6,1.5-0.6,2.1-0.1
						c0.6,0.6,0.6,1.5,0.1,2.1l-1.5,1.6C67.3,98.1,66.9,98.2,66.5,98.2z"/>
				</g>
			</g>
			<g>
				<g>
					<g>
						<path class="st13" d="M33.5,57.2c2.6-1.8,5.4-3.1,8.1-3.7c0.4-2.5,0-4.8-1.3-6.7c-2.9-4.1-9.3-4.8-15.6-2.1
							c-4.7,5-6.2,11.3-3.3,15.4c1.3,1.9,3.4,3.1,5.9,3.5C28.9,61.3,31,59.1,33.5,57.2z"/>
					</g>
					<g>
						<path class="st13" d="M36.7,49.4c-2.6-3.7-8-4.6-13.6-2.8c-3.4,4.6-4.2,9.9-1.7,13.5c1.1,1.6,2.8,2.6,4.7,3.2
							c1.1-1.2,2.7-0.2,4.1-1.2c0.4-0.3,0.6-2.7,1-3c0.7-0.6,1.5-1.3,2.3-1.8c1.5-1.1,3.1-1.9,4.6-2.6C38.2,52.8,37.8,51,36.7,49.4z
							"/>
					</g>
					<g>
						<path class="st13" d="M27.3,65.1c-0.1,0-0.2,0-0.3,0c-3-0.5-5.4-2-6.9-4.1c-3.3-4.6-1.9-11.6,3.4-17.3
							c0.1-0.2,0.3-0.3,0.5-0.4c7.1-3.1,14.1-2,17.4,2.6c1.5,2.2,2.1,4.9,1.6,7.9c-0.1,0.8-0.9,1.4-1.7,1.2
							c-0.8-0.1-1.4-0.9-1.2-1.7c0.4-2.2,0-4.1-1.1-5.6c-2.4-3.3-7.9-4-13.5-1.7c-4.1,4.5-5.3,9.9-2.9,13.3c1.1,1.5,2.8,2.5,4.9,2.9
							c0.8,0.1,1.4,0.9,1.2,1.7C28.7,64.6,28,65.1,27.3,65.1z"/>
					</g>
				</g>
				<g>
					<g>
						<path class="st13" d="M94.5,57.2c-2.6-1.8-5.4-3.1-8.1-3.7c-0.4-2.5,0-4.8,1.3-6.7c2.9-4.1,9.3-4.8,15.6-2.1
							c4.7,5,6.2,11.3,3.3,15.4c-1.3,1.9-3.4,3.1-5.9,3.5C99.2,61.3,97.1,59.1,94.5,57.2z"/>
					</g>
					<g>
						<path class="st13" d="M91.3,49.4c2.6-3.7,8-4.6,13.6-2.8c3.4,4.6,4.2,9.9,1.7,13.5c-1.1,1.6-2.8,2.6-4.7,3.2
							c-1.1-1.2-2.7-0.2-4.1-1.2c-0.4-0.3-0.6-2.7-1-3c-0.7-0.6-1.5-1.3-2.3-1.8c-1.5-1.1-3.1-1.9-4.6-2.6
							C89.8,52.8,90.3,51,91.3,49.4z"/>
					</g>
					<g>
						<path class="st13" d="M100.7,65.1c-0.7,0-1.3-0.5-1.5-1.2c-0.1-0.8,0.4-1.6,1.2-1.7c2.2-0.4,3.9-1.4,4.9-2.9
							c2.4-3.3,1.1-8.8-2.9-13.3c-5.6-2.3-11.1-1.6-13.5,1.7c-1.1,1.5-1.4,3.4-1.1,5.6c0.1,0.8-0.4,1.6-1.2,1.7
							c-0.8,0.1-1.6-0.4-1.7-1.2c-0.5-3,0-5.7,1.6-7.9c3.3-4.6,10.3-5.7,17.4-2.6c0.2,0.1,0.4,0.2,0.5,0.4
							c5.3,5.7,6.7,12.6,3.4,17.3c-1.5,2.2-3.9,3.6-6.9,4.1C100.9,65.1,100.8,65.1,100.7,65.1z"/>
					</g>
				</g>
			</g>
			<g>
				<path class="st13" d="M57.6,69c-4.2,0-7.6-3.4-7.6-7.6c0-4.2,5.3-5.7,9.5-5.7s5.7,1.5,5.7,5.7C65.1,65.6,61.7,69,57.6,69z"/>
			</g>
			<g>
				<circle class="st13" cx="72.5" cy="66.4" r="2.7"/>
			</g>
			<g>
				<circle class="st13" cx="82.9" cy="64.4" r="2"/>
			</g>
			<g>
				<circle class="st13" cx="69.3" cy="80.6" r="1.3"/>
			</g>
			<g>
				<circle class="st13" cx="46.4" cy="66.9" r="2.5"/>
			</g>
			<g>
				<polyline class="st13" points="41.8,101.5 36.7,104.5 36.4,98.6 				"/>
			</g>
			<g>
				<polyline class="st13" points="86.3,101.5 91.3,104.5 91.7,98.6 				"/>
			</g>
			<path class="st13" d="M94.9,92.9c-0.7-0.4-1.6-0.1-2,0.7c0,0.1-3.6,7-15.4,6.8c-8-0.1-11.7,1.5-13.5,3.1
				c-1.7-1.6-5.4-3.2-13.5-3.1c-11.8,0.2-15.3-6.5-15.4-6.8c-0.4-0.7-1.3-1-2-0.7c-0.7,0.4-1.1,1.3-0.7,2c0.1,0.1,0.8,1.6,2.5,3.2
				c-0.1,0.2-0.1,0.4-0.1,0.6l0.4,5.9c0,0.5,0.3,1,0.8,1.2c0.2,0.1,0.5,0.2,0.7,0.2c0.3,0,0.5-0.1,0.8-0.2l5.1-3
				c0.2-0.1,0.3-0.2,0.4-0.4c1.7,0.5,3.7,0.8,6,0.9c0.2,4.7,6.7,8.3,15.1,8.3c8.3,0,14.9-3.6,15.1-8.3c2.3-0.1,4.3-0.4,6-0.9
				c0.1,0.1,0.3,0.3,0.4,0.4l5.1,3c0.2,0.1,0.5,0.2,0.8,0.2c0.2,0,0.5-0.1,0.7-0.2c0.5-0.2,0.8-0.7,0.8-1.2l0.4-5.9
				c0-0.2,0-0.4-0.1-0.6c1.7-1.6,2.5-3.1,2.5-3.2C96,94.1,95.7,93.2,94.9,92.9z M38.1,101.9l-0.1-1.6c0.5,0.3,1,0.5,1.5,0.8
				L38.1,101.9z M64,108.6c-6.9,0-11.7-2.7-12.1-5.3c8,0.1,10.3,2.2,10.5,3.1c0-0.1,0-0.1,0-0.1l1.5-0.1l1.5,0.1c0,0,0,0,0,0.1
				c0.2-0.9,2.6-3,10.5-3.1C75.8,105.9,70.9,108.6,64,108.6z M90,101.9l-1.4-0.8c0.5-0.3,1-0.5,1.5-0.8L90,101.9z"/>
		</g>
	</g>
</g>
</svg>
