<?xml version="1.0" encoding="utf-8"?>
<!-- Generator: Adobe Illustrator 21.1.0, SVG Export Plug-In . SVG Version: 6.00 Build 0)  -->
<svg version="1.1" id="Layer_1" xmlns="http://www.w3.org/2000/svg" xmlns:xlink="http://www.w3.org/1999/xlink" x="0px" y="0px"
	 viewBox="0 0 127.8 127.8" style="enable-background:new 0 0 127.8 127.8;" xml:space="preserve">
<style type="text/css">
	.st0{fill:#FFD400;}
	.st1{fill:#FFB000;}
	.st2{fill:#33363A;}
	.st3{fill:#FFF800;}
	.st4{fill:#FF1A1A;}
	.st5{fill:#D61D1D;}
	.st6{fill:#6D5C4D;}
	.st7{fill:#FFFFFF;}
	.st8{filter:url(#Adobe_OpacityMaskFilter);}
	.st9{opacity:0.75;mask:url(#SVGID_1_);}
	.st10{fill:#F7F12F;}
</style>
<g>
	<g>
		<g>
			<g>
				<g>
					<polygon class="st0" points="90.7,5.9 64.7,5.9 50.4,31.1 62,31.1 46.7,62.1 86.9,26.2 73.8,26.2 					"/>
				</g>
				<g>
					<polygon class="st1" points="59.7,14.6 50.4,31.1 62,31.1 46.7,62.1 77.1,34.9 67,34.9 74.2,26.2 73.8,26.2 83.4,14.6 					"/>
				</g>
				<g>
					<path class="st2" d="M46.7,63.6c-0.3,0-0.6-0.1-0.9-0.3c-0.6-0.4-0.8-1.2-0.4-1.9l14.2-28.9h-9.2c-0.5,0-1-0.3-1.3-0.7
						s-0.3-1,0-1.5L63.4,5.2c0.3-0.5,0.8-0.8,1.3-0.8h26c0.6,0,1.1,0.3,1.4,0.9c0.2,0.5,0.2,1.1-0.2,1.6L77,24.7h9.8
						c0.6,0,1.2,0.4,1.4,1s0.1,1.2-0.4,1.7L47.7,63.2C47.5,63.5,47.1,63.6,46.7,63.6z M52.9,29.6H62c0.5,0,1,0.3,1.3,0.7
						c0.3,0.4,0.3,1,0.1,1.5L51.5,55.8l31.4-28.1h-9.1c-0.6,0-1.1-0.3-1.4-0.9c-0.2-0.5-0.2-1.1,0.2-1.6L87.5,7.4H65.6L52.9,29.6z"
						/>
				</g>
			</g>
			<g>
				<g>
					<path class="st3" d="M113.1,84.4c0,20.7-22,37.4-49.2,37.4c-27.2,0-49.2-16.8-49.2-37.4c0-20.7,22-45.5,49.2-45.5
						C91.1,39,113.1,63.7,113.1,84.4z"/>
				</g>
				<g>
					<path class="st0" d="M113.1,84.4c0,20.7-22,37.4-49.2,37.4c-27.2,0-49.2-16.8-49.2-37.4c0-20.7,22-34.9,49.2-34.9
						C91.1,49.5,113.1,63.7,113.1,84.4z"/>
				</g>
				<g>
					<path class="st3" d="M74.4,74.6c0,1.4-4.7,1.6-10.5,1.6S53.4,76,53.4,74.6c0-1.4,4.7-5,10.5-5S74.4,73.2,74.4,74.6z"/>
				</g>
				<g>
					<path class="st1" d="M113.1,84.4c0,20.7-22,37.4-49.2,37.4c-27.2,0-49.2-16.8-49.2-37.4c0-20.7,6.3,18.3,49.2,18.3
						S113.1,63.7,113.1,84.4z"/>
				</g>
				<g>
					<path class="st2" d="M63.9,123.4c-28,0-50.7-17.5-50.7-38.9c0-21.3,22.6-47,50.7-47s50.7,25.7,50.7,47
						C114.6,105.9,91.9,123.4,63.9,123.4z M63.9,40.5c-26.4,0-47.7,24-47.7,44c0,19.8,21.4,35.9,47.7,35.9s47.7-16.1,47.7-35.9
						C111.6,64.5,90.3,40.5,63.9,40.5z"/>
				</g>
			</g>
			<g>
				<g>
					<g>
						<g>
							<path class="st0" d="M9.2,47.3c6.4,10.5,15.3,16.7,24,17.8c1.5-10.8-0.9-23.2-7.3-33.8c-6.4-10.5-15.3-16.7-24-17.8
								C0.4,24.3,2.8,36.7,9.2,47.3z"/>
						</g>
						<g>
							<path class="st1" d="M1.9,13.5C0.4,24.3,2.8,36.7,9.2,47.3c6.4,10.5,15.3,16.7,24,17.8L1.9,13.5z"/>
						</g>
						<path class="st2" d="M34.6,51.3c-1-7.3-3.6-14.5-7.4-20.8C20.8,19.9,11.6,13.2,2.1,12c-0.8-0.1-1.6,0.5-1.7,1.3
							C-1.2,24.9,1.6,37.6,7.9,48c4.3,7.2,10,12.6,16.3,15.8c0.2,0.1,0.4,0.2,0.7,0.2c0.5,0,1.1-0.3,1.3-0.8c0.4-0.7,0.1-1.6-0.7-2
							c-5.8-2.9-11-8-15-14.7c-1.9-3.1-3.4-6.3-4.6-9.7c6.1-1,13.2,2.1,12.3-13c2.3,2.4,4.5,5.1,6.4,8.3c3.6,5.9,6,12.7,7,19.6
							c0.1,0.8,0.9,1.4,1.7,1.3C34.1,52.9,34.7,52.1,34.6,51.3z"/>
					</g>
				</g>
				<g>
					<g>
						<g>
							<path class="st0" d="M118.6,47.3c-6.4,10.5-15.3,16.7-24,17.8c-1.5-10.8,0.9-23.2,7.3-33.8c6.4-10.5,15.3-16.7,24-17.8
								C127.3,24.3,125,36.7,118.6,47.3z"/>
						</g>
						<g>
							<path class="st1" d="M125.8,13.5c1.5,10.7-0.9,23.2-7.3,33.8c-6.4,10.5-15.3,16.7-24,17.8L125.8,13.5z"/>
						</g>
						<path class="st2" d="M127.3,13.3c-0.1-0.8-0.9-1.4-1.7-1.3c-9.5,1.2-18.7,7.9-25.1,18.5c-3.8,6.3-6.3,13.4-7.4,20.8
							c-0.1,0.8,0.5,1.6,1.3,1.7c0.8,0.1,1.6-0.5,1.7-1.3c1-6.9,3.4-13.7,7-19.6c1.9-3.2,4.1-5.9,6.4-8.3c-0.8,15.1,6.2,12,12.3,13
							c-1.2,3.4-2.7,6.6-4.6,9.7c-4,6.7-9.2,11.8-15,14.7c-0.7,0.4-1,1.3-0.7,2c0.3,0.5,0.8,0.8,1.3,0.8c0.2,0,0.5-0.1,0.7-0.2
							c6.3-3.2,11.9-8.6,16.3-15.8C126.2,37.6,128.9,24.9,127.3,13.3z"/>
					</g>
				</g>
			</g>
			<g>
				<g>
					<circle class="st4" cx="32.9" cy="87.8" r="7"/>
				</g>
				<g>
					<path class="st5" d="M39.9,87.8c0,3.9-3.1,7-7,7c-3.9,0-7-3.1-7-7"/>
				</g>
				<g>
					<circle class="st4" cx="94.9" cy="87.8" r="7"/>
				</g>
				<g>
					<path class="st5" d="M101.9,87.8c0,3.9-3.1,7-7,7s-7-3.1-7-7"/>
				</g>
			</g>
			<path class="st2" d="M73.5,80.3c-0.8,0-1.5,0.7-1.5,1.5c0,1.4-1.2,2.6-2.6,2.6H68c-1.4,0-2.6-1.2-2.6-2.6v-1.5c0-0.1,0-0.1,0-0.2
				l3.1-1.6c0.6-0.3,0.9-1,0.8-1.7s-0.8-1.2-1.5-1.2H60c-0.7,0-1.3,0.5-1.5,1.2s0.2,1.4,0.8,1.7l3.1,1.6c0,0.1,0,0.1,0,0.2v1.5
				c0,1.4-1.2,2.6-2.6,2.6h-1.5c-1.4,0-2.6-1.2-2.6-2.6c0-0.8-0.7-1.5-1.5-1.5s-1.5,0.7-1.5,1.5c0,3.1,2.5,5.6,5.6,5.6h1.5
				c1.6,0,3.1-0.7,4.1-1.8c1,1.1,2.5,1.8,4.1,1.8h1.5c3.1,0,5.6-2.5,5.6-5.6C75,81,74.4,80.3,73.5,80.3z"/>
			<g>
				<path class="st6" d="M47.7,70.1c0,4.4-3.6,8.1-8.1,8.1c-4.4,0-8.1-3.6-8.1-8.1c0-4.4,3.6-8.1,8.1-8.1
					C44.1,62.1,47.7,65.7,47.7,70.1z"/>
			</g>
			<g>
				<circle class="st7" cx="35.7" cy="67.5" r="3.3"/>
			</g>
			<path class="st2" d="M39.7,60.6c-3.2,0-6.1,1.6-7.8,4.1c-0.1,0.1-0.2,0.3-0.3,0.4c-0.9,1.5-1.4,3.2-1.4,5c0,5.3,4.3,9.6,9.6,9.6
				c5.3,0,9.6-4.3,9.6-9.6C49.2,64.9,44.9,60.6,39.7,60.6z M39.7,76.7c-2.7,0-5.1-1.7-6-4c0.7,0,1.5-0.2,2.4-0.4
				c0.4,0,0.7-0.1,1-0.2c0.8-0.1,1.7-0.3,2.6-0.3c2.4,0,4.6,0.8,6,0.9C44.7,75,42.4,76.7,39.7,76.7z"/>
			<circle class="st7" cx="35.7" cy="67.5" r="1.8"/>
			<g>
				<path class="st6" d="M96.2,70.1c0,4.4-3.6,8.1-8.1,8.1s-8.1-3.6-8.1-8.1c0-4.4,3.6-8.1,8.1-8.1C92.6,62.1,96.2,65.7,96.2,70.1z"
					/>
			</g>
			<g>
				<circle class="st7" cx="84.1" cy="67.5" r="3.3"/>
			</g>
			<path class="st2" d="M88.1,60.6c-3.2,0-6.1,1.6-7.8,4.1c-0.1,0.1-0.2,0.3-0.3,0.5c-0.9,1.5-1.4,3.2-1.4,5c0,5.3,4.3,9.6,9.6,9.6
				s9.6-4.3,9.6-9.6C97.7,64.9,93.4,60.6,88.1,60.6z M88.1,76.7c-2.7,0-5.1-1.7-6-4c0.7,0,1.5-0.2,2.5-0.4c0.3,0,0.7-0.1,1-0.2
				c0.8-0.1,1.7-0.3,2.6-0.3c2.4,0,4.6,0.8,6,0.9C93.2,75,90.8,76.7,88.1,76.7z"/>
			<circle class="st7" cx="84.1" cy="67.5" r="1.8"/>
		</g>
	</g>
	<defs>
		<filter id="Adobe_OpacityMaskFilter" filterUnits="userSpaceOnUse" x="0" y="4.4" width="127.8" height="118.9">
			<feFlood  style="flood-color:white;flood-opacity:1" result="back"/>
			<feBlend  in="SourceGraphic" in2="back" mode="normal"/>
		</filter>
	</defs>
	<mask maskUnits="userSpaceOnUse" x="0" y="4.4" width="127.8" height="118.9" id="SVGID_1_">
		<g class="st8">
			
				<image style="overflow:visible;" width="132" height="124" xlink:href="67B04EE86170F974.jpg"  transform="matrix(1 0 0 1 -2 1.782)">
			</image>
		</g>
	</mask>
	<g class="st9">
		<g>
			<g>
				<g>
					<polygon class="st10" points="90.7,5.9 64.7,5.9 50.4,31.1 62,31.1 46.7,62.1 86.9,26.2 73.8,26.2 					"/>
				</g>
				<g>
					<polygon class="st10" points="59.7,14.6 50.4,31.1 62,31.1 46.7,62.1 77.1,34.9 67,34.9 74.2,26.2 73.8,26.2 83.4,14.6 					
						"/>
				</g>
				<g>
					<path class="st10" d="M46.7,63.6c-0.3,0-0.6-0.1-0.9-0.3c-0.6-0.4-0.8-1.2-0.4-1.9l14.2-28.9h-9.2c-0.5,0-1-0.3-1.3-0.7
						s-0.3-1,0-1.5L63.4,5.2c0.3-0.5,0.8-0.8,1.3-0.8h26c0.6,0,1.1,0.3,1.4,0.9c0.2,0.5,0.2,1.1-0.2,1.6L77,24.7h9.8
						c0.6,0,1.2,0.4,1.4,1s0.1,1.2-0.4,1.7L47.7,63.2C47.5,63.5,47.1,63.6,46.7,63.6z M52.9,29.6H62c0.5,0,1,0.3,1.3,0.7
						c0.3,0.4,0.3,1,0.1,1.5L51.5,55.8l31.4-28.1h-9.1c-0.6,0-1.1-0.3-1.4-0.9c-0.2-0.5-0.2-1.1,0.2-1.6L87.5,7.4H65.6L52.9,29.6z"
						/>
				</g>
			</g>
			<g>
				<g>
					<path class="st10" d="M113.1,84.4c0,20.7-22,37.4-49.2,37.4c-27.2,0-49.2-16.8-49.2-37.4c0-20.7,22-45.5,49.2-45.5
						C91.1,39,113.1,63.7,113.1,84.4z"/>
				</g>
				<g>
					<path class="st10" d="M113.1,84.4c0,20.7-22,37.4-49.2,37.4c-27.2,0-49.2-16.8-49.2-37.4c0-20.7,22-34.9,49.2-34.9
						C91.1,49.5,113.1,63.7,113.1,84.4z"/>
				</g>
				<g>
					<path class="st10" d="M74.4,74.6c0,1.4-4.7,1.6-10.5,1.6S53.4,76,53.4,74.6c0-1.4,4.7-5,10.5-5S74.4,73.2,74.4,74.6z"/>
				</g>
				<g>
					<path class="st10" d="M113.1,84.4c0,20.7-22,37.4-49.2,37.4c-27.2,0-49.2-16.8-49.2-37.4c0-20.7,6.3,18.3,49.2,18.3
						S113.1,63.7,113.1,84.4z"/>
				</g>
				<g>
					<path class="st10" d="M63.9,123.4c-28,0-50.7-17.5-50.7-38.9c0-21.3,22.6-47,50.7-47s50.7,25.7,50.7,47
						C114.6,105.9,91.9,123.4,63.9,123.4z M63.9,40.5c-26.4,0-47.7,24-47.7,44c0,19.8,21.4,35.9,47.7,35.9s47.7-16.1,47.7-35.9
						C111.6,64.5,90.3,40.5,63.9,40.5z"/>
				</g>
			</g>
			<g>
				<g>
					<g>
						<g>
							<path class="st10" d="M9.2,47.3c6.4,10.5,15.3,16.7,24,17.8c1.5-10.8-0.9-23.2-7.3-33.8c-6.4-10.5-15.3-16.7-24-17.8
								C0.4,24.3,2.8,36.7,9.2,47.3z"/>
						</g>
						<g>
							<path class="st10" d="M1.9,13.5C0.4,24.3,2.8,36.7,9.2,47.3c6.4,10.5,15.3,16.7,24,17.8L1.9,13.5z"/>
						</g>
						<path class="st10" d="M34.6,51.3c-1-7.3-3.6-14.5-7.4-20.8C20.8,19.9,11.6,13.2,2.1,12c-0.8-0.1-1.6,0.5-1.7,1.3
							C-1.2,24.9,1.6,37.6,7.9,48c4.3,7.2,10,12.6,16.3,15.8c0.2,0.1,0.4,0.2,0.7,0.2c0.5,0,1.1-0.3,1.3-0.8c0.4-0.7,0.1-1.6-0.7-2
							c-5.8-2.9-11-8-15-14.7c-1.9-3.1-3.4-6.3-4.6-9.7c6.1-1,13.2,2.1,12.3-13c2.3,2.4,4.5,5.1,6.4,8.3c3.6,5.9,6,12.7,7,19.6
							c0.1,0.8,0.9,1.4,1.7,1.3C34.1,52.9,34.7,52.1,34.6,51.3z"/>
					</g>
				</g>
				<g>
					<g>
						<g>
							<path class="st10" d="M118.6,47.3c-6.4,10.5-15.3,16.7-24,17.8c-1.5-10.8,0.9-23.2,7.3-33.8c6.4-10.5,15.3-16.7,24-17.8
								C127.3,24.3,125,36.7,118.6,47.3z"/>
						</g>
						<g>
							<path class="st10" d="M125.8,13.5c1.5,10.7-0.9,23.2-7.3,33.8c-6.4,10.5-15.3,16.7-24,17.8L125.8,13.5z"/>
						</g>
						<path class="st10" d="M127.3,13.3c-0.1-0.8-0.9-1.4-1.7-1.3c-9.5,1.2-18.7,7.9-25.1,18.5c-3.8,6.3-6.3,13.4-7.4,20.8
							c-0.1,0.8,0.5,1.6,1.3,1.7c0.8,0.1,1.6-0.5,1.7-1.3c1-6.9,3.4-13.7,7-19.6c1.9-3.2,4.1-5.9,6.4-8.3c-0.8,15.1,6.2,12,12.3,13
							c-1.2,3.4-2.7,6.6-4.6,9.7c-4,6.7-9.2,11.8-15,14.7c-0.7,0.4-1,1.3-0.7,2c0.3,0.5,0.8,0.8,1.3,0.8c0.2,0,0.5-0.1,0.7-0.2
							c6.3-3.2,11.9-8.6,16.3-15.8C126.2,37.6,128.9,24.9,127.3,13.3z"/>
					</g>
				</g>
			</g>
			<g>
				<g>
					<circle class="st10" cx="32.9" cy="87.8" r="7"/>
				</g>
				<g>
					<path class="st10" d="M39.9,87.8c0,3.9-3.1,7-7,7c-3.9,0-7-3.1-7-7"/>
				</g>
				<g>
					<circle class="st10" cx="94.9" cy="87.8" r="7"/>
				</g>
				<g>
					<path class="st10" d="M101.9,87.8c0,3.9-3.1,7-7,7s-7-3.1-7-7"/>
				</g>
			</g>
			<path class="st10" d="M73.5,80.3c-0.8,0-1.5,0.7-1.5,1.5c0,1.4-1.2,2.6-2.6,2.6H68c-1.4,0-2.6-1.2-2.6-2.6v-1.5
				c0-0.1,0-0.1,0-0.2l3.1-1.6c0.6-0.3,0.9-1,0.8-1.7s-0.8-1.2-1.5-1.2H60c-0.7,0-1.3,0.5-1.5,1.2s0.2,1.4,0.8,1.7l3.1,1.6
				c0,0.1,0,0.1,0,0.2v1.5c0,1.4-1.2,2.6-2.6,2.6h-1.5c-1.4,0-2.6-1.2-2.6-2.6c0-0.8-0.7-1.5-1.5-1.5s-1.5,0.7-1.5,1.5
				c0,3.1,2.5,5.6,5.6,5.6h1.5c1.6,0,3.1-0.7,4.1-1.8c1,1.1,2.5,1.8,4.1,1.8h1.5c3.1,0,5.6-2.5,5.6-5.6C75,81,74.4,80.3,73.5,80.3z"
				/>
			<g>
				<path class="st10" d="M47.7,70.1c0,4.4-3.6,8.1-8.1,8.1c-4.4,0-8.1-3.6-8.1-8.1c0-4.4,3.6-8.1,8.1-8.1
					C44.1,62.1,47.7,65.7,47.7,70.1z"/>
			</g>
			<g>
				<circle class="st10" cx="35.7" cy="67.5" r="3.3"/>
			</g>
			<path class="st10" d="M39.7,60.6c-3.2,0-6.1,1.6-7.8,4.1c-0.1,0.1-0.2,0.3-0.3,0.4c-0.9,1.5-1.4,3.2-1.4,5c0,5.3,4.3,9.6,9.6,9.6
				c5.3,0,9.6-4.3,9.6-9.6C49.2,64.9,44.9,60.6,39.7,60.6z M39.7,76.7c-2.7,0-5.1-1.7-6-4c0.7,0,1.5-0.2,2.4-0.4
				c0.4,0,0.7-0.1,1-0.2c0.8-0.1,1.7-0.3,2.6-0.3c2.4,0,4.6,0.8,6,0.9C44.7,75,42.4,76.7,39.7,76.7z"/>
			<circle class="st10" cx="35.7" cy="67.5" r="1.8"/>
			<g>
				<path class="st10" d="M96.2,70.1c0,4.4-3.6,8.1-8.1,8.1s-8.1-3.6-8.1-8.1c0-4.4,3.6-8.1,8.1-8.1C92.6,62.1,96.2,65.7,96.2,70.1z
					"/>
			</g>
			<g>
				<circle class="st10" cx="84.1" cy="67.5" r="3.3"/>
			</g>
			<path class="st10" d="M88.1,60.6c-3.2,0-6.1,1.6-7.8,4.1c-0.1,0.1-0.2,0.3-0.3,0.5c-0.9,1.5-1.4,3.2-1.4,5c0,5.3,4.3,9.6,9.6,9.6
				s9.6-4.3,9.6-9.6C97.7,64.9,93.4,60.6,88.1,60.6z M88.1,76.7c-2.7,0-5.1-1.7-6-4c0.7,0,1.5-0.2,2.5-0.4c0.3,0,0.7-0.1,1-0.2
				c0.8-0.1,1.7-0.3,2.6-0.3c2.4,0,4.6,0.8,6,0.9C93.2,75,90.8,76.7,88.1,76.7z"/>
			<circle class="st10" cx="84.1" cy="67.5" r="1.8"/>
		</g>
	</g>
</g>
</svg>
