<?xml version="1.0" encoding="utf-8"?>
<!-- Generator: Adobe Illustrator 21.1.0, SVG Export Plug-In . SVG Version: 6.00 Build 0)  -->
<svg version="1.1" id="Layer_1" xmlns="http://www.w3.org/2000/svg" xmlns:xlink="http://www.w3.org/1999/xlink" x="0px" y="0px"
	 viewBox="0 0 158.9 127.4" style="enable-background:new 0 0 158.9 127.4;" xml:space="preserve">
<style type="text/css">
	.st0{fill:#FFBE08;}
	.st1{fill:#FFD00B;}
	.st2{fill:#33363A;}
	.st3{fill:#FFFFFF;}
	.st4{fill:#FF900B;}
	.st5{fill:#DFE7E8;}
	.st6{fill:#FF630D;}
	.st7{fill:#E04038;}
	.st8{fill:#FF6155;}
</style>
<g>
	<g>
		<g>
			<g>
				<g>
					<path class="st0" d="M47.5,50.2c0,1.3-1,2.3-2.3,2.3H3.8c-1.2,0-2.3-1-2.3-2.3v-5.7c0-1.3,1-2.3,2.3-2.3h41.5
						c1.3,0,2.3,1,2.3,2.3L47.5,50.2L47.5,50.2z"/>
				</g>
				<g>
					<path class="st1" d="M3.8,42.2c-1.2,0-2.2,0.9-2.2,2.1c0.1,1.2,1.1,2.1,2.2,2.1h41.5c1.2,0,2.2-0.9,2.2-2.1
						c-0.1-1.2-1.1-2.1-2.2-2.1H3.8z"/>
				</g>
				<g>
					<path class="st2" d="M45.3,53.9H3.8c-2.1,0-3.8-1.7-3.8-3.8v-5.7c0-2.1,1.7-3.8,3.8-3.8h41.5c2.1,0,3.8,1.7,3.8,3.8v5.7
						C49,52.2,47.3,53.9,45.3,53.9z M3.8,43.7C3.4,43.7,3,44,3,44.5v5.7C3,50.6,3.3,51,3.8,51h41.5c0.4,0,0.8-0.3,0.8-0.8v-5.7
						c0-0.4-0.3-0.8-0.8-0.8H3.8z"/>
				</g>
			</g>
			<g>
				<g>
					<path class="st2" d="M8.1,50c-0.8,0-1.5-0.7-1.5-1.5v-2.3c0-0.8,0.7-1.5,1.5-1.5s1.5,0.7,1.5,1.5v2.3C9.6,49.3,8.9,50,8.1,50z"
						/>
				</g>
				<g>
					<path class="st2" d="M13.6,50c-0.8,0-1.5-0.7-1.5-1.5v-2.3c0-0.8,0.7-1.5,1.5-1.5s1.5,0.7,1.5,1.5v2.3
						C15.1,49.3,14.4,50,13.6,50z"/>
				</g>
				<g>
					<path class="st2" d="M19.1,50c-0.8,0-1.5-0.7-1.5-1.5v-2.3c0-0.8,0.7-1.5,1.5-1.5s1.5,0.7,1.5,1.5v2.3C20.6,49.3,20,50,19.1,50
						z"/>
				</g>
				<g>
					<path class="st2" d="M24.7,50c-0.8,0-1.5-0.7-1.5-1.5v-2.3c0-0.8,0.7-1.5,1.5-1.5s1.5,0.7,1.5,1.5v2.3
						C26.2,49.3,25.5,50,24.7,50z"/>
				</g>
				<g>
					<path class="st2" d="M30.2,50c-0.8,0-1.5-0.7-1.5-1.5v-2.3c0-0.8,0.7-1.5,1.5-1.5s1.5,0.7,1.5,1.5v2.3C31.7,49.3,31,50,30.2,50
						z"/>
				</g>
				<g>
					<path class="st2" d="M35.7,50c-0.8,0-1.5-0.7-1.5-1.5v-2.3c0-0.8,0.7-1.5,1.5-1.5s1.5,0.7,1.5,1.5v2.3
						C37.2,49.3,36.6,50,35.7,50z"/>
				</g>
				<g>
					<path class="st2" d="M41.3,50c-0.8,0-1.5-0.7-1.5-1.5v-2.3c0-0.8,0.7-1.5,1.5-1.5s1.5,0.7,1.5,1.5v2.3
						C42.8,49.3,42.1,50,41.3,50z"/>
				</g>
			</g>
		</g>
		<g>
			<g>
				<g>
					<path class="st0" d="M47.5,60.3c0,1.3-1,2.3-2.3,2.3H3.8c-1.2,0-2.3-1-2.3-2.3v-5.7c0-1.3,1-2.3,2.3-2.3h41.5
						c1.3,0,2.3,1,2.3,2.3L47.5,60.3L47.5,60.3z"/>
				</g>
				<g>
					<path class="st1" d="M3.8,52.4c-1.2,0-2.2,0.9-2.2,2.1c0.1,1.2,1.1,2.1,2.2,2.1h41.5c1.2,0,2.2-0.9,2.2-2.1
						c-0.1-1.2-1.1-2.1-2.2-2.1H3.8z"/>
				</g>
				<g>
					<path class="st2" d="M45.3,64.1H3.8c-2.1,0-3.8-1.7-3.8-3.8v-5.7c0-2.1,1.7-3.8,3.8-3.8h41.5c2.1,0,3.8,1.7,3.8,3.8v5.7
						C49,62.4,47.3,64.1,45.3,64.1z M3.8,53.9c-0.4,0-0.8,0.3-0.8,0.8v5.7c0,0.4,0.3,0.8,0.8,0.8h41.5c0.4,0,0.8-0.3,0.8-0.8v-5.7
						c0-0.4-0.3-0.8-0.8-0.8H3.8z"/>
				</g>
			</g>
			<g>
				<g>
					<path class="st2" d="M8.1,60.1c-0.8,0-1.5-0.7-1.5-1.5v-2.3c0-0.8,0.7-1.5,1.5-1.5s1.5,0.7,1.5,1.5v2.3
						C9.6,59.5,8.9,60.1,8.1,60.1z"/>
				</g>
				<g>
					<path class="st2" d="M13.6,60.1c-0.8,0-1.5-0.7-1.5-1.5v-2.3c0-0.8,0.7-1.5,1.5-1.5s1.5,0.7,1.5,1.5v2.3
						C15.1,59.5,14.4,60.1,13.6,60.1z"/>
				</g>
				<g>
					<path class="st2" d="M19.1,60.1c-0.8,0-1.5-0.7-1.5-1.5v-2.3c0-0.8,0.7-1.5,1.5-1.5s1.5,0.7,1.5,1.5v2.3
						C20.6,59.5,20,60.1,19.1,60.1z"/>
				</g>
				<g>
					<path class="st2" d="M24.7,60.1c-0.8,0-1.5-0.7-1.5-1.5v-2.3c0-0.8,0.7-1.5,1.5-1.5s1.5,0.7,1.5,1.5v2.3
						C26.2,59.5,25.5,60.1,24.7,60.1z"/>
				</g>
				<g>
					<path class="st2" d="M30.2,60.1c-0.8,0-1.5-0.7-1.5-1.5v-2.3c0-0.8,0.7-1.5,1.5-1.5s1.5,0.7,1.5,1.5v2.3
						C31.7,59.5,31,60.1,30.2,60.1z"/>
				</g>
				<g>
					<path class="st2" d="M35.7,60.1c-0.8,0-1.5-0.7-1.5-1.5v-2.3c0-0.8,0.7-1.5,1.5-1.5s1.5,0.7,1.5,1.5v2.3
						C37.2,59.5,36.6,60.1,35.7,60.1z"/>
				</g>
				<g>
					<path class="st2" d="M41.3,60.1c-0.8,0-1.5-0.7-1.5-1.5v-2.3c0-0.8,0.7-1.5,1.5-1.5s1.5,0.7,1.5,1.5v2.3
						C42.8,59.5,42.1,60.1,41.3,60.1z"/>
				</g>
			</g>
		</g>
		<g>
			<g>
				<g>
					<path class="st0" d="M47.5,70.5c0,1.3-1,2.3-2.3,2.3H3.8c-1.2,0-2.3-1-2.3-2.3v-5.7c0-1.3,1-2.3,2.3-2.3h41.5
						c1.3,0,2.3,1,2.3,2.3L47.5,70.5L47.5,70.5z"/>
				</g>
				<g>
					<path class="st1" d="M3.8,62.6c-1.2,0-2.2,0.9-2.2,2.1c0.1,1.2,1.1,2.1,2.2,2.1h41.5c1.2,0,2.2-0.9,2.2-2.1
						c-0.1-1.2-1.1-2.1-2.2-2.1H3.8z"/>
				</g>
				<g>
					<path class="st2" d="M45.3,74.3H3.8c-2.1,0-3.8-1.7-3.8-3.8v-5.7C0,62.7,1.7,61,3.8,61h41.5c2.1,0,3.8,1.7,3.8,3.8v5.7
						C49,72.6,47.3,74.3,45.3,74.3z M3.8,64.1c-0.4,0-0.8,0.3-0.8,0.8v5.7c0,0.4,0.3,0.8,0.8,0.8h41.5c0.4,0,0.8-0.3,0.8-0.8v-5.7
						c0-0.4-0.3-0.8-0.8-0.8H3.8z"/>
				</g>
			</g>
			<g>
				<g>
					<path class="st2" d="M8.1,70.3c-0.8,0-1.5-0.7-1.5-1.5v-2.3c0-0.8,0.7-1.5,1.5-1.5s1.5,0.7,1.5,1.5v2.3
						C9.6,69.7,8.9,70.3,8.1,70.3z"/>
				</g>
				<g>
					<path class="st2" d="M13.6,70.3c-0.8,0-1.5-0.7-1.5-1.5v-2.3c0-0.8,0.7-1.5,1.5-1.5s1.5,0.7,1.5,1.5v2.3
						C15.1,69.7,14.4,70.3,13.6,70.3z"/>
				</g>
				<g>
					<path class="st2" d="M19.1,70.3c-0.8,0-1.5-0.7-1.5-1.5v-2.3c0-0.8,0.7-1.5,1.5-1.5s1.5,0.7,1.5,1.5v2.3
						C20.6,69.7,20,70.3,19.1,70.3z"/>
				</g>
				<g>
					<path class="st2" d="M24.7,70.3c-0.8,0-1.5-0.7-1.5-1.5v-2.3c0-0.8,0.7-1.5,1.5-1.5s1.5,0.7,1.5,1.5v2.3
						C26.2,69.7,25.5,70.3,24.7,70.3z"/>
				</g>
				<g>
					<path class="st2" d="M30.2,70.3c-0.8,0-1.5-0.7-1.5-1.5v-2.3c0-0.8,0.7-1.5,1.5-1.5s1.5,0.7,1.5,1.5v2.3
						C31.7,69.7,31,70.3,30.2,70.3z"/>
				</g>
				<g>
					<path class="st2" d="M35.7,70.3c-0.8,0-1.5-0.7-1.5-1.5v-2.3c0-0.8,0.7-1.5,1.5-1.5s1.5,0.7,1.5,1.5v2.3
						C37.2,69.7,36.6,70.3,35.7,70.3z"/>
				</g>
				<g>
					<path class="st2" d="M41.3,70.3c-0.8,0-1.5-0.7-1.5-1.5v-2.3c0-0.8,0.7-1.5,1.5-1.5s1.5,0.7,1.5,1.5v2.3
						C42.8,69.7,42.1,70.3,41.3,70.3z"/>
				</g>
			</g>
		</g>
		<g>
			<g>
				<g>
					<path class="st0" d="M47.5,80.7c0,1.3-1,2.3-2.3,2.3H3.8c-1.2,0-2.3-1-2.3-2.3V75c0-1.3,1-2.3,2.3-2.3h41.5
						c1.3,0,2.3,1,2.3,2.3L47.5,80.7L47.5,80.7z"/>
				</g>
				<g>
					<path class="st1" d="M3.8,72.8c-1.2,0-2.2,0.9-2.2,2.1c0,1.2,1,2.1,2.2,2.1h41.5c1.2,0,2.2-0.9,2.2-2.1
						c-0.1-1.2-1.1-2.1-2.2-2.1H3.8z"/>
				</g>
				<g>
					<path class="st2" d="M45.3,84.5H3.8c-2.1,0-3.8-1.7-3.8-3.8V75c0-2.1,1.7-3.8,3.8-3.8h41.5c2.1,0,3.8,1.7,3.8,3.8v5.7
						C49,82.8,47.3,84.5,45.3,84.5z M3.8,74.3c-0.4,0-0.8,0.3-0.8,0.8v5.7c0,0.4,0.3,0.8,0.8,0.8h41.5c0.4,0,0.8-0.3,0.8-0.8v-5.7
						c0-0.4-0.3-0.8-0.8-0.8H3.8L3.8,74.3z"/>
				</g>
			</g>
			<g>
				<g>
					<path class="st2" d="M8.1,80.5c-0.8,0-1.5-0.7-1.5-1.5v-2.3c0-0.8,0.7-1.5,1.5-1.5s1.5,0.7,1.5,1.5V79
						C9.6,79.9,8.9,80.5,8.1,80.5z"/>
				</g>
				<g>
					<path class="st2" d="M13.6,80.5c-0.8,0-1.5-0.7-1.5-1.5v-2.3c0-0.8,0.7-1.5,1.5-1.5s1.5,0.7,1.5,1.5V79
						C15.1,79.9,14.4,80.5,13.6,80.5z"/>
				</g>
				<g>
					<path class="st2" d="M19.1,80.5c-0.8,0-1.5-0.7-1.5-1.5v-2.3c0-0.8,0.7-1.5,1.5-1.5s1.5,0.7,1.5,1.5V79
						C20.6,79.9,20,80.5,19.1,80.5z"/>
				</g>
				<g>
					<path class="st2" d="M24.7,80.5c-0.8,0-1.5-0.7-1.5-1.5v-2.3c0-0.8,0.7-1.5,1.5-1.5s1.5,0.7,1.5,1.5V79
						C26.2,79.9,25.5,80.5,24.7,80.5z"/>
				</g>
				<g>
					<path class="st2" d="M30.2,80.5c-0.8,0-1.5-0.7-1.5-1.5v-2.3c0-0.8,0.7-1.5,1.5-1.5s1.5,0.7,1.5,1.5V79
						C31.7,79.9,31,80.5,30.2,80.5z"/>
				</g>
				<g>
					<path class="st2" d="M35.7,80.5c-0.8,0-1.5-0.7-1.5-1.5v-2.3c0-0.8,0.7-1.5,1.5-1.5s1.5,0.7,1.5,1.5V79
						C37.2,79.9,36.6,80.5,35.7,80.5z"/>
				</g>
				<g>
					<path class="st2" d="M41.3,80.5c-0.8,0-1.5-0.7-1.5-1.5v-2.3c0-0.8,0.7-1.5,1.5-1.5s1.5,0.7,1.5,1.5V79
						C42.8,79.9,42.1,80.5,41.3,80.5z"/>
				</g>
			</g>
		</g>
		<g>
			<g>
				<g>
					<path class="st0" d="M47.5,90.9c0,1.3-1,2.3-2.3,2.3H3.8c-1.2,0-2.3-1-2.3-2.3v-5.7c0-1.3,1-2.3,2.3-2.3h41.5
						c1.3,0,2.3,1,2.3,2.3L47.5,90.9L47.5,90.9z"/>
				</g>
				<g>
					<path class="st1" d="M3.8,83c-1.2,0-2.2,0.9-2.2,2.1c0.1,1.2,1.1,2.1,2.2,2.1h41.5c1.2,0,2.2-0.9,2.2-2.1
						c-0.1-1.2-1.1-2.1-2.2-2.1H3.8z"/>
				</g>
				<g>
					<path class="st2" d="M45.3,94.7H3.8C1.7,94.7,0,93,0,90.9v-5.7c0-2.1,1.7-3.8,3.8-3.8h41.5c2.1,0,3.8,1.7,3.8,3.8v5.7
						C49,93,47.3,94.7,45.3,94.7z M3.8,84.5c-0.4,0-0.8,0.3-0.8,0.8V91c0,0.4,0.3,0.8,0.8,0.8h41.5c0.4,0,0.8-0.3,0.8-0.8v-5.7
						c0-0.4-0.3-0.8-0.8-0.8H3.8z"/>
				</g>
			</g>
			<g>
				<g>
					<path class="st2" d="M8.1,90.7c-0.8,0-1.5-0.7-1.5-1.5v-2.3c0-0.8,0.7-1.5,1.5-1.5s1.5,0.7,1.5,1.5v2.3
						C9.6,90,8.9,90.7,8.1,90.7z"/>
				</g>
				<g>
					<path class="st2" d="M13.6,90.7c-0.8,0-1.5-0.7-1.5-1.5v-2.3c0-0.8,0.7-1.5,1.5-1.5s1.5,0.7,1.5,1.5v2.3
						C15.1,90,14.4,90.7,13.6,90.7z"/>
				</g>
				<g>
					<path class="st2" d="M19.1,90.7c-0.8,0-1.5-0.7-1.5-1.5v-2.3c0-0.8,0.7-1.5,1.5-1.5s1.5,0.7,1.5,1.5v2.3
						C20.6,90,20,90.7,19.1,90.7z"/>
				</g>
				<g>
					<path class="st2" d="M24.7,90.7c-0.8,0-1.5-0.7-1.5-1.5v-2.3c0-0.8,0.7-1.5,1.5-1.5s1.5,0.7,1.5,1.5v2.3
						C26.2,90,25.5,90.7,24.7,90.7z"/>
				</g>
				<g>
					<path class="st2" d="M30.2,90.7c-0.8,0-1.5-0.7-1.5-1.5v-2.3c0-0.8,0.7-1.5,1.5-1.5s1.5,0.7,1.5,1.5v2.3
						C31.7,90,31,90.7,30.2,90.7z"/>
				</g>
				<g>
					<path class="st2" d="M35.7,90.7c-0.8,0-1.5-0.7-1.5-1.5v-2.3c0-0.8,0.7-1.5,1.5-1.5s1.5,0.7,1.5,1.5v2.3
						C37.2,90,36.6,90.7,35.7,90.7z"/>
				</g>
				<g>
					<path class="st2" d="M41.3,90.7c-0.8,0-1.5-0.7-1.5-1.5v-2.3c0-0.8,0.7-1.5,1.5-1.5s1.5,0.7,1.5,1.5v2.3
						C42.8,90,42.1,90.7,41.3,90.7z"/>
				</g>
			</g>
		</g>
		<g>
			<g>
				<g>
					<path class="st0" d="M47.5,101.1c0,1.3-1,2.3-2.3,2.3H3.8c-1.2,0-2.3-1-2.3-2.3v-5.7c0-1.3,1-2.3,2.3-2.3h41.5
						c1.3,0,2.3,1,2.3,2.3L47.5,101.1L47.5,101.1z"/>
				</g>
				<g>
					<path class="st1" d="M3.8,93.2c-1.2,0-2.2,0.9-2.2,2.1c0.1,1.2,1.1,2.1,2.2,2.1h41.5c1.2,0,2.2-0.9,2.2-2.1
						c-0.1-1.2-1.1-2.1-2.2-2.1H3.8z"/>
				</g>
				<g>
					<path class="st2" d="M45.3,104.9H3.8c-2.1,0-3.8-1.7-3.8-3.8v-5.7c0-2.1,1.7-3.8,3.8-3.8h41.5c2.1,0,3.8,1.7,3.8,3.8v5.7
						C49,103.2,47.3,104.9,45.3,104.9z M3.8,94.7C3.3,94.7,3,95,3,95.4v5.7c0,0.4,0.3,0.8,0.8,0.8h41.5c0.4,0,0.8-0.3,0.8-0.8v-5.7
						c0-0.4-0.3-0.8-0.8-0.8L3.8,94.7L3.8,94.7z"/>
				</g>
			</g>
			<g>
				<g>
					<path class="st2" d="M8.1,100.9c-0.8,0-1.5-0.7-1.5-1.5v-2.3c0-0.8,0.7-1.5,1.5-1.5s1.5,0.7,1.5,1.5v2.3
						C9.6,100.2,8.9,100.9,8.1,100.9z"/>
				</g>
				<g>
					<path class="st2" d="M13.6,100.9c-0.8,0-1.5-0.7-1.5-1.5v-2.3c0-0.8,0.7-1.5,1.5-1.5s1.5,0.7,1.5,1.5v2.3
						C15.1,100.2,14.4,100.9,13.6,100.9z"/>
				</g>
				<g>
					<path class="st2" d="M19.1,100.9c-0.8,0-1.5-0.7-1.5-1.5v-2.3c0-0.8,0.7-1.5,1.5-1.5s1.5,0.7,1.5,1.5v2.3
						C20.6,100.2,20,100.9,19.1,100.9z"/>
				</g>
				<g>
					<path class="st2" d="M24.7,100.9c-0.8,0-1.5-0.7-1.5-1.5v-2.3c0-0.8,0.7-1.5,1.5-1.5s1.5,0.7,1.5,1.5v2.3
						C26.2,100.2,25.5,100.9,24.7,100.9z"/>
				</g>
				<g>
					<path class="st2" d="M30.2,100.9c-0.8,0-1.5-0.7-1.5-1.5v-2.3c0-0.8,0.7-1.5,1.5-1.5s1.5,0.7,1.5,1.5v2.3
						C31.7,100.2,31,100.9,30.2,100.9z"/>
				</g>
				<g>
					<path class="st2" d="M35.7,100.9c-0.8,0-1.5-0.7-1.5-1.5v-2.3c0-0.8,0.7-1.5,1.5-1.5s1.5,0.7,1.5,1.5v2.3
						C37.2,100.2,36.6,100.9,35.7,100.9z"/>
				</g>
				<g>
					<path class="st2" d="M41.3,100.9c-0.8,0-1.5-0.7-1.5-1.5v-2.3c0-0.8,0.7-1.5,1.5-1.5s1.5,0.7,1.5,1.5v2.3
						C42.8,100.2,42.1,100.9,41.3,100.9z"/>
				</g>
			</g>
		</g>
		<g>
			<g>
				<g>
					<path class="st0" d="M47.5,111.3c0,1.3-1,2.3-2.3,2.3H3.8c-1.2,0-2.3-1-2.3-2.3v-5.7c0-1.2,1-2.3,2.3-2.3h41.5
						c1.3,0,2.3,1,2.3,2.3L47.5,111.3L47.5,111.3z"/>
				</g>
				<g>
					<path class="st1" d="M3.8,103.4c-1.2,0-2.2,0.9-2.2,2.1c0.1,1.2,1.1,2.1,2.2,2.1h41.5c1.2,0,2.2-0.9,2.2-2.1
						c-0.1-1.2-1.1-2.1-2.2-2.1H3.8z"/>
				</g>
				<g>
					<path class="st2" d="M45.3,115.1H3.8c-2.1,0-3.8-1.7-3.8-3.8v-5.7c0-2.1,1.7-3.8,3.8-3.8h41.5c2.1,0,3.8,1.7,3.8,3.8v5.7
						C49,113.4,47.3,115.1,45.3,115.1z M3.8,104.9c-0.4,0-0.8,0.3-0.8,0.8v5.7c0,0.4,0.3,0.8,0.8,0.8h41.5c0.4,0,0.8-0.3,0.8-0.8
						v-5.7c0-0.4-0.3-0.8-0.8-0.8H3.8z"/>
				</g>
			</g>
			<g>
				<g>
					<path class="st2" d="M8.1,111.1c-0.8,0-1.5-0.7-1.5-1.5v-2.3c0-0.8,0.7-1.5,1.5-1.5s1.5,0.7,1.5,1.5v2.3
						C9.6,110.4,8.9,111.1,8.1,111.1z"/>
				</g>
				<g>
					<path class="st2" d="M13.6,111.1c-0.8,0-1.5-0.7-1.5-1.5v-2.3c0-0.8,0.7-1.5,1.5-1.5s1.5,0.7,1.5,1.5v2.3
						C15.1,110.4,14.4,111.1,13.6,111.1z"/>
				</g>
				<g>
					<path class="st2" d="M19.1,111.1c-0.8,0-1.5-0.7-1.5-1.5v-2.3c0-0.8,0.7-1.5,1.5-1.5s1.5,0.7,1.5,1.5v2.3
						C20.6,110.4,20,111.1,19.1,111.1z"/>
				</g>
				<g>
					<path class="st2" d="M24.7,111.1c-0.8,0-1.5-0.7-1.5-1.5v-2.3c0-0.8,0.7-1.5,1.5-1.5s1.5,0.7,1.5,1.5v2.3
						C26.2,110.4,25.5,111.1,24.7,111.1z"/>
				</g>
				<g>
					<path class="st2" d="M30.2,111.1c-0.8,0-1.5-0.7-1.5-1.5v-2.3c0-0.8,0.7-1.5,1.5-1.5s1.5,0.7,1.5,1.5v2.3
						C31.7,110.4,31,111.1,30.2,111.1z"/>
				</g>
				<g>
					<path class="st2" d="M35.7,111.1c-0.8,0-1.5-0.7-1.5-1.5v-2.3c0-0.8,0.7-1.5,1.5-1.5s1.5,0.7,1.5,1.5v2.3
						C37.2,110.4,36.6,111.1,35.7,111.1z"/>
				</g>
				<g>
					<path class="st2" d="M41.3,111.1c-0.8,0-1.5-0.7-1.5-1.5v-2.3c0-0.8,0.7-1.5,1.5-1.5s1.5,0.7,1.5,1.5v2.3
						C42.8,110.4,42.1,111.1,41.3,111.1z"/>
				</g>
			</g>
		</g>
		<g>
			<g>
				<g>
					<path class="st0" d="M47.5,121.5c0,1.3-1,2.3-2.3,2.3H3.8c-1.2,0-2.3-1-2.3-2.3v-5.7c0-1.3,1-2.3,2.3-2.3h41.5
						c1.3,0,2.3,1,2.3,2.3L47.5,121.5L47.5,121.5z"/>
				</g>
				<g>
					<path class="st1" d="M3.8,113.6c-1.2,0-2.2,0.9-2.2,2.1c0.1,1.2,1.1,2.1,2.2,2.1h41.5c1.2,0,2.2-0.9,2.2-2.1
						c-0.1-1.2-1.1-2.1-2.2-2.1H3.8z"/>
				</g>
				<g>
					<path class="st2" d="M45.3,125.2H3.8c-2.1,0-3.8-1.7-3.8-3.8v-5.7c0-2.1,1.7-3.8,3.8-3.8h41.5c2.1,0,3.8,1.7,3.8,3.8v5.7
						C49,123.6,47.3,125.2,45.3,125.2z M3.8,115.1c-0.4,0-0.8,0.3-0.8,0.8v5.7c0,0.4,0.3,0.8,0.8,0.8h41.5c0.4,0,0.8-0.3,0.8-0.8
						v-5.7c0-0.4-0.3-0.8-0.8-0.8H3.8z"/>
				</g>
			</g>
			<g>
				<g>
					<path class="st2" d="M8.1,121.3c-0.8,0-1.5-0.7-1.5-1.5v-2.3c0-0.8,0.7-1.5,1.5-1.5s1.5,0.7,1.5,1.5v2.3
						C9.6,120.6,8.9,121.3,8.1,121.3z"/>
				</g>
				<g>
					<path class="st2" d="M13.6,121.3c-0.8,0-1.5-0.7-1.5-1.5v-2.3c0-0.8,0.7-1.5,1.5-1.5s1.5,0.7,1.5,1.5v2.3
						C15.1,120.6,14.4,121.3,13.6,121.3z"/>
				</g>
				<g>
					<path class="st2" d="M19.1,121.3c-0.8,0-1.5-0.7-1.5-1.5v-2.3c0-0.8,0.7-1.5,1.5-1.5s1.5,0.7,1.5,1.5v2.3
						C20.6,120.6,20,121.3,19.1,121.3z"/>
				</g>
				<g>
					<path class="st2" d="M24.7,121.3c-0.8,0-1.5-0.7-1.5-1.5v-2.3c0-0.8,0.7-1.5,1.5-1.5s1.5,0.7,1.5,1.5v2.3
						C26.2,120.6,25.5,121.3,24.7,121.3z"/>
				</g>
				<g>
					<path class="st2" d="M30.2,121.3c-0.8,0-1.5-0.7-1.5-1.5v-2.3c0-0.8,0.7-1.5,1.5-1.5s1.5,0.7,1.5,1.5v2.3
						C31.7,120.6,31,121.3,30.2,121.3z"/>
				</g>
				<g>
					<path class="st2" d="M35.7,121.3c-0.8,0-1.5-0.7-1.5-1.5v-2.3c0-0.8,0.7-1.5,1.5-1.5s1.5,0.7,1.5,1.5v2.3
						C37.2,120.6,36.6,121.3,35.7,121.3z"/>
				</g>
				<g>
					<path class="st2" d="M41.3,121.3c-0.8,0-1.5-0.7-1.5-1.5v-2.3c0-0.8,0.7-1.5,1.5-1.5s1.5,0.7,1.5,1.5v2.3
						C42.8,120.6,42.1,121.3,41.3,121.3z"/>
				</g>
			</g>
		</g>
	</g>
	<g>
		<g>
			<g>
				<g>
					<path class="st0" d="M98.2,20.2c0,1.3-1,2.3-2.3,2.3H54.4c-1.2,0-2.3-1-2.3-2.3v-5.7c0-1.3,1-2.3,2.3-2.3H96
						c1.3,0,2.3,1,2.3,2.3v5.7H98.2z"/>
				</g>
				<g>
					<path class="st1" d="M54.4,12.3c-1.2,0-2.2,0.9-2.2,2.1c0.1,1.2,1.1,2.1,2.2,2.1H96c1.2,0,2.2-0.9,2.2-2.1
						c-0.1-1.2-1.1-2.1-2.2-2.1C96,12.3,54.4,12.3,54.4,12.3z"/>
				</g>
				<g>
					<path class="st2" d="M96,24H54.4c-2.1,0-3.8-1.7-3.8-3.8v-5.7c0-2.1,1.7-3.8,3.8-3.8H96c2.1,0,3.8,1.7,3.8,3.8v5.7
						C99.7,22.3,98,24,96,24z M54.4,13.8c-0.4,0-0.8,0.3-0.8,0.8v5.7c0,0.4,0.3,0.8,0.8,0.8H96c0.4,0,0.8-0.3,0.8-0.8v-5.7
						c0-0.4-0.3-0.8-0.8-0.8C96,13.8,54.4,13.8,54.4,13.8z"/>
				</g>
			</g>
			<g>
				<g>
					<path class="st2" d="M58.8,20c-0.8,0-1.5-0.7-1.5-1.5v-2.3c0-0.8,0.7-1.5,1.5-1.5s1.5,0.7,1.5,1.5v2.3
						C60.3,19.3,59.6,20,58.8,20z"/>
				</g>
				<g>
					<path class="st2" d="M64.3,20c-0.8,0-1.5-0.7-1.5-1.5v-2.3c0-0.8,0.7-1.5,1.5-1.5c0.8,0,1.5,0.7,1.5,1.5v2.3
						C65.8,19.3,65.1,20,64.3,20z"/>
				</g>
				<g>
					<path class="st2" d="M69.8,20c-0.8,0-1.5-0.7-1.5-1.5v-2.3c0-0.8,0.7-1.5,1.5-1.5s1.5,0.7,1.5,1.5v2.3
						C71.3,19.3,70.7,20,69.8,20z"/>
				</g>
				<g>
					<path class="st2" d="M75.4,20c-0.8,0-1.5-0.7-1.5-1.5v-2.3c0-0.8,0.7-1.5,1.5-1.5s1.5,0.7,1.5,1.5v2.3
						C76.9,19.3,76.2,20,75.4,20z"/>
				</g>
				<g>
					<path class="st2" d="M80.9,20c-0.8,0-1.5-0.7-1.5-1.5v-2.3c0-0.8,0.7-1.5,1.5-1.5s1.5,0.7,1.5,1.5v2.3
						C82.4,19.3,81.7,20,80.9,20z"/>
				</g>
				<g>
					<path class="st2" d="M86.4,20c-0.8,0-1.5-0.7-1.5-1.5v-2.3c0-0.8,0.7-1.5,1.5-1.5s1.5,0.7,1.5,1.5v2.3
						C87.9,19.3,87.2,20,86.4,20z"/>
				</g>
				<g>
					<path class="st2" d="M91.9,20c-0.8,0-1.5-0.7-1.5-1.5v-2.3c0-0.8,0.7-1.5,1.5-1.5s1.5,0.7,1.5,1.5v2.3
						C93.4,19.3,92.8,20,91.9,20z"/>
				</g>
			</g>
		</g>
		<g>
			<g>
				<g>
					<path class="st0" d="M98.2,30.4c0,1.3-1,2.3-2.3,2.3H54.4c-1.2,0-2.3-1-2.3-2.3v-5.7c0-1.3,1-2.3,2.3-2.3H96
						c1.3,0,2.3,1,2.3,2.3v5.7H98.2z"/>
				</g>
				<g>
					<path class="st1" d="M54.4,22.5c-1.2,0-2.2,0.9-2.2,2.1c0.1,1.2,1.1,2.1,2.2,2.1H96c1.2,0,2.2-0.9,2.2-2.1
						c-0.1-1.2-1.1-2.1-2.2-2.1H54.4z"/>
				</g>
				<g>
					<path class="st2" d="M96,34.2H54.4c-2.1,0-3.8-1.7-3.8-3.8v-5.7c0-2.1,1.7-3.8,3.8-3.8H96c2.1,0,3.8,1.7,3.8,3.8v5.7
						C99.7,32.5,98,34.2,96,34.2z M54.4,24c-0.4,0-0.8,0.3-0.8,0.8v5.7c0,0.4,0.3,0.8,0.8,0.8H96c0.4,0,0.8-0.3,0.8-0.8v-5.7
						c0-0.4-0.3-0.8-0.8-0.8H54.4z"/>
				</g>
			</g>
			<g>
				<g>
					<path class="st2" d="M58.8,30.2c-0.8,0-1.5-0.7-1.5-1.5v-2.3c0-0.8,0.7-1.5,1.5-1.5s1.5,0.7,1.5,1.5v2.3
						C60.3,29.5,59.6,30.2,58.8,30.2z"/>
				</g>
				<g>
					<path class="st2" d="M64.3,30.2c-0.8,0-1.5-0.7-1.5-1.5v-2.3c0-0.8,0.7-1.5,1.5-1.5c0.8,0,1.5,0.7,1.5,1.5v2.3
						C65.8,29.5,65.1,30.2,64.3,30.2z"/>
				</g>
				<g>
					<path class="st2" d="M69.8,30.2c-0.8,0-1.5-0.7-1.5-1.5v-2.3c0-0.8,0.7-1.5,1.5-1.5s1.5,0.7,1.5,1.5v2.3
						C71.3,29.5,70.7,30.2,69.8,30.2z"/>
				</g>
				<g>
					<path class="st2" d="M75.4,30.2c-0.8,0-1.5-0.7-1.5-1.5v-2.3c0-0.8,0.7-1.5,1.5-1.5s1.5,0.7,1.5,1.5v2.3
						C76.9,29.5,76.2,30.2,75.4,30.2z"/>
				</g>
				<g>
					<path class="st2" d="M80.9,30.2c-0.8,0-1.5-0.7-1.5-1.5v-2.3c0-0.8,0.7-1.5,1.5-1.5s1.5,0.7,1.5,1.5v2.3
						C82.4,29.5,81.7,30.2,80.9,30.2z"/>
				</g>
				<g>
					<path class="st2" d="M86.4,30.2c-0.8,0-1.5-0.7-1.5-1.5v-2.3c0-0.8,0.7-1.5,1.5-1.5s1.5,0.7,1.5,1.5v2.3
						C87.9,29.5,87.2,30.2,86.4,30.2z"/>
				</g>
				<g>
					<path class="st2" d="M91.9,30.2c-0.8,0-1.5-0.7-1.5-1.5v-2.3c0-0.8,0.7-1.5,1.5-1.5s1.5,0.7,1.5,1.5v2.3
						C93.4,29.5,92.8,30.2,91.9,30.2z"/>
				</g>
			</g>
		</g>
		<g>
			<g>
				<g>
					<path class="st0" d="M98.2,40.6c0,1.3-1,2.3-2.3,2.3H54.4c-1.2,0-2.3-1-2.3-2.3v-5.7c0-1.3,1-2.3,2.3-2.3H96
						c1.3,0,2.3,1,2.3,2.3v5.7H98.2z"/>
				</g>
				<g>
					<path class="st1" d="M54.4,32.7c-1.2,0-2.2,0.9-2.2,2.1c0.1,1.2,1.1,2.1,2.2,2.1H96c1.2,0,2.2-0.9,2.2-2.1
						c-0.1-1.2-1.1-2.1-2.2-2.1H54.4z"/>
				</g>
				<g>
					<path class="st2" d="M96,44.4H54.4c-2.1,0-3.8-1.7-3.8-3.8v-5.7c0-2.1,1.7-3.8,3.8-3.8H96c2.1,0,3.8,1.7,3.8,3.8v5.7
						C99.7,42.7,98,44.4,96,44.4z M54.4,34.2c-0.4,0-0.8,0.3-0.8,0.8v5.7c0,0.4,0.3,0.8,0.8,0.8H96c0.4,0,0.8-0.3,0.8-0.8V35
						c0-0.4-0.3-0.8-0.8-0.8H54.4z"/>
				</g>
			</g>
			<g>
				<g>
					<path class="st2" d="M58.8,40.4c-0.8,0-1.5-0.7-1.5-1.5v-2.3c0-0.8,0.7-1.5,1.5-1.5s1.5,0.7,1.5,1.5v2.3
						C60.3,39.7,59.6,40.4,58.8,40.4z"/>
				</g>
				<g>
					<path class="st2" d="M64.3,40.4c-0.8,0-1.5-0.7-1.5-1.5v-2.3c0-0.8,0.7-1.5,1.5-1.5c0.8,0,1.5,0.7,1.5,1.5v2.3
						C65.8,39.7,65.1,40.4,64.3,40.4z"/>
				</g>
				<g>
					<path class="st2" d="M69.8,40.4c-0.8,0-1.5-0.7-1.5-1.5v-2.3c0-0.8,0.7-1.5,1.5-1.5s1.5,0.7,1.5,1.5v2.3
						C71.3,39.7,70.7,40.4,69.8,40.4z"/>
				</g>
				<g>
					<path class="st2" d="M75.4,40.4c-0.8,0-1.5-0.7-1.5-1.5v-2.3c0-0.8,0.7-1.5,1.5-1.5s1.5,0.7,1.5,1.5v2.3
						C76.9,39.7,76.2,40.4,75.4,40.4z"/>
				</g>
				<g>
					<path class="st2" d="M80.9,40.4c-0.8,0-1.5-0.7-1.5-1.5v-2.3c0-0.8,0.7-1.5,1.5-1.5s1.5,0.7,1.5,1.5v2.3
						C82.4,39.7,81.7,40.4,80.9,40.4z"/>
				</g>
				<g>
					<path class="st2" d="M86.4,40.4c-0.8,0-1.5-0.7-1.5-1.5v-2.3c0-0.8,0.7-1.5,1.5-1.5s1.5,0.7,1.5,1.5v2.3
						C87.9,39.7,87.2,40.4,86.4,40.4z"/>
				</g>
				<g>
					<path class="st2" d="M91.9,40.4c-0.8,0-1.5-0.7-1.5-1.5v-2.3c0-0.8,0.7-1.5,1.5-1.5s1.5,0.7,1.5,1.5v2.3
						C93.4,39.7,92.8,40.4,91.9,40.4z"/>
				</g>
			</g>
		</g>
		<g>
			<g>
				<g>
					<path class="st0" d="M98.2,50.8c0,1.3-1,2.3-2.3,2.3H54.4c-1.2,0-2.3-1-2.3-2.3v-5.7c0-1.3,1-2.3,2.3-2.3H96
						c1.3,0,2.3,1,2.3,2.3v5.7H98.2z"/>
				</g>
				<g>
					<path class="st1" d="M54.4,42.9c-1.2,0-2.2,0.9-2.2,2.1c0.1,1.2,1.1,2.1,2.2,2.1H96c1.2,0,2.2-0.9,2.2-2.1
						c-0.1-1.2-1.1-2.1-2.2-2.1H54.4z"/>
				</g>
				<g>
					<path class="st2" d="M96,54.5H54.4c-2.1,0-3.8-1.7-3.8-3.8V45c0-2.1,1.7-3.8,3.8-3.8H96c2.1,0,3.8,1.7,3.8,3.8v5.7
						C99.7,52.9,98,54.5,96,54.5z M54.4,44.4c-0.4,0-0.8,0.3-0.8,0.8v5.7c0,0.4,0.3,0.8,0.8,0.8H96c0.4,0,0.8-0.3,0.8-0.8v-5.7
						c0-0.4-0.3-0.8-0.8-0.8H54.4z"/>
				</g>
			</g>
			<g>
				<g>
					<path class="st2" d="M58.8,50.6c-0.8,0-1.5-0.7-1.5-1.5v-2.3c0-0.8,0.7-1.5,1.5-1.5s1.5,0.7,1.5,1.5v2.3
						C60.3,49.9,59.6,50.6,58.8,50.6z"/>
				</g>
				<g>
					<path class="st2" d="M64.3,50.6c-0.8,0-1.5-0.7-1.5-1.5v-2.3c0-0.8,0.7-1.5,1.5-1.5c0.8,0,1.5,0.7,1.5,1.5v2.3
						C65.8,49.9,65.1,50.6,64.3,50.6z"/>
				</g>
				<g>
					<path class="st2" d="M69.8,50.6c-0.8,0-1.5-0.7-1.5-1.5v-2.3c0-0.8,0.7-1.5,1.5-1.5s1.5,0.7,1.5,1.5v2.3
						C71.3,49.9,70.7,50.6,69.8,50.6z"/>
				</g>
				<g>
					<path class="st2" d="M75.4,50.6c-0.8,0-1.5-0.7-1.5-1.5v-2.3c0-0.8,0.7-1.5,1.5-1.5s1.5,0.7,1.5,1.5v2.3
						C76.9,49.9,76.2,50.6,75.4,50.6z"/>
				</g>
				<g>
					<path class="st2" d="M80.9,50.6c-0.8,0-1.5-0.7-1.5-1.5v-2.3c0-0.8,0.7-1.5,1.5-1.5s1.5,0.7,1.5,1.5v2.3
						C82.4,49.9,81.7,50.6,80.9,50.6z"/>
				</g>
				<g>
					<path class="st2" d="M86.4,50.6c-0.8,0-1.5-0.7-1.5-1.5v-2.3c0-0.8,0.7-1.5,1.5-1.5s1.5,0.7,1.5,1.5v2.3
						C87.9,49.9,87.2,50.6,86.4,50.6z"/>
				</g>
				<g>
					<path class="st2" d="M91.9,50.6c-0.8,0-1.5-0.7-1.5-1.5v-2.3c0-0.8,0.7-1.5,1.5-1.5s1.5,0.7,1.5,1.5v2.3
						C93.4,49.9,92.8,50.6,91.9,50.6z"/>
				</g>
			</g>
		</g>
		<g>
			<g>
				<g>
					<path class="st0" d="M98.2,61c0,1.3-1,2.3-2.3,2.3H54.4c-1.2,0-2.3-1-2.3-2.3v-5.7c0-1.3,1-2.3,2.3-2.3H96c1.3,0,2.3,1,2.3,2.3
						V61H98.2z"/>
				</g>
				<g>
					<path class="st1" d="M54.4,53c-1.2,0-2.2,0.9-2.2,2.1c0.1,1.2,1.1,2.1,2.2,2.1H96c1.2,0,2.2-0.9,2.2-2.1C98.1,54,97.1,53,96,53
						H54.4z"/>
				</g>
				<g>
					<path class="st2" d="M96,64.7H54.4c-2.1,0-3.8-1.7-3.8-3.8v-5.7c0-2.1,1.7-3.8,3.8-3.8H96c2.1,0,3.8,1.7,3.8,3.8V61
						C99.7,63,98,64.7,96,64.7z M54.4,54.5c-0.4,0-0.8,0.3-0.8,0.8V61c0,0.4,0.3,0.8,0.8,0.8H96c0.4,0,0.8-0.3,0.8-0.8v-5.7
						c0-0.4-0.3-0.8-0.8-0.8H54.4z"/>
				</g>
			</g>
			<g>
				<g>
					<path class="st2" d="M58.8,60.8c-0.8,0-1.5-0.7-1.5-1.5V57c0-0.8,0.7-1.5,1.5-1.5s1.5,0.7,1.5,1.5v2.3
						C60.3,60.1,59.6,60.8,58.8,60.8z"/>
				</g>
				<g>
					<path class="st2" d="M64.3,60.8c-0.8,0-1.5-0.7-1.5-1.5V57c0-0.8,0.7-1.5,1.5-1.5c0.8,0,1.5,0.7,1.5,1.5v2.3
						C65.8,60.1,65.1,60.8,64.3,60.8z"/>
				</g>
				<g>
					<path class="st2" d="M69.8,60.8c-0.8,0-1.5-0.7-1.5-1.5V57c0-0.8,0.7-1.5,1.5-1.5s1.5,0.7,1.5,1.5v2.3
						C71.3,60.1,70.7,60.8,69.8,60.8z"/>
				</g>
				<g>
					<path class="st2" d="M75.4,60.8c-0.8,0-1.5-0.7-1.5-1.5V57c0-0.8,0.7-1.5,1.5-1.5s1.5,0.7,1.5,1.5v2.3
						C76.9,60.1,76.2,60.8,75.4,60.8z"/>
				</g>
				<g>
					<path class="st2" d="M80.9,60.8c-0.8,0-1.5-0.7-1.5-1.5V57c0-0.8,0.7-1.5,1.5-1.5s1.5,0.7,1.5,1.5v2.3
						C82.4,60.1,81.7,60.8,80.9,60.8z"/>
				</g>
				<g>
					<path class="st2" d="M86.4,60.8c-0.8,0-1.5-0.7-1.5-1.5V57c0-0.8,0.7-1.5,1.5-1.5s1.5,0.7,1.5,1.5v2.3
						C87.9,60.1,87.2,60.8,86.4,60.8z"/>
				</g>
				<g>
					<path class="st2" d="M91.9,60.8c-0.8,0-1.5-0.7-1.5-1.5V57c0-0.8,0.7-1.5,1.5-1.5s1.5,0.7,1.5,1.5v2.3
						C93.4,60.1,92.8,60.8,91.9,60.8z"/>
				</g>
			</g>
		</g>
		<g>
			<g>
				<g>
					<path class="st0" d="M98.2,71.2c0,1.3-1,2.3-2.3,2.3H54.4c-1.2,0-2.3-1-2.3-2.3v-5.7c0-1.3,1-2.3,2.3-2.3H96
						c1.3,0,2.3,1,2.3,2.3v5.7H98.2z"/>
				</g>
				<g>
					<path class="st1" d="M54.4,63.2c-1.2,0-2.2,0.9-2.2,2.1c0.1,1.2,1.1,2.1,2.2,2.1H96c1.2,0,2.2-0.9,2.2-2.1
						c-0.1-1.2-1.1-2.1-2.2-2.1C96,63.2,54.4,63.2,54.4,63.2z"/>
				</g>
				<g>
					<path class="st2" d="M96,74.9H54.4c-2.1,0-3.8-1.7-3.8-3.8v-5.7c0-2.1,1.7-3.8,3.8-3.8H96c2.1,0,3.8,1.7,3.8,3.8v5.7
						C99.7,73.2,98,74.9,96,74.9z M54.4,64.7c-0.4,0-0.8,0.3-0.8,0.8v5.7c0,0.4,0.3,0.8,0.8,0.8H96c0.4,0,0.8-0.3,0.8-0.8v-5.7
						c0-0.4-0.3-0.8-0.8-0.8H54.4z"/>
				</g>
			</g>
			<g>
				<g>
					<path class="st2" d="M58.8,71c-0.8,0-1.5-0.7-1.5-1.5v-2.3c0-0.8,0.7-1.5,1.5-1.5s1.5,0.7,1.5,1.5v2.3
						C60.3,70.3,59.6,71,58.8,71z"/>
				</g>
				<g>
					<path class="st2" d="M64.3,71c-0.8,0-1.5-0.7-1.5-1.5v-2.3c0-0.8,0.7-1.5,1.5-1.5c0.8,0,1.5,0.7,1.5,1.5v2.3
						C65.8,70.3,65.1,71,64.3,71z"/>
				</g>
				<g>
					<path class="st2" d="M69.8,71c-0.8,0-1.5-0.7-1.5-1.5v-2.3c0-0.8,0.7-1.5,1.5-1.5s1.5,0.7,1.5,1.5v2.3
						C71.3,70.3,70.7,71,69.8,71z"/>
				</g>
				<g>
					<path class="st2" d="M75.4,71c-0.8,0-1.5-0.7-1.5-1.5v-2.3c0-0.8,0.7-1.5,1.5-1.5s1.5,0.7,1.5,1.5v2.3
						C76.9,70.3,76.2,71,75.4,71z"/>
				</g>
				<g>
					<path class="st2" d="M80.9,71c-0.8,0-1.5-0.7-1.5-1.5v-2.3c0-0.8,0.7-1.5,1.5-1.5s1.5,0.7,1.5,1.5v2.3
						C82.4,70.3,81.7,71,80.9,71z"/>
				</g>
				<g>
					<path class="st2" d="M86.4,71c-0.8,0-1.5-0.7-1.5-1.5v-2.3c0-0.8,0.7-1.5,1.5-1.5s1.5,0.7,1.5,1.5v2.3
						C87.9,70.3,87.2,71,86.4,71z"/>
				</g>
				<g>
					<path class="st2" d="M91.9,71c-0.8,0-1.5-0.7-1.5-1.5v-2.3c0-0.8,0.7-1.5,1.5-1.5s1.5,0.7,1.5,1.5v2.3
						C93.4,70.3,92.8,71,91.9,71z"/>
				</g>
			</g>
		</g>
		<g>
			<g>
				<g>
					<path class="st0" d="M98.2,81.4c0,1.3-1,2.3-2.3,2.3H54.4c-1.2,0-2.3-1-2.3-2.3v-5.7c0-1.3,1-2.3,2.3-2.3H96
						c1.3,0,2.3,1,2.3,2.3v5.7H98.2z"/>
				</g>
				<g>
					<path class="st1" d="M54.4,73.4c-1.2,0-2.2,0.9-2.2,2.1c0.1,1.2,1.1,2.1,2.2,2.1H96c1.2,0,2.2-0.9,2.2-2.1
						c-0.1-1.2-1.1-2.1-2.2-2.1H54.4z"/>
				</g>
				<g>
					<path class="st2" d="M96,85.1H54.4c-2.1,0-3.8-1.7-3.8-3.8v-5.7c0-2.1,1.7-3.8,3.8-3.8H96c2.1,0,3.8,1.7,3.8,3.8v5.7
						C99.7,83.4,98,85.1,96,85.1z M54.4,74.9c-0.4,0-0.8,0.3-0.8,0.8v5.7c0,0.4,0.3,0.8,0.8,0.8H96c0.4,0,0.8-0.3,0.8-0.8v-5.7
						c0-0.4-0.3-0.8-0.8-0.8H54.4L54.4,74.9z"/>
				</g>
			</g>
			<g>
				<g>
					<path class="st2" d="M58.8,81.2c-0.8,0-1.5-0.7-1.5-1.5v-2.3c0-0.8,0.7-1.5,1.5-1.5s1.5,0.7,1.5,1.5v2.3
						C60.3,80.5,59.6,81.2,58.8,81.2z"/>
				</g>
				<g>
					<path class="st2" d="M64.3,81.2c-0.8,0-1.5-0.7-1.5-1.5v-2.3c0-0.8,0.7-1.5,1.5-1.5c0.8,0,1.5,0.7,1.5,1.5v2.3
						C65.8,80.5,65.1,81.2,64.3,81.2z"/>
				</g>
				<g>
					<path class="st2" d="M69.8,81.2c-0.8,0-1.5-0.7-1.5-1.5v-2.3c0-0.8,0.7-1.5,1.5-1.5s1.5,0.7,1.5,1.5v2.3
						C71.3,80.5,70.7,81.2,69.8,81.2z"/>
				</g>
				<g>
					<path class="st2" d="M75.4,81.2c-0.8,0-1.5-0.7-1.5-1.5v-2.3c0-0.8,0.7-1.5,1.5-1.5s1.5,0.7,1.5,1.5v2.3
						C76.9,80.5,76.2,81.2,75.4,81.2z"/>
				</g>
				<g>
					<path class="st2" d="M80.9,81.2c-0.8,0-1.5-0.7-1.5-1.5v-2.3c0-0.8,0.7-1.5,1.5-1.5s1.5,0.7,1.5,1.5v2.3
						C82.4,80.5,81.7,81.2,80.9,81.2z"/>
				</g>
				<g>
					<path class="st2" d="M86.4,81.2c-0.8,0-1.5-0.7-1.5-1.5v-2.3c0-0.8,0.7-1.5,1.5-1.5s1.5,0.7,1.5,1.5v2.3
						C87.9,80.5,87.2,81.2,86.4,81.2z"/>
				</g>
				<g>
					<path class="st2" d="M91.9,81.2c-0.8,0-1.5-0.7-1.5-1.5v-2.3c0-0.8,0.7-1.5,1.5-1.5s1.5,0.7,1.5,1.5v2.3
						C93.4,80.5,92.8,81.2,91.9,81.2z"/>
				</g>
			</g>
		</g>
		<g>
			<g>
				<g>
					<path class="st0" d="M98.2,91.5c0,1.3-1,2.3-2.3,2.3H54.4c-1.2,0-2.3-1-2.3-2.3v-5.7c0-1.2,1-2.3,2.3-2.3H96
						c1.3,0,2.3,1,2.3,2.3v5.7H98.2z"/>
				</g>
				<g>
					<path class="st1" d="M54.4,83.6c-1.2,0-2.2,0.9-2.2,2.1c0.1,1.2,1.1,2.1,2.2,2.1H96c1.2,0,2.2-0.9,2.2-2.1
						c-0.1-1.2-1.1-2.1-2.2-2.1H54.4z"/>
				</g>
				<g>
					<path class="st2" d="M96,95.3H54.4c-2.1,0-3.8-1.7-3.8-3.8v-5.7c0-2.1,1.7-3.8,3.8-3.8H96c2.1,0,3.8,1.7,3.8,3.8v5.7
						C99.7,93.6,98,95.3,96,95.3z M54.4,85.1c-0.4,0-0.8,0.3-0.8,0.8v5.7c0,0.4,0.3,0.8,0.8,0.8H96c0.4,0,0.8-0.3,0.8-0.8v-5.7
						c0-0.4-0.3-0.8-0.8-0.8H54.4z"/>
				</g>
			</g>
			<g>
				<g>
					<path class="st2" d="M58.8,91.3c-0.8,0-1.5-0.7-1.5-1.5v-2.3c0-0.8,0.7-1.5,1.5-1.5s1.5,0.7,1.5,1.5v2.3
						C60.3,90.7,59.6,91.3,58.8,91.3z"/>
				</g>
				<g>
					<path class="st2" d="M64.3,91.3c-0.8,0-1.5-0.7-1.5-1.5v-2.3c0-0.8,0.7-1.5,1.5-1.5c0.8,0,1.5,0.7,1.5,1.5v2.3
						C65.8,90.7,65.1,91.3,64.3,91.3z"/>
				</g>
				<g>
					<path class="st2" d="M69.8,91.3c-0.8,0-1.5-0.7-1.5-1.5v-2.3c0-0.8,0.7-1.5,1.5-1.5s1.5,0.7,1.5,1.5v2.3
						C71.3,90.7,70.7,91.3,69.8,91.3z"/>
				</g>
				<g>
					<path class="st2" d="M75.4,91.3c-0.8,0-1.5-0.7-1.5-1.5v-2.3c0-0.8,0.7-1.5,1.5-1.5s1.5,0.7,1.5,1.5v2.3
						C76.9,90.7,76.2,91.3,75.4,91.3z"/>
				</g>
				<g>
					<path class="st2" d="M80.9,91.3c-0.8,0-1.5-0.7-1.5-1.5v-2.3c0-0.8,0.7-1.5,1.5-1.5s1.5,0.7,1.5,1.5v2.3
						C82.4,90.7,81.7,91.3,80.9,91.3z"/>
				</g>
				<g>
					<path class="st2" d="M86.4,91.3c-0.8,0-1.5-0.7-1.5-1.5v-2.3c0-0.8,0.7-1.5,1.5-1.5s1.5,0.7,1.5,1.5v2.3
						C87.9,90.7,87.2,91.3,86.4,91.3z"/>
				</g>
				<g>
					<path class="st2" d="M91.9,91.3c-0.8,0-1.5-0.7-1.5-1.5v-2.3c0-0.8,0.7-1.5,1.5-1.5s1.5,0.7,1.5,1.5v2.3
						C93.4,90.7,92.8,91.3,91.9,91.3z"/>
				</g>
			</g>
		</g>
	</g>
	<g>
		<g>
			<polygon class="st3" points="109.8,123.7 40.6,123.7 24.5,30.1 125.9,30.1 			"/>
		</g>
		<g>
			<polygon class="st4" points="32,73.7 118.4,73.7 125.9,30.1 24.5,30.1 			"/>
		</g>
		<g>
			<polygon class="st5" points="93.2,123.7 57.3,123.7 48.9,30.1 101.5,30.1 			"/>
		</g>
		<g>
			<polygon class="st6" points="97.6,73.7 101.5,30.1 48.9,30.1 52.8,73.7 			"/>
		</g>
		<path class="st2" d="M127,29.2c-0.3-0.3-0.7-0.5-1.1-0.5h-16.3V7.8c0-3.1-2.6-5.7-5.7-5.7H46.6c-3.1,0-5.7,2.6-5.7,5.7v20.8H24.5
			c-0.4,0-0.9,0.2-1.1,0.5c-0.3,0.3-0.4,0.8-0.3,1.2l16,93.7c0.1,0.7,0.7,1.2,1.5,1.2h69.2c0.7,0,1.4-0.5,1.5-1.2l16.1-93.6
			C127.4,30,127.3,29.5,127,29.2z M43.9,7.8c0-1.5,1.2-2.7,2.7-2.7h57.3c1.5,0,2.7,1.2,2.7,2.7v20.8H43.9V7.8z M108.5,122.2H41.9
			L26.3,31.6h14.6V39c-2.1,0.7-3.6,2.6-3.6,4.9c0,2.9,2.3,5.2,5.2,5.2s5.2-2.3,5.2-5.2c0-2.4-1.6-4.4-3.8-5v-7.4h80.2L108.5,122.2z
			 M42.5,41.8c1.2,0,2.2,1,2.2,2.2s-1,2.2-2.2,2.2s-2.2-1-2.2-2.2S41.3,41.8,42.5,41.8z"/>
	</g>
	<g>
		<circle class="st1" cx="75.2" cy="76.1" r="27.6"/>
	</g>
	<g>
		<path class="st0" d="M75.2,48.5v55.2c15.2,0,27.6-12.4,27.6-27.6C102.8,60.8,90.5,48.5,75.2,48.5z"/>
	</g>
	<g>
		<circle class="st1" cx="75.2" cy="76.1" r="21.4"/>
	</g>
	<g>
		<path class="st0" d="M60.1,61l30.2,30.2c8.3-8.3,8.3-21.9,0-30.2C82,52.6,68.4,52.6,60.1,61z"/>
	</g>
	<g>
		<path class="st2" d="M84.1,80.9c-0.3,0-0.6-0.1-0.9-0.3c-0.2,0.2-0.5,0.3-0.9,0.3c-0.8,0-1.5-0.7-1.5-1.5c0-1.3,1.1-2.4,2.4-2.4
			s2.4,1.1,2.4,2.4C85.6,80.2,85,80.9,84.1,80.9z"/>
	</g>
	<g>
		<path class="st7" d="M84.6,84.2c0,1.3-1,2.3-2.3,2.3s-2.3-1-2.3-2.3s1-2.3,2.3-2.3S84.6,82.9,84.6,84.2z"/>
	</g>
	<g>
		<path class="st8" d="M82.3,81.9c1.3,0,2.3,1,2.3,2.3s-1,2.3-2.3,2.3"/>
	</g>
	<path class="st2" d="M75.2,47c-16,0-29.1,13-29.1,29.1s13.1,29.1,29.1,29.1s29.1-13.1,29.1-29.1C104.3,60,91.3,47,75.2,47z
		 M100.7,81.6c-0.2-0.2-0.4-0.4-0.7-0.4l-1.5-0.4c-0.3-0.1-0.6-0.1-0.9,0c0.2-1.2,0.4-2.3,0.4-3.5c0.2,0.2,0.6,0.3,0.9,0.3h1.6
		c0.3,0,0.6-0.1,0.8-0.2C101.2,78.8,101,80.2,100.7,81.6z M97.8,87.4l-1.4-0.8c-0.3-0.2-0.6-0.2-0.9-0.2c0.5-1.1,1-2.1,1.4-3.3
		c0.2,0.2,0.4,0.4,0.8,0.5l1.5,0.4c0.1,0,0.3,0.1,0.4,0.1c0.2,0,0.3,0,0.5-0.1c-0.4,1.4-1,2.7-1.7,4C98.3,87.8,98.1,87.6,97.8,87.4z
		 M55.3,76.1c0-2.4,0.5-4.8,1.3-7c0,0.1,0.1,0.2,0.1,0.3c0,0.1,0.1,0.2,0.1,0.3c0.1,0.2,0.2,0.4,0.3,0.7c0,0,0,0.1,0.1,0.1l0,0
		c0.6,1.5,1.6,2.9,2.7,4c1.5,1.5,3.4,2.6,5.4,3.2c-0.6,0.9-1.3,1.9-1.9,2.9c-1.3,2-2.7,4.2-4.5,6.6C56.6,84.1,55.3,80.2,55.3,76.1z
		 M52,88c-0.7-1.3-1.2-2.6-1.7-4c0.1,0,0.3,0.1,0.5,0.1c0.1,0,0.3,0,0.4-0.1l1.5-0.4c0.3-0.1,0.6-0.3,0.8-0.5
		c0.4,1.1,0.8,2.2,1.4,3.3c-0.3,0-0.6,0-0.9,0.2l-1.4,0.8C52.3,87.6,52.1,87.8,52,88z M49.1,77.3c0.2,0.2,0.5,0.2,0.8,0.2h1.6
		c0.3,0,0.6-0.1,0.9-0.3c0.1,1.2,0.2,2.4,0.4,3.5c-0.3-0.1-0.6-0.1-0.9,0l-1.5,0.4c-0.3,0.1-0.5,0.2-0.7,0.4
		C49.4,80.2,49.2,78.8,49.1,77.3z M49.7,70.5c0.2,0.2,0.4,0.4,0.7,0.4l1.5,0.4c0.1,0,0.3,0.1,0.4,0.1c0.2,0,0.4,0,0.5-0.1
		c-0.2,1.2-0.4,2.3-0.4,3.5c-0.2-0.2-0.6-0.3-0.9-0.3h-1.6c-0.3,0-0.6,0.1-0.8,0.2C49.2,73.4,49.4,71.9,49.7,70.5z M52.6,64.7
		l1.4,0.8c0.2,0.1,0.5,0.2,0.8,0.2h0.1c-0.5,1.1-1,2.1-1.4,3.3c-0.2-0.2-0.5-0.4-0.8-0.5l-1.5-0.4c-0.3-0.1-0.6-0.1-0.8,0
		c0.4-1.4,1-2.7,1.7-4C52.1,64.4,52.3,64.6,52.6,64.7z M90.9,58.3c-0.2,0.2-0.4,0.5-0.4,0.9c-0.9-0.8-1.8-1.6-2.8-2.2
		c0.3-0.1,0.5-0.3,0.7-0.6l0.8-1.4c0.1-0.3,0.2-0.5,0.2-0.8c1.2,0.8,2.4,1.7,3.4,2.6c-0.3,0.1-0.5,0.2-0.8,0.4L90.9,58.3z
		 M86.5,53.4l-0.8,1.4c-0.2,0.3-0.2,0.6-0.2,0.9c-1.1-0.5-2.1-1-3.3-1.4c0.2-0.2,0.4-0.4,0.5-0.8l0.4-1.5c0.1-0.3,0.1-0.6,0-0.8
		c1.4,0.4,2.7,1,4,1.7C86.9,53,86.7,53.2,86.5,53.4z M80.3,51.3l-0.4,1.5c-0.1,0.3-0.1,0.6,0,0.9c-1.2-0.2-2.3-0.4-3.5-0.4
		c0.2-0.2,0.3-0.6,0.3-0.9v-1.6c0-0.3-0.1-0.6-0.2-0.8c1.5,0.1,2.9,0.3,4.3,0.6C80.5,50.7,80.4,51,80.3,51.3z M74,53.3
		c-1.2,0.1-2.4,0.2-3.5,0.4c0.1-0.3,0.1-0.6,0-0.9l-0.4-1.5c-0.1-0.3-0.2-0.5-0.4-0.7c1.4-0.3,2.8-0.5,4.3-0.6
		c-0.2,0.2-0.2,0.5-0.2,0.8v1.6C73.7,52.7,73.8,53,74,53.3z M67.2,52.1l0.4,1.5c0.1,0.3,0.3,0.6,0.5,0.8c-1.1,0.4-2.2,0.8-3.3,1.4
		c0-0.3,0-0.6-0.2-0.9l-0.8-1.4c-0.1-0.3-0.4-0.4-0.6-0.6c1.3-0.7,2.6-1.2,4-1.7C67.2,51.5,67.1,51.8,67.2,52.1z M61.3,54.9l0.8,1.4
		c0.2,0.3,0.4,0.5,0.7,0.6c-1,0.7-1.9,1.4-2.8,2.2c0-0.3-0.2-0.6-0.4-0.9l-1.1-1.1c-0.2-0.2-0.5-0.3-0.8-0.4c1.1-1,2.2-1.8,3.4-2.6
		C61.1,54.4,61.1,54.7,61.3,54.9z M69.2,68.5c1.2,1.2,2.1,2.6,2.7,4.1c0.2,0.4,0.5,0.7,0.8,0.8s0.8,0.1,1.2,0c1-0.5,2-0.6,3.3-0.6
		c3,0,8.3,2.4,10.4,6.9c1.9,4,0.9,8.8-3.1,13.8l0,0c-2.9,1.5-6.1,2.4-9.4,2.4c-5.3,0-10.3-2.1-14.1-5.8c-0.1-0.1-0.2-0.2-0.3-0.4
		c0.2-0.2,0.3-0.4,0.5-0.6c0.2,0.1,0.5,0.1,0.8,0c1.7-0.5,2.6,1.2,2.7,1.4c0.3,0.5,0.8,0.8,1.3,0.8c0.2,0,0.5-0.1,0.7-0.2
		c0.7-0.4,1-1.3,0.7-2c-0.5-1.1-1.9-2.7-4-3.1c0.3-0.4,0.6-0.9,0.9-1.3c0.1,0,0.1,0,0.2,0c1.7-0.5,2.6,1.2,2.7,1.4
		c0.3,0.5,0.8,0.8,1.3,0.8c0.2,0,0.5-0.1,0.7-0.2c0.7-0.4,1-1.3,0.7-2c-0.5-1-1.8-2.5-3.6-3c1.6-2.5,2.9-4.5,4.5-6.1
		c0.4-0.3,0.5-0.8,0.4-1.3s-0.4-0.9-0.8-1.1c-1-0.5-2-1.1-2.9-1.9l0,0c-0.2-0.2-0.4-0.4-0.6-0.6c-0.4-0.4-0.7-0.8-1.1-1.2
		c-0.1-0.1-0.2-0.3-0.3-0.4c-0.5-0.7-0.9-1.4-1.2-2.1l1.2-1.2C66.8,66.6,68.1,67.4,69.2,68.5z M61.2,69.3c0.4,0.2,0.8,0.5,1.2,0.8
		c0.1,0.1,0.1,0.2,0.2,0.3c0.2,0.4,0.5,0.7,0.7,1c0.1,0.1,0.2,0.3,0.3,0.4c0.3,0.4,0.7,0.8,1.1,1.2l0,0l0,0c0.2,0.2,0.4,0.4,0.6,0.5
		c0.2,0.4,0.4,0.9,0.5,1.3c-1.4-0.5-2.8-1.3-3.9-2.4c-0.7-0.7-1.2-1.4-1.6-2.2L61.2,69.3z M60.3,62.9c-0.1,0.2-0.1,0.4-0.1,0.6l0,0
		l0,0l0,0c0,0.4,0.1,0.8,0.2,1.2c0,0.1,0,0.2,0.1,0.4c0,0.2,0.1,0.5,0.2,0.7c-0.3-0.1-0.6-0.2-0.9-0.3c0,0,0,0-0.1,0
		c-0.3-0.1-0.5-0.1-0.8-0.2c-0.1,0-0.1,0-0.2,0c-0.1,0-0.1,0-0.2,0C59.1,64.4,59.7,63.7,60.3,62.9z M59.5,93.9
		c0.2-0.2,0.4-0.5,0.4-0.8c0.9,0.8,1.8,1.6,2.8,2.2c-0.3,0.1-0.5,0.3-0.7,0.6l-0.8,1.4c-0.1,0.3-0.2,0.5-0.2,0.8
		c-1.2-0.8-2.4-1.7-3.4-2.6c0.3-0.1,0.5-0.2,0.8-0.4L59.5,93.9z M63.9,98.7l0.8-1.4c0.2-0.3,0.2-0.6,0.2-0.9c1.1,0.5,2.1,1,3.3,1.4
		c-0.2,0.2-0.4,0.5-0.5,0.8l-0.4,1.5c-0.1,0.3-0.1,0.6,0,0.8c-1.4-0.4-2.7-1-4-1.7C63.5,99.2,63.7,99,63.9,98.7z M70.1,100.9
		l0.4-1.5c0.1-0.3,0.1-0.6,0-0.9c1.2,0.2,2.3,0.4,3.5,0.4c-0.2,0.2-0.3,0.6-0.3,0.9v1.6c0,0.3,0.1,0.6,0.2,0.8
		c-1.5-0.1-2.9-0.3-4.3-0.6C69.9,101.4,70,101.2,70.1,100.9z M76.4,98.9c1.2-0.1,2.4-0.2,3.5-0.4c-0.1,0.3-0.1,0.6,0,0.9l0.4,1.5
		c0.1,0.3,0.2,0.5,0.5,0.7c-1.4,0.3-2.8,0.5-4.3,0.6c0.2-0.2,0.2-0.5,0.2-0.8v-1.6C76.7,99.4,76.6,99.1,76.4,98.9z M83.2,100.1
		l-0.4-1.5c-0.1-0.3-0.3-0.6-0.5-0.8c1.1-0.4,2.2-0.8,3.3-1.4c0,0.3,0,0.6,0.2,0.9l0.8,1.4c0.1,0.3,0.4,0.4,0.6,0.6
		c-1.3,0.7-2.6,1.2-4,1.7C83.3,100.7,83.3,100.4,83.2,100.1z M89.1,97.2l-0.8-1.4c-0.2-0.3-0.4-0.5-0.7-0.6c1-0.6,1.9-1.4,2.8-2.2
		c0,0.3,0.2,0.6,0.4,0.8L92,95c0.2,0.2,0.5,0.3,0.8,0.4c-1.1,1-2.2,1.8-3.4,2.6C89.3,97.7,89.3,97.5,89.1,97.2z M91,88.1
		c0.9-3,0.8-5.6,0.2-7.7c0.6-0.8,0.7-1.9,0.1-2.9c-0.5-0.8-1.3-1.2-2.2-1.2c-3-4-8.1-6.5-11.9-6.5c-1,0-2.1,0.1-3.1,0.3
		c-0.7-1.4-1.7-2.7-2.8-3.8c-1.6-1.6-3.6-2.8-5.7-3.6l0,0c-0.3-0.1-0.7-0.2-1-0.3c-0.1,0-0.2,0-0.3-0.1c-0.3-0.1-0.6-0.2-0.9-0.2
		c-0.1,0-0.2,0-0.3-0.1c-0.4-0.1-0.8-0.1-1.2-0.2c-0.3,0-0.5,0-0.8,0.1l0,0c3.8-3.8,8.7-5.8,14.1-5.8s10.3,2.1,14.1,5.8l0,0
		c3.8,3.8,5.8,8.7,5.8,14.1C95.1,80.5,93.6,84.7,91,88.1z M98.4,64.1c0.7,1.3,1.2,2.6,1.7,4c-0.3-0.1-0.6-0.1-0.8,0l-1.5,0.4
		c-0.3,0.1-0.6,0.3-0.8,0.5c-0.4-1.1-0.8-2.2-1.4-3.3h0.1c0.3,0,0.5-0.1,0.8-0.2l1.4-0.8C98.1,64.6,98.3,64.4,98.4,64.1z
		 M100.5,74.6h-1.6c-0.3,0-0.6,0.1-0.9,0.3c-0.1-1.2-0.2-2.4-0.4-3.5c0.2,0.1,0.3,0.1,0.5,0.1c0.1,0,0.3,0,0.4-0.1L100,71
		c0.3-0.1,0.5-0.2,0.7-0.4c0.3,1.4,0.5,2.8,0.6,4.3C101,74.7,100.8,74.6,100.5,74.6z M97.1,61.9c-0.3,0-0.6,0-0.8,0.2L95,62.9
		c-0.3,0.2-0.5,0.4-0.6,0.7c-0.6-1-1.4-1.9-2.2-2.8c0.3,0,0.6-0.2,0.8-0.4l1.1-1.1c0.2-0.2,0.3-0.5,0.4-0.8
		C95.5,59.6,96.4,60.7,97.1,61.9z M55.9,58.5c0.1,0.3,0.2,0.5,0.4,0.8l1.1,1.1c0.2,0.2,0.5,0.4,0.9,0.4c-0.8,0.9-1.5,1.8-2.2,2.8
		c-0.1-0.3-0.3-0.5-0.6-0.7l-1.4-0.8c-0.3-0.1-0.5-0.2-0.8-0.2C54,60.7,54.9,59.6,55.9,58.5z M53.3,90.2L53.3,90.2
		c0.3,0,0.6-0.1,0.8-0.2l1.4-0.8c0.3-0.2,0.5-0.4,0.6-0.7c0.5,0.8,1,1.5,1.6,2.2c0.1,0.1,0.1,0.1,0.2,0.2c0.1,0.1,0.3,0.3,0.4,0.4
		c-0.3,0-0.6,0.2-0.8,0.4l-1.1,1.1c-0.2,0.2-0.3,0.5-0.4,0.8C54.9,92.6,54,91.4,53.3,90.2z M94.5,93.6c-0.1-0.3-0.2-0.5-0.4-0.8
		l-1.1-1c-0.2-0.2-0.5-0.4-0.8-0.4c0.8-0.9,1.5-1.8,2.2-2.8c0.1,0.3,0.3,0.5,0.6,0.7l1.4,0.8c0.2,0.1,0.5,0.2,0.8,0.2c0,0,0,0,0.1,0
		C96.4,91.4,95.5,92.6,94.5,93.6z"/>
</g>
<g>
	<g>
		<circle class="st1" cx="143.6" cy="111.3" r="14.9"/>
	</g>
	<g>
		<path class="st0" d="M143.6,96.4v29.8c8.2,0,14.9-6.7,14.9-14.9S151.8,96.4,143.6,96.4z"/>
	</g>
	<g>
		<path class="st2" d="M143.6,126.6c-8.4,0-15.3-6.9-15.3-15.3S135.2,96,143.6,96s15.3,6.9,15.3,15.3S152,126.6,143.6,126.6z
			 M143.6,96.8c-8,0-14.6,6.5-14.6,14.6c0,8,6.5,14.6,14.6,14.6s14.6-6.5,14.6-14.6C158.2,103.3,151.6,96.8,143.6,96.8z"/>
	</g>
	<g>
		<circle class="st1" cx="143.6" cy="111.3" r="11.5"/>
	</g>
	<g>
		<path class="st0" d="M135.5,103.2l16.3,16.3c4.5-4.5,4.5-11.8,0-16.3C147.3,98.6,140,98.6,135.5,103.2z"/>
	</g>
	<g>
		<g>
			<g>
				<path class="st2" d="M143.6,98.9c-0.2,0-0.4-0.2-0.4-0.4v-0.8c0-0.2,0.2-0.4,0.4-0.4s0.4,0.1,0.4,0.4v0.8
					C144,98.7,143.8,98.9,143.6,98.9z"/>
			</g>
			<g>
				<path class="st2" d="M143.6,125.3c-0.2,0-0.4-0.2-0.4-0.4v-0.8c0-0.2,0.2-0.4,0.4-0.4s0.4,0.2,0.4,0.4v0.8
					C144,125.2,143.8,125.3,143.6,125.3z"/>
			</g>
		</g>
		<g>
			<g>
				<path class="st2" d="M152.7,102.6c-0.1,0-0.2,0-0.3-0.1s-0.1-0.4,0-0.5l0.6-0.6c0.1-0.1,0.4-0.1,0.5,0s0.1,0.4,0,0.5l-0.6,0.6
					C152.9,102.6,152.8,102.6,152.7,102.6z"/>
			</g>
			<g>
				<path class="st2" d="M134,121.3c-0.1,0-0.2,0-0.3-0.1s-0.1-0.4,0-0.5l0.6-0.6c0.1-0.1,0.4-0.1,0.5,0s0.1,0.4,0,0.5l-0.6,0.6
					C134.1,121.3,134.1,121.3,134,121.3z"/>
			</g>
		</g>
		<g>
			<g>
				<path class="st2" d="M157.3,111.7h-0.8c-0.2,0-0.4-0.2-0.4-0.4c0-0.2,0.2-0.4,0.4-0.4h0.8c0.2,0,0.4,0.2,0.4,0.4
					C157.6,111.5,157.5,111.7,157.3,111.7z"/>
			</g>
			<g>
				<path class="st2" d="M130.8,111.7H130c-0.2,0-0.4-0.2-0.4-0.4c0-0.2,0.1-0.4,0.4-0.4h0.8c0.2,0,0.4,0.2,0.4,0.4
					S131,111.7,130.8,111.7z"/>
			</g>
		</g>
		<g>
			<g>
				<path class="st2" d="M153.3,121.3c-0.1,0-0.2,0-0.3-0.1l-0.6-0.6c-0.1-0.1-0.1-0.4,0-0.5s0.4-0.1,0.5,0l0.6,0.6
					c0.1,0.1,0.1,0.4,0,0.5S153.4,121.3,153.3,121.3z"/>
			</g>
			<g>
				<path class="st2" d="M134.6,102.6c-0.1,0-0.2,0-0.3-0.1l-0.6-0.6c-0.1-0.1-0.1-0.4,0-0.5s0.4-0.1,0.5,0l0.6,0.6
					c0.1,0.1,0.1,0.4,0,0.5S134.6,102.6,134.6,102.6z"/>
			</g>
		</g>
	</g>
	<g>
		<g>
			<g>
				<path class="st2" d="M137.2,100.6c-0.1,0-0.2-0.1-0.3-0.2l-0.4-0.7c-0.1-0.2,0-0.4,0.1-0.5c0.2-0.1,0.4,0,0.5,0.1l0.4,0.7
					c0.1,0.2,0,0.4-0.1,0.5C137.3,100.6,137.3,100.6,137.2,100.6z"/>
			</g>
			<g>
				<path class="st2" d="M150.4,123.5c-0.1,0-0.2-0.1-0.3-0.2l-0.4-0.7c-0.1-0.2,0-0.4,0.1-0.5c0.2-0.1,0.4,0,0.5,0.1l0.4,0.7
					c0.1,0.2,0,0.4-0.1,0.5C150.5,123.5,150.5,123.5,150.4,123.5z"/>
			</g>
		</g>
		<g>
			<g>
				<path class="st2" d="M146.9,99.3C146.9,99.3,146.8,99.3,146.9,99.3c-0.3-0.1-0.4-0.3-0.4-0.5l0.2-0.8c0-0.2,0.2-0.3,0.4-0.3
					s0.3,0.2,0.3,0.4l-0.2,0.8C147.2,99.2,147.1,99.3,146.9,99.3z"/>
			</g>
			<g>
				<path class="st2" d="M140.1,124.9C140.1,124.9,140,124.9,140.1,124.9c-0.3-0.1-0.4-0.3-0.4-0.5l0.2-0.8c0-0.2,0.2-0.3,0.4-0.3
					s0.3,0.2,0.3,0.4l-0.2,0.8C140.4,124.8,140.2,124.9,140.1,124.9z"/>
			</g>
		</g>
		<g>
			<g>
				<path class="st2" d="M154.7,105.3c-0.1,0-0.2-0.1-0.3-0.2c-0.1-0.2,0-0.4,0.1-0.5l0.7-0.4c0.2-0.1,0.4,0,0.5,0.1
					c0.1,0.2,0,0.4-0.1,0.5l-0.7,0.4C154.8,105.3,154.8,105.3,154.7,105.3z"/>
			</g>
			<g>
				<path class="st2" d="M131.8,118.5c-0.1,0-0.2-0.1-0.3-0.2c-0.1-0.2,0-0.4,0.1-0.5l0.7-0.4c0.2-0.1,0.4,0,0.5,0.1
					c0.1,0.2,0,0.4-0.1,0.5l-0.7,0.4C131.9,118.5,131.9,118.5,131.8,118.5z"/>
			</g>
		</g>
		<g>
			<g>
				<path class="st2" d="M156.8,115.2C156.8,115.2,156.7,115.2,156.8,115.2l-0.9-0.2c-0.2,0-0.3-0.2-0.3-0.4s0.2-0.3,0.4-0.3
					l0.8,0.2c0.2,0,0.3,0.2,0.3,0.4S156.9,115.2,156.8,115.2z"/>
			</g>
			<g>
				<path class="st2" d="M131.2,108.4L131.2,108.4l-0.9-0.2c-0.2,0-0.3-0.2-0.3-0.4c0-0.2,0.2-0.3,0.4-0.3l0.8,0.2
					c0.2,0,0.3,0.2,0.3,0.4C131.6,108.3,131.4,108.4,131.2,108.4z"/>
			</g>
		</g>
	</g>
	<g>
		<g>
			<g>
				<path class="st2" d="M132.5,105.3c-0.1,0-0.1,0-0.2,0l-0.7-0.4c-0.2-0.1-0.2-0.3-0.1-0.5c0.1-0.2,0.3-0.2,0.5-0.1l0.7,0.4
					c0.2,0.1,0.2,0.3,0.1,0.5C132.8,105.2,132.6,105.3,132.5,105.3z"/>
			</g>
			<g>
				<path class="st2" d="M155.4,118.5c-0.1,0-0.1,0-0.2,0l-0.7-0.4c-0.2-0.1-0.2-0.3-0.1-0.5c0.1-0.2,0.3-0.2,0.5-0.1l0.7,0.4
					c0.2,0.1,0.2,0.3,0.1,0.5C155.7,118.5,155.6,118.5,155.4,118.5z"/>
			</g>
		</g>
		<g>
			<g>
				<path class="st2" d="M140.3,99.3c-0.2,0-0.3-0.1-0.3-0.3l-0.2-0.8c0-0.2,0.1-0.4,0.3-0.4c0.2-0.1,0.4,0,0.4,0.2l0.2,0.8
					C140.7,99.1,140.6,99.2,140.3,99.3C140.4,99.3,140.3,99.3,140.3,99.3z"/>
			</g>
			<g>
				<path class="st2" d="M147.2,124.9c-0.2,0-0.3-0.1-0.3-0.3l-0.2-0.8c0-0.2,0.1-0.4,0.3-0.4s0.4,0.1,0.4,0.3l0.2,0.8
					C147.6,124.6,147.4,124.8,147.2,124.9L147.2,124.9z"/>
			</g>
		</g>
		<g>
			<g>
				<path class="st2" d="M150,100.6c-0.1,0-0.1,0-0.2,0c-0.2-0.1-0.2-0.3-0.1-0.5l0.4-0.7c0.1-0.2,0.3-0.2,0.5-0.1s0.2,0.3,0.1,0.5
					l-0.4,0.7C150.3,100.5,150.1,100.6,150,100.6z"/>
			</g>
			<g>
				<path class="st2" d="M136.8,123.5c-0.1,0-0.1,0-0.2,0c-0.2-0.1-0.2-0.3-0.1-0.5l0.4-0.7c0.1-0.2,0.3-0.2,0.5-0.1
					s0.2,0.3,0.1,0.5l-0.4,0.7C137,123.4,136.9,123.5,136.8,123.5z"/>
			</g>
		</g>
		<g>
			<g>
				<path class="st2" d="M156,108.4c-0.2,0-0.3-0.1-0.3-0.3c0-0.2,0.1-0.4,0.3-0.4l0.8-0.2c0.2,0,0.4,0.1,0.4,0.3
					c0,0.2-0.1,0.4-0.3,0.4L156,108.4L156,108.4z"/>
			</g>
			<g>
				<path class="st2" d="M130.4,115.2c-0.2,0-0.3-0.1-0.3-0.3c0-0.2,0.1-0.4,0.3-0.4l0.8-0.2c0.2,0,0.4,0.1,0.4,0.3
					s-0.1,0.4-0.3,0.4L130.4,115.2C130.5,115.2,130.5,115.2,130.4,115.2z"/>
			</g>
		</g>
	</g>
	<g>
		<path class="st2" d="M148.5,113.5c-0.2,0-0.4-0.2-0.4-0.4c0,0,0-0.1-0.1-0.1s-0.1,0-0.1,0.1c0,0.2-0.2,0.4-0.4,0.4
			s-0.4-0.2-0.4-0.4c0-0.5,0.4-0.8,0.8-0.8c0.5,0,0.8,0.4,0.8,0.8C148.8,113.3,148.6,113.5,148.5,113.5z"/>
	</g>
	<g>
		<circle class="st7" cx="147.4" cy="115.7" r="1.3"/>
	</g>
	<g>
		<path class="st8" d="M147.4,114.5c0.7,0,1.3,0.6,1.3,1.3c0,0.7-0.6,1.3-1.3,1.3"/>
	</g>
	<g>
		<path class="st2" d="M147.4,117.3c-0.9,0-1.6-0.7-1.6-1.6s0.7-1.6,1.6-1.6s1.6,0.7,1.6,1.6C149.1,116.6,148.3,117.3,147.4,117.3z
			 M147.4,114.8c-0.5,0-0.9,0.4-0.9,0.9s0.4,0.9,0.9,0.9s0.9-0.4,0.9-0.9C148.3,115.2,147.9,114.8,147.4,114.8z"/>
	</g>
	<path class="st2" d="M152,102.9c-4.6-4.6-12.2-4.6-16.8,0c-4.4,4.4-4.6,11.4-0.7,16.1l0,0c0.2,0.2,0.4,0.5,0.7,0.7
		c2.3,2.3,5.4,3.5,8.4,3.5s6.1-1.2,8.4-3.5C156.7,115.1,156.7,107.6,152,102.9z M149,121.1c-4.3,2.3-9.7,1.7-13.3-1.9
		c-0.2-0.2-0.3-0.3-0.5-0.5c1.2-1.6,2.1-3,3-4.3c1-1.5,1.7-2.7,2.7-3.6c0.1-0.1,0.1-0.2,0.1-0.3c0-0.1-0.1-0.2-0.2-0.3
		c-0.6-0.3-1.2-0.6-1.6-1.1l0,0c-0.1-0.1-0.2-0.2-0.3-0.3l0,0c-0.1-0.1-0.2-0.3-0.4-0.4l-0.1-0.1c-0.1-0.1-0.2-0.2-0.2-0.3l-0.1-0.1
		c-0.1-0.1-0.1-0.2-0.2-0.3c0,0,0-0.1-0.1-0.1c-0.2-0.3-0.4-0.7-0.6-1.1l1.1-1.1c0.9,0.4,1.8,0.9,2.5,1.6s1.2,1.5,1.6,2.4
		c0,0.1,0.1,0.2,0.2,0.2c0.1,0,0.2,0,0.3,0c0.6-0.3,1.3-0.4,1.9-0.4c1.7,0,4.8,1.4,6,4C151.8,115.4,151.2,118.2,149,121.1L149,121.1
		z M139.7,110.5c0.1,0.1,0.2,0.1,0.3,0.2c-0.1,0.1-0.1,0.1-0.2,0.2C139.8,110.8,139.8,110.6,139.7,110.5z M139.2,111.3
		c-1.2-0.2-2.2-0.8-3-1.6c-0.5-0.5-0.8-1-1.1-1.6l1-1c0.4,0.2,0.7,0.4,1.1,0.7c0,0,0,0.1,0.1,0.1c0,0.1,0.1,0.1,0.1,0.2l0.1,0.1
		c0.1,0.1,0.1,0.2,0.2,0.3c0,0,0,0,0.1,0.1s0.1,0.2,0.2,0.3c0,0,0,0.1,0.1,0.1c0.1,0.1,0.2,0.2,0.3,0.3l0,0l0,0l0,0l0,0
		c0.1,0.1,0.2,0.2,0.3,0.2c0,0,0,0,0.1,0.1C138.9,110.2,139.1,110.7,139.2,111.3z M151.5,119.2c-0.3,0.3-0.6,0.6-0.9,0.8
		c1.6-2.7,1.6-4.9,1.1-6.4c0.3-0.3,0.4-0.8,0.2-1.2c-0.2-0.4-0.6-0.5-1-0.4c-1.5-2.2-4.2-3.5-6.2-3.5c-0.6,0-1.3,0-1.9,0.3
		c-0.4-0.9-0.9-1.6-1.6-2.3c-0.8-0.8-1.8-1.5-2.9-1.9l0,0c0,0,0,0-0.1,0s-0.2-0.1-0.3-0.1h-0.1c-0.1,0-0.3-0.1-0.4-0.1
		c0,0,0,0-0.1,0s-0.2,0-0.4-0.1h-0.1c-0.1,0-0.3,0-0.4,0c-0.1,0-0.2,0-0.3,0.1s-0.1,0.2-0.1,0.3l0,0l0,0l0,0c0,0.2,0,0.3,0.1,0.5
		c0,0,0,0.1,0,0.2s0,0.2,0.1,0.3c0,0,0,0.1,0,0.2s0,0.2,0.1,0.3v0.1c0,0.1,0,0.2,0.1,0.2l0,0v0.1c-0.1-0.1-0.3-0.1-0.4-0.2l0,0l0,0
		c-0.1,0-0.3-0.1-0.4-0.2l0,0c-0.1,0-0.3-0.1-0.4-0.1l0,0c-0.1,0-0.3-0.1-0.4-0.1c0,0,0,0-0.1,0s-0.3,0-0.4-0.1
		c-0.1,0-0.2,0-0.3,0.1s-0.1,0.2-0.1,0.3l0,0l0,0l0,0c0,0.2,0,0.3,0.1,0.5c0,0.1,0,0.2,0,0.2c0,0.1,0,0.2,0,0.2
		c0,0.1,0.1,0.2,0.1,0.3c0,0,0,0.1,0,0.2s0.1,0.2,0.1,0.3c0,0,0,0,0,0.1l0,0c0.3,0.7,0.8,1.4,1.4,2c0.9,0.9,2.1,1.5,3.4,1.8
		c-0.5,0.6-0.9,1.3-1.4,2.1c-0.8,1.2-1.7,2.6-2.8,4.1c-3.4-4.4-3.1-10.7,0.9-14.8c2.2-2.2,5.1-3.3,7.9-3.3s5.7,1.1,7.9,3.3
		C155.9,107.8,155.9,114.9,151.5,119.2z"/>
	<g>
		<path class="st2" d="M139.1,117.8c-0.1,0-0.3-0.1-0.3-0.2c0,0-0.7-1.3-2-1c-0.2,0-0.4,0-0.5-0.2c0-0.2,0-0.4,0.2-0.5
			c1.5-0.4,2.5,0.7,2.8,1.3C139.4,117.4,139.3,117.6,139.1,117.8C139.3,117.8,139.2,117.8,139.1,117.8z"/>
	</g>
	<g>
		<path class="st2" d="M138.2,119.1c-0.1,0-0.3-0.1-0.3-0.2c0,0-0.7-1.3-2-1c-0.2,0-0.4,0-0.5-0.2c0-0.2,0-0.4,0.2-0.5
			c1.5-0.4,2.5,0.7,2.8,1.3C138.5,118.7,138.4,118.9,138.2,119.1C138.3,119.1,138.3,119.1,138.2,119.1z"/>
	</g>
	<g>
		<g>
			<g>
				<path class="st2" d="M148.2,105.4h-0.1c-0.2-0.1-0.3-0.3-0.2-0.5v-0.2c0.1-0.2,0.3-0.3,0.5-0.2c0.2,0.1,0.3,0.3,0.2,0.5v0.2
					C148.5,105.3,148.4,105.4,148.2,105.4z"/>
			</g>
			<g>
				<path class="st2" d="M147.3,108h-0.1c-0.2-0.1-0.3-0.3-0.2-0.5l0.3-1c0.1-0.2,0.3-0.3,0.5-0.2c0.2,0.1,0.3,0.3,0.2,0.5l-0.3,1
					C147.6,107.9,147.5,108,147.3,108z"/>
			</g>
		</g>
		<g>
			<g>
				<g>
					<path class="st2" d="M143.2,104.7c-0.1,0-0.3-0.1-0.3-0.2l-0.1-0.2c-0.1-0.2,0-0.4,0.2-0.5s0.4,0,0.5,0.2l0.1,0.2
						c0.1,0.2,0,0.4-0.2,0.5C143.3,104.7,143.3,104.7,143.2,104.7z"/>
				</g>
				<g>
					<path class="st2" d="M144.4,107.2c-0.1,0-0.3-0.1-0.3-0.2l-0.5-1c-0.1-0.2,0-0.4,0.2-0.5s0.4,0,0.5,0.2l0.5,1
						c0.1,0.2,0,0.4-0.2,0.5C144.5,107.2,144.4,107.2,144.4,107.2z"/>
				</g>
			</g>
			<g>
				<g>
					<path class="st2" d="M152.6,108c-0.1,0-0.3-0.1-0.3-0.2c-0.1-0.2,0-0.4,0.2-0.5l0.2-0.1c0.2-0.1,0.4,0,0.5,0.2s0,0.4-0.2,0.5
						l-0.2,0.1C152.7,108,152.7,108,152.6,108z"/>
				</g>
				<g>
					<path class="st2" d="M150.2,109.2c-0.1,0-0.3-0.1-0.3-0.2c-0.1-0.2,0-0.4,0.2-0.5l1-0.5c0.2-0.1,0.4,0,0.5,0.2s0,0.4-0.2,0.5
						l-1,0.5C150.3,109.2,150.3,109.2,150.2,109.2z"/>
				</g>
			</g>
		</g>
	</g>
</g>
<g>
	<g>
		<circle class="st1" cx="143.6" cy="80.3" r="14.9"/>
	</g>
	<g>
		<path class="st0" d="M143.6,65.4v29.8c8.2,0,14.9-6.7,14.9-14.9S151.8,65.4,143.6,65.4z"/>
	</g>
	<g>
		<path class="st2" d="M143.6,95.6c-8.4,0-15.3-6.9-15.3-15.3S135.2,65,143.6,65s15.3,6.9,15.3,15.3S152,95.6,143.6,95.6z
			 M143.6,65.7c-8,0-14.6,6.5-14.6,14.6c0,8,6.5,14.6,14.6,14.6s14.6-6.5,14.6-14.6C158.2,72.3,151.6,65.7,143.6,65.7z"/>
	</g>
	<g>
		<circle class="st1" cx="143.6" cy="80.3" r="11.5"/>
	</g>
	<g>
		<path class="st0" d="M135.5,72.1l16.3,16.3c4.5-4.5,4.5-11.8,0-16.3C147.3,67.6,140,67.6,135.5,72.1z"/>
	</g>
	<g>
		<g>
			<g>
				<path class="st2" d="M143.6,67.9c-0.2,0-0.4-0.2-0.4-0.4v-0.8c0-0.2,0.2-0.4,0.4-0.4s0.4,0.1,0.4,0.4v0.8
					C144,67.7,143.8,67.9,143.6,67.9z"/>
			</g>
			<g>
				<path class="st2" d="M143.6,94.3c-0.2,0-0.4-0.2-0.4-0.4v-0.8c0-0.2,0.2-0.4,0.4-0.4s0.4,0.2,0.4,0.4v0.8
					C144,94.1,143.8,94.3,143.6,94.3z"/>
			</g>
		</g>
		<g>
			<g>
				<path class="st2" d="M152.7,71.6c-0.1,0-0.2,0-0.3-0.1s-0.1-0.4,0-0.5l0.6-0.6c0.1-0.1,0.4-0.1,0.5,0s0.1,0.4,0,0.5l-0.6,0.6
					C152.9,71.6,152.8,71.6,152.7,71.6z"/>
			</g>
			<g>
				<path class="st2" d="M134,90.3c-0.1,0-0.2,0-0.3-0.1s-0.1-0.4,0-0.5l0.6-0.6c0.1-0.1,0.4-0.1,0.5,0s0.1,0.4,0,0.5l-0.6,0.6
					C134.1,90.3,134.1,90.3,134,90.3z"/>
			</g>
		</g>
		<g>
			<g>
				<path class="st2" d="M157.3,80.7h-0.8c-0.2,0-0.4-0.2-0.4-0.4s0.2-0.4,0.4-0.4h0.8c0.2,0,0.4,0.2,0.4,0.4
					C157.6,80.5,157.5,80.7,157.3,80.7z"/>
			</g>
			<g>
				<path class="st2" d="M130.8,80.7H130c-0.2,0-0.4-0.2-0.4-0.4s0.1-0.4,0.4-0.4h0.8c0.2,0,0.4,0.2,0.4,0.4S131,80.7,130.8,80.7z"
					/>
			</g>
		</g>
		<g>
			<g>
				<path class="st2" d="M153.3,90.3c-0.1,0-0.2,0-0.3-0.1l-0.6-0.6c-0.1-0.1-0.1-0.4,0-0.5s0.4-0.1,0.5,0l0.6,0.6
					c0.1,0.1,0.1,0.4,0,0.5S153.4,90.3,153.3,90.3z"/>
			</g>
			<g>
				<path class="st2" d="M134.6,71.6c-0.1,0-0.2,0-0.3-0.1l-0.6-0.6c-0.1-0.1-0.1-0.4,0-0.5s0.4-0.1,0.5,0l0.6,0.6
					c0.1,0.1,0.1,0.4,0,0.5S134.6,71.6,134.6,71.6z"/>
			</g>
		</g>
	</g>
	<g>
		<g>
			<g>
				<path class="st2" d="M137.2,69.6c-0.1,0-0.2-0.1-0.3-0.2l-0.4-0.7c-0.1-0.2,0-0.4,0.1-0.5c0.2-0.1,0.4,0,0.5,0.1l0.4,0.7
					c0.1,0.2,0,0.4-0.1,0.5C137.3,69.5,137.3,69.6,137.2,69.6z"/>
			</g>
			<g>
				<path class="st2" d="M150.4,92.5c-0.1,0-0.2-0.1-0.3-0.2l-0.4-0.7c-0.1-0.2,0-0.4,0.1-0.5c0.2-0.1,0.4,0,0.5,0.1l0.4,0.7
					c0.1,0.2,0,0.4-0.1,0.5C150.5,92.4,150.5,92.5,150.4,92.5z"/>
			</g>
		</g>
		<g>
			<g>
				<path class="st2" d="M146.9,68.3C146.9,68.3,146.8,68.3,146.9,68.3c-0.3-0.1-0.4-0.3-0.4-0.5l0.2-0.8c0-0.2,0.2-0.3,0.4-0.3
					s0.3,0.2,0.3,0.4l-0.2,0.8C147.2,68.2,147.1,68.3,146.9,68.3z"/>
			</g>
			<g>
				<path class="st2" d="M140.1,93.8C140.1,93.8,140,93.8,140.1,93.8c-0.3-0.1-0.4-0.3-0.4-0.5l0.2-0.8c0-0.2,0.2-0.3,0.4-0.3
					s0.3,0.2,0.3,0.4l-0.2,0.8C140.4,93.7,140.2,93.8,140.1,93.8z"/>
			</g>
		</g>
		<g>
			<g>
				<path class="st2" d="M154.7,74.3c-0.1,0-0.2-0.1-0.3-0.2c-0.1-0.2,0-0.4,0.1-0.5l0.7-0.4c0.2-0.1,0.4,0,0.5,0.1
					c0.1,0.2,0,0.4-0.1,0.5l-0.7,0.4C154.8,74.2,154.8,74.3,154.7,74.3z"/>
			</g>
			<g>
				<path class="st2" d="M131.8,87.5c-0.1,0-0.2-0.1-0.3-0.2c-0.1-0.2,0-0.4,0.1-0.5l0.7-0.4c0.2-0.1,0.4,0,0.5,0.1
					c0.1,0.2,0,0.4-0.1,0.5l-0.7,0.4C131.9,87.5,131.9,87.5,131.8,87.5z"/>
			</g>
		</g>
		<g>
			<g>
				<path class="st2" d="M156.8,84.2C156.8,84.2,156.7,84.2,156.8,84.2l-0.9-0.2c-0.2,0-0.3-0.2-0.3-0.4s0.2-0.3,0.4-0.3l0.8,0.2
					c0.2,0,0.3,0.2,0.3,0.4S156.9,84.2,156.8,84.2z"/>
			</g>
			<g>
				<path class="st2" d="M131.2,77.3L131.2,77.3l-0.9-0.2c-0.2,0-0.3-0.2-0.3-0.4c0-0.2,0.2-0.3,0.4-0.3l0.8,0.2
					c0.2,0,0.3,0.2,0.3,0.4C131.6,77.2,131.4,77.3,131.2,77.3z"/>
			</g>
		</g>
	</g>
	<g>
		<g>
			<g>
				<path class="st2" d="M132.5,74.3c-0.1,0-0.1,0-0.2,0l-0.7-0.4c-0.2-0.1-0.2-0.3-0.1-0.5c0.1-0.2,0.3-0.2,0.5-0.1l0.7,0.4
					c0.2,0.1,0.2,0.3,0.1,0.5C132.8,74.2,132.6,74.3,132.5,74.3z"/>
			</g>
			<g>
				<path class="st2" d="M155.4,87.5c-0.1,0-0.1,0-0.2,0l-0.7-0.4c-0.2-0.1-0.2-0.3-0.1-0.5c0.1-0.2,0.3-0.2,0.5-0.1l0.7,0.4
					c0.2,0.1,0.2,0.3,0.1,0.5C155.7,87.4,155.6,87.5,155.4,87.5z"/>
			</g>
		</g>
		<g>
			<g>
				<path class="st2" d="M140.3,68.3c-0.2,0-0.3-0.1-0.3-0.3l-0.2-0.8c0-0.2,0.1-0.4,0.3-0.4c0.2-0.1,0.4,0,0.4,0.2l0.2,0.8
					C140.7,68,140.6,68.2,140.3,68.3C140.4,68.3,140.3,68.3,140.3,68.3z"/>
			</g>
			<g>
				<path class="st2" d="M147.2,93.8c-0.2,0-0.3-0.1-0.3-0.3l-0.2-0.8c0-0.2,0.1-0.4,0.3-0.4s0.4,0.1,0.4,0.3l0.2,0.8
					C147.6,93.6,147.4,93.8,147.2,93.8L147.2,93.8z"/>
			</g>
		</g>
		<g>
			<g>
				<path class="st2" d="M150,69.6c-0.1,0-0.1,0-0.2,0c-0.2-0.1-0.2-0.3-0.1-0.5l0.4-0.7c0.1-0.2,0.3-0.2,0.5-0.1s0.2,0.3,0.1,0.5
					l-0.4,0.7C150.3,69.5,150.1,69.6,150,69.6z"/>
			</g>
			<g>
				<path class="st2" d="M136.8,92.5c-0.1,0-0.1,0-0.2,0c-0.2-0.1-0.2-0.3-0.1-0.5l0.4-0.7c0.1-0.2,0.3-0.2,0.5-0.1s0.2,0.3,0.1,0.5
					l-0.4,0.7C137,92.4,136.9,92.5,136.8,92.5z"/>
			</g>
		</g>
		<g>
			<g>
				<path class="st2" d="M156,77.3c-0.2,0-0.3-0.1-0.3-0.3c0-0.2,0.1-0.4,0.3-0.4l0.8-0.2c0.2,0,0.4,0.1,0.4,0.3
					c0,0.2-0.1,0.4-0.3,0.4L156,77.3L156,77.3z"/>
			</g>
			<g>
				<path class="st2" d="M130.4,84.2c-0.2,0-0.3-0.1-0.3-0.3c0-0.2,0.1-0.4,0.3-0.4l0.8-0.2c0.2,0,0.4,0.1,0.4,0.3
					c0,0.2-0.1,0.4-0.3,0.4L130.4,84.2C130.5,84.2,130.5,84.2,130.4,84.2z"/>
			</g>
		</g>
	</g>
	<g>
		<path class="st2" d="M148.5,82.4c-0.2,0-0.4-0.2-0.4-0.4c0,0,0-0.1-0.1-0.1s-0.1,0-0.1,0.1c0,0.2-0.2,0.4-0.4,0.4
			s-0.4-0.2-0.4-0.4c0-0.5,0.4-0.8,0.8-0.8c0.5,0,0.8,0.4,0.8,0.8C148.8,82.3,148.6,82.4,148.5,82.4z"/>
	</g>
	<g>
		<circle class="st7" cx="147.4" cy="84.7" r="1.3"/>
	</g>
	<g>
		<path class="st8" d="M147.4,83.4c0.7,0,1.3,0.6,1.3,1.3s-0.6,1.3-1.3,1.3"/>
	</g>
	<g>
		<path class="st2" d="M147.4,86.3c-0.9,0-1.6-0.7-1.6-1.6s0.7-1.6,1.6-1.6s1.6,0.7,1.6,1.6C149.1,85.6,148.3,86.3,147.4,86.3z
			 M147.4,83.8c-0.5,0-0.9,0.4-0.9,0.9s0.4,0.9,0.9,0.9s0.9-0.4,0.9-0.9C148.3,84.2,147.9,83.8,147.4,83.8z"/>
	</g>
	<path class="st2" d="M152,71.9c-4.6-4.6-12.2-4.6-16.8,0c-4.4,4.4-4.6,11.4-0.7,16.1l0,0c0.2,0.2,0.4,0.5,0.7,0.7
		c2.3,2.3,5.4,3.5,8.4,3.5s6.1-1.2,8.4-3.5C156.7,84.1,156.7,76.5,152,71.9z M149,90.1c-4.3,2.3-9.7,1.7-13.3-1.9
		c-0.2-0.2-0.3-0.3-0.5-0.5c1.2-1.6,2.1-3,3-4.3c1-1.5,1.7-2.7,2.7-3.6c0.1-0.1,0.1-0.2,0.1-0.3c0-0.1-0.1-0.2-0.2-0.3
		c-0.6-0.3-1.2-0.6-1.6-1.1l0,0c-0.1-0.1-0.2-0.2-0.3-0.3l0,0c-0.1-0.1-0.2-0.3-0.4-0.4l-0.1-0.1c-0.1-0.1-0.2-0.2-0.2-0.3l-0.1-0.1
		c-0.1-0.1-0.1-0.2-0.2-0.3c0,0,0-0.1-0.1-0.1c-0.2-0.3-0.4-0.7-0.6-1.1l1.1-1.1c0.9,0.4,1.8,0.9,2.5,1.6s1.2,1.5,1.6,2.4
		c0,0.1,0.1,0.2,0.2,0.2c0.1,0,0.2,0,0.3,0c0.6-0.3,1.3-0.4,1.9-0.4c1.7,0,4.8,1.4,6,4C151.8,84.4,151.2,87.1,149,90.1
		C149,90,149,90.1,149,90.1z M139.7,79.4c0.1,0.1,0.2,0.1,0.3,0.2c-0.1,0.1-0.1,0.1-0.2,0.2C139.8,79.7,139.8,79.6,139.7,79.4z
		 M139.2,80.2c-1.2-0.2-2.2-0.8-3-1.6c-0.5-0.5-0.8-1-1.1-1.6l1-1c0.4,0.2,0.7,0.4,1.1,0.7c0,0,0,0.1,0.1,0.1c0,0.1,0.1,0.1,0.1,0.2
		l0.1,0.1c0.1,0.1,0.1,0.2,0.2,0.3c0,0,0,0,0.1,0.1s0.1,0.2,0.2,0.3c0,0,0,0.1,0.1,0.1c0.1,0.1,0.2,0.2,0.3,0.3l0,0l0,0l0,0l0,0
		c0.1,0.1,0.2,0.2,0.3,0.2c0,0,0,0,0.1,0.1C138.9,79.1,139.1,79.7,139.2,80.2z M151.5,88.2c-0.3,0.3-0.6,0.6-0.9,0.8
		c1.6-2.7,1.6-4.9,1.1-6.4c0.3-0.3,0.4-0.8,0.2-1.2c-0.2-0.4-0.6-0.5-1-0.4c-1.5-2.2-4.2-3.5-6.2-3.5c-0.6,0-1.3,0-1.9,0.3
		c-0.4-0.9-0.9-1.6-1.6-2.3c-0.8-0.8-1.8-1.5-2.9-1.9l0,0c0,0,0,0-0.1,0s-0.2-0.1-0.3-0.1h-0.1c-0.1,0-0.3-0.1-0.4-0.1
		c0,0,0,0-0.1,0s-0.2,0-0.4-0.1h-0.1c-0.1,0-0.3,0-0.4,0c-0.1,0-0.2,0-0.3,0.1s-0.1,0.2-0.1,0.3l0,0l0,0l0,0c0,0.2,0,0.3,0.1,0.5
		c0,0,0,0.1,0,0.2s0,0.2,0.1,0.3c0,0,0,0.1,0,0.2s0,0.2,0.1,0.3v0.1c0,0.1,0,0.2,0.1,0.2l0,0v0.1c-0.1-0.1-0.3-0.1-0.4-0.2l0,0l0,0
		c-0.1,0-0.3-0.1-0.4-0.2l0,0c-0.1,0-0.3-0.1-0.4-0.1l0,0c-0.1,0-0.3-0.1-0.4-0.1c0,0,0,0-0.1,0s-0.3,0-0.4-0.1
		c-0.1,0-0.2,0-0.3,0.1s-0.1,0.2-0.1,0.3l0,0l0,0l0,0c0,0.2,0,0.3,0.1,0.5c0,0.1,0,0.2,0,0.2c0,0.1,0,0.2,0,0.2
		c0,0.1,0.1,0.2,0.1,0.3c0,0,0,0.1,0,0.2s0.1,0.2,0.1,0.3c0,0,0,0,0,0.1l0,0c0.3,0.7,0.8,1.4,1.4,2c0.9,0.9,2.1,1.5,3.4,1.8
		c-0.5,0.6-0.9,1.3-1.4,2.1c-0.8,1.2-1.7,2.6-2.8,4.1c-3.4-4.4-3.1-10.7,0.9-14.8c2.2-2.2,5.1-3.3,7.9-3.3s5.7,1.1,7.9,3.3
		C155.9,76.7,155.9,83.8,151.5,88.2z"/>
	<g>
		<path class="st2" d="M139.1,86.7c-0.1,0-0.3-0.1-0.3-0.2c0,0-0.7-1.3-2-1c-0.2,0-0.4,0-0.5-0.2c0-0.2,0-0.4,0.2-0.5
			c1.5-0.4,2.5,0.7,2.8,1.3C139.4,86.3,139.3,86.5,139.1,86.7C139.3,86.7,139.2,86.7,139.1,86.7z"/>
	</g>
	<g>
		<path class="st2" d="M138.2,88.1c-0.1,0-0.3-0.1-0.3-0.2c0,0-0.7-1.3-2-1c-0.2,0-0.4,0-0.5-0.2c0-0.2,0-0.4,0.2-0.5
			c1.5-0.4,2.5,0.7,2.8,1.3C138.5,87.7,138.4,87.9,138.2,88.1C138.3,88.1,138.3,88.1,138.2,88.1z"/>
	</g>
	<g>
		<g>
			<g>
				<path class="st2" d="M148.2,74.4h-0.1c-0.2-0.1-0.3-0.3-0.2-0.5v-0.2c0.1-0.2,0.3-0.3,0.5-0.2c0.2,0.1,0.3,0.3,0.2,0.5v0.2
					C148.5,74.3,148.4,74.4,148.2,74.4z"/>
			</g>
			<g>
				<path class="st2" d="M147.3,77h-0.1c-0.2-0.1-0.3-0.3-0.2-0.5l0.3-1c0.1-0.2,0.3-0.3,0.5-0.2c0.2,0.1,0.3,0.3,0.2,0.5l-0.3,1
					C147.6,76.9,147.5,77,147.3,77z"/>
			</g>
		</g>
		<g>
			<g>
				<g>
					<path class="st2" d="M143.2,73.7c-0.1,0-0.3-0.1-0.3-0.2l-0.1-0.2c-0.1-0.2,0-0.4,0.2-0.5s0.4,0,0.5,0.2l0.1,0.2
						c0.1,0.2,0,0.4-0.2,0.5C143.3,73.7,143.3,73.7,143.2,73.7z"/>
				</g>
				<g>
					<path class="st2" d="M144.4,76.2c-0.1,0-0.3-0.1-0.3-0.2l-0.5-1c-0.1-0.2,0-0.4,0.2-0.5s0.4,0,0.5,0.2l0.5,1
						c0.1,0.2,0,0.4-0.2,0.5C144.5,76.1,144.4,76.2,144.4,76.2z"/>
				</g>
			</g>
			<g>
				<g>
					<path class="st2" d="M152.6,76.9c-0.1,0-0.3-0.1-0.3-0.2c-0.1-0.2,0-0.4,0.2-0.5l0.2-0.1c0.2-0.1,0.4,0,0.5,0.2s0,0.4-0.2,0.5
						l-0.2,0.1C152.7,76.9,152.7,76.9,152.6,76.9z"/>
				</g>
				<g>
					<path class="st2" d="M150.2,78.1c-0.1,0-0.3-0.1-0.3-0.2c-0.1-0.2,0-0.4,0.2-0.5l1-0.5c0.2-0.1,0.4,0,0.5,0.2s0,0.4-0.2,0.5
						l-1,0.5C150.3,78.1,150.3,78.1,150.2,78.1z"/>
				</g>
			</g>
		</g>
	</g>
</g>
</svg>
