<?xml version="1.0" encoding="utf-8"?>
<!-- Generator: Adobe Illustrator 21.1.0, SVG Export Plug-In . SVG Version: 6.00 Build 0)  -->
<svg version="1.1" id="Layer_1" xmlns="http://www.w3.org/2000/svg" xmlns:xlink="http://www.w3.org/1999/xlink" x="0px" y="0px"
	 viewBox="0 0 139.9 160" style="enable-background:new 0 0 139.9 160;" xml:space="preserve">
<style type="text/css">
	.st0{fill:#FF1A1A;}
	.st1{fill:#D60909;}
	.st2{fill:#FFFFFF;}
	.st3{fill:#D8E5EA;}
	.st4{fill:#33363A;}
	.st5{fill:#A7BBC1;}
</style>
<g>
	<g>
		<g>
			<circle class="st0" cx="70" cy="63.2" r="61.7"/>
		</g>
		<g>
			<ellipse class="st1" cx="70" cy="63.2" rx="61.7" ry="47.2"/>
		</g>
		<g>
			<path class="st2" d="M8.3,63.2c0,34.1,27.6,61.7,61.7,61.7s61.7-27.6,61.7-61.7H8.3z"/>
		</g>
		<g>
			<path class="st3" d="M70,110.4c34.1,0,61.7-21.1,61.7-47.2H8.3C8.3,89.2,35.9,110.4,70,110.4z"/>
		</g>
		<path class="st4" d="M70,0C35.1,0,6.8,28.3,6.8,63.2c0,34.8,28.3,63.2,63.2,63.2s63.2-28.3,63.2-63.2C133.1,28.3,104.8,0,70,0z
			 M70,3c32.7,0,59.3,26.2,60.1,58.7H9.8C10.6,29.2,37.3,3,70,3z M70,123.3c-32.7,0-59.4-26.1-60.2-58.6h120.3
			C129.3,97.2,102.6,123.3,70,123.3z"/>
		<g>
			<circle class="st5" cx="70" cy="68.9" r="16.8"/>
		</g>
		<g>
			<circle class="st2" cx="70" cy="63.2" r="16.8"/>
		</g>
		<g>
			<path class="st3" d="M58.1,75c-6.5-6.5-6.5-17.2,0-23.7s17.2-6.5,23.7,0"/>
		</g>
		<g>
			<path class="st4" d="M70,81.4c-4.9,0-9.5-1.9-12.9-5.3C50,69,50,57.4,57.1,50.3s18.7-7.1,25.8,0l0,0c3.4,3.5,5.4,8,5.4,12.9
				s-1.9,9.5-5.4,12.9C79.4,79.5,74.8,81.4,70,81.4z M70,47.9c-3.9,0-7.8,1.5-10.8,4.5c-6,6-6,15.6,0,21.6c2.9,2.9,6.7,4.5,10.8,4.5
				s7.9-1.7,10.8-4.5c2.9-2.9,4.5-6.7,4.5-10.8s-1.6-7.9-4.5-10.8C77.8,49.4,73.9,47.9,70,47.9z"/>
		</g>
		<g>
			<path class="st2" d="M75.7,68.9c-3.1,3.1-8.3,3.1-11.4,0c-3.1-3.2-3.1-8.3,0-11.4c3.1-3.2,8.3-3.1,11.4,0S78.8,65.7,75.7,68.9z"
				/>
		</g>
		<g>
			<path class="st3" d="M64.3,57.5c3.1-3.2,8.3-3.1,11.4,0s3.1,8.3,0,11.4"/>
		</g>
		<g>
			<path class="st4" d="M70,72.7c-2.5,0-4.9-0.9-6.8-2.8c-3.7-3.7-3.7-9.8,0-13.5c1.8-1.8,4.2-2.8,6.8-2.8l0,0c2.6,0,5,1,6.8,2.8
				c3.7,3.7,3.7,9.8,0,13.5l0,0C74.9,71.8,72.4,72.7,70,72.7z M70,56.6c-1.8,0-3.4,0.7-4.6,1.9c-2.6,2.6-2.6,6.7,0,9.3
				c2.6,2.6,6.7,2.6,9.3,0s2.6-6.7,0-9.3C73.4,57.3,71.7,56.6,70,56.6L70,56.6z"/>
		</g>
	</g>
	<g>
		<g>
			<path class="st4" d="M41.4,149.1v9.2c0,0.8,0.7,1.5,1.5,1.5h12.7c0.9,0,1.5-0.7,1.5-1.5v-1.5H44.4c0,0,0-7.7,0-7.8v-7.8h11.2
				c0.8,0,1.5-0.7,1.5-1.5l0,0c0-0.8-0.6-1.5-1.5-1.5H42.9c-0.8,0-1.5,0.7-1.5,1.5V149.1z"/>
			<g>
				<path class="st4" d="M57.1,156.9l0-7.5c0.1-0.6-3-1.5-3-0.8v8.3H57.1z"/>
			</g>
			<g>
				<path class="st4" d="M57.1,149.1c0-0.8-0.7-1.5-1.7-1.5h-5.7c-0.6,0-1.2,0.7-1.2,1.5s0.6,1.5,1.2,1.5h5.7
					C56.4,150.6,57.1,149.9,57.1,149.1L57.1,149.1z"/>
			</g>
		</g>
		<path class="st4" d="M63.6,159.9h12.7c0.8,0,1.5-0.7,1.5-1.5v-18.5c0-0.8-0.7-1.5-1.5-1.5s-1.5,0.7-1.5,1.5v16.9h-9.7v-17.1
			c0-0.8-0.7-1.5-1.5-1.5c-0.8,0-1.5,0.7-1.5,1.5v18.6C62.1,159.2,62.7,159.9,63.6,159.9z"/>
		<path class="st4" d="M84.3,138.4L84.3,138.4c-0.8,0-1.5,0.7-1.5,1.5v9.2v9.2c0,0.8,0.7,1.5,1.5,1.5H97c0.9,0,1.5-0.7,1.5-1.5l0,0
			c0-0.8-0.7-1.5-1.5-1.5H85.8c0,0,0-7.7,0-7.8v-7.8l0-1.5C85.8,139,85.1,138.4,84.3,138.4z"/>
		<path class="st4" d="M117.7,138.3H105c-0.8,0-1.5,0.7-1.5,1.5v18.5c0,0.8,0.7,1.5,1.5,1.5s1.5-0.7,1.5-1.5v-7.7h9.7v7.8
			c0,0.8,0.7,1.5,1.5,1.5s1.5-0.7,1.5-1.5v-18.6C119.2,139,118.6,138.3,117.7,138.3z M106.5,147.6v-6.3h9.7v6.3H106.5z"/>
		<path class="st4" d="M139.9,149.2v-9.3c0-0.8-0.7-1.5-1.5-1.5h-12.7c-0.8,0-1.5,0.7-1.5,1.5v18.5c0,0.8,0.7,1.5,1.5,1.5
			s1.5-0.7,1.5-1.5v-7.7h4l5.9,8.6c0.3,0.4,0.8,0.6,1.2,0.6c0.3,0,0.6-0.1,0.8-0.3c0.7-0.5,0.9-1.4,0.4-2.1l-4.6-6.8h3.5
			C139.2,150.7,139.9,150,139.9,149.2z M127.2,141.4h9.7v6.3h-9.7V141.4z"/>
		<path class="st4" d="M15.7,149.3V140c0-0.8-0.7-1.5-1.5-1.5H1.5c-0.8,0-1.5,0.7-1.5,1.5v18.5c0,0.8,0.7,1.5,1.5,1.5
			s1.5-0.7,1.5-1.5v-7.7h4l5.9,8.6c0.3,0.4,0.8,0.6,1.2,0.6c0.3,0,0.6-0.1,0.8-0.3c0.7-0.5,0.9-1.4,0.4-2.1l-4.6-6.8h3.5
			C15,150.8,15.7,150.1,15.7,149.3z M3,141.5h9.7v6.3H3V141.5z"/>
		<g>
			<path class="st4" d="M20.7,149.2v9.2c0,0.8,0.7,1.5,1.5,1.5h12.7c0.9,0,1.5-0.7,1.5-1.5l0,0c0-0.8-0.7-1.5-1.5-1.5H23.7
				c0,0,0-7.8,0-7.8v-7.8h11.2c0.8,0,1.5-0.7,1.5-1.5l0,0c0-0.8-0.6-1.5-1.5-1.5H22.2c-0.8,0-1.5,0.7-1.5,1.5V149.2z"/>
			<g>
				<path class="st4" d="M23.6,150.7h9.2c0.8,0,1.5-0.7,1.5-1.5s-0.7-1.5-1.5-1.5h-9.3L23.6,150.7z"/>
			</g>
		</g>
	</g>
</g>
</svg>
